<?xml version="1.0" encoding="utf-8"?>
<!-- Generator: Adobe Illustrator 15.0.2, SVG Export Plug-In . SVG Version: 6.00 Build 0)  -->
<!DOCTYPE svg PUBLIC "-//W3C//DTD SVG 1.1//EN" "http://www.w3.org/Graphics/SVG/1.1/DTD/svg11.dtd">
<svg version="1.1" xmlns="http://www.w3.org/2000/svg" xmlns:xlink="http://www.w3.org/1999/xlink" x="0px" y="0px"
	 width="294.333px" height="99.333px" viewBox="0 0 294.333 99.333" enable-background="new 0 0 294.333 99.333"
	 xml:space="preserve">
<g id="vit" display="none">
	
		<image display="inline" overflow="visible" width="287" height="90" xlink:href="hultsfreds-gymnasium.png"  transform="matrix(1 0 0 1 7.3335 9.333)">
	</image>
	<path display="inline" opacity="0.6" fill="#FFFFFF" d="M126.606,58.54l-98.51,26.545L15.521,38.422l98.511-26.546L126.606,58.54z
		 M53.677,49.896c-1.224-0.852-2.645-1.06-4.263-0.624c-0.693,0.186-1.36,0.54-2.002,1.061c-0.642,0.521-1.327,1.335-2.057,2.444
		l-0.064,0.018l-0.443-11.24l-0.224-0.196l-5.794,1.937l0.04,1.034c0.361-0.052,0.716-0.108,1.065-0.168
		c0.348-0.06,0.646-0.072,0.896-0.036c0.261,0.043,0.484,0.152,0.668,0.325c0.184,0.173,0.327,0.452,0.43,0.834
		c0.049,0.182,0.078,0.365,0.088,0.55c0.01,0.186,0.022,0.408,0.035,0.668l0.757,19.173c0.38,0.355,0.782,0.66,1.206,0.918
		c0.422,0.257,0.921,0.455,1.495,0.597c0.561,0.137,1.21,0.186,1.948,0.152c0.737-0.033,1.563-0.174,2.479-0.42
		c1.212-0.326,2.287-0.91,3.223-1.751c0.937-0.84,1.708-1.855,2.311-3.045c0.587-1.162,0.962-2.46,1.124-3.89
		c0.162-1.431,0.053-2.854-0.329-4.27C55.762,52.104,54.9,50.748,53.677,49.896z M53.502,58.513
		c0.016,1.206-0.145,2.347-0.483,3.419c-0.307,0.984-0.763,1.824-1.37,2.519c-0.607,0.694-1.331,1.155-2.173,1.381
		c-0.447,0.122-0.875,0.168-1.282,0.142c-0.408-0.028-0.793-0.124-1.158-0.288c-0.295-0.126-0.559-0.295-0.787-0.507
		c-0.229-0.212-0.388-0.421-0.477-0.625l-0.43-10.041c0.188-0.279,0.392-0.594,0.612-0.944c0.22-0.351,0.458-0.663,0.716-0.938
		c0.294-0.308,0.589-0.569,0.885-0.787c0.296-0.216,0.63-0.375,1.003-0.475c0.629-0.17,1.188-0.195,1.678-0.076
		c0.489,0.12,0.911,0.348,1.265,0.687c0.337,0.321,0.635,0.751,0.889,1.294c0.255,0.542,0.458,1.095,0.61,1.659
		C53.319,56.113,53.487,57.306,53.502,58.513z M69.649,44.821c-0.907-0.424-2.125-0.43-3.656-0.017
		c-1.383,0.373-2.564,1.017-3.543,1.931c-0.98,0.915-1.729,1.972-2.25,3.175c-0.536,1.229-0.85,2.508-0.941,3.84
		c-0.092,1.333,0.043,2.669,0.405,4.009c0.522,1.938,1.422,3.299,2.699,4.085c1.278,0.784,2.858,0.924,4.741,0.418
		c1.372-0.37,2.591-1.114,3.657-2.235c1.067-1.12,1.851-2.443,2.352-3.969l-1.089-0.426c-0.503,1.265-1.089,2.271-1.76,3.023
		c-0.669,0.751-1.537,1.271-2.6,1.556c-1.202,0.324-2.233,0.126-3.094-0.594c-0.86-0.72-1.518-1.92-1.971-3.601
		c1.183-0.479,2.249-0.965,3.199-1.461c0.95-0.497,1.871-1.059,2.762-1.687c1.221-0.843,2.076-1.764,2.566-2.765
		c0.488-1.001,0.58-2.065,0.276-3.194C71.141,45.941,70.557,45.245,69.649,44.821z M68.404,50.038
		c-0.238,0.832-0.736,1.595-1.496,2.29c-0.531,0.484-1.237,0.951-2.121,1.399c-0.883,0.448-1.682,0.825-2.397,1.133
		c-0.276-2.167-0.064-4.097,0.638-5.788s1.69-2.709,2.967-3.053c0.223-0.061,0.446-0.103,0.667-0.128
		c0.221-0.026,0.445,0,0.67,0.074c0.212,0.068,0.409,0.207,0.591,0.413c0.181,0.208,0.327,0.518,0.439,0.932
		C68.628,48.296,68.642,49.206,68.404,50.038z M82.653,57.62c0.603-0.386,1.239-0.822,1.906-1.31l-0.043-1.237
		c-0.248,0.181-0.612,0.373-1.093,0.576c-0.482,0.204-0.861,0.345-1.137,0.417c-0.766,0.207-1.332,0.213-1.697,0.022
		c-0.365-0.193-0.626-0.582-0.784-1.166c-0.071-0.266-0.126-0.596-0.165-0.991c-0.038-0.394-0.063-0.807-0.076-1.237l-0.31-9.343
		l4.404-1.187L83.6,40.625l-4.441,1.197l-0.18-4.964L76.11,37.63l0.146,4.973l-2.912,0.785L73.4,44.93l2.853-0.77l0.385,11.324
		c0.021,0.291,0.045,0.551,0.072,0.777c0.027,0.226,0.074,0.461,0.139,0.706c0.207,0.765,0.599,1.291,1.177,1.572
		c0.578,0.284,1.373,0.29,2.383,0.018C81.302,58.316,82.05,58.003,82.653,57.62z M98.54,52.884c0.567,0.327,1.235,0.386,2.003,0.18
		c0.671-0.181,1.217-0.42,1.641-0.716c0.423-0.297,1.063-0.766,1.918-1.407l-0.035-1.085c-0.183,0.129-0.451,0.276-0.807,0.44
		c-0.356,0.164-0.635,0.274-0.837,0.328c-0.608,0.164-1.068,0.174-1.381,0.03c-0.312-0.145-0.55-0.52-0.714-1.126
		c-0.06-0.223-0.109-0.584-0.146-1.083c-0.038-0.499-0.058-0.924-0.061-1.277l-0.346-10.954l-0.256-0.187l-2.725,1.539
		c-0.463-0.149-1.063-0.232-1.803-0.25s-1.487,0.076-2.242,0.278c-1.19,0.321-2.27,0.923-3.24,1.807
		c-0.97,0.883-1.736,1.909-2.3,3.076c-0.594,1.222-0.966,2.522-1.12,3.898c-0.153,1.377-0.052,2.725,0.304,4.044
		c0.516,1.917,1.361,3.31,2.535,4.181c1.175,0.871,2.532,1.098,4.071,0.684c0.573-0.154,1.078-0.396,1.513-0.725
		c0.436-0.328,0.824-0.682,1.167-1.059c0.363-0.383,0.667-0.765,0.913-1.145c0.244-0.38,0.458-0.698,0.641-0.952l0.111-0.03
		C97.574,52.055,97.973,52.558,98.54,52.884z M97.196,49.805c-0.591,1.062-1.167,1.847-1.729,2.359
		c-0.563,0.512-1.141,0.847-1.734,1.007c-0.585,0.157-1.098,0.176-1.54,0.056c-0.443-0.121-0.819-0.356-1.129-0.707
		c-0.325-0.358-0.591-0.776-0.8-1.257c-0.209-0.48-0.402-1.045-0.577-1.695c-0.318-1.182-0.457-2.394-0.416-3.638
		c0.041-1.245,0.23-2.346,0.565-3.304c0.353-1.02,0.827-1.884,1.423-2.593c0.597-0.709,1.283-1.168,2.06-1.377
		c0.564-0.152,1.053-0.198,1.469-0.139c0.415,0.06,0.765,0.194,1.049,0.402c0.309,0.214,0.543,0.471,0.704,0.77
		c0.16,0.3,0.288,0.624,0.382,0.976L97.196,49.805z"/>
</g>
<g id="svart">
	<g>
		<defs>
			<rect id="SVGID_1_" x="7.333" y="9.333" width="287" height="90.334"/>
		</defs>
		<clipPath id="SVGID_2_">
			<use xlink:href="#SVGID_1_"  overflow="visible"/>
		</clipPath>
		<g transform="matrix(1 0 0 1 5.730794e-007 4.384065e-007)" clip-path="url(#SVGID_2_)">
			
				<image overflow="visible" width="318" height="169" xlink:href="hultsfreds-gymnasium-svart.png"  transform="matrix(0.998 0 0 0.998 -11 -5.6675)">
			</image>
		</g>
	</g>
	<path opacity="0.8" fill="#D9050D" d="M113.606,47.664l-98.51,26.544L2.521,27.546L101.033,1L113.606,47.664z M40.677,39.019
		c-1.224-0.852-2.645-1.06-4.263-0.624c-0.693,0.186-1.36,0.54-2.002,1.061c-0.642,0.521-1.327,1.335-2.057,2.444l-0.064,0.018
		l-0.443-11.24l-0.224-0.196l-5.794,1.937l0.04,1.034c0.361-0.052,0.716-0.108,1.065-0.168c0.348-0.06,0.646-0.072,0.896-0.036
		c0.261,0.043,0.484,0.152,0.668,0.325c0.184,0.173,0.327,0.452,0.43,0.834c0.049,0.182,0.078,0.365,0.088,0.55
		c0.01,0.186,0.022,0.408,0.035,0.668L29.809,54.8c0.38,0.355,0.782,0.66,1.206,0.918c0.422,0.256,0.921,0.455,1.495,0.596
		c0.561,0.137,1.21,0.186,1.948,0.152c0.737-0.033,1.563-0.174,2.479-0.42c1.212-0.326,2.287-0.91,3.223-1.75
		c0.937-0.84,1.708-1.855,2.311-3.045c0.587-1.162,0.962-2.46,1.124-3.89c0.162-1.431,0.053-2.854-0.329-4.27
		C42.762,41.228,41.9,39.871,40.677,39.019z M40.502,47.636c0.016,1.206-0.145,2.347-0.483,3.419
		c-0.307,0.984-0.763,1.824-1.37,2.519c-0.607,0.694-1.331,1.156-2.173,1.38c-0.447,0.123-0.875,0.168-1.282,0.143
		c-0.408-0.029-0.793-0.125-1.158-0.289c-0.295-0.125-0.559-0.295-0.787-0.506c-0.229-0.212-0.388-0.421-0.477-0.625l-0.43-10.041
		c0.188-0.279,0.392-0.594,0.612-0.944c0.22-0.351,0.458-0.663,0.716-0.938c0.294-0.308,0.589-0.569,0.885-0.787
		c0.296-0.216,0.63-0.375,1.003-0.475c0.629-0.17,1.188-0.195,1.678-0.076c0.489,0.12,0.911,0.348,1.265,0.687
		c0.337,0.321,0.635,0.751,0.889,1.294c0.255,0.542,0.458,1.095,0.61,1.659C40.319,45.237,40.487,46.429,40.502,47.636z
		 M56.649,33.945c-0.907-0.424-2.125-0.43-3.656-0.017c-1.383,0.373-2.564,1.017-3.543,1.931c-0.98,0.915-1.729,1.972-2.25,3.175
		c-0.536,1.229-0.85,2.508-0.941,3.84c-0.092,1.333,0.043,2.669,0.405,4.009c0.522,1.938,1.422,3.299,2.699,4.085
		c1.278,0.784,2.858,0.924,4.741,0.418c1.372-0.37,2.591-1.114,3.657-2.235c1.067-1.12,1.851-2.443,2.352-3.969l-1.089-0.426
		c-0.503,1.265-1.089,2.271-1.76,3.023c-0.669,0.751-1.537,1.271-2.6,1.556c-1.202,0.324-2.233,0.126-3.094-0.594
		c-0.86-0.72-1.518-1.92-1.971-3.601c1.183-0.479,2.249-0.965,3.199-1.461c0.95-0.497,1.871-1.059,2.762-1.687
		c1.221-0.843,2.076-1.764,2.566-2.765c0.488-1.001,0.58-2.065,0.276-3.194C58.141,35.065,57.557,34.369,56.649,33.945z
		 M55.404,39.162c-0.238,0.832-0.736,1.595-1.496,2.29c-0.531,0.484-1.237,0.951-2.121,1.399c-0.883,0.448-1.682,0.825-2.397,1.133
		c-0.276-2.167-0.064-4.097,0.638-5.788s1.69-2.709,2.967-3.053c0.223-0.061,0.446-0.103,0.667-0.128
		c0.221-0.026,0.445,0,0.67,0.074c0.212,0.068,0.409,0.207,0.591,0.413c0.181,0.208,0.327,0.518,0.439,0.932
		C55.628,37.42,55.642,38.329,55.404,39.162z M69.653,46.744c0.603-0.386,1.239-0.822,1.906-1.31l-0.043-1.237
		c-0.248,0.181-0.612,0.373-1.093,0.576c-0.482,0.204-0.861,0.345-1.137,0.417c-0.766,0.207-1.332,0.213-1.697,0.022
		c-0.365-0.193-0.626-0.582-0.784-1.166c-0.071-0.266-0.126-0.596-0.165-0.991c-0.038-0.394-0.063-0.807-0.076-1.237l-0.31-9.343
		l4.404-1.187L70.6,29.748l-4.441,1.197l-0.18-4.964l-2.869,0.773l0.146,4.973l-2.912,0.785l0.055,1.542l2.853-0.77l0.385,11.324
		c0.021,0.291,0.045,0.551,0.072,0.777c0.027,0.226,0.074,0.461,0.139,0.706c0.207,0.765,0.599,1.291,1.177,1.572
		c0.578,0.284,1.373,0.29,2.383,0.018C68.302,47.44,69.05,47.126,69.653,46.744z M85.54,42.007c0.567,0.327,1.235,0.386,2.003,0.18
		c0.671-0.181,1.217-0.42,1.641-0.716c0.423-0.297,1.063-0.766,1.918-1.407l-0.035-1.085c-0.183,0.129-0.451,0.276-0.807,0.44
		c-0.356,0.164-0.635,0.274-0.837,0.328c-0.608,0.164-1.068,0.174-1.381,0.03c-0.312-0.145-0.55-0.52-0.714-1.126
		c-0.06-0.223-0.109-0.584-0.146-1.083c-0.038-0.499-0.058-0.924-0.061-1.277l-0.346-10.954l-0.256-0.187l-2.725,1.539
		c-0.463-0.149-1.063-0.232-1.803-0.25s-1.487,0.076-2.242,0.278c-1.19,0.321-2.27,0.923-3.24,1.807
		c-0.97,0.883-1.736,1.909-2.3,3.076c-0.594,1.222-0.966,2.522-1.12,3.898c-0.153,1.377-0.052,2.725,0.304,4.044
		c0.516,1.917,1.361,3.31,2.535,4.181c1.175,0.871,2.532,1.098,4.071,0.684c0.573-0.154,1.078-0.396,1.513-0.725
		c0.436-0.328,0.824-0.682,1.167-1.059c0.363-0.383,0.667-0.765,0.913-1.145c0.244-0.38,0.458-0.698,0.641-0.952l0.111-0.03
		C84.574,41.178,84.973,41.682,85.54,42.007z M84.196,38.929c-0.591,1.062-1.167,1.847-1.729,2.359
		c-0.563,0.512-1.141,0.847-1.734,1.007c-0.585,0.157-1.098,0.176-1.54,0.056c-0.443-0.121-0.819-0.356-1.129-0.707
		c-0.325-0.358-0.591-0.776-0.8-1.257c-0.209-0.48-0.402-1.045-0.577-1.695c-0.318-1.182-0.457-2.394-0.416-3.638
		c0.041-1.245,0.23-2.346,0.565-3.304c0.353-1.02,0.827-1.884,1.423-2.593c0.597-0.709,1.283-1.168,2.06-1.377
		c0.564-0.152,1.053-0.198,1.469-0.139c0.415,0.06,0.765,0.194,1.049,0.402c0.309,0.214,0.543,0.471,0.704,0.77
		c0.16,0.3,0.288,0.624,0.382,0.976L84.196,38.929z"/>
</g>
</svg>
