<?xml version="1.0" encoding="utf-8"?>
<!-- Generator: Adobe Illustrator 28.2.0, SVG Export Plug-In . SVG Version: 6.00 Build 0)  -->
<svg version="1.1" id="Layer_1" xmlns="http://www.w3.org/2000/svg" xmlns:xlink="http://www.w3.org/1999/xlink" x="0px" y="0px"
	 viewBox="0 0 40 40" style="enable-background:new 0 0 40 40;" xml:space="preserve">
<path d="M29.1,12c-0.2-0.1-0.4-0.2-0.6-0.3c-0.5-0.3-1-0.7-1.4-1.2c-1.1-1.2-1.5-2.4-1.6-3.3h0C25.4,6.5,25.5,6,25.5,6h-4.8v18.6
	c0,0.2,0,0.5,0,0.7c0,0,0,0.1,0,0.1c0,0,0,0,0,0c0,0,0,0,0,0c-0.1,1.4-0.9,2.6-2.1,3.2c-0.6,0.3-1.3,0.5-2,0.5
	c-2.2,0-4.1-1.8-4.1-4.1s1.8-4.1,4.1-4.1c0.4,0,0.8,0.1,1.2,0.2l0-4.9c-2.5-0.3-5,0.4-6.9,2c-0.8,0.7-1.5,1.6-2.1,2.5
	c-0.2,0.3-1,1.8-1.1,4c-0.1,1.3,0.3,2.6,0.5,3.2v0c0.1,0.3,0.6,1.4,1.3,2.4c0.6,0.8,1.3,1.4,2.1,2v0l0,0c2.3,1.6,4.9,1.5,4.9,1.5
	c0.4,0,1.9,0,3.6-0.8c1.9-0.9,3-2.2,3-2.2c0.7-0.8,1.2-1.7,1.6-2.7c0.4-1.1,0.6-2.5,0.6-3.1v-9.9c0.1,0,0.8,0.5,0.8,0.5
	s1.1,0.7,2.9,1.2c1.3,0.3,2.9,0.4,2.9,0.4v-4.8C31.5,12.8,30.3,12.6,29.1,12z"/>
</svg>
