<?xml version="1.0" encoding="utf-8"?>
<!-- Generator: Adobe Illustrator 28.2.0, SVG Export Plug-In . SVG Version: 6.00 Build 0)  -->
<svg version="1.1" id="Layer_1" xmlns="http://www.w3.org/2000/svg" xmlns:xlink="http://www.w3.org/1999/xlink" x="0px" y="0px"
	 viewBox="0 0 108 108" style="enable-background:new 0 0 108 108;" xml:space="preserve">
<style type="text/css">
	.st0{fill:#FFFFFF;}
	.st1{fill:#3E3E3F;}
</style>
<g>
	<path class="st0" d="M104,54c0,27.6-22.4,50-50,50C26.4,104,4,81.6,4,54C4,26.4,26.4,4,54,4C81.6,4,104,26.4,104,54z"/>
	<path class="st1" d="M65.7,49.3c0-4.5-1.6-8.4-4.8-11.6c-3.2-3.2-7.1-4.8-11.6-4.8c-4.5,0-8.4,1.6-11.6,4.8
		c-3.2,3.2-4.8,7-4.8,11.6c0,4.5,1.6,8.4,4.8,11.6c3.2,3.2,7.1,4.8,11.6,4.8c4.5,0,8.4-1.6,11.6-4.8C64.1,57.7,65.7,53.8,65.7,49.3z
		 M84.4,79.8c0,1.3-0.4,2.4-1.4,3.3c-0.9,0.9-2,1.4-3.3,1.4c-1.3,0-2.4-0.5-3.3-1.4L63.9,70.6c-4.3,3-9.2,4.5-14.6,4.5
		c-3.5,0-6.8-0.7-10-2c-3.2-1.3-5.9-3.2-8.2-5.5c-2.3-2.3-4.1-5-5.5-8.2c-1.3-3.2-2-6.5-2-10c0-3.5,0.7-6.8,2-10
		c1.4-3.2,3.2-5.9,5.5-8.2c2.3-2.3,5.1-4.2,8.2-5.5c3.2-1.4,6.5-2,10-2c3.5,0,6.8,0.7,10,2c3.2,1.4,5.9,3.2,8.2,5.5
		c2.3,2.3,4.1,5,5.5,8.2c1.4,3.2,2,6.5,2,10c0,5.4-1.5,10.2-4.5,14.6l12.5,12.5C84,77.4,84.4,78.5,84.4,79.8z"/>
</g>
</svg>
