<?xml version="1.0" encoding="utf-8"?>
<!-- Generator: Adobe Illustrator 15.0.2, SVG Export Plug-In . SVG Version: 6.00 Build 0)  -->
<!DOCTYPE svg PUBLIC "-//W3C//DTD SVG 1.1//EN" "http://www.w3.org/Graphics/SVG/1.1/DTD/svg11.dtd">
<svg version="1.1" id="Lager_1" xmlns="http://www.w3.org/2000/svg" xmlns:xlink="http://www.w3.org/1999/xlink" x="0px" y="0px"
	 width="1100px" height="600px" viewBox="0.188 0 1100 600" enable-background="new 0.188 0 1100 600" xml:space="preserve">
<path fill="#3E3E3F" d="M13.983,566.08c0,0.261-0.092,0.479-0.275,0.664l-1.329,1.33c-0.183,0.182-0.403,0.271-0.665,0.271
	c-0.262,0-0.482-0.093-0.664-0.271l-2.875-2.877L5.3,568.074c-0.182,0.182-0.403,0.271-0.664,0.271
	c-0.261,0-0.482-0.093-0.664-0.271l-1.329-1.33c-0.182-0.186-0.274-0.403-0.274-0.664c0-0.262,0.092-0.482,0.274-0.666l2.874-2.872
	l-2.874-2.874c-0.182-0.184-0.274-0.403-0.274-0.664c0-0.262,0.092-0.481,0.274-0.663l1.329-1.332
	c0.182-0.184,0.403-0.271,0.664-0.271c0.261,0,0.482,0.092,0.664,0.271l2.875,2.874l2.875-2.874
	c0.181-0.184,0.402-0.271,0.664-0.271c0.262,0,0.482,0.092,0.665,0.271l1.329,1.332c0.183,0.182,0.275,0.401,0.275,0.663
	c0,0.261-0.092,0.48-0.275,0.664l-2.873,2.874l2.873,2.872C13.89,565.596,13.983,565.818,13.983,566.08z"/>
<path d="M1.701,437.622c0-0.156,0.058-0.292,0.171-0.402l4.033-4.034c0.114-0.114,0.249-0.172,0.405-0.172
	c0.156,0,0.291,0.058,0.405,0.172l4.034,4.034c0.114,0.11,0.171,0.246,0.171,0.402c0,0.157-0.058,0.293-0.171,0.405
	c-0.114,0.114-0.248,0.172-0.405,0.172H2.277c-0.157,0-0.292-0.058-0.405-0.172C1.758,437.916,1.701,437.779,1.701,437.622z"/>
<path fill="#FFFFFF" d="M32.574,437.496c0-0.156,0.058-0.292,0.172-0.402l4.033-4.034c0.114-0.114,0.249-0.171,0.405-0.171
	c0.156,0,0.291,0.058,0.405,0.171l4.033,4.034c0.114,0.111,0.171,0.246,0.171,0.402c0,0.157-0.057,0.293-0.171,0.406
	c-0.113,0.113-0.248,0.171-0.404,0.171h-8.067c-0.157,0-0.292-0.058-0.405-0.171C32.631,437.789,32.574,437.653,32.574,437.496z"/>
<path fill="#B0B0B0" d="M65.295,437.495c0-0.156,0.057-0.292,0.171-0.402l4.033-4.035c0.114-0.114,0.249-0.171,0.406-0.171
	c0.156,0,0.291,0.058,0.404,0.171l4.034,4.035c0.113,0.11,0.17,0.246,0.17,0.402c0,0.157-0.057,0.293-0.17,0.405
	c-0.114,0.114-0.249,0.171-0.405,0.171h-8.067c-0.157,0-0.292-0.058-0.405-0.171C65.352,437.789,65.295,437.652,65.295,437.495z"/>
<path fill="#B0B0B0" d="M74.514,454.163c0,0.157-0.057,0.292-0.171,0.403L70.31,458.6c-0.114,0.116-0.249,0.174-0.405,0.174
	c-0.156,0-0.291-0.058-0.405-0.174l-4.034-4.032c-0.114-0.112-0.171-0.246-0.171-0.403c0-0.156,0.057-0.293,0.171-0.404
	c0.114-0.116,0.248-0.171,0.405-0.171h8.067c0.157,0,0.292,0.056,0.405,0.171C74.457,453.87,74.514,454.007,74.514,454.163z"/>
<path fill="#FFFFFF" d="M41.793,454.163c0,0.157-0.057,0.292-0.172,0.403l-4.033,4.032c-0.114,0.116-0.249,0.174-0.405,0.174
	c-0.156,0-0.291-0.058-0.405-0.174l-4.034-4.032c-0.114-0.112-0.171-0.246-0.171-0.403c0-0.156,0.058-0.293,0.171-0.404
	c0.114-0.116,0.248-0.171,0.405-0.171h8.067c0.157,0,0.292,0.056,0.404,0.171C41.736,453.87,41.793,454.007,41.793,454.163z"/>
<path d="M10.92,454.506c0,0.156-0.058,0.293-0.172,0.403l-4.033,4.035c-0.114,0.114-0.249,0.172-0.405,0.172
	c-0.157,0-0.291-0.058-0.405-0.172l-4.033-4.034c-0.114-0.11-0.171-0.247-0.171-0.403s0.058-0.292,0.171-0.403
	c0.113-0.115,0.248-0.173,0.404-0.173h8.067c0.157,0,0.292,0.058,0.405,0.173C10.863,454.214,10.92,454.349,10.92,454.506z"/>
<path fill="#FFFFFF" d="M50.592,566.08c0,0.261-0.092,0.479-0.275,0.664l-1.329,1.33c-0.183,0.182-0.403,0.271-0.665,0.271
	c-0.262,0-0.482-0.093-0.664-0.271l-2.875-2.877l-2.875,2.877c-0.182,0.182-0.403,0.271-0.664,0.271
	c-0.261,0-0.482-0.093-0.664-0.271l-1.33-1.33c-0.182-0.186-0.274-0.403-0.274-0.664c0-0.262,0.092-0.482,0.274-0.666l2.874-2.871
	l-2.874-2.875c-0.182-0.184-0.274-0.403-0.274-0.664c0-0.262,0.092-0.479,0.274-0.663l1.33-1.332
	c0.182-0.184,0.403-0.271,0.664-0.271c0.261,0,0.482,0.092,0.664,0.271l2.875,2.874l2.875-2.874
	c0.181-0.184,0.402-0.271,0.664-0.271c0.262,0,0.482,0.092,0.665,0.271l1.329,1.332c0.183,0.184,0.275,0.401,0.275,0.663
	c0,0.261-0.092,0.48-0.275,0.664l-2.873,2.875l2.873,2.871C50.5,565.596,50.592,565.818,50.592,566.08z"/>
<path fill="#B0B0B0" d="M95.174,566.08c0,0.261-0.092,0.479-0.275,0.664l-1.328,1.33c-0.183,0.182-0.404,0.271-0.666,0.271
	c-0.262,0-0.481-0.093-0.664-0.271l-2.875-2.877l-2.875,2.877c-0.182,0.182-0.403,0.271-0.664,0.271
	c-0.261,0-0.482-0.093-0.665-0.271l-1.329-1.33c-0.181-0.186-0.273-0.403-0.273-0.664c0-0.262,0.092-0.482,0.273-0.666l2.874-2.871
	l-2.874-2.875c-0.181-0.184-0.273-0.403-0.273-0.664c0-0.262,0.092-0.479,0.273-0.663l1.329-1.332
	c0.183-0.184,0.404-0.271,0.665-0.271c0.261,0,0.482,0.092,0.664,0.271l2.875,2.874l2.875-2.874
	c0.182-0.184,0.402-0.271,0.664-0.271c0.262,0,0.482,0.092,0.666,0.271l1.328,1.332c0.183,0.184,0.275,0.401,0.275,0.663
	c0,0.261-0.092,0.48-0.275,0.664l-2.872,2.875l2.872,2.871C95.082,565.596,95.174,565.818,95.174,566.08z"/>
<path d="M11.874,498.066c-0.269,0-0.499-0.101-0.69-0.295l-6.925-6.926c-0.2-0.195-0.296-0.427-0.296-0.693
	c0-0.271,0.096-0.498,0.296-0.693l6.925-6.926c0.191-0.193,0.421-0.293,0.69-0.293c0.27,0,0.505,0.1,0.697,0.293
	c0.197,0.193,0.293,0.429,0.293,0.693v13.851c0,0.271-0.096,0.5-0.293,0.694C12.379,497.969,12.143,498.066,11.874,498.066z"/>
<path fill="#FFFFFF" d="M44.947,496.025c-0.269,0-0.499-0.102-0.69-0.299l-6.925-6.922c-0.2-0.195-0.296-0.429-0.296-0.695
	c0-0.271,0.096-0.498,0.296-0.693l6.925-6.926c0.191-0.192,0.421-0.292,0.69-0.292c0.269,0,0.505,0.1,0.697,0.292
	c0.197,0.196,0.293,0.43,0.293,0.693v13.852c0,0.271-0.096,0.499-0.293,0.692C45.452,495.927,45.216,496.025,44.947,496.025z"/>
<path fill="#B0B0B0" d="M81.636,496.025c-0.269,0-0.5-0.102-0.691-0.299l-6.925-6.922c-0.2-0.195-0.296-0.429-0.296-0.695
	c0-0.271,0.096-0.498,0.296-0.693l6.925-6.926c0.191-0.192,0.422-0.292,0.691-0.292c0.269,0,0.505,0.1,0.697,0.292
	c0.197,0.196,0.293,0.43,0.293,0.693v13.852c0,0.271-0.096,0.499-0.293,0.692C82.141,495.927,81.905,496.025,81.636,496.025z"/>
<path fill="#3E3E3F" d="M63.99,83c0.269,0,0.5,0.1,0.69,0.296l6.925,6.922c0.2,0.197,0.297,0.429,0.297,0.697
	c0,0.27-0.097,0.497-0.297,0.693l-6.925,6.925c-0.19,0.194-0.422,0.293-0.69,0.293c-0.27,0-0.506-0.099-0.697-0.293
	C63.096,98.338,63,98.104,63,97.838V83.989c0-0.269,0.096-0.499,0.293-0.693C63.484,83.098,63.721,83,63.99,83z"/>
<path fill="#FFFFFF" d="M50.636,518.658c0.271,0,0.5,0.101,0.691,0.297l6.925,6.923c0.2,0.195,0.296,0.428,0.296,0.695
	c0,0.269-0.096,0.497-0.296,0.691l-6.925,6.927c-0.191,0.191-0.422,0.293-0.691,0.293c-0.269,0-0.504-0.102-0.697-0.293
	c-0.196-0.195-0.293-0.43-0.293-0.695v-13.85c0-0.27,0.097-0.498,0.293-0.691C50.13,518.757,50.368,518.658,50.636,518.658z"/>
<path fill="#B0B0B0" d="M81.066,518.658c0.269,0,0.5,0.101,0.691,0.297l6.924,6.923c0.201,0.195,0.297,0.428,0.297,0.695
	c0,0.269-0.096,0.497-0.297,0.691l-6.924,6.927c-0.191,0.191-0.423,0.293-0.691,0.293c-0.27,0-0.506-0.102-0.697-0.293
	c-0.197-0.195-0.293-0.43-0.293-0.695v-13.85c0-0.27,0.096-0.498,0.293-0.691C80.56,518.757,80.796,518.658,81.066,518.658z"/>
<path fill="#3E3E3F" d="M134.556,486.243c0,0.284-0.103,0.528-0.304,0.729l-1.465,1.47c-0.203,0.197-0.444,0.301-0.733,0.301
	c-0.289,0-0.531-0.104-0.73-0.301l-3.17-3.174l-3.169,3.174c-0.2,0.197-0.445,0.301-0.732,0.301c-0.286,0-0.53-0.104-0.731-0.301
	l-1.467-1.47c-0.199-0.198-0.302-0.442-0.302-0.729c0-0.289,0.103-0.533,0.302-0.734l3.17-3.166l-3.17-3.171
	c-0.199-0.201-0.302-0.445-0.302-0.731c0-0.287,0.103-0.53,0.302-0.729l1.467-1.471c0.201-0.199,0.445-0.302,0.731-0.302
	c0.287,0,0.532,0.103,0.732,0.302l3.169,3.171l3.17-3.171c0.199-0.199,0.441-0.302,0.73-0.302c0.289,0,0.53,0.103,0.733,0.302
	l1.465,1.471c0.201,0.199,0.304,0.442,0.304,0.729c0,0.286-0.103,0.53-0.304,0.731l-3.168,3.171l3.168,3.166
	C134.453,485.71,134.556,485.954,134.556,486.243z M128.153,470.256c-6.495,0-11.761,5.267-11.761,11.761
	c0,6.492,5.266,11.762,11.761,11.762c6.492,0,11.758-5.27,11.758-11.762C139.91,475.52,134.646,470.256,128.153,470.256z"/>
<path fill="#FFFFFF" d="M223.604,526.255v1.647c0,0.224-0.074,0.416-0.229,0.566c-0.15,0.165-0.332,0.245-0.541,0.245h-16.912
	c-0.207,0-0.389-0.08-0.538-0.245c-0.151-0.15-0.229-0.354-0.229-0.566v-1.647c0-0.225,0.076-0.415,0.229-0.58
	c0.149-0.162,0.331-0.244,0.538-0.244h16.912c0.209,0,0.391,0.082,0.541,0.244C223.527,525.84,223.604,526.031,223.604,526.255z
	 M223.604,519.896v1.646c0,0.222-0.074,0.416-0.229,0.579c-0.15,0.163-0.332,0.245-0.541,0.245h-16.912
	c-0.207,0-0.389-0.082-0.538-0.245c-0.151-0.163-0.229-0.357-0.229-0.579v-1.646c0-0.225,0.076-0.415,0.229-0.571
	c0.149-0.161,0.331-0.245,0.538-0.245h16.912c0.209,0,0.391,0.084,0.541,0.245C223.527,519.481,223.604,519.675,223.604,519.896z
	 M223.604,514.073v1.646c0,0.229-0.074,0.416-0.229,0.58c-0.15,0.162-0.332,0.241-0.541,0.241h-16.912
	c-0.207,0-0.389-0.079-0.538-0.241c-0.151-0.164-0.229-0.354-0.229-0.58v-1.646c0-0.229,0.076-0.416,0.229-0.577
	c0.149-0.164,0.331-0.244,0.538-0.244h16.912c0.209,0,0.391,0.08,0.541,0.244C223.527,513.657,223.604,513.85,223.604,514.073z"/>
<path fill="#3E3E3F" d="M173.907,481.25c0,0.195-0.064,0.363-0.207,0.504l-1.008,1.01c-0.139,0.14-0.307,0.207-0.504,0.207
	s-0.365-0.067-0.504-0.207l-2.18-2.182l-2.18,2.182c-0.143,0.14-0.311,0.207-0.504,0.207c-0.197,0-0.365-0.067-0.504-0.207
	l-1.012-1.01c-0.14-0.141-0.209-0.309-0.209-0.504c0-0.197,0.069-0.365,0.209-0.505l2.184-2.177l-2.184-2.184
	c-0.14-0.139-0.209-0.308-0.209-0.504c0-0.197,0.069-0.365,0.209-0.502l1.012-1.013c0.139-0.138,0.307-0.206,0.504-0.206
	c0.193,0,0.361,0.068,0.504,0.206l2.182,2.183l2.18-2.183c0.139-0.138,0.307-0.206,0.502-0.206c0.199,0,0.365,0.068,0.506,0.206
	l1.008,1.013c0.143,0.137,0.207,0.305,0.207,0.502c0,0.196-0.064,0.365-0.207,0.504l-2.182,2.184l2.182,2.177
	C173.837,480.884,173.907,481.052,173.907,481.25z M169.503,470.257c-4.466,0-8.087,3.62-8.087,8.087
	c0,4.466,3.622,8.087,8.087,8.087s8.088-3.621,8.088-8.087S173.97,470.257,169.503,470.257z"/>
<path fill="#FFFFFF" d="M217.257,553.914c0-1.106-0.394-2.056-1.183-2.844c-0.787-0.786-1.733-1.188-2.85-1.188
	c-1.104,0-2.058,0.396-2.847,1.188c-0.788,0.788-1.188,1.729-1.188,2.844s0.396,2.056,1.188,2.844
	c0.789,0.787,1.729,1.188,2.847,1.188c1.112,0,2.063-0.396,2.85-1.188C216.865,555.969,217.257,555.021,217.257,553.914z
	 M221.854,561.386c0,0.313-0.109,0.581-0.34,0.813c-0.229,0.229-0.498,0.341-0.81,0.341c-0.323,0-0.595-0.112-0.813-0.341
	l-3.08-3.072c-1.064,0.742-2.269,1.114-3.584,1.114c-0.854,0-1.676-0.167-2.457-0.499c-0.773-0.332-1.449-0.781-2.021-1.354
	c-0.563-0.563-1.017-1.229-1.349-2.021c-0.332-0.781-0.498-1.604-0.498-2.456c0-0.854,0.166-1.675,0.498-2.456
	c0.332-0.78,0.773-1.455,1.349-2.021c0.563-0.563,1.237-1.021,2.021-1.354c0.781-0.333,1.604-0.499,2.457-0.499
	c0.854,0,1.684,0.166,2.457,0.499c0.781,0.332,1.455,0.781,2.021,1.354c0.563,0.563,1.021,1.23,1.354,2.021
	c0.334,0.79,0.498,1.604,0.498,2.456c0,1.315-0.371,2.512-1.104,3.584l3.071,3.08C221.744,560.8,221.854,561.069,221.854,561.386z"
	/>
<path fill="#3E3E3F" d="M133.55,448.699c0,0.272-0.099,0.507-0.291,0.7l-1.4,1.401c-0.193,0.189-0.426,0.288-0.701,0.288
	c-0.275,0-0.51-0.099-0.699-0.288l-3.031-3.032l-3.031,3.032c-0.192,0.189-0.426,0.288-0.701,0.288c-0.275,0-0.508-0.099-0.7-0.288
	l-1.401-1.401c-0.191-0.193-0.289-0.428-0.289-0.7c0-0.273,0.097-0.51,0.289-0.702l3.03-3.027l-3.03-3.029
	c-0.191-0.193-0.289-0.429-0.289-0.701c0-0.274,0.097-0.511,0.289-0.699l1.401-1.404c0.192-0.19,0.425-0.289,0.7-0.289
	c0.275,0,0.509,0.099,0.701,0.289l3.031,3.03l3.031-3.03c0.189-0.19,0.424-0.289,0.699-0.289c0.275,0,0.508,0.099,0.701,0.289
	l1.4,1.404c0.192,0.188,0.291,0.425,0.291,0.699c0,0.272-0.099,0.508-0.291,0.701l-3.029,3.029l3.029,3.027
	C133.451,448.19,133.55,448.426,133.55,448.699z"/>
<circle fill="none" stroke="#3E3E3F" stroke-width="2" stroke-miterlimit="10" cx="127.427" cy="444.968" r="11.714"/>
<path fill="#3E3E3F" d="M171.976,445.081c0,0.161-0.059,0.299-0.172,0.413l-0.83,0.832c-0.113,0.109-0.25,0.17-0.414,0.17
	s-0.303-0.059-0.416-0.17l-1.793-1.796l-1.795,1.796c-0.113,0.109-0.252,0.17-0.414,0.17c-0.164,0-0.301-0.059-0.416-0.17
	l-0.83-0.832c-0.113-0.114-0.17-0.252-0.17-0.413c0-0.162,0.059-0.303,0.17-0.417l1.795-1.792l-1.795-1.794
	c-0.113-0.114-0.17-0.254-0.17-0.416c0-0.161,0.059-0.301,0.17-0.412l0.83-0.834c0.115-0.112,0.252-0.172,0.416-0.172
	s0.301,0.06,0.414,0.172l1.795,1.796l1.793-1.796c0.113-0.112,0.252-0.172,0.416-0.172s0.301,0.06,0.414,0.172l0.832,0.834
	c0.113,0.111,0.17,0.251,0.17,0.412c0,0.162-0.057,0.302-0.17,0.416l-1.793,1.794l1.793,1.792
	C171.919,444.778,171.976,444.919,171.976,445.081z"/>
<circle fill="none" stroke="#3E3E3F" stroke-width="2" stroke-miterlimit="10" cx="168.351" cy="442.87" r="6.935"/>
<path d="M246.729,489.566c-0.154,0-0.293-0.061-0.399-0.17l-4.026-4.033c-0.115-0.114-0.181-0.25-0.181-0.404
	c0-0.156,0.063-0.291,0.181-0.405l4.026-4.031c0.106-0.115,0.246-0.174,0.399-0.174c0.156,0,0.293,0.061,0.404,0.174
	c0.117,0.111,0.172,0.246,0.172,0.402v8.065c0,0.158-0.055,0.293-0.172,0.406C247.021,489.51,246.887,489.566,246.729,489.566z"/>
<path fill="#FFFFFF" d="M246.604,468.692c-0.154,0-0.291-0.06-0.4-0.174l-4.033-4.031c-0.107-0.113-0.172-0.248-0.172-0.403
	c0-0.156,0.063-0.291,0.172-0.405l4.033-4.032c0.109-0.113,0.246-0.172,0.4-0.172c0.158,0,0.293,0.059,0.405,0.172
	c0.115,0.112,0.173,0.248,0.173,0.403v8.066c0,0.155-0.058,0.291-0.173,0.402C246.896,468.636,246.762,468.692,246.604,468.692z"/>
<path fill="#B0B0B0" d="M246.604,445.972c-0.154,0-0.293-0.058-0.4-0.171l-4.035-4.032c-0.107-0.113-0.172-0.25-0.172-0.404
	c0-0.156,0.063-0.291,0.172-0.404l4.035-4.033c0.107-0.11,0.246-0.17,0.4-0.17c0.155,0,0.293,0.06,0.403,0.17
	c0.117,0.113,0.173,0.249,0.173,0.404v8.066c0,0.155-0.058,0.293-0.173,0.403C246.896,445.915,246.759,445.972,246.604,445.972z"/>
<path fill="#B0B0B0" d="M263.271,436.754c0.154,0,0.291,0.057,0.399,0.171l4.035,4.032c0.112,0.114,0.172,0.249,0.172,0.405
	c0,0.154-0.06,0.291-0.172,0.402l-4.035,4.034c-0.108,0.113-0.245,0.171-0.399,0.171c-0.156,0-0.293-0.058-0.404-0.171
	c-0.115-0.114-0.172-0.248-0.172-0.405v-8.064c0-0.156,0.057-0.292,0.172-0.404C262.979,436.81,263.113,436.754,263.271,436.754z"/>
<path fill="#FFFFFF" d="M263.271,459.474c0.154,0,0.291,0.059,0.399,0.174l4.035,4.031c0.112,0.114,0.172,0.249,0.172,0.404
	s-0.06,0.291-0.172,0.405l-4.035,4.031c-0.108,0.114-0.245,0.174-0.399,0.174c-0.156,0-0.293-0.061-0.404-0.174
	c-0.115-0.111-0.172-0.246-0.172-0.402v-8.066c0-0.157,0.057-0.292,0.172-0.401C262.979,459.53,263.113,459.474,263.271,459.474z"/>
<path d="M263.611,480.347c0.156,0,0.293,0.062,0.404,0.173l4.033,4.032c0.115,0.113,0.174,0.249,0.174,0.404
	c0,0.156-0.059,0.291-0.174,0.404l-4.033,4.031c-0.109,0.113-0.246,0.171-0.402,0.171c-0.155,0-0.293-0.059-0.403-0.171
	c-0.108-0.111-0.172-0.248-0.172-0.402v-8.065c0-0.156,0.063-0.292,0.172-0.404C263.32,480.402,263.456,480.347,263.611,480.347z"/>
<circle fill="#3E3E3F" cx="39.5" cy="89.5" r="6.5"/>
<circle fill="none" stroke="#B0B0B0" stroke-width="2" stroke-miterlimit="10" cx="289.238" cy="441.272" r="6.935"/>
<circle fill="#B0B0B0" cx="289.238" cy="476.272" r="6.935"/>
<circle fill="none" stroke="#FFFFFF" stroke-width="2" stroke-miterlimit="10" cx="322.238" cy="441.272" r="6.935"/>
<circle fill="#FFFFFF" cx="322.238" cy="476.272" r="6.935"/>
<path fill="#3E3E3F" d="M105.555,13.683c0,6.453-5.23,11.684-11.683,11.684c-6.454-0.001-11.684-5.231-11.684-11.684
	C82.188,7.231,87.417,2,93.873,2C100.325,2,105.555,7.231,105.555,13.683z M100.307,17.038c-0.109-0.116-0.238-0.174-0.388-0.174
	H87.822c-0.148,0-0.277,0.059-0.386,0.174c-0.108,0.118-0.163,0.254-0.163,0.415v1.179c0,0.153,0.056,0.298,0.163,0.406
	c0.108,0.117,0.237,0.175,0.386,0.175h12.097c0.149,0,0.278-0.058,0.388-0.175c0.109-0.108,0.163-0.247,0.163-0.406v-1.179
	C100.47,17.294,100.417,17.156,100.307,17.038z M100.307,12.497c-0.109-0.115-0.238-0.175-0.388-0.175H87.822
	c-0.148,0-0.277,0.06-0.386,0.175c-0.108,0.112-0.163,0.25-0.163,0.409v1.178c0,0.158,0.056,0.298,0.163,0.415
	c0.108,0.116,0.237,0.175,0.386,0.175h12.097c0.149,0,0.278-0.059,0.388-0.175c0.109-0.117,0.163-0.256,0.163-0.415v-1.178
	C100.47,12.746,100.417,12.608,100.307,12.497z M100.307,8.327c-0.109-0.117-0.238-0.175-0.388-0.175H87.822
	c-0.148,0-0.277,0.058-0.386,0.175c-0.108,0.116-0.163,0.249-0.163,0.413v1.177c0,0.163,0.056,0.298,0.163,0.415
	c0.108,0.116,0.237,0.173,0.386,0.173h12.097c0.149,0,0.278-0.057,0.388-0.173c0.109-0.117,0.163-0.251,0.163-0.415V8.74
	C100.47,8.58,100.417,8.443,100.307,8.327z"/>
<path fill="#FFFFFF" d="M105.555,53.683c0,6.454-5.23,11.684-11.683,11.684c-6.453-0.001-11.684-5.231-11.684-11.684
	C82.188,47.23,87.418,42,93.873,42C100.325,42,105.555,47.23,105.555,53.683z M100.308,57.038c-0.11-0.116-0.238-0.174-0.388-0.174
	H87.823c-0.149,0-0.278,0.058-0.386,0.174c-0.109,0.118-0.164,0.255-0.164,0.416v1.179c0,0.153,0.056,0.298,0.164,0.406
	c0.107,0.117,0.236,0.175,0.386,0.175H99.92c0.149,0,0.277-0.058,0.388-0.175c0.108-0.108,0.162-0.247,0.162-0.406v-1.179
	C100.47,57.294,100.417,57.156,100.308,57.038z M100.308,52.497c-0.11-0.116-0.238-0.176-0.388-0.176H87.823
	c-0.149,0-0.278,0.06-0.386,0.176c-0.109,0.112-0.164,0.249-0.164,0.408v1.179c0,0.158,0.056,0.298,0.164,0.414
	c0.107,0.117,0.236,0.176,0.386,0.176H99.92c0.149,0,0.277-0.059,0.388-0.176c0.108-0.116,0.162-0.255,0.162-0.414v-1.179
	C100.47,52.746,100.417,52.609,100.308,52.497z M100.308,48.327c-0.11-0.118-0.238-0.175-0.388-0.175H87.823
	c-0.149,0-0.278,0.057-0.386,0.175c-0.109,0.116-0.164,0.249-0.164,0.413v1.176c0,0.163,0.056,0.298,0.164,0.416
	c0.107,0.116,0.236,0.173,0.386,0.173H99.92c0.149,0,0.277-0.058,0.388-0.173c0.108-0.118,0.162-0.25,0.162-0.416V48.74
	C100.47,48.58,100.417,48.443,100.308,48.327z"/>
<path fill="#3E3E3F" d="M25.555,13.683c0,6.453-5.23,11.684-11.684,11.684S2.188,20.136,2.188,13.683C2.188,7.23,7.417,2,13.872,2
	S25.555,7.23,25.555,13.683z M19.862,13.228h1.86l-7.852-6.644L6.02,13.228h1.786v7.553h4.223l0.006-4.862h3.79v4.862h4.037
	L19.862,13.228L19.862,13.228z"/>
<polygon fill="#3E3E3F" points="62.044,22.365 56.253,22.365 56.253,15.39 50.816,15.39 50.809,22.365 44.75,22.365 44.75,11.529 
	42.188,11.529 53.452,2 64.713,11.529 62.044,11.529 "/>
<path fill="#FFFFFF" d="M25.555,53.683c0,6.453-5.23,11.684-11.684,11.684S2.188,60.136,2.188,53.683
	C2.188,47.23,7.417,42,13.872,42S25.555,47.23,25.555,53.683z M19.862,53.228h1.86l-7.852-6.643L6.02,53.228h1.786v7.553h4.223
	l0.006-4.862h3.79v4.862h4.037L19.862,53.228L19.862,53.228z"/>
<polygon fill="#FFFFFF" points="62.044,62.365 56.253,62.365 56.253,55.39 50.816,55.39 50.809,62.365 44.75,62.365 44.75,51.529 
	42.188,51.529 53.452,42 64.713,51.529 62.044,51.529 "/>
<path fill="#3E3E3F" d="M145.555,13.683c0,6.453-5.23,11.684-11.683,11.684c-6.454,0-11.685-5.229-11.685-11.684
	C122.188,7.231,127.417,2,133.873,2C140.325,2,145.555,7.231,145.555,13.683z M140.307,12.497c-0.109-0.115-0.238-0.176-0.388-0.176
	h-12.097c-0.148,0-0.277,0.061-0.386,0.176c-0.108,0.111-0.163,0.249-0.163,0.408v1.178c0,0.158,0.056,0.299,0.163,0.415
	c0.108,0.116,0.237,0.175,0.386,0.175h12.097c0.149,0,0.278-0.059,0.388-0.175c0.11-0.116,0.163-0.257,0.163-0.415v-1.178
	C140.47,12.746,140.417,12.608,140.307,12.497z"/>
<path fill="#FFFFFF" d="M145.555,53.683c0,6.453-5.23,11.684-11.683,11.684s-11.685-5.229-11.685-11.684
	C122.188,47.23,127.418,42,133.873,42C140.325,42,145.555,47.23,145.555,53.683z M140.308,52.497
	c-0.11-0.116-0.238-0.176-0.388-0.176h-12.097c-0.149,0-0.278,0.06-0.386,0.176c-0.109,0.111-0.164,0.248-0.164,0.408v1.179
	c0,0.158,0.056,0.298,0.164,0.413c0.107,0.117,0.236,0.177,0.386,0.177h12.097c0.149,0,0.277-0.06,0.388-0.177
	c0.108-0.115,0.162-0.255,0.162-0.413v-1.179C140.47,52.745,140.417,52.608,140.308,52.497z"/>
<g>
	<path fill="#3E3E3F" d="M97,96c0,1.104-0.896,2-2,2l0,0c-1.104,0-2-0.896-2-2V85c0-1.104,0.896-2,2-2l0,0c1.104,0,2,0.896,2,2V96z"
		/>
	<path fill="#3E3E3F" d="M106,96c0,1.104-0.896,2-2,2l0,0c-1.104,0-2-0.896-2-2V85c0-1.104,0.896-2,2-2l0,0c1.104,0,2,0.896,2,2V96z
		"/>
</g>
<circle fill="#3E3E3F" cx="9.5" cy="89.5" r="4.5"/>
<g>
	<path fill="#3E3E3F" d="M1.609,173.258c0-10.237,18.5-32.466,18.5-32.466s18.5,22.229,18.5,32.466
		c0,10.236-8.283,18.534-18.5,18.534C9.893,191.792,1.609,183.494,1.609,173.258z"/>
	<g>
		<path fill="#FFFFFF" d="M13.269,170.073v-3.63h1.445v11.298h-1.445v-0.668c-0.548,0.546-1.209,0.818-1.985,0.818
			c-1.157,0-2.057-0.359-2.7-1.075c-0.644-0.717-0.966-1.769-0.966-3.152c0-1.233,0.324-2.24,0.974-3.02
			c0.649-0.779,1.587-1.17,2.815-1.17c0.345,0,0.713,0.062,1.107,0.183C12.908,169.778,13.158,169.916,13.269,170.073z
			 M13.269,175.99v-4.728c-0.092-0.137-0.285-0.266-0.579-0.389c-0.294-0.124-0.581-0.186-0.86-0.186
			c-1.795,0-2.693,1.011-2.693,3.031c0,1.024,0.213,1.776,0.639,2.25c0.425,0.474,1.108,0.711,2.047,0.711
			c0.202,0,0.452-0.07,0.745-0.212C12.863,176.327,13.097,176.168,13.269,175.99z"/>
		<path fill="#FFFFFF" d="M21.948,170.073v-3.63h1.445v11.298h-1.445v-0.668c-0.548,0.546-1.209,0.818-1.985,0.818
			c-1.157,0-2.056-0.359-2.7-1.075c-0.644-0.717-0.966-1.769-0.966-3.152c0-1.233,0.324-2.24,0.974-3.02
			c0.649-0.779,1.587-1.17,2.815-1.17c0.345,0,0.714,0.062,1.107,0.183C21.586,169.778,21.837,169.916,21.948,170.073z
			 M21.948,175.99v-4.728c-0.092-0.137-0.284-0.266-0.579-0.389c-0.294-0.124-0.581-0.186-0.859-0.186
			c-1.795,0-2.693,1.011-2.693,3.031c0,1.024,0.213,1.776,0.639,2.25c0.425,0.474,1.107,0.711,2.046,0.711
			c0.203,0,0.452-0.07,0.746-0.212C21.542,176.327,21.776,176.168,21.948,175.99z"/>
		<path fill="#FFFFFF" d="M33.381,180.726H31.86v-7.6c0-0.676-0.216-1.233-0.647-1.67c-0.431-0.438-1.001-0.656-1.712-0.656
			c-0.75,0-1.342,0.212-1.772,0.637c-0.43,0.423-0.646,0.999-0.646,1.727v7.562h-1.522v-7.721c0-1.121,0.351-1.997,1.054-2.625
			c0.703-0.628,1.659-0.943,2.871-0.943c1.248,0,2.209,0.309,2.883,0.924c0.674,0.615,1.011,1.5,1.011,2.652L33.381,180.726
			L33.381,180.726z"/>
	</g>
</g>
<path fill="#3E3E3F" d="M237.57,24.783c0,12.586-10.201,22.788-22.786,22.788C202.202,47.569,192,37.369,192,24.783
	C192,12.201,202.202,2,214.79,2C227.37,2,237.57,12.201,237.57,24.783z M227.337,31.327c-0.213-0.228-0.465-0.338-0.76-0.338
	h-23.588c-0.289,0-0.54,0.114-0.752,0.338c-0.212,0.23-0.318,0.495-0.318,0.809v2.298c0,0.3,0.111,0.583,0.318,0.793
	c0.212,0.227,0.463,0.341,0.752,0.341h23.592c0.29,0,0.543-0.114,0.756-0.341c0.212-0.21,0.318-0.482,0.318-0.793v-2.298
	C227.653,31.827,227.549,31.557,227.337,31.327z M227.337,22.472c-0.213-0.225-0.465-0.342-0.76-0.342h-23.588
	c-0.289,0-0.54,0.117-0.752,0.342c-0.212,0.218-0.318,0.486-0.318,0.796v2.297c0,0.31,0.111,0.58,0.318,0.81
	c0.212,0.227,0.463,0.34,0.752,0.34h23.592c0.29,0,0.543-0.115,0.756-0.34c0.212-0.229,0.318-0.499,0.318-0.81v-2.297
	C227.653,22.958,227.549,22.688,227.337,22.472z M227.337,14.339c-0.213-0.228-0.465-0.342-0.76-0.342h-23.588
	c-0.289,0-0.54,0.114-0.752,0.342c-0.212,0.226-0.318,0.485-0.318,0.805v2.296c0,0.317,0.111,0.58,0.318,0.809
	c0.212,0.226,0.463,0.337,0.752,0.337h23.592c0.29,0,0.543-0.111,0.756-0.337c0.212-0.229,0.318-0.49,0.318-0.809v-2.296
	C227.653,14.832,227.549,14.565,227.337,14.339z"/>
<path fill="#3E3E3F" d="M287.572,24.783c0,12.586-10.203,22.788-22.785,22.788C252.196,47.57,242,37.367,242,24.783
	C242.002,12.199,252.203,2,264.789,2S287.572,12.199,287.572,24.783z M266.528,43.106V26.187h5.676l0.851-6.594h-6.526v-4.208
	c0-1.91,0.526-3.21,3.266-3.21h3.489V6.274c-0.604-0.079-2.677-0.26-5.085-0.26c-5.035,0-8.481,3.072-8.481,8.716v4.863h-5.693
	v6.594h5.693v16.919H266.528L266.528,43.106z"/>
<g>
	<path fill="#3E3E3F" d="M337.571,24.783c0,12.586-10.201,22.788-22.785,22.788C302.198,47.57,292,37.367,292,24.783
		C292.001,12.199,302.203,2,314.789,2C327.376,2,337.571,12.199,337.571,24.783z"/>
	<g>
		<path fill="#FFFFFF" d="M296.666,22.828c0-0.894-0.02-1.596-0.071-2.299h1.369l0.087,1.405h0.034
			c0.422-0.791,1.403-1.579,2.809-1.579c1.175,0,3,0.701,3,3.614v5.054h-1.543v-4.896c0-1.368-0.509-2.509-1.967-2.509
			c-0.998,0-1.789,0.719-2.068,1.579c-0.071,0.193-0.106,0.456-0.106,0.72v5.104h-1.543V22.828z"/>
		<path fill="#FFFFFF" d="M307.266,25.056c0.035,2.088,1.352,2.947,2.913,2.947c1.104,0,1.789-0.193,2.351-0.438l0.28,1.106
			c-0.545,0.245-1.491,0.543-2.842,0.543c-2.614,0-4.175-1.737-4.175-4.298c0-2.561,1.508-4.561,3.981-4.561
			c2.789,0,3.508,2.421,3.508,3.982c0,0.315-0.019,0.545-0.052,0.719H307.266z M311.792,23.951c0.017-0.964-0.405-2.49-2.142-2.49
			c-1.578,0-2.246,1.421-2.369,2.49H311.792z"/>
		<path fill="#FFFFFF" d="M315.813,20.529l1.139,4.317c0.229,0.948,0.459,1.825,0.616,2.702h0.052
			c0.192-0.859,0.475-1.772,0.754-2.685l1.387-4.334h1.297l1.317,4.248c0.315,1.018,0.56,1.912,0.754,2.771h0.052
			c0.141-0.859,0.369-1.754,0.65-2.755l1.211-4.264h1.525l-2.736,8.491h-1.403l-1.299-4.053c-0.299-0.946-0.544-1.789-0.754-2.789
			h-0.034c-0.21,1.018-0.474,1.895-0.771,2.807l-1.37,4.035h-1.402l-2.563-8.491H315.813z"/>
		<path fill="#FFFFFF" d="M327.802,27.459c0.475,0.282,1.281,0.596,2.054,0.596c1.104,0,1.631-0.544,1.631-1.263
			c0-0.736-0.438-1.123-1.562-1.543c-1.544-0.561-2.264-1.385-2.264-2.404c0-1.369,1.123-2.491,2.929-2.491
			c0.861,0,1.616,0.229,2.071,0.527l-0.368,1.123c-0.333-0.21-0.946-0.507-1.736-0.507c-0.911,0-1.404,0.526-1.404,1.158
			c0,0.701,0.493,1.017,1.596,1.456c1.458,0.544,2.23,1.28,2.23,2.543c0,1.51-1.177,2.562-3.159,2.562
			c-0.931,0-1.791-0.246-2.386-0.597L327.802,27.459z"/>
	</g>
</g>
<g>
	<path fill="#FFFFFF" d="M237.57,74.784c0,12.584-10.201,22.787-22.786,22.787C202.202,97.569,192,87.369,192,74.784
		C192,62.203,202.202,52,214.79,52C227.37,52,237.57,62.203,237.57,74.784z"/>
	<path fill="#3E3E3F" d="M227.337,81.328c-0.213-0.227-0.465-0.339-0.76-0.339h-23.588c-0.289,0-0.54,0.114-0.752,0.339
		c-0.212,0.23-0.318,0.494-0.318,0.809v2.299c0,0.298,0.111,0.581,0.318,0.792c0.212,0.228,0.463,0.341,0.752,0.341h23.592
		c0.29,0,0.543-0.114,0.756-0.341c0.212-0.21,0.318-0.482,0.318-0.792v-2.299C227.653,81.827,227.549,81.559,227.337,81.328z"/>
	<path fill="#3E3E3F" d="M227.337,72.472c-0.213-0.225-0.465-0.342-0.76-0.342h-23.588c-0.289,0-0.54,0.118-0.752,0.342
		c-0.212,0.218-0.318,0.487-0.318,0.798v2.296c0,0.309,0.111,0.58,0.318,0.809c0.212,0.227,0.463,0.341,0.752,0.341h23.592
		c0.29,0,0.543-0.114,0.756-0.341c0.212-0.229,0.318-0.499,0.318-0.809v-2.296C227.653,72.958,227.549,72.689,227.337,72.472z"/>
	<path fill="#3E3E3F" d="M227.337,64.341c-0.213-0.23-0.465-0.342-0.76-0.342h-23.588c-0.289,0-0.54,0.113-0.752,0.342
		c-0.212,0.224-0.318,0.485-0.318,0.805v2.295c0,0.318,0.111,0.58,0.318,0.809c0.212,0.227,0.463,0.338,0.752,0.338h23.592
		c0.29,0,0.543-0.11,0.756-0.338c0.212-0.229,0.318-0.489,0.318-0.809v-2.295C227.653,64.833,227.549,64.565,227.337,64.341z"/>
</g>
<g>
	<path fill="#FFFFFF" d="M287.572,74.784c0,12.584-10.203,22.787-22.785,22.787C252.196,97.571,242,87.369,242,74.784
		C242.002,62.201,252.203,52,264.789,52S287.572,62.201,287.572,74.784z"/>
	<path fill="#3E3E3F" d="M265.271,91.332V74.413h5.677l0.85-6.593h-6.526V63.61c0-1.909,0.526-3.209,3.266-3.209l3.49-0.001v-5.898
		c-0.604-0.081-2.678-0.261-5.085-0.261c-5.036,0-8.482,3.072-8.482,8.715v4.864h-5.692v6.593h5.692v16.919H265.271L265.271,91.332z
		"/>
</g>
<g>
	<path fill="#FFFFFF" d="M337.571,74.784c0,12.584-10.201,22.787-22.785,22.787C302.198,97.571,292,87.369,292,74.784
		C292.001,62.201,302.203,52,314.789,52C327.376,52,337.571,62.201,337.571,74.784z"/>
	<g>
		<path fill="#3E3E3F" d="M296.665,72.656c0-0.896-0.019-1.597-0.07-2.298h1.368l0.086,1.403h0.036
			c0.42-0.79,1.403-1.578,2.806-1.578c1.177,0,3.002,0.702,3.002,3.614v5.053h-1.543v-4.896c0-1.369-0.51-2.509-1.967-2.509
			c-0.997,0-1.79,0.72-2.069,1.58c-0.07,0.193-0.105,0.456-0.105,0.718v5.106h-1.543V72.656z"/>
		<path fill="#3E3E3F" d="M307.265,74.884c0.033,2.087,1.35,2.947,2.912,2.947c1.105,0,1.789-0.193,2.351-0.438l0.28,1.105
			c-0.543,0.246-1.49,0.545-2.843,0.545c-2.614,0-4.174-1.737-4.174-4.298c0-2.562,1.51-4.561,3.981-4.561
			c2.791,0,3.51,2.421,3.51,3.982c0,0.315-0.02,0.544-0.054,0.719H307.265z M311.792,73.779c0.017-0.964-0.405-2.49-2.142-2.49
			c-1.578,0-2.246,1.42-2.369,2.49H311.792z"/>
		<path fill="#3E3E3F" d="M315.813,70.358l1.14,4.316c0.229,0.947,0.458,1.825,0.613,2.702h0.055
			c0.191-0.86,0.473-1.772,0.753-2.685l1.387-4.334h1.298l1.316,4.246c0.313,1.018,0.561,1.913,0.753,2.772h0.053
			c0.14-0.86,0.368-1.755,0.65-2.755l1.21-4.264h1.526l-2.736,8.491h-1.404l-1.298-4.053c-0.299-0.947-0.545-1.789-0.753-2.789
			h-0.037c-0.209,1.018-0.472,1.894-0.771,2.807l-1.37,4.036h-1.403l-2.562-8.491H315.813z"/>
		<path fill="#3E3E3F" d="M327.802,77.288c0.473,0.281,1.28,0.596,2.052,0.596c1.105,0,1.632-0.544,1.632-1.263
			c0-0.736-0.438-1.124-1.563-1.543c-1.545-0.563-2.264-1.387-2.264-2.404c0-1.369,1.124-2.491,2.93-2.491
			c0.861,0,1.615,0.228,2.07,0.527l-0.369,1.123c-0.332-0.211-0.944-0.508-1.735-0.508c-0.912,0-1.402,0.527-1.402,1.158
			c0,0.702,0.49,1.017,1.596,1.455c1.456,0.545,2.229,1.281,2.229,2.544c0,1.509-1.177,2.562-3.158,2.562
			c-0.931,0-1.791-0.246-2.388-0.597L327.802,77.288z"/>
	</g>
</g>
<g>
	<path fill="#FFFFFF" d="M298.878,135.439c0-12.945-10.494-23.439-23.438-23.439C262.493,112,252,122.494,252,135.439
		s10.493,23.439,23.439,23.439c1.7,0,3.358-0.186,4.955-0.529l1.16,5.434c9.625-4.605,16.543-14.141,17.263-25.546
		c0.049-0.777,0.057-1.546,0.049-2.311C298.869,135.763,298.878,135.603,298.878,135.439"/>
	<path fill="#3E3E3F" d="M278.687,150.048c0,0,0.393,8.449,0.397,8.543c0.03-0.004,0.061-0.009,0.092-0.014
		c0.188-0.029,0.373-0.063,0.558-0.096c0.228-0.043,0.464-0.09,0.661-0.132C280.364,158.213,278.687,150.048,278.687,150.048"/>
</g>
<g>
	<path fill="#3E3E3F" d="M586.086,241.973c0,0.7-0.455,1.296-1.338,1.792l-31.42,17.979c-0.885,0.52-1.936,0.768-3.145,0.768
		c-1.232,0-2.26-0.249-3.146-0.768l-31.42-17.979c-0.877-0.497-1.328-1.092-1.328-1.792c0-0.7,0.451-1.311,1.328-1.808
		c0.877-0.512,1.945-0.763,3.145-0.763h62.836c1.227,0,2.268,0.251,3.148,0.763C585.645,240.663,586.086,241.276,586.086,241.973z"
		/>
	<path fill="#FFFFFF" d="M586.09,235.602c0,0.697-0.461,1.293-1.357,1.79L553.33,255.37c-0.885,0.52-1.945,0.768-3.154,0.768
		c-1.232,0-2.258-0.249-3.145-0.768l-31.422-17.979c-0.871-0.497-1.324-1.093-1.324-1.79c0-0.7,0.453-1.313,1.324-1.81
		c0.893-0.512,1.951-0.761,3.146-0.761h62.842c1.227,0,2.264,0.249,3.141,0.761C585.643,234.288,586.09,234.902,586.09,235.602z"/>
	<path fill="#3E3E3F" d="M586.086,224.7c0,0.7-0.455,1.296-1.338,1.793l-31.42,17.979c-0.885,0.52-1.936,0.768-3.145,0.768
		c-1.232,0-2.26-0.248-3.146-0.768l-31.42-17.979c-0.877-0.497-1.328-1.093-1.328-1.793c0-0.7,0.451-1.311,1.328-1.808
		c0.877-0.512,1.945-0.763,3.145-0.763h62.836c1.227,0,2.268,0.251,3.148,0.763C585.645,223.389,586.086,224.002,586.086,224.7z"/>
	<path fill="#FFFFFF" d="M586.09,218.328c0,0.697-0.461,1.293-1.357,1.79l-31.402,17.979c-0.885,0.52-1.945,0.768-3.154,0.768
		c-1.232,0-2.258-0.249-3.145-0.768l-31.422-17.979c-0.871-0.497-1.324-1.093-1.324-1.79c0-0.7,0.453-1.313,1.324-1.81
		c0.893-0.512,1.951-0.761,3.146-0.761h62.842c1.227,0,2.264,0.249,3.141,0.761C585.643,217.015,586.09,217.628,586.09,218.328z"/>
</g>
<g>
	<path fill="#FFFFFF" d="M357.758,134.784c0,12.584-10.2,22.786-22.784,22.786c-12.583-0.003-22.786-10.202-22.786-22.786
		c0-12.582,10.203-22.784,22.791-22.784C347.559,112,357.758,122.202,357.758,134.784z"/>
	<path fill="#3E3E3F" d="M340.31,132.657c0-2.053-0.731-3.817-2.19-5.279c-1.464-1.459-3.219-2.206-5.283-2.206
		c-2.058,0-3.813,0.736-5.274,2.206c-1.465,1.462-2.192,3.209-2.192,5.279c0,2.07,0.729,3.816,2.192,5.276
		c1.461,1.461,3.216,2.206,5.274,2.206c2.063,0,3.824-0.735,5.283-2.206C339.582,136.47,340.31,134.712,340.31,132.657z
		 M348.842,146.527c0,0.581-0.204,1.077-0.631,1.509c-0.424,0.425-0.928,0.633-1.506,0.633c-0.603,0-1.106-0.208-1.507-0.633
		l-5.721-5.703c-1.981,1.378-4.209,2.068-6.647,2.068c-1.586,0-3.111-0.31-4.563-0.927c-1.448-0.615-2.7-1.449-3.75-2.513
		c-1.049-1.045-1.887-2.283-2.498-3.751c-0.609-1.45-0.918-2.972-0.918-4.559c0-1.586,0.309-3.109,0.925-4.56
		c0.616-1.451,1.445-2.701,2.498-3.752c1.052-1.05,2.302-1.895,3.75-2.514c1.451-0.617,2.979-0.926,4.562-0.926
		c1.584,0,3.112,0.309,4.558,0.926c1.45,0.617,2.7,1.45,3.752,2.514c1.047,1.045,1.886,2.283,2.502,3.752
		c0.62,1.45,0.929,2.977,0.929,4.56c0,2.443-0.688,4.659-2.063,6.652l5.715,5.717C348.641,145.437,348.842,145.938,348.842,146.527z
		"/>
</g>
<g>
	<path fill="#FFFFFF" d="M237.758,134.784c0,12.584-10.2,22.787-22.784,22.787c-12.583-0.003-22.786-10.203-22.786-22.787
		c0-12.582,10.203-22.784,22.791-22.784C227.559,112,237.758,122.202,237.758,134.784z"/>
	<g>
		<path fill="#3E3E3F" d="M217.928,148.386c0,1.212-0.461,2.253-1.377,3.123c-0.918,0.869-1.989,1.304-3.219,1.304
			c-1.244,0-2.324-0.435-3.242-1.304c-0.918-0.87-1.375-1.91-1.375-3.123c0-1.212,0.457-2.261,1.375-3.146
			c0.918-0.886,1.998-1.328,3.242-1.328c1.229,0,2.301,0.442,3.219,1.328C217.469,146.125,217.928,147.173,217.928,148.386z"/>
		<path fill="#3E3E3F" d="M222.426,125.641c-0.688,1.453-1.637,3.537-2.848,6.251c-1.213,2.714-2.474,5.772-3.781,9.173h-1.842
			c0.19-4.071,0.282-7.36,0.274-9.868c-0.008-2.506-0.013-4.319-0.013-5.438c0-0.942,0.017-1.684,0.049-2.227
			c0.031-0.543,0.109-1.102,0.238-1.677c0.334-1.453,1.045-2.546,2.129-3.281c1.084-0.734,2.25-1.102,3.494-1.102
			c1.084,0,1.98,0.328,2.69,0.982c0.709,0.655,1.063,1.469,1.063,2.443c0,0.511-0.106,1.138-0.322,1.88
			C223.347,123.521,222.967,124.475,222.426,125.641z"/>
	</g>
</g>
<path fill="#FFFFFF" d="M177.758,134.784c0,12.584-10.2,22.787-22.785,22.787c-12.583-0.002-22.785-10.202-22.785-22.787
	c0-12.581,10.202-22.784,22.79-22.784C167.558,112,177.758,122.203,177.758,134.784z M167.524,141.328
	c-0.213-0.227-0.465-0.339-0.76-0.339h-23.589c-0.288,0-0.539,0.114-0.752,0.339c-0.213,0.23-0.317,0.494-0.317,0.809v2.299
	c0,0.298,0.11,0.581,0.317,0.792c0.213,0.228,0.464,0.341,0.752,0.341h23.593c0.29,0,0.543-0.114,0.756-0.341
	c0.212-0.21,0.317-0.482,0.317-0.792v-2.299C167.84,141.827,167.736,141.559,167.524,141.328z M167.524,132.472
	c-0.213-0.225-0.465-0.342-0.76-0.342h-23.589c-0.288,0-0.539,0.118-0.752,0.342c-0.213,0.218-0.317,0.487-0.317,0.798v2.296
	c0,0.309,0.11,0.58,0.317,0.809c0.213,0.227,0.464,0.341,0.752,0.341h23.593c0.29,0,0.543-0.114,0.756-0.341
	c0.212-0.229,0.317-0.499,0.317-0.809v-2.296C167.84,132.958,167.736,132.688,167.524,132.472z M167.524,124.34
	c-0.213-0.23-0.465-0.342-0.76-0.342h-23.589c-0.288,0-0.539,0.113-0.752,0.342c-0.213,0.224-0.317,0.485-0.317,0.805v2.295
	c0,0.318,0.11,0.58,0.317,0.809c0.213,0.227,0.464,0.338,0.752,0.338h23.593c0.29,0,0.543-0.11,0.756-0.338
	c0.212-0.229,0.317-0.489,0.317-0.809v-2.295C167.84,124.833,167.736,124.564,167.524,124.34z"/>
<g>
	<path fill="#3E3E3F" d="M185.743,13.683c0,6.453-5.23,11.684-11.684,11.684s-11.685-5.229-11.685-11.684
		C162.376,7.231,167.606,2,174.062,2C180.513,2,185.743,7.231,185.743,13.683z"/>
	<path fill="#FFFFFF" d="M176.934,12.537c0-1.106-0.395-2.056-1.18-2.844c-0.789-0.786-1.734-1.188-2.846-1.188
		c-1.109,0-2.055,0.396-2.842,1.188c-0.789,0.788-1.183,1.729-1.183,2.844s0.394,2.056,1.183,2.843
		c0.787,0.787,1.731,1.188,2.842,1.188c1.111,0,2.059-0.396,2.846-1.188C176.541,14.591,176.934,13.644,176.934,12.537z
		 M181.531,20.009c0,0.313-0.111,0.581-0.34,0.813c-0.229,0.229-0.5,0.341-0.812,0.341c-0.323,0-0.596-0.112-0.812-0.341
		l-3.082-3.072c-1.067,0.742-2.268,1.114-3.582,1.114c-0.854,0-1.676-0.167-2.457-0.499c-0.78-0.332-1.454-0.781-2.021-1.354
		c-0.563-0.563-1.016-1.23-1.346-2.021c-0.329-0.781-0.495-1.601-0.495-2.456c0-0.854,0.166-1.675,0.498-2.456
		c0.332-0.781,0.779-1.455,1.346-2.021s1.24-1.021,2.021-1.354s1.604-0.499,2.457-0.499c0.853,0,1.676,0.166,2.455,0.499
		c0.781,0.332,1.455,0.781,2.021,1.354c0.563,0.563,1.017,1.23,1.349,2.021c0.334,0.781,0.5,1.604,0.5,2.456
		c0,1.317-0.371,2.511-1.113,3.584l3.08,3.08C181.422,19.422,181.531,19.692,181.531,20.009z"/>
</g>
<g>
	<path fill="#FFFFFF" d="M185.743,53.683c0,6.453-5.23,11.684-11.684,11.684s-11.685-5.229-11.685-11.684
		C162.376,47.231,167.606,42,174.062,42C180.513,42,185.743,47.231,185.743,53.683z"/>
	<path fill="#3E3E3F" d="M176.934,52.537c0-1.106-0.395-2.056-1.18-2.844c-0.789-0.786-1.734-1.188-2.846-1.188
		c-1.109,0-2.055,0.396-2.842,1.188c-0.789,0.788-1.183,1.729-1.183,2.844s0.394,2.056,1.183,2.843
		c0.787,0.787,1.731,1.188,2.842,1.188c1.111,0,2.059-0.396,2.846-1.188C176.541,54.591,176.934,53.644,176.934,52.537z
		 M181.531,60.009c0,0.313-0.111,0.581-0.34,0.813c-0.229,0.229-0.5,0.341-0.812,0.341c-0.323,0-0.596-0.112-0.812-0.341
		l-3.082-3.072c-1.067,0.742-2.268,1.114-3.582,1.114c-0.854,0-1.676-0.167-2.457-0.499c-0.78-0.332-1.454-0.781-2.021-1.354
		c-0.563-0.563-1.016-1.23-1.346-2.021c-0.329-0.781-0.495-1.601-0.495-2.456c0-0.854,0.166-1.675,0.498-2.456
		c0.332-0.781,0.779-1.455,1.346-2.021s1.24-1.021,2.021-1.354s1.604-0.499,2.457-0.499c0.853,0,1.676,0.166,2.455,0.499
		c0.781,0.332,1.455,0.781,2.021,1.354c0.563,0.563,1.017,1.23,1.349,2.021c0.334,0.781,0.5,1.604,0.5,2.456
		c0,1.317-0.371,2.511-1.113,3.584l3.08,3.08C181.422,59.422,181.531,59.692,181.531,60.009z"/>
</g>
<path fill="#3E3E3F" d="M532.188,51.93c0,0.592-0.395,1.069-0.882,1.069h-28.236c-0.487,0-0.882-0.479-0.882-1.069v-13.86
	c0-0.592,0.395-1.069,0.882-1.069h28.236c0.487,0,0.882,0.479,0.882,1.069V51.93L532.188,51.93z"/>
<g>
	<path fill="#FFFFFF" d="M507.963,44.541c0-0.868-0.028-1.569-0.057-2.213H509l0.068,1.162h0.028
		c0.489-0.826,1.303-1.304,2.409-1.304c1.652,0,2.886,1.388,2.886,3.433c0,2.438-1.499,3.643-3.097,3.643
		c-0.896,0-1.681-0.393-2.086-1.063h-0.028v3.684h-1.22v-7.341H507.963z M509.182,46.348c0,0.184,0.014,0.352,0.056,0.505
		c0.226,0.854,0.968,1.442,1.851,1.442c1.303,0,2.059-1.063,2.059-2.619c0-1.345-0.714-2.508-2.018-2.508
		c-0.84,0-1.639,0.589-1.862,1.513c-0.042,0.154-0.084,0.337-0.084,0.49L509.182,46.348L509.182,46.348z"/>
	<path fill="#FFFFFF" d="M521.77,39.162v8.194c0,0.603,0.027,1.289,0.057,1.751h-1.093l-0.056-1.178h-0.042
		c-0.364,0.757-1.177,1.331-2.283,1.331c-1.64,0-2.914-1.387-2.914-3.445c-0.015-2.256,1.399-3.629,3.04-3.629
		c1.05,0,1.736,0.49,2.045,1.022h0.027v-4.048L521.77,39.162L521.77,39.162z M520.551,45.087c0-0.153-0.014-0.364-0.057-0.518
		c-0.182-0.771-0.854-1.415-1.777-1.415c-1.275,0-2.031,1.12-2.031,2.604c0,1.373,0.686,2.507,2.003,2.507
		c0.826,0,1.583-0.56,1.808-1.471c0.041-0.168,0.057-0.336,0.057-0.532v-1.176H520.551z"/>
	<path fill="#FFFFFF" d="M523.951,49.107v-5.842h-0.938v-0.938h0.938v-0.322c0-0.953,0.225-1.821,0.783-2.367
		c0.463-0.447,1.079-0.631,1.653-0.631c0.448,0,0.813,0.1,1.051,0.196l-0.168,0.952c-0.183-0.084-0.421-0.153-0.785-0.153
		c-1.05,0-1.315,0.91-1.315,1.961v0.364h1.639v0.938h-1.639v5.842H523.951z"/>
</g>
<path fill="#3E3E3F" d="M574.357,51.93c0,0.592-0.395,1.069-0.882,1.069h-28.236c-0.487,0-0.882-0.479-0.882-1.069v-13.86
	c0-0.592,0.395-1.069,0.882-1.069h28.236c0.487,0,0.882,0.479,0.882,1.069V51.93z"/>
<g>
	<path fill="#FFFFFF" d="M555.293,39.162v8.194c0,0.603,0.028,1.289,0.058,1.751h-1.093l-0.057-1.178h-0.041
		c-0.365,0.757-1.178,1.331-2.283,1.331c-1.641,0-2.914-1.387-2.914-3.445c-0.015-2.256,1.399-3.629,3.039-3.629
		c1.051,0,1.736,0.49,2.045,1.022h0.029v-4.048L555.293,39.162L555.293,39.162z M554.076,45.087c0-0.153-0.015-0.364-0.057-0.518
		c-0.182-0.771-0.854-1.415-1.779-1.415c-1.273,0-2.029,1.12-2.029,2.604c0,1.373,0.687,2.507,2.002,2.507
		c0.826,0,1.584-0.56,1.808-1.471c0.042-0.168,0.058-0.336,0.058-0.532v-1.176H554.076z"/>
	<path fill="#FFFFFF" d="M563.484,45.661c0,2.508-1.751,3.601-3.376,3.601c-1.821,0-3.25-1.345-3.25-3.487
		c0-2.256,1.499-3.586,3.362-3.586C562.166,42.187,563.484,43.603,563.484,45.661z M558.119,45.731c0,1.484,0.842,2.604,2.045,2.604
		c1.178,0,2.061-1.105,2.061-2.634c0-1.148-0.574-2.591-2.031-2.591C558.75,43.112,558.119,44.457,558.119,45.731z"/>
	<path fill="#FFFFFF" d="M569.869,48.869c-0.322,0.154-1.037,0.393-1.947,0.393c-2.045,0-3.377-1.387-3.377-3.46
		c0-2.087,1.43-3.613,3.643-3.613c0.729,0,1.373,0.183,1.709,0.363l-0.279,0.938c-0.295-0.154-0.757-0.322-1.43-0.322
		c-1.555,0-2.395,1.163-2.395,2.563c0,1.568,1.008,2.534,2.353,2.534c0.701,0,1.163-0.168,1.515-0.321L569.869,48.869z"/>
</g>
<path fill="#3E3E3F" d="M617.041,51.93c0,0.592-0.395,1.069-0.883,1.069h-28.236c-0.485,0-0.881-0.479-0.881-1.069v-13.86
	c0-0.592,0.396-1.069,0.881-1.069h28.236c0.488,0,0.883,0.479,0.883,1.069V51.93z"/>
<g>
	<path fill="#FFFFFF" d="M595.974,42.328l0.967,1.456c0.267,0.379,0.478,0.715,0.7,1.093h0.027c0.225-0.392,0.449-0.742,0.688-1.105
		l0.938-1.442h1.346l-2.313,3.277l2.367,3.502h-1.387l-1.01-1.526c-0.266-0.393-0.489-0.771-0.729-1.177h-0.027
		c-0.225,0.406-0.447,0.771-0.715,1.177l-0.979,1.526h-1.358l2.409-3.46l-2.298-3.319L595.974,42.328L595.974,42.328z"/>
	<path fill="#FFFFFF" d="M601.881,39.162h1.232v9.945h-1.232V39.162z"/>
	<path fill="#FFFFFF" d="M605.018,47.86c0.378,0.225,1.021,0.477,1.639,0.477c0.883,0,1.303-0.435,1.303-1.009
		c0-0.588-0.35-0.896-1.246-1.232c-1.232-0.447-1.808-1.105-1.808-1.919c0-1.093,0.896-1.988,2.341-1.988
		c0.686,0,1.287,0.183,1.651,0.421l-0.294,0.896c-0.268-0.169-0.757-0.406-1.387-0.406c-0.729,0-1.121,0.42-1.121,0.925
		c0,0.561,0.393,0.813,1.275,1.162c1.161,0.435,1.777,1.022,1.777,2.031c0,1.204-0.938,2.045-2.521,2.045
		c-0.741,0-1.428-0.195-1.903-0.477L605.018,47.86z"/>
</g>
<path fill="#3E3E3F" d="M663.438,51.93c0,0.592-0.396,1.069-0.883,1.069h-28.236c-0.486,0-0.881-0.479-0.881-1.069v-13.86
	c0-0.592,0.395-1.069,0.881-1.069h28.236c0.486,0,0.883,0.479,0.883,1.069V51.93z"/>
<g>
	<path fill="#FFFFFF" d="M637.447,39.162h1.232v4.244h0.029c0.194-0.352,0.504-0.672,0.883-0.883c0.363-0.21,0.797-0.337,1.26-0.337
		c0.91,0,2.367,0.562,2.367,2.887v4.034h-1.232v-3.896c0-1.092-0.406-2.003-1.568-2.003c-0.799,0-1.416,0.562-1.653,1.219
		c-0.068,0.184-0.084,0.364-0.084,0.589v4.091h-1.231v-9.945H637.447z"/>
	<path fill="#FFFFFF" d="M646.646,40.703v1.625h1.766v0.938h-1.766v3.655c0,0.841,0.238,1.317,0.924,1.317
		c0.336,0,0.533-0.028,0.715-0.084l0.058,0.938c-0.238,0.084-0.617,0.168-1.095,0.168c-0.574,0-1.035-0.196-1.33-0.519
		c-0.336-0.378-0.477-0.98-0.477-1.779v-3.697h-1.051v-0.938h1.051v-1.261L646.646,40.703z"/>
	<path fill="#FFFFFF" d="M649.795,44.163c0-0.715-0.027-1.275-0.056-1.835h1.078l0.058,1.105h0.041
		c0.379-0.645,1.008-1.247,2.143-1.247c0.912,0,1.611,0.562,1.906,1.359h0.027c0.211-0.393,0.489-0.673,0.771-0.883
		c0.403-0.309,0.84-0.477,1.483-0.477c0.91,0,2.24,0.589,2.24,2.94v3.979h-1.205v-3.824c0-1.316-0.49-2.087-1.471-2.087
		c-0.713,0-1.246,0.519-1.471,1.105c-0.055,0.184-0.098,0.394-0.098,0.616v4.188h-1.205v-4.063c0-1.078-0.476-1.849-1.414-1.849
		c-0.756,0-1.33,0.615-1.527,1.231c-0.07,0.168-0.098,0.394-0.098,0.604v4.076h-1.205v-4.941H649.795z"/>
</g>
<path fill="#FFFFFF" d="M532.188,124.93c0,0.592-0.395,1.069-0.882,1.069h-28.236c-0.487,0-0.882-0.479-0.882-1.069v-13.86
	c0-0.592,0.395-1.069,0.882-1.069h28.236c0.487,0,0.882,0.479,0.882,1.069V124.93L532.188,124.93z"/>
<g>
	<path fill="#3E3E3F" d="M507.963,117.541c0-0.868-0.028-1.569-0.057-2.213H509l0.068,1.162h0.028
		c0.489-0.826,1.303-1.304,2.409-1.304c1.652,0,2.886,1.388,2.886,3.433c0,2.438-1.499,3.643-3.097,3.643
		c-0.896,0-1.681-0.393-2.086-1.063h-0.028v3.684h-1.22v-7.341H507.963z M509.182,119.348c0,0.184,0.014,0.352,0.056,0.505
		c0.226,0.854,0.968,1.442,1.851,1.442c1.303,0,2.059-1.063,2.059-2.619c0-1.345-0.714-2.508-2.018-2.508
		c-0.84,0-1.639,0.589-1.862,1.513c-0.042,0.154-0.084,0.337-0.084,0.49L509.182,119.348L509.182,119.348z"/>
	<path fill="#3E3E3F" d="M521.77,112.162v8.194c0,0.603,0.027,1.289,0.057,1.751h-1.093l-0.056-1.178h-0.042
		c-0.364,0.757-1.177,1.331-2.283,1.331c-1.64,0-2.914-1.387-2.914-3.445c-0.015-2.256,1.399-3.629,3.04-3.629
		c1.05,0,1.736,0.49,2.045,1.022h0.027v-4.048L521.77,112.162L521.77,112.162z M520.551,118.087c0-0.153-0.014-0.364-0.057-0.518
		c-0.182-0.771-0.854-1.415-1.777-1.415c-1.275,0-2.031,1.12-2.031,2.604c0,1.373,0.686,2.507,2.003,2.507
		c0.826,0,1.583-0.56,1.808-1.471c0.041-0.168,0.057-0.336,0.057-0.532v-1.176H520.551z"/>
	<path fill="#3E3E3F" d="M523.951,122.107v-5.842h-0.938v-0.938h0.938v-0.322c0-0.953,0.225-1.821,0.783-2.367
		c0.463-0.447,1.079-0.631,1.653-0.631c0.448,0,0.813,0.1,1.051,0.196l-0.168,0.952c-0.183-0.084-0.421-0.153-0.785-0.153
		c-1.05,0-1.315,0.91-1.315,1.961v0.364h1.639v0.938h-1.639v5.842H523.951z"/>
</g>
<path fill="#FFFFFF" d="M574.357,124.93c0,0.592-0.395,1.069-0.882,1.069h-28.236c-0.487,0-0.882-0.479-0.882-1.069v-13.86
	c0-0.592,0.395-1.069,0.882-1.069h28.236c0.487,0,0.882,0.479,0.882,1.069V124.93z"/>
<g>
	<path fill="#3E3E3F" d="M555.293,112.162v8.194c0,0.603,0.028,1.289,0.058,1.751h-1.093l-0.057-1.178h-0.041
		c-0.365,0.757-1.178,1.331-2.283,1.331c-1.641,0-2.914-1.387-2.914-3.445c-0.015-2.256,1.399-3.629,3.039-3.629
		c1.051,0,1.736,0.49,2.045,1.022h0.029v-4.048L555.293,112.162L555.293,112.162z M554.076,118.087c0-0.153-0.015-0.364-0.057-0.518
		c-0.182-0.771-0.854-1.415-1.779-1.415c-1.273,0-2.029,1.12-2.029,2.604c0,1.373,0.687,2.507,2.002,2.507
		c0.826,0,1.584-0.56,1.808-1.471c0.042-0.168,0.058-0.336,0.058-0.532v-1.176H554.076z"/>
	<path fill="#3E3E3F" d="M563.484,118.661c0,2.508-1.751,3.601-3.376,3.601c-1.821,0-3.25-1.345-3.25-3.487
		c0-2.256,1.499-3.586,3.362-3.586C562.166,115.187,563.484,116.603,563.484,118.661z M558.119,118.731
		c0,1.484,0.842,2.604,2.045,2.604c1.178,0,2.061-1.105,2.061-2.634c0-1.148-0.574-2.591-2.031-2.591
		C558.75,116.112,558.119,117.457,558.119,118.731z"/>
	<path fill="#3E3E3F" d="M569.869,121.869c-0.322,0.154-1.037,0.393-1.947,0.393c-2.045,0-3.377-1.387-3.377-3.46
		c0-2.087,1.43-3.613,3.643-3.613c0.729,0,1.373,0.183,1.709,0.363l-0.279,0.938c-0.295-0.154-0.757-0.322-1.43-0.322
		c-1.555,0-2.395,1.163-2.395,2.563c0,1.568,1.008,2.534,2.353,2.534c0.701,0,1.163-0.168,1.515-0.321L569.869,121.869z"/>
</g>
<path fill="#FFFFFF" d="M617.041,124.93c0,0.592-0.395,1.069-0.883,1.069h-28.236c-0.485,0-0.881-0.479-0.881-1.069v-13.86
	c0-0.592,0.396-1.069,0.881-1.069h28.236c0.488,0,0.883,0.479,0.883,1.069V124.93z"/>
<g>
	<path fill="#3E3E3F" d="M595.974,115.328l0.967,1.456c0.267,0.379,0.478,0.715,0.7,1.093h0.027
		c0.225-0.392,0.449-0.742,0.688-1.105l0.938-1.442h1.346l-2.313,3.277l2.367,3.502h-1.387l-1.01-1.526
		c-0.266-0.393-0.489-0.771-0.729-1.177h-0.027c-0.225,0.406-0.447,0.771-0.715,1.177l-0.979,1.526h-1.358l2.409-3.46l-2.298-3.319
		L595.974,115.328L595.974,115.328z"/>
	<path fill="#3E3E3F" d="M601.881,112.162h1.232v9.945h-1.232V112.162z"/>
	<path fill="#3E3E3F" d="M605.018,120.86c0.378,0.225,1.021,0.477,1.639,0.477c0.883,0,1.303-0.435,1.303-1.009
		c0-0.588-0.35-0.896-1.246-1.232c-1.232-0.447-1.808-1.105-1.808-1.919c0-1.093,0.896-1.988,2.341-1.988
		c0.686,0,1.287,0.183,1.651,0.421l-0.294,0.896c-0.268-0.169-0.757-0.406-1.387-0.406c-0.729,0-1.121,0.42-1.121,0.925
		c0,0.561,0.393,0.813,1.275,1.162c1.161,0.435,1.777,1.022,1.777,2.031c0,1.204-0.938,2.045-2.521,2.045
		c-0.741,0-1.428-0.195-1.903-0.477L605.018,120.86z"/>
</g>
<path fill="#FFFFFF" d="M663.438,124.93c0,0.592-0.396,1.069-0.883,1.069h-28.236c-0.486,0-0.881-0.479-0.881-1.069v-13.86
	c0-0.592,0.395-1.069,0.881-1.069h28.236c0.486,0,0.883,0.479,0.883,1.069V124.93z"/>
<g>
	<path fill="#3E3E3F" d="M637.447,112.162h1.232v4.244h0.029c0.194-0.352,0.504-0.672,0.883-0.883
		c0.363-0.21,0.797-0.337,1.26-0.337c0.91,0,2.367,0.562,2.367,2.887v4.034h-1.232v-3.896c0-1.092-0.406-2.003-1.568-2.003
		c-0.799,0-1.416,0.562-1.653,1.219c-0.068,0.184-0.084,0.364-0.084,0.589v4.091h-1.231v-9.945H637.447z"/>
	<path fill="#3E3E3F" d="M646.646,113.703v1.625h1.766v0.938h-1.766v3.655c0,0.841,0.238,1.317,0.924,1.317
		c0.336,0,0.533-0.028,0.715-0.084l0.058,0.938c-0.238,0.084-0.617,0.168-1.095,0.168c-0.574,0-1.035-0.196-1.33-0.519
		c-0.336-0.378-0.477-0.98-0.477-1.779v-3.697h-1.051v-0.938h1.051v-1.261L646.646,113.703z"/>
	<path fill="#3E3E3F" d="M649.795,117.163c0-0.715-0.027-1.275-0.056-1.835h1.078l0.058,1.105h0.041
		c0.379-0.645,1.008-1.247,2.143-1.247c0.912,0,1.611,0.562,1.906,1.359h0.027c0.211-0.393,0.489-0.673,0.771-0.883
		c0.403-0.309,0.84-0.477,1.483-0.477c0.91,0,2.24,0.589,2.24,2.94v3.979h-1.205v-3.824c0-1.316-0.49-2.087-1.471-2.087
		c-0.713,0-1.246,0.519-1.471,1.105c-0.055,0.184-0.098,0.394-0.098,0.616v4.188h-1.205v-4.063c0-1.078-0.476-1.849-1.414-1.849
		c-0.756,0-1.33,0.615-1.527,1.231c-0.07,0.168-0.098,0.394-0.098,0.604v4.076h-1.205v-4.941H649.795z"/>
</g>
<path fill="none" stroke="#3E3E3F" stroke-miterlimit="10" d="M532.188,153.93c0,0.592-0.395,1.069-0.882,1.069h-28.236
	c-0.487,0-0.882-0.479-0.882-1.069v-13.86c0-0.592,0.395-1.069,0.882-1.069h28.236c0.487,0,0.882,0.479,0.882,1.069V153.93
	L532.188,153.93z"/>
<text transform="matrix(1 0 0 1 506.9404 151.1074)" fill="#3E3E3F" font-family="'MyriadPro-Regular'" font-size="14">pdf</text>
<path fill="none" stroke="#3E3E3F" stroke-miterlimit="10" d="M574.357,153.93c0,0.592-0.395,1.069-0.882,1.069h-28.236
	c-0.487,0-0.882-0.479-0.882-1.069v-13.86c0-0.592,0.395-1.069,0.882-1.069h28.236c0.487,0,0.882,0.479,0.882,1.069V153.93z"/>
<text transform="matrix(1 0 0 1 548.4307 151.1074)" fill="#3E3E3F" font-family="'MyriadPro-Regular'" font-size="14">doc</text>
<path fill="none" stroke="#3E3E3F" stroke-miterlimit="10" d="M617.041,153.93c0,0.592-0.395,1.069-0.883,1.069h-28.236
	c-0.485,0-0.881-0.479-0.881-1.069v-13.86c0-0.592,0.396-1.069,0.881-1.069h28.236c0.488,0,0.883,0.479,0.883,1.069V153.93z"/>
<text transform="matrix(1 0 0 1 594.377 151.1074)" fill="#3E3E3F" font-family="'MyriadPro-Regular'" font-size="14">xls</text>
<path fill="none" stroke="#3E3E3F" stroke-miterlimit="10" d="M663.438,153.93c0,0.592-0.396,1.069-0.883,1.069h-28.236
	c-0.486,0-0.881-0.479-0.881-1.069v-13.86c0-0.592,0.395-1.069,0.881-1.069h28.236c0.486,0,0.883,0.479,0.883,1.069V153.93z"/>
<text transform="matrix(1 0 0 1 636.4258 151.1074)" fill="#3E3E3F" font-family="'MyriadPro-Regular'" font-size="14">htm</text>
<path fill="none" d="M532.188,91.93c0,0.592-0.395,1.069-0.882,1.069h-28.236c-0.487,0-0.882-0.479-0.882-1.069v-13.86
	c0-0.592,0.395-1.069,0.882-1.069h28.236c0.487,0,0.882,0.479,0.882,1.069V91.93L532.188,91.93z"/>
<g>
	<path fill="#3E3E3F" d="M507.963,84.541c0-0.868-0.028-1.569-0.057-2.213H509l0.068,1.162h0.028
		c0.489-0.826,1.303-1.304,2.409-1.304c1.652,0,2.886,1.388,2.886,3.433c0,2.438-1.499,3.643-3.097,3.643
		c-0.896,0-1.681-0.393-2.086-1.063h-0.028v3.684h-1.22v-7.341H507.963z M509.182,86.348c0,0.184,0.014,0.352,0.056,0.505
		c0.226,0.854,0.968,1.442,1.851,1.442c1.303,0,2.059-1.063,2.059-2.619c0-1.345-0.714-2.508-2.018-2.508
		c-0.84,0-1.639,0.589-1.862,1.513c-0.042,0.154-0.084,0.337-0.084,0.49L509.182,86.348L509.182,86.348z"/>
	<path fill="#3E3E3F" d="M521.77,79.162v8.194c0,0.603,0.027,1.289,0.057,1.751h-1.093l-0.056-1.178h-0.042
		c-0.364,0.757-1.177,1.331-2.283,1.331c-1.64,0-2.914-1.387-2.914-3.445c-0.015-2.256,1.399-3.629,3.04-3.629
		c1.05,0,1.736,0.49,2.045,1.022h0.027v-4.048L521.77,79.162L521.77,79.162z M520.551,85.087c0-0.153-0.014-0.364-0.057-0.518
		c-0.182-0.771-0.854-1.415-1.777-1.415c-1.275,0-2.031,1.12-2.031,2.604c0,1.373,0.686,2.507,2.003,2.507
		c0.826,0,1.583-0.56,1.808-1.471c0.041-0.168,0.057-0.336,0.057-0.532v-1.176H520.551z"/>
	<path fill="#3E3E3F" d="M523.951,89.107v-5.842h-0.938v-0.938h0.938v-0.322c0-0.953,0.225-1.821,0.783-2.367
		c0.463-0.447,1.079-0.631,1.653-0.631c0.448,0,0.813,0.1,1.051,0.196l-0.168,0.952c-0.183-0.084-0.421-0.153-0.785-0.153
		c-1.05,0-1.315,0.91-1.315,1.961v0.364h1.639v0.938h-1.639v5.842H523.951z"/>
</g>
<path fill="none" d="M574.357,91.93c0,0.592-0.395,1.069-0.882,1.069h-28.236c-0.487,0-0.882-0.479-0.882-1.069v-13.86
	c0-0.592,0.395-1.069,0.882-1.069h28.236c0.487,0,0.882,0.479,0.882,1.069V91.93z"/>
<g>
	<path fill="#3E3E3F" d="M555.293,79.162v8.194c0,0.603,0.028,1.289,0.058,1.751h-1.093l-0.057-1.178h-0.041
		c-0.365,0.757-1.178,1.331-2.283,1.331c-1.641,0-2.914-1.387-2.914-3.445c-0.015-2.256,1.399-3.629,3.039-3.629
		c1.051,0,1.736,0.49,2.045,1.022h0.029v-4.048L555.293,79.162L555.293,79.162z M554.076,85.087c0-0.153-0.015-0.364-0.057-0.518
		c-0.182-0.771-0.854-1.415-1.779-1.415c-1.273,0-2.029,1.12-2.029,2.604c0,1.373,0.687,2.507,2.002,2.507
		c0.826,0,1.584-0.56,1.808-1.471c0.042-0.168,0.058-0.336,0.058-0.532v-1.176H554.076z"/>
	<path fill="#3E3E3F" d="M563.484,85.661c0,2.508-1.751,3.601-3.376,3.601c-1.821,0-3.25-1.345-3.25-3.487
		c0-2.256,1.499-3.586,3.362-3.586C562.166,82.187,563.484,83.603,563.484,85.661z M558.119,85.731c0,1.484,0.842,2.604,2.045,2.604
		c1.178,0,2.061-1.105,2.061-2.634c0-1.148-0.574-2.591-2.031-2.591C558.75,83.112,558.119,84.457,558.119,85.731z"/>
	<path fill="#3E3E3F" d="M569.869,88.869c-0.322,0.154-1.037,0.393-1.947,0.393c-2.045,0-3.377-1.387-3.377-3.46
		c0-2.087,1.43-3.613,3.643-3.613c0.729,0,1.373,0.183,1.709,0.363l-0.279,0.938c-0.295-0.154-0.757-0.322-1.43-0.322
		c-1.555,0-2.395,1.163-2.395,2.563c0,1.568,1.008,2.534,2.353,2.534c0.701,0,1.163-0.168,1.515-0.321L569.869,88.869z"/>
</g>
<path fill="none" d="M617.041,91.93c0,0.592-0.395,1.069-0.883,1.069h-28.236c-0.485,0-0.881-0.479-0.881-1.069v-13.86
	c0-0.592,0.396-1.069,0.881-1.069h28.236c0.488,0,0.883,0.479,0.883,1.069V91.93z"/>
<g>
	<path fill="#3E3E3F" d="M595.974,82.328l0.967,1.456c0.267,0.379,0.478,0.715,0.7,1.093h0.027c0.225-0.392,0.449-0.742,0.688-1.105
		l0.938-1.442h1.346l-2.313,3.277l2.367,3.502h-1.387l-1.01-1.526c-0.266-0.393-0.489-0.771-0.729-1.177h-0.027
		c-0.225,0.406-0.447,0.771-0.715,1.177l-0.979,1.526h-1.358l2.409-3.46l-2.298-3.319L595.974,82.328L595.974,82.328z"/>
	<path fill="#3E3E3F" d="M601.881,79.162h1.232v9.945h-1.232V79.162z"/>
	<path fill="#3E3E3F" d="M605.018,87.86c0.378,0.225,1.021,0.477,1.639,0.477c0.883,0,1.303-0.435,1.303-1.009
		c0-0.588-0.35-0.896-1.246-1.232c-1.232-0.447-1.808-1.105-1.808-1.919c0-1.093,0.896-1.988,2.341-1.988
		c0.686,0,1.287,0.183,1.651,0.421l-0.294,0.896c-0.268-0.169-0.757-0.406-1.387-0.406c-0.729,0-1.121,0.42-1.121,0.925
		c0,0.561,0.393,0.813,1.275,1.162c1.161,0.435,1.777,1.022,1.777,2.031c0,1.204-0.938,2.045-2.521,2.045
		c-0.741,0-1.428-0.195-1.903-0.477L605.018,87.86z"/>
</g>
<path fill="none" d="M663.438,91.93c0,0.592-0.396,1.069-0.883,1.069h-28.236c-0.486,0-0.881-0.479-0.881-1.069v-13.86
	c0-0.592,0.395-1.069,0.881-1.069h28.236c0.486,0,0.883,0.479,0.883,1.069V91.93z"/>
<g>
	<path fill="#3E3E3F" d="M637.447,79.162h1.232v4.244h0.029c0.194-0.352,0.504-0.672,0.883-0.883c0.363-0.21,0.797-0.337,1.26-0.337
		c0.91,0,2.367,0.562,2.367,2.887v4.034h-1.232v-3.896c0-1.092-0.406-2.003-1.568-2.003c-0.799,0-1.416,0.562-1.653,1.219
		c-0.068,0.184-0.084,0.364-0.084,0.589v4.091h-1.231v-9.945H637.447z"/>
	<path fill="#3E3E3F" d="M646.646,80.703v1.625h1.766v0.938h-1.766v3.655c0,0.841,0.238,1.317,0.924,1.317
		c0.336,0,0.533-0.028,0.715-0.084l0.058,0.938c-0.238,0.084-0.617,0.168-1.095,0.168c-0.574,0-1.035-0.196-1.33-0.519
		c-0.336-0.378-0.477-0.98-0.477-1.779v-3.697h-1.051v-0.938h1.051v-1.261L646.646,80.703z"/>
	<path fill="#3E3E3F" d="M649.795,84.163c0-0.715-0.027-1.275-0.056-1.835h1.078l0.058,1.105h0.041
		c0.379-0.645,1.008-1.247,2.143-1.247c0.912,0,1.611,0.562,1.906,1.359h0.027c0.211-0.393,0.489-0.673,0.771-0.883
		c0.403-0.309,0.84-0.477,1.483-0.477c0.91,0,2.24,0.589,2.24,2.94v3.979h-1.205v-3.824c0-1.316-0.49-2.087-1.471-2.087
		c-0.713,0-1.246,0.519-1.471,1.105c-0.055,0.184-0.098,0.394-0.098,0.616v4.188h-1.205v-4.063c0-1.078-0.476-1.849-1.414-1.849
		c-0.756,0-1.33,0.615-1.527,1.231c-0.07,0.168-0.098,0.394-0.098,0.604v4.076h-1.205v-4.941H649.795z"/>
</g>
<path fill="#3E3E3F" d="M532.188,16.93c0,0.592-0.395,1.069-0.882,1.069h-28.236c-0.487,0-0.882-0.479-0.882-1.069V3.069
	c0-0.592,0.395-1.069,0.882-1.069h28.236c0.487,0,0.882,0.479,0.882,1.069V16.93L532.188,16.93z M507.963,16.881h1.219v-3.684h0.027
	c0.406,0.672,1.19,1.063,2.088,1.063c1.597,0,3.096-1.205,3.096-3.643c0-2.045-1.232-3.433-2.887-3.433
	c-1.105,0-1.918,0.478-2.408,1.304h-0.028L509,7.327h-1.092c0.026,0.644,0.055,1.345,0.055,2.213V16.881L507.963,16.881z
	 M509.182,10.171c0-0.153,0.042-0.336,0.084-0.49c0.225-0.924,1.021-1.513,1.863-1.513c1.303,0,2.017,1.163,2.017,2.508
	c0,1.556-0.756,2.619-2.06,2.619c-0.883,0-1.625-0.588-1.85-1.442c-0.042-0.153-0.056-0.321-0.056-0.505L509.182,10.171
	L509.182,10.171z M520.551,4.162V8.21h-0.027c-0.309-0.532-0.995-1.021-2.045-1.021c-1.641,0-3.055,1.372-3.04,3.628
	c0,2.06,1.274,3.445,2.914,3.445c1.106,0,1.919-0.573,2.283-1.331h0.042l0.056,1.178h1.093c-0.027-0.462-0.057-1.148-0.057-1.751
	V4.163L520.551,4.162L520.551,4.162z M520.551,11.264c0,0.196-0.014,0.364-0.057,0.532c-0.224,0.911-0.979,1.471-1.807,1.471
	c-1.316,0-2.003-1.134-2.003-2.507c0-1.484,0.756-2.604,2.03-2.604c0.925,0,1.598,0.645,1.779,1.415
	c0.041,0.152,0.057,0.364,0.057,0.518V11.264L520.551,11.264z M525.168,14.107V8.266h1.64V7.328h-1.64V6.964
	c0-1.051,0.268-1.961,1.316-1.961c0.364,0,0.604,0.069,0.785,0.153l0.168-0.952c-0.238-0.098-0.604-0.196-1.051-0.196
	c-0.574,0-1.19,0.184-1.653,0.631c-0.56,0.546-0.784,1.414-0.784,2.367v0.322h-0.938v0.938h0.938v5.842H525.168z"/>
<path fill="#3E3E3F" d="M574.357,16.93c0,0.592-0.395,1.069-0.882,1.069h-28.236c-0.487,0-0.882-0.479-0.882-1.069V3.069
	c0-0.592,0.395-1.069,0.882-1.069h28.236c0.487,0,0.882,0.479,0.882,1.069V16.93z M554.076,4.162V8.21h-0.027
	c-0.31-0.532-0.995-1.021-2.045-1.021c-1.641,0-3.055,1.372-3.041,3.628c0,2.06,1.274,3.445,2.914,3.445
	c1.106,0,1.92-0.573,2.283-1.331h0.043l0.055,1.178h1.094c-0.027-0.462-0.057-1.148-0.057-1.751V4.163L554.076,4.162L554.076,4.162z
	 M554.076,11.264c0,0.196-0.015,0.364-0.057,0.532c-0.225,0.911-0.98,1.471-1.807,1.471c-1.316,0-2.004-1.134-2.004-2.507
	c0-1.484,0.756-2.604,2.03-2.604c0.925,0,1.599,0.645,1.779,1.415c0.042,0.152,0.058,0.364,0.058,0.518V11.264L554.076,11.264z
	 M560.221,7.187c-1.863,0-3.362,1.331-3.362,3.587c0,2.144,1.429,3.487,3.25,3.487c1.625,0,3.376-1.093,3.376-3.601
	C563.484,8.603,562.166,7.187,560.221,7.187z M560.192,8.112c1.457,0,2.031,1.441,2.031,2.591c0,1.527-0.884,2.634-2.06,2.634
	c-1.205,0-2.045-1.12-2.045-2.604C558.119,9.457,558.75,8.112,560.192,8.112z M569.658,12.944c-0.351,0.153-0.813,0.321-1.514,0.321
	c-1.346,0-2.354-0.966-2.354-2.534c0-1.4,0.84-2.563,2.396-2.563c0.673,0,1.135,0.168,1.429,0.322l0.28-0.938
	c-0.336-0.182-0.979-0.363-1.709-0.363c-2.213,0-3.642,1.526-3.642,3.613c0,2.073,1.33,3.46,3.375,3.46
	c0.91,0,1.625-0.237,1.947-0.393L569.658,12.944z"/>
<path fill="#3E3E3F" d="M617.041,16.93c0,0.592-0.395,1.069-0.883,1.069h-28.236c-0.485,0-0.881-0.479-0.881-1.069V3.069
	c0-0.592,0.396-1.069,0.881-1.069h28.236c0.488,0,0.883,0.479,0.883,1.069V16.93z M594.601,7.328l2.298,3.319l-2.409,3.46h1.358
	l0.98-1.526c0.267-0.406,0.489-0.771,0.715-1.177h0.026c0.238,0.405,0.464,0.784,0.729,1.177l1.009,1.526h1.387l-2.366-3.502
	l2.312-3.277h-1.345l-0.938,1.441c-0.237,0.364-0.463,0.716-0.687,1.106h-0.028c-0.224-0.378-0.435-0.714-0.7-1.093l-0.967-1.456
	L594.601,7.328L594.601,7.328z M601.881,14.107h1.232V4.162h-1.232V14.107z M604.724,13.785c0.476,0.28,1.162,0.477,1.903,0.477
	c1.584,0,2.521-0.841,2.521-2.045c0-1.009-0.615-1.598-1.777-2.031c-0.884-0.351-1.275-0.603-1.275-1.162
	c0-0.505,0.393-0.925,1.121-0.925c0.63,0,1.119,0.237,1.387,0.406l0.294-0.896c-0.364-0.238-0.967-0.421-1.651-0.421
	c-1.443,0-2.341,0.896-2.341,1.988c0,0.813,0.574,1.472,1.808,1.919c0.896,0.336,1.246,0.646,1.246,1.232
	c0,0.574-0.42,1.009-1.303,1.009c-0.615,0-1.261-0.252-1.639-0.477L604.724,13.785z"/>
<path fill="#3E3E3F" d="M663.438,16.93c0,0.592-0.396,1.069-0.883,1.069h-28.236c-0.486,0-0.881-0.479-0.881-1.069V3.069
	c0-0.592,0.395-1.069,0.881-1.069h28.236c0.486,0,0.883,0.479,0.883,1.069V16.93z M637.447,14.107h1.232v-4.091
	c0-0.225,0.016-0.405,0.084-0.589c0.238-0.657,0.855-1.219,1.654-1.219c1.162,0,1.567,0.911,1.567,2.003v3.896h1.231v-4.034
	c0-2.325-1.456-2.886-2.366-2.886c-0.463,0-0.896,0.126-1.261,0.336c-0.379,0.211-0.688,0.531-0.883,0.883h-0.028V4.162h-1.232
	L637.447,14.107L637.447,14.107z M645.441,6.067v1.261h-1.051v0.938h1.051v3.697c0,0.799,0.141,1.401,0.477,1.779
	c0.295,0.321,0.756,0.519,1.33,0.519c0.478,0,0.855-0.084,1.094-0.168l-0.057-0.938c-0.182,0.056-0.379,0.084-0.715,0.084
	c-0.686,0-0.924-0.478-0.924-1.317V8.267h1.766V7.329h-1.766V5.704L645.441,6.067z M649.795,14.107H651v-4.076
	c0-0.21,0.026-0.436,0.098-0.604c0.197-0.615,0.771-1.231,1.527-1.231c0.938,0,1.414,0.771,1.414,1.849v4.063h1.205V9.92
	c0-0.224,0.043-0.434,0.098-0.616c0.225-0.588,0.758-1.105,1.471-1.105c0.98,0,1.471,0.771,1.471,2.087v3.824h1.205V10.13
	c0-2.353-1.33-2.94-2.24-2.94c-0.645,0-1.08,0.168-1.483,0.477c-0.281,0.21-0.562,0.49-0.771,0.883h-0.027
	c-0.295-0.799-0.994-1.358-1.906-1.358c-1.135,0-1.764,0.603-2.143,1.247h-0.041l-0.058-1.106h-1.078
	c0.027,0.56,0.056,1.12,0.056,1.835v4.941H649.795z"/>
<path fill="#FFFFFF" stroke="#3E3E3F" stroke-miterlimit="10" d="M532.188,181.93c0,0.592-0.395,1.069-0.882,1.069h-28.236
	c-0.487,0-0.882-0.479-0.882-1.069v-13.86c0-0.592,0.395-1.069,0.882-1.069h28.236c0.487,0,0.882,0.479,0.882,1.069V181.93
	L532.188,181.93z"/>
<g>
	<path fill="#3E3E3F" d="M507.963,174.541c0-0.868-0.028-1.569-0.057-2.213H509l0.068,1.162h0.028
		c0.489-0.826,1.303-1.304,2.409-1.304c1.652,0,2.886,1.388,2.886,3.433c0,2.438-1.499,3.643-3.097,3.643
		c-0.896,0-1.681-0.393-2.086-1.063h-0.028v3.684h-1.22v-7.341H507.963z M509.182,176.348c0,0.184,0.014,0.352,0.056,0.505
		c0.226,0.854,0.968,1.442,1.851,1.442c1.303,0,2.059-1.063,2.059-2.619c0-1.345-0.714-2.508-2.018-2.508
		c-0.84,0-1.639,0.589-1.862,1.513c-0.042,0.154-0.084,0.337-0.084,0.49L509.182,176.348L509.182,176.348z"/>
	<path fill="#3E3E3F" d="M521.77,169.162v8.194c0,0.603,0.027,1.289,0.057,1.751h-1.093l-0.056-1.178h-0.042
		c-0.364,0.757-1.177,1.331-2.283,1.331c-1.64,0-2.914-1.387-2.914-3.445c-0.015-2.256,1.399-3.629,3.04-3.629
		c1.05,0,1.736,0.49,2.045,1.022h0.027v-4.048L521.77,169.162L521.77,169.162z M520.551,175.087c0-0.153-0.014-0.364-0.057-0.518
		c-0.182-0.771-0.854-1.415-1.777-1.415c-1.275,0-2.031,1.12-2.031,2.604c0,1.373,0.686,2.507,2.003,2.507
		c0.826,0,1.583-0.56,1.808-1.471c0.041-0.168,0.057-0.336,0.057-0.532v-1.176H520.551z"/>
	<path fill="#3E3E3F" d="M523.951,179.107v-5.842h-0.938v-0.938h0.938v-0.322c0-0.953,0.225-1.821,0.783-2.367
		c0.463-0.447,1.079-0.631,1.653-0.631c0.448,0,0.813,0.1,1.051,0.196l-0.168,0.952c-0.183-0.084-0.421-0.153-0.785-0.153
		c-1.05,0-1.315,0.91-1.315,1.961v0.364h1.639v0.938h-1.639v5.842H523.951z"/>
</g>
<path fill="#FFFFFF" stroke="#3E3E3F" stroke-miterlimit="10" d="M574.357,181.93c0,0.592-0.395,1.069-0.882,1.069h-28.236
	c-0.487,0-0.882-0.479-0.882-1.069v-13.86c0-0.592,0.395-1.069,0.882-1.069h28.236c0.487,0,0.882,0.479,0.882,1.069V181.93z"/>
<g>
	<path fill="#3E3E3F" d="M555.293,169.162v8.194c0,0.603,0.028,1.289,0.058,1.751h-1.093l-0.057-1.178h-0.041
		c-0.365,0.757-1.178,1.331-2.283,1.331c-1.641,0-2.914-1.387-2.914-3.445c-0.015-2.256,1.399-3.629,3.039-3.629
		c1.051,0,1.736,0.49,2.045,1.022h0.029v-4.048L555.293,169.162L555.293,169.162z M554.076,175.087c0-0.153-0.015-0.364-0.057-0.518
		c-0.182-0.771-0.854-1.415-1.779-1.415c-1.273,0-2.029,1.12-2.029,2.604c0,1.373,0.687,2.507,2.002,2.507
		c0.826,0,1.584-0.56,1.808-1.471c0.042-0.168,0.058-0.336,0.058-0.532v-1.176H554.076z"/>
	<path fill="#3E3E3F" d="M563.484,175.661c0,2.508-1.751,3.601-3.376,3.601c-1.821,0-3.25-1.345-3.25-3.487
		c0-2.256,1.499-3.586,3.362-3.586C562.166,172.187,563.484,173.603,563.484,175.661z M558.119,175.731
		c0,1.484,0.842,2.604,2.045,2.604c1.178,0,2.061-1.105,2.061-2.634c0-1.148-0.574-2.591-2.031-2.591
		C558.75,173.112,558.119,174.457,558.119,175.731z"/>
	<path fill="#3E3E3F" d="M569.869,178.869c-0.322,0.154-1.037,0.393-1.947,0.393c-2.045,0-3.377-1.387-3.377-3.46
		c0-2.087,1.43-3.613,3.643-3.613c0.729,0,1.373,0.183,1.709,0.363l-0.279,0.938c-0.295-0.154-0.757-0.322-1.43-0.322
		c-1.555,0-2.395,1.163-2.395,2.563c0,1.568,1.008,2.534,2.353,2.534c0.701,0,1.163-0.168,1.515-0.321L569.869,178.869z"/>
</g>
<path fill="#FFFFFF" stroke="#3E3E3F" stroke-miterlimit="10" d="M617.041,181.93c0,0.592-0.395,1.069-0.883,1.069h-28.236
	c-0.485,0-0.881-0.479-0.881-1.069v-13.86c0-0.592,0.396-1.069,0.881-1.069h28.236c0.488,0,0.883,0.479,0.883,1.069V181.93z"/>
<g>
	<path fill="#3E3E3F" d="M595.974,172.328l0.967,1.456c0.267,0.379,0.478,0.715,0.7,1.093h0.027
		c0.225-0.392,0.449-0.742,0.688-1.105l0.938-1.442h1.346l-2.313,3.277l2.367,3.502h-1.387l-1.01-1.526
		c-0.266-0.393-0.489-0.771-0.729-1.177h-0.027c-0.225,0.406-0.447,0.771-0.715,1.177l-0.979,1.526h-1.358l2.409-3.46l-2.298-3.319
		L595.974,172.328L595.974,172.328z"/>
	<path fill="#3E3E3F" d="M601.881,169.162h1.232v9.945h-1.232V169.162z"/>
	<path fill="#3E3E3F" d="M605.018,177.86c0.378,0.225,1.021,0.477,1.639,0.477c0.883,0,1.303-0.435,1.303-1.009
		c0-0.588-0.35-0.896-1.246-1.232c-1.232-0.447-1.808-1.105-1.808-1.919c0-1.093,0.896-1.988,2.341-1.988
		c0.686,0,1.287,0.183,1.651,0.421l-0.294,0.896c-0.268-0.169-0.757-0.406-1.387-0.406c-0.729,0-1.121,0.42-1.121,0.925
		c0,0.561,0.393,0.813,1.275,1.162c1.161,0.435,1.777,1.022,1.777,2.031c0,1.204-0.938,2.045-2.521,2.045
		c-0.741,0-1.428-0.195-1.903-0.477L605.018,177.86z"/>
</g>
<path fill="#FFFFFF" stroke="#3E3E3F" stroke-miterlimit="10" d="M663.438,181.93c0,0.592-0.396,1.069-0.883,1.069h-28.236
	c-0.486,0-0.881-0.479-0.881-1.069v-13.86c0-0.592,0.395-1.069,0.881-1.069h28.236c0.486,0,0.883,0.479,0.883,1.069V181.93z"/>
<g>
	<path fill="#3E3E3F" d="M637.447,169.162h1.232v4.244h0.029c0.194-0.352,0.504-0.672,0.883-0.883
		c0.363-0.21,0.797-0.337,1.26-0.337c0.91,0,2.367,0.562,2.367,2.887v4.034h-1.232v-3.896c0-1.092-0.406-2.003-1.568-2.003
		c-0.799,0-1.416,0.562-1.653,1.219c-0.068,0.184-0.084,0.364-0.084,0.589v4.091h-1.231v-9.945H637.447z"/>
	<path fill="#3E3E3F" d="M646.646,170.703v1.625h1.766v0.938h-1.766v3.655c0,0.841,0.238,1.317,0.924,1.317
		c0.336,0,0.533-0.028,0.715-0.084l0.058,0.938c-0.238,0.084-0.617,0.168-1.095,0.168c-0.574,0-1.035-0.196-1.33-0.519
		c-0.336-0.378-0.477-0.98-0.477-1.779v-3.697h-1.051v-0.938h1.051v-1.261L646.646,170.703z"/>
	<path fill="#3E3E3F" d="M649.795,174.163c0-0.715-0.027-1.275-0.056-1.835h1.078l0.058,1.105h0.041
		c0.379-0.645,1.008-1.247,2.143-1.247c0.912,0,1.611,0.562,1.906,1.359h0.027c0.211-0.393,0.489-0.673,0.771-0.883
		c0.403-0.309,0.84-0.477,1.483-0.477c0.91,0,2.24,0.589,2.24,2.94v3.979h-1.205v-3.824c0-1.316-0.49-2.087-1.471-2.087
		c-0.713,0-1.246,0.519-1.471,1.105c-0.055,0.184-0.098,0.394-0.098,0.616v4.188h-1.205v-4.063c0-1.078-0.476-1.849-1.414-1.849
		c-0.756,0-1.33,0.615-1.527,1.231c-0.07,0.168-0.098,0.394-0.098,0.604v4.076h-1.205v-4.941H649.795z"/>
</g>
<path fill="#3E3E3F" d="M696.12,11.392c-0.246-0.242-0.789-0.369-1.617-0.38c-0.56-0.007-1.232,0.042-1.941,0.142
	c-0.316-0.183-0.645-0.382-0.9-0.623c-0.691-0.644-1.268-1.539-1.627-2.524c0.022-0.092,0.043-0.173,0.063-0.255
	c0,0,0.389-2.21,0.285-2.958c-0.014-0.103-0.022-0.132-0.049-0.212l-0.035-0.086c-0.105-0.244-0.313-0.502-0.639-0.488L689.462,4
	c-0.362,0-0.658,0.185-0.734,0.463c-0.237,0.87,0.007,2.17,0.447,3.856l-0.112,0.275c-0.315,0.769-0.711,1.545-1.062,2.229
	l-0.045,0.089c-0.367,0.719-0.701,1.33-1.002,1.847l-0.312,0.165c-0.024,0.012-0.56,0.294-0.685,0.371
	c-1.063,0.635-1.769,1.357-1.886,1.93c-0.036,0.182-0.01,0.416,0.181,0.524l0.301,0.151c0.131,0.066,0.269,0.1,0.41,0.1
	c0.759,0,1.639-0.944,2.85-3.06c1.4-0.456,2.993-0.834,4.391-1.044c1.063,0.6,2.373,1.017,3.198,1.017
	c0.147,0,0.272-0.014,0.376-0.042c0.159-0.043,0.292-0.133,0.374-0.256c0.16-0.241,0.192-0.574,0.147-0.914
	c-0.012-0.101-0.094-0.226-0.18-0.312V11.392z M684.798,15.424c0.14-0.378,0.688-1.125,1.496-1.787
	c0.049-0.042,0.176-0.158,0.291-0.268C685.738,14.718,685.173,15.255,684.798,15.424z M689.591,4.392
	c0.244,0,0.382,0.614,0.393,1.189c0.012,0.576-0.123,0.979-0.29,1.28c-0.139-0.443-0.206-1.141-0.206-1.596
	C689.488,5.264,689.479,4.392,689.591,4.392z M688.161,12.254c0.17-0.304,0.346-0.624,0.526-0.963
	c0.438-0.832,0.718-1.482,0.925-2.018c0.411,0.749,0.924,1.385,1.526,1.895c0.075,0.063,0.155,0.127,0.239,0.191
	C690.152,11.601,689.095,11.896,688.161,12.254L688.161,12.254z M695.884,12.185c-0.074,0.046-0.288,0.073-0.426,0.073
	c-0.443,0-0.992-0.202-1.763-0.532c0.298-0.022,0.568-0.033,0.812-0.033c0.443,0,0.576-0.002,1.011,0.109
	C695.952,11.914,695.96,12.138,695.884,12.185L695.884,12.185z"/>
<g transform="translate(196 1296)">
	<path fill="#3E3E3F" d="M587.183-1289.847h1.037l-1.197,5.303L585.47-1292h-2.499l-1.808,7.456l-1.355-7.456h-2.611l2.65,12h2.553
		l1.787-7.097l1.6,7.097h2.354l3.039-12h-3.996L587.183-1289.847L587.183-1289.847z"/>
</g>
<g transform="translate(246 1296)">
	<path fill="#3E3E3F" d="M569.604-1292h-3.17l-2.244,3.306l-2.244-3.306h-3.172l3.802,5.683l-4.289,6.317h6.146v-2.146h-1.419
		l1.177-1.759l2.609,3.904h3.291l-4.289-6.317L569.604-1292z"/>
</g>
<g>
	<path fill="none" stroke="#3E3E3F" stroke-miterlimit="10" d="M848.188,16.844c0,0.639-0.342,1.156-0.762,1.156H832.95
		c-0.421,0-0.763-0.518-0.763-1.156V3.156c0-0.638,0.342-1.156,0.763-1.156h14.477c0.42,0,0.762,0.518,0.762,1.156V16.844z"/>
	<g transform="translate(690 1056)">
		<path fill="#3E3E3F" d="M155.958-1049.011c0.006,0.13,0.01,0.26,0.01,0.392c0,4.003-2.993,8.62-8.471,8.62
			c-1.682,0-3.246-0.501-4.563-1.361c0.231,0.028,0.471,0.042,0.711,0.042c1.396,0,2.678-0.484,3.696-1.297
			c-1.303-0.024-2.401-0.9-2.78-2.104c0.183,0.036,0.369,0.055,0.562,0.055c0.271,0,0.532-0.038,0.782-0.107
			c-1.36-0.279-2.387-1.503-2.387-2.971c0-0.013,0-0.025,0-0.038c0.399,0.227,0.858,0.363,1.348,0.379
			c-0.799-0.543-1.323-1.471-1.323-2.522c0-0.555,0.146-1.076,0.401-1.523c1.47,1.833,3.662,3.039,6.138,3.165
			c-0.052-0.222-0.076-0.453-0.076-0.69c0-1.673,1.332-3.029,2.977-3.029c0.855,0,1.631,0.368,2.174,0.956
			c0.678-0.136,1.314-0.388,1.891-0.735c-0.223,0.708-0.694,1.301-1.309,1.676c0.602-0.073,1.176-0.236,1.709-0.477
			C157.046-1049.972,156.54-1049.438,155.958-1049.011z"/>
	</g>
</g>
<g>
	<g transform="translate(486 1056)">
		<path fill="#3E3E3F" d="M387.04-1046h-2.23v6h-2.571v-6h-1.239v-1.963h1.239v-1.275c0-1.732,0.747-2.762,2.783-2.762h2.349v2.124
			h-1.918c-0.568-0.001-0.64,0.297-0.64,0.851l-0.003,1.063h2.57L387.04-1046z"/>
	</g>
	<path fill="none" stroke="#3E3E3F" stroke-miterlimit="10" d="M878.188,16.844c0,0.639-0.342,1.156-0.762,1.156H862.95
		c-0.421,0-0.763-0.518-0.763-1.156V3.156c0-0.638,0.342-1.156,0.763-1.156h14.477c0.42,0,0.762,0.518,0.762,1.156V16.844z"/>
</g>
<g>
	<g transform="translate(100 336)">
		<path fill="#3E3E3F" d="M804.462-320h-8.543c-0.338,0-0.61-0.273-0.61-0.61c0-0.875,0.369-1.935,0.987-2.834
			c0.519-0.751,1.154-1.317,1.841-1.647c-0.304-0.275-0.563-0.611-0.771-0.993c-0.33-0.613-0.506-1.323-0.506-2.05
			c0-1.012,0.333-1.968,0.938-2.692c0.632-0.756,1.48-1.172,2.392-1.172c0.909,0,1.759,0.416,2.39,1.172
			c0.604,0.724,0.938,1.681,0.938,2.692c0,0.728-0.175,1.437-0.506,2.05c-0.206,0.383-0.466,0.718-0.769,0.993
			c0.686,0.33,1.321,0.896,1.838,1.647c0.619,0.899,0.988,1.959,0.988,2.834C805.07-320.273,804.798-320,804.462-320z"/>
	</g>
	<path fill="none" stroke="#3E3E3F" stroke-miterlimit="10" d="M908.188,16.844c0,0.639-0.342,1.156-0.762,1.156H892.95
		c-0.421,0-0.763-0.518-0.763-1.156V3.156c0-0.638,0.342-1.156,0.763-1.156h14.477c0.42,0,0.762,0.518,0.762,1.156V16.844z"/>
</g>
<g>
	<path fill="none" stroke="#3E3E3F" stroke-miterlimit="10" d="M758.188,16.844c0,0.639-0.342,1.156-0.762,1.156H742.95
		c-0.422,0-0.763-0.518-0.763-1.156V3.156c0-0.638,0.341-1.156,0.763-1.156h14.477c0.42,0,0.762,0.518,0.762,1.156V16.844z"/>
	<g transform="translate(642 1296)">
		<path fill="#3E3E3F" d="M105.216-1286.768l-1.717-2.973c1.1-1.377,2.793-2.259,4.69-2.259c2.195,0,4.117,1.181,5.162,2.941h-4.896
			c-0.088-0.007-0.178-0.011-0.268-0.011C106.762-1289.07,105.557-1288.09,105.216-1286.768L105.216-1286.768z M110.337-1288.191
			h3.439c0.268,0.678,0.413,1.417,0.413,2.191c0,3.292-2.649,5.963-5.933,6l2.453-4.25c0.347-0.497,0.549-1.099,0.549-1.75
			C111.261-1286.857,110.906-1287.634,110.337-1288.191L110.337-1288.191z M106.011-1286c0-1.202,0.979-2.179,2.18-2.179
			s2.18,0.978,2.18,2.179c0,1.202-0.979,2.18-2.18,2.18S106.011-1284.798,106.011-1286z M109.012-1283.042l-1.72,2.976
			c-2.889-0.433-5.104-2.924-5.104-5.934c0-1.069,0.28-2.073,0.771-2.941l2.449,4.242c0.491,1.045,1.555,1.77,2.78,1.77
			C108.474-1282.93,108.749-1282.969,109.012-1283.042L109.012-1283.042z"/>
	</g>
	<path fill="#3E3E3F" d="M754.139,2.551c-0.078-0.076-0.152-0.168-0.228-0.273h3.971v3.97c-0.106-0.074-0.199-0.15-0.274-0.227
		l-3.471-3.47H754.139z"/>
</g>
<g>
	<path fill="none" stroke="#3E3E3F" stroke-miterlimit="10" d="M728.188,16.844c0,0.639-0.342,1.156-0.762,1.156H712.95
		c-0.422,0-0.763-0.518-0.763-1.156V3.156c0-0.638,0.341-1.156,0.763-1.156h14.477c0.42,0,0.762,0.518,0.762,1.156V16.844z"/>
	<g transform="translate(642 1296)">
		<path fill="#3E3E3F" d="M75.216-1286.768l-1.717-2.973c1.1-1.377,2.793-2.259,4.69-2.259c2.195,0,4.117,1.181,5.162,2.941h-4.896
			c-0.088-0.007-0.178-0.011-0.268-0.011C76.762-1289.07,75.557-1288.09,75.216-1286.768L75.216-1286.768z M80.337-1288.191h3.439
			c0.268,0.678,0.413,1.417,0.413,2.191c0,3.292-2.649,5.963-5.933,6l2.453-4.25c0.347-0.497,0.549-1.099,0.549-1.75
			C81.261-1286.857,80.906-1287.634,80.337-1288.191L80.337-1288.191z M76.011-1286c0-1.202,0.979-2.179,2.18-2.179
			s2.18,0.978,2.18,2.179c0,1.202-0.979,2.18-2.18,2.18S76.011-1284.798,76.011-1286z M79.012-1283.042l-1.72,2.976
			c-2.889-0.433-5.104-2.924-5.104-5.934c0-1.069,0.28-2.073,0.771-2.941l2.449,4.242c0.491,1.045,1.555,1.77,2.78,1.77
			C78.474-1282.93,78.749-1282.969,79.012-1283.042L79.012-1283.042z"/>
	</g>
</g>
<g transform="translate(148 576)">
	<path fill="#3E3E3F" d="M817.36-571.125l-0.047-0.048c-1.104-1.103-2.909-1.103-4.012,0l-2.558,2.557
		c-1.103,1.104-1.103,2.908,0,4.011l0.049,0.048c0.092,0.092,0.188,0.175,0.289,0.251l0.937-0.935
		c-0.109-0.065-0.213-0.142-0.307-0.235l-0.048-0.048c-0.599-0.599-0.599-1.573,0-2.172l2.558-2.556
		c0.599-0.599,1.573-0.599,2.172,0l0.047,0.047c0.599,0.599,0.599,1.574,0,2.172l-1.156,1.157c0.201,0.495,0.296,1.023,0.287,1.551
		l1.789-1.788C818.464-568.217,818.464-570.021,817.36-571.125L817.36-571.125z M813.583-567.442
		c-0.093-0.092-0.188-0.175-0.29-0.251l-0.936,0.935c0.109,0.065,0.212,0.143,0.306,0.236l0.048,0.047c0.6,0.599,0.6,1.573,0,2.172
		l-2.557,2.557c-0.599,0.599-1.573,0.599-2.172,0l-0.048-0.048c-0.599-0.599-0.599-1.573,0-2.172l1.156-1.156
		c-0.2-0.496-0.296-1.024-0.287-1.552l-1.788,1.788c-1.104,1.104-1.104,2.908,0,4.012l0.047,0.048c1.103,1.103,2.908,1.103,4.012,0
		l2.557-2.557c1.104-1.103,1.104-2.908,0-4.011L813.583-567.442L813.583-567.442z"/>
</g>
<path fill="#3E3E3F" d="M964.429,2.288c-0.078-0.076-0.152-0.168-0.228-0.273h3.971v3.97c-0.106-0.074-0.199-0.15-0.274-0.227
	l-3.471-3.47H964.429z"/>
<g transform="translate(148 576)">
	<path fill="#3E3E3F" d="M787.36-571.125l-0.047-0.048c-1.104-1.103-2.909-1.103-4.012,0l-2.557,2.557
		c-1.104,1.104-1.104,2.908,0,4.011l0.047,0.048c0.092,0.092,0.189,0.175,0.291,0.251l0.936-0.935
		c-0.109-0.065-0.213-0.142-0.307-0.235l-0.047-0.048c-0.6-0.599-0.6-1.573,0-2.172l2.557-2.556c0.599-0.599,1.572-0.599,2.172,0
		l0.047,0.047c0.6,0.599,0.6,1.574,0,2.172l-1.156,1.157c0.201,0.495,0.297,1.023,0.287,1.551l1.789-1.788
		C788.464-568.217,788.464-570.021,787.36-571.125L787.36-571.125z M783.583-567.442c-0.093-0.092-0.188-0.175-0.289-0.251
		l-0.937,0.935c0.108,0.065,0.212,0.143,0.306,0.236l0.047,0.047c0.601,0.599,0.601,1.573,0,2.172l-2.556,2.557
		c-0.599,0.599-1.573,0.599-2.172,0l-0.048-0.048c-0.6-0.599-0.6-1.573,0-2.172l1.156-1.156c-0.2-0.496-0.297-1.024-0.287-1.552
		l-1.788,1.788c-1.104,1.104-1.104,2.908,0,4.012l0.047,0.048c1.103,1.103,2.908,1.103,4.012,0l2.556-2.557
		c1.104-1.103,1.104-2.908,0-4.011L783.583-567.442L783.583-567.442z"/>
</g>
<g>
	<path fill="#FFFFFF" stroke="#3E3E3F" stroke-miterlimit="10" d="M698.188,51.844c0,0.639-0.341,1.156-0.762,1.156H682.95
		c-0.421,0-0.763-0.518-0.763-1.156V38.156c0-0.638,0.341-1.156,0.763-1.156h14.477c0.42,0,0.762,0.518,0.762,1.156V51.844z"/>
	<path fill="#3E3E3F" d="M696.12,46.392c-0.246-0.242-0.789-0.369-1.617-0.38c-0.56-0.007-1.232,0.042-1.941,0.142
		c-0.316-0.183-0.645-0.382-0.9-0.623c-0.691-0.644-1.268-1.539-1.627-2.524c0.022-0.092,0.043-0.173,0.063-0.255
		c0,0,0.389-2.21,0.285-2.958c-0.014-0.103-0.022-0.132-0.049-0.212l-0.035-0.086c-0.105-0.244-0.313-0.502-0.639-0.488L689.462,39
		c-0.362,0-0.658,0.185-0.734,0.463c-0.237,0.87,0.007,2.17,0.447,3.856l-0.112,0.275c-0.315,0.769-0.711,1.545-1.062,2.229
		l-0.045,0.089c-0.367,0.719-0.701,1.33-1.002,1.847l-0.312,0.165c-0.024,0.012-0.56,0.294-0.685,0.371
		c-1.063,0.635-1.769,1.357-1.886,1.93c-0.036,0.182-0.01,0.416,0.181,0.524l0.301,0.151c0.131,0.066,0.269,0.1,0.41,0.1
		c0.759,0,1.639-0.944,2.85-3.06c1.4-0.456,2.993-0.834,4.391-1.044c1.063,0.6,2.373,1.017,3.198,1.017
		c0.147,0,0.272-0.014,0.376-0.042c0.159-0.043,0.292-0.133,0.374-0.256c0.16-0.241,0.192-0.574,0.147-0.914
		c-0.012-0.101-0.094-0.226-0.18-0.312V46.392z M684.798,50.424c0.14-0.378,0.688-1.125,1.496-1.787
		c0.049-0.042,0.176-0.158,0.291-0.268C685.738,49.718,685.173,50.255,684.798,50.424z M689.591,39.392
		c0.244,0,0.382,0.614,0.393,1.189c0.012,0.576-0.123,0.979-0.29,1.28c-0.139-0.443-0.206-1.141-0.206-1.596
		C689.488,40.264,689.479,39.392,689.591,39.392z M688.161,47.254c0.17-0.304,0.346-0.624,0.526-0.963
		c0.438-0.832,0.718-1.482,0.925-2.018c0.411,0.749,0.924,1.385,1.526,1.895c0.075,0.063,0.155,0.127,0.239,0.191
		C690.152,46.601,689.095,46.896,688.161,47.254L688.161,47.254z M695.884,47.185c-0.074,0.046-0.288,0.073-0.426,0.073
		c-0.443,0-0.992-0.202-1.763-0.532c0.298-0.022,0.568-0.033,0.812-0.033c0.443,0,0.576-0.002,1.011,0.109
		C695.952,46.914,695.96,47.138,695.884,47.185L695.884,47.185z"/>
</g>
<g>
	<path fill="#FFFFFF" stroke="#3E3E3F" stroke-miterlimit="10" d="M788.188,51.844c0,0.639-0.342,1.156-0.762,1.156H772.95
		c-0.423,0-0.763-0.518-0.763-1.156V38.156c0-0.638,0.34-1.156,0.763-1.156h14.477c0.42,0,0.762,0.518,0.762,1.156V51.844z"/>
	<g transform="translate(196 1296)">
		<path fill="#3E3E3F" d="M587.183-1254.847h1.037l-1.197,5.303L585.47-1257h-2.499l-1.808,7.456l-1.355-7.456h-2.611l2.65,12h2.553
			l1.787-7.097l1.6,7.097h2.354l3.039-12h-3.996L587.183-1254.847L587.183-1254.847z"/>
	</g>
</g>
<g>
	<path fill="#FFFFFF" stroke="#3E3E3F" stroke-miterlimit="10" d="M818.188,51.844c0,0.639-0.342,1.156-0.762,1.156H802.95
		c-0.422,0-0.763-0.518-0.763-1.156V38.156c0-0.638,0.341-1.156,0.763-1.156h14.477c0.42,0,0.762,0.518,0.762,1.156V51.844z"/>
	<g transform="translate(246 1296)">
		<path fill="#3E3E3F" d="M569.604-1257h-3.17l-2.244,3.306l-2.244-3.306h-3.172l3.802,5.683l-4.289,6.317h6.146v-2.146h-1.419
			l1.177-1.759l2.609,3.904h3.291l-4.289-6.317L569.604-1257z"/>
	</g>
</g>
<g>
	<path fill="#FFFFFF" stroke="#3E3E3F" stroke-miterlimit="10" d="M848.188,51.844c0,0.639-0.342,1.156-0.762,1.156H832.95
		c-0.421,0-0.763-0.518-0.763-1.156V38.156c0-0.638,0.342-1.156,0.763-1.156h14.477c0.42,0,0.762,0.518,0.762,1.156V51.844z"/>
	<g transform="translate(690 1056)">
		<path fill="#3E3E3F" d="M155.958-1014.011c0.006,0.13,0.01,0.26,0.01,0.392c0,4.003-2.993,8.62-8.471,8.62
			c-1.682,0-3.246-0.501-4.563-1.361c0.231,0.028,0.471,0.042,0.711,0.042c1.396,0,2.678-0.484,3.696-1.297
			c-1.303-0.024-2.401-0.9-2.78-2.104c0.183,0.036,0.369,0.055,0.562,0.055c0.271,0,0.532-0.038,0.782-0.107
			c-1.36-0.279-2.387-1.503-2.387-2.971c0-0.013,0-0.025,0-0.038c0.399,0.227,0.858,0.363,1.348,0.379
			c-0.799-0.543-1.323-1.471-1.323-2.522c0-0.555,0.146-1.076,0.401-1.523c1.47,1.833,3.662,3.039,6.138,3.165
			c-0.052-0.222-0.076-0.453-0.076-0.69c0-1.673,1.332-3.029,2.977-3.029c0.855,0,1.631,0.368,2.174,0.956
			c0.678-0.136,1.314-0.388,1.891-0.735c-0.223,0.708-0.694,1.301-1.309,1.676c0.602-0.073,1.176-0.236,1.709-0.477
			C157.046-1014.972,156.54-1014.438,155.958-1014.011z"/>
	</g>
</g>
<g>
	<path fill="#FFFFFF" stroke="#3E3E3F" stroke-miterlimit="10" d="M878.188,51.844c0,0.639-0.342,1.156-0.762,1.156H862.95
		c-0.421,0-0.763-0.518-0.763-1.156V38.156c0-0.638,0.342-1.156,0.763-1.156h14.477c0.42,0,0.762,0.518,0.762,1.156V51.844z"/>
	<g transform="translate(486 1056)">
		<path fill="#3E3E3F" d="M387.04-1011h-2.23v6h-2.571v-6h-1.239v-1.963h1.239v-1.275c0-1.732,0.747-2.762,2.783-2.762h2.349v2.124
			h-1.918c-0.568-0.001-0.64,0.297-0.64,0.851l-0.003,1.063h2.57L387.04-1011z"/>
	</g>
</g>
<g>
	<path fill="#FFFFFF" stroke="#3E3E3F" stroke-miterlimit="10" d="M908.188,51.844c0,0.639-0.342,1.156-0.762,1.156H892.95
		c-0.421,0-0.763-0.518-0.763-1.156V38.156c0-0.638,0.342-1.156,0.763-1.156h14.477c0.42,0,0.762,0.518,0.762,1.156V51.844z"/>
	<g transform="translate(100 336)">
		<path fill="#3E3E3F" d="M804.462-285h-8.543c-0.338,0-0.61-0.273-0.61-0.61c0-0.875,0.369-1.935,0.987-2.834
			c0.519-0.751,1.154-1.317,1.841-1.647c-0.304-0.275-0.563-0.611-0.771-0.993c-0.33-0.613-0.506-1.323-0.506-2.05
			c0-1.012,0.333-1.968,0.938-2.692c0.632-0.756,1.48-1.172,2.392-1.172c0.909,0,1.759,0.416,2.39,1.172
			c0.604,0.724,0.938,1.681,0.938,2.692c0,0.728-0.175,1.437-0.506,2.05c-0.206,0.383-0.466,0.718-0.769,0.993
			c0.686,0.33,1.321,0.896,1.838,1.647c0.619,0.899,0.988,1.959,0.988,2.834C805.07-285.273,804.798-285,804.462-285z"/>
	</g>
</g>
<g>
	<path fill="#FFFFFF" stroke="#3E3E3F" stroke-miterlimit="10" d="M758.188,51.844c0,0.639-0.342,1.156-0.762,1.156H742.95
		c-0.422,0-0.763-0.518-0.763-1.156V38.156c0-0.638,0.341-1.156,0.763-1.156h14.477c0.42,0,0.762,0.518,0.762,1.156V51.844z"/>
	<g transform="translate(642 1296)">
		<path fill="#3E3E3F" d="M105.216-1251.768l-1.717-2.973c1.1-1.377,2.793-2.259,4.69-2.259c2.195,0,4.117,1.181,5.162,2.941h-4.896
			c-0.088-0.007-0.178-0.011-0.268-0.011C106.762-1254.07,105.557-1253.09,105.216-1251.768L105.216-1251.768z M110.337-1253.191
			h3.439c0.268,0.678,0.413,1.417,0.413,2.191c0,3.292-2.649,5.963-5.933,6l2.453-4.25c0.347-0.497,0.549-1.099,0.549-1.75
			C111.261-1251.857,110.906-1252.634,110.337-1253.191L110.337-1253.191z M106.011-1251c0-1.202,0.979-2.179,2.18-2.179
			s2.18,0.978,2.18,2.179c0,1.202-0.979,2.18-2.18,2.18S106.011-1249.798,106.011-1251z M109.012-1248.042l-1.72,2.976
			c-2.889-0.433-5.104-2.924-5.104-5.934c0-1.069,0.28-2.073,0.771-2.941l2.449,4.242c0.491,1.045,1.555,1.77,2.78,1.77
			C108.474-1247.93,108.749-1247.969,109.012-1248.042L109.012-1248.042z"/>
	</g>
	<path fill="#3E3E3F" d="M754.139,37.551c-0.078-0.076-0.152-0.168-0.228-0.273h3.971v3.97c-0.106-0.074-0.199-0.15-0.274-0.227
		l-3.471-3.47H754.139z"/>
</g>
<g>
	<path fill="#FFFFFF" stroke="#3E3E3F" stroke-miterlimit="10" d="M728.188,51.844c0,0.639-0.342,1.156-0.762,1.156H712.95
		c-0.422,0-0.763-0.518-0.763-1.156V38.156c0-0.638,0.341-1.156,0.763-1.156h14.477c0.42,0,0.762,0.518,0.762,1.156V51.844z"/>
	<g transform="translate(642 1296)">
		<path fill="#3E3E3F" d="M75.216-1251.768l-1.717-2.973c1.1-1.377,2.793-2.259,4.69-2.259c2.195,0,4.117,1.181,5.162,2.941h-4.896
			c-0.088-0.007-0.178-0.011-0.268-0.011C76.762-1254.07,75.557-1253.09,75.216-1251.768L75.216-1251.768z M80.337-1253.191h3.439
			c0.268,0.678,0.413,1.417,0.413,2.191c0,3.292-2.649,5.963-5.933,6l2.453-4.25c0.347-0.497,0.549-1.099,0.549-1.75
			C81.261-1251.857,80.906-1252.634,80.337-1253.191L80.337-1253.191z M76.011-1251c0-1.202,0.979-2.179,2.18-2.179
			s2.18,0.978,2.18,2.179c0,1.202-0.979,2.18-2.18,2.18S76.011-1249.798,76.011-1251z M79.012-1248.042l-1.72,2.976
			c-2.889-0.433-5.104-2.924-5.104-5.934c0-1.069,0.28-2.073,0.771-2.941l2.449,4.242c0.491,1.045,1.555,1.77,2.78,1.77
			C78.474-1247.93,78.749-1247.969,79.012-1248.042L79.012-1248.042z"/>
	</g>
</g>
<g>
	<path fill="#FFFFFF" stroke="#3E3E3F" stroke-miterlimit="10" d="M968.188,51.844c0,0.639-0.342,1.156-0.762,1.156h-14.478
		c-0.42,0-0.762-0.518-0.762-1.156V38.156c0-0.638,0.342-1.156,0.762-1.156h14.478c0.42,0,0.762,0.518,0.762,1.156V51.844z"/>
	<g transform="translate(148 576)">
		<path fill="#3E3E3F" d="M817.36-536.125l-0.047-0.048c-1.104-1.103-2.909-1.103-4.012,0l-2.558,2.557
			c-1.103,1.104-1.103,2.908,0,4.011l0.049,0.048c0.092,0.092,0.188,0.175,0.289,0.251l0.937-0.935
			c-0.109-0.065-0.213-0.142-0.307-0.235l-0.048-0.048c-0.599-0.599-0.599-1.573,0-2.172l2.558-2.556
			c0.599-0.599,1.573-0.599,2.172,0l0.047,0.047c0.599,0.599,0.599,1.574,0,2.172l-1.156,1.157c0.201,0.495,0.296,1.023,0.287,1.551
			l1.789-1.788C818.464-533.217,818.464-535.021,817.36-536.125L817.36-536.125z M813.583-532.442
			c-0.093-0.092-0.188-0.175-0.29-0.251l-0.936,0.935c0.109,0.065,0.212,0.143,0.306,0.236l0.048,0.047c0.6,0.599,0.6,1.573,0,2.172
			l-2.557,2.557c-0.599,0.599-1.573,0.599-2.172,0l-0.048-0.048c-0.599-0.599-0.599-1.573,0-2.172l1.156-1.156
			c-0.2-0.496-0.296-1.024-0.287-1.552l-1.788,1.788c-1.104,1.104-1.104,2.908,0,4.012l0.047,0.048c1.103,1.103,2.908,1.103,4.012,0
			l2.557-2.557c1.104-1.103,1.104-2.908,0-4.011L813.583-532.442L813.583-532.442z"/>
	</g>
	<path fill="#3E3E3F" d="M964.429,37.288c-0.078-0.076-0.152-0.168-0.228-0.273h3.971v3.97c-0.106-0.074-0.199-0.15-0.274-0.227
		l-3.471-3.47H964.429z"/>
</g>
<g>
	<path fill="#FFFFFF" stroke="#3E3E3F" stroke-miterlimit="10" d="M938.188,51.844c0,0.639-0.342,1.156-0.762,1.156H922.95
		c-0.421,0-0.763-0.518-0.763-1.156V38.156c0-0.638,0.342-1.156,0.763-1.156h14.477c0.42,0,0.762,0.518,0.762,1.156V51.844z"/>
	<g transform="translate(148 576)">
		<path fill="#3E3E3F" d="M787.36-536.125l-0.047-0.048c-1.104-1.103-2.909-1.103-4.012,0l-2.557,2.557
			c-1.104,1.104-1.104,2.908,0,4.011l0.047,0.048c0.092,0.092,0.189,0.175,0.291,0.251l0.936-0.935
			c-0.109-0.065-0.213-0.142-0.307-0.235l-0.047-0.048c-0.6-0.599-0.6-1.573,0-2.172l2.557-2.556c0.599-0.599,1.572-0.599,2.172,0
			l0.047,0.047c0.6,0.599,0.6,1.574,0,2.172l-1.156,1.157c0.201,0.495,0.297,1.023,0.287,1.551l1.789-1.788
			C788.464-533.217,788.464-535.021,787.36-536.125L787.36-536.125z M783.583-532.442c-0.093-0.092-0.188-0.175-0.289-0.251
			l-0.937,0.935c0.108,0.065,0.212,0.143,0.306,0.236l0.047,0.047c0.601,0.599,0.601,1.573,0,2.172l-2.556,2.557
			c-0.599,0.599-1.573,0.599-2.172,0l-0.048-0.048c-0.6-0.599-0.6-1.573,0-2.172l1.156-1.156c-0.2-0.496-0.297-1.024-0.287-1.552
			l-1.788,1.788c-1.104,1.104-1.104,2.908,0,4.012l0.047,0.048c1.103,1.103,2.908,1.103,4.012,0l2.556-2.557
			c1.104-1.103,1.104-2.908,0-4.011L783.583-532.442L783.583-532.442z"/>
	</g>
</g>
</svg>
