<?xml version="1.0" encoding="utf-8"?>
<!-- Generator: Adobe Illustrator 15.0.2, SVG Export Plug-In . SVG Version: 6.00 Build 0)  -->
<!DOCTYPE svg PUBLIC "-//W3C//DTD SVG 1.1//EN" "http://www.w3.org/Graphics/SVG/1.1/DTD/svg11.dtd">
<svg version="1.1" id="Lager_1" xmlns="http://www.w3.org/2000/svg" xmlns:xlink="http://www.w3.org/1999/xlink" x="0px" y="0px"
	 width="351.75px" height="959.5px" viewBox="0 0 351.75 959.5" enable-background="new 0 0 351.75 959.5" xml:space="preserve">
<path fill="#3E3E3F" d="M24.168,309.606c0,0.26-0.092,0.48-0.275,0.664l-1.329,1.33c-0.183,0.181-0.403,0.273-0.665,0.273
	c-0.262,0-0.482-0.093-0.664-0.273l-2.875-2.876l-2.875,2.876c-0.182,0.181-0.403,0.273-0.664,0.273
	c-0.261,0-0.482-0.093-0.664-0.273l-1.329-1.33c-0.182-0.184-0.274-0.404-0.274-0.664c0-0.261,0.092-0.483,0.274-0.666l2.874-2.872
	l-2.874-2.874c-0.182-0.184-0.274-0.404-0.274-0.665c0-0.261,0.092-0.482,0.274-0.663l1.329-1.332
	c0.182-0.183,0.403-0.274,0.664-0.274c0.261,0,0.482,0.092,0.664,0.274l2.875,2.874l2.875-2.874
	c0.181-0.183,0.402-0.274,0.664-0.274c0.262,0,0.482,0.092,0.665,0.274l1.329,1.332c0.183,0.181,0.275,0.402,0.275,0.663
	c0,0.261-0.092,0.481-0.275,0.665l-2.873,2.874l2.873,2.872C24.075,309.122,24.168,309.345,24.168,309.606z"/>
<path d="M11.886,181.148c0-0.157,0.058-0.292,0.171-0.403l4.033-4.034c0.114-0.116,0.249-0.172,0.405-0.172
	c0.156,0,0.291,0.056,0.405,0.172l4.034,4.034c0.114,0.111,0.171,0.246,0.171,0.403c0,0.157-0.058,0.293-0.171,0.405
	c-0.114,0.116-0.248,0.172-0.405,0.172h-8.067c-0.157,0-0.292-0.056-0.405-0.172C11.943,181.442,11.886,181.305,11.886,181.148z"/>
<path fill="#FFFFFF" d="M42.759,181.022c0-0.157,0.058-0.292,0.172-0.403l4.033-4.034c0.114-0.116,0.249-0.171,0.405-0.171
	c0.156,0,0.291,0.056,0.405,0.171l4.033,4.034c0.114,0.112,0.171,0.246,0.171,0.403c0,0.157-0.057,0.293-0.171,0.406
	c-0.113,0.115-0.248,0.171-0.404,0.171h-8.067c-0.157,0-0.292-0.056-0.405-0.171C42.816,181.315,42.759,181.179,42.759,181.022z"/>
<path fill="#B0B0B0" d="M75.48,181.021c0-0.157,0.057-0.292,0.171-0.403l4.033-4.035c0.114-0.116,0.249-0.171,0.406-0.171
	c0.156,0,0.291,0.056,0.404,0.171l4.034,4.035c0.113,0.111,0.17,0.246,0.17,0.403c0,0.157-0.057,0.293-0.17,0.405
	c-0.114,0.116-0.249,0.171-0.405,0.171h-8.067c-0.157,0-0.292-0.056-0.405-0.171C75.537,181.315,75.48,181.178,75.48,181.021z"/>
<path fill="#B0B0B0" d="M84.699,197.689c0,0.157-0.057,0.292-0.171,0.403l-4.033,4.034c-0.114,0.116-0.249,0.172-0.405,0.172
	c-0.156,0-0.291-0.056-0.405-0.172l-4.034-4.034c-0.114-0.112-0.171-0.246-0.171-0.403c0-0.157,0.057-0.293,0.171-0.405
	c0.114-0.116,0.248-0.171,0.405-0.171h8.067c0.157,0,0.292,0.056,0.405,0.171C84.642,197.396,84.699,197.532,84.699,197.689z"/>
<path fill="#FFFFFF" d="M51.978,197.689c0,0.157-0.057,0.292-0.172,0.403l-4.033,4.034c-0.114,0.116-0.249,0.172-0.405,0.172
	c-0.156,0-0.291-0.056-0.405-0.172l-4.034-4.034c-0.114-0.112-0.171-0.246-0.171-0.403c0-0.157,0.058-0.293,0.171-0.405
	c0.114-0.116,0.248-0.171,0.405-0.171h8.067c0.157,0,0.292,0.056,0.404,0.171C51.921,197.396,51.978,197.532,51.978,197.689z"/>
<path d="M21.105,198.031c0,0.157-0.058,0.293-0.172,0.404L16.9,202.47c-0.114,0.116-0.249,0.172-0.405,0.172
	c-0.157,0-0.291-0.056-0.405-0.172l-4.033-4.034c-0.114-0.111-0.171-0.247-0.171-0.404c0-0.156,0.058-0.292,0.171-0.404
	c0.113-0.116,0.248-0.172,0.404-0.172h8.067c0.157,0,0.292,0.056,0.405,0.172C21.048,197.739,21.105,197.875,21.105,198.031z"/>
<path fill="#FFFFFF" d="M60.777,309.606c0,0.26-0.092,0.48-0.275,0.664l-1.329,1.33c-0.183,0.181-0.403,0.273-0.665,0.273
	c-0.262,0-0.482-0.093-0.664-0.273l-2.875-2.876l-2.875,2.876c-0.182,0.181-0.403,0.273-0.664,0.273
	c-0.261,0-0.482-0.093-0.664-0.273l-1.33-1.33c-0.182-0.184-0.274-0.404-0.274-0.664c0-0.261,0.092-0.483,0.274-0.666l2.874-2.872
	l-2.874-2.874c-0.182-0.184-0.274-0.404-0.274-0.665c0-0.261,0.092-0.482,0.274-0.663l1.33-1.332
	c0.182-0.183,0.403-0.274,0.664-0.274c0.261,0,0.482,0.092,0.664,0.274l2.875,2.874l2.875-2.874
	c0.181-0.183,0.402-0.274,0.664-0.274c0.262,0,0.482,0.092,0.665,0.274l1.329,1.332c0.183,0.181,0.275,0.402,0.275,0.663
	c0,0.261-0.092,0.481-0.275,0.665l-2.873,2.874l2.873,2.872C60.685,309.122,60.777,309.345,60.777,309.606z"/>
<path fill="#B0B0B0" d="M105.359,309.606c0,0.26-0.092,0.48-0.275,0.664l-1.328,1.33c-0.183,0.181-0.404,0.273-0.666,0.273
	c-0.262,0-0.481-0.093-0.664-0.273l-2.875-2.876l-2.875,2.876c-0.182,0.181-0.403,0.273-0.664,0.273s-0.482-0.093-0.665-0.273
	l-1.329-1.33c-0.181-0.184-0.273-0.404-0.273-0.664c0-0.261,0.092-0.483,0.273-0.666l2.874-2.872l-2.874-2.874
	c-0.181-0.184-0.273-0.404-0.273-0.665c0-0.261,0.092-0.482,0.273-0.663l1.329-1.332c0.183-0.183,0.404-0.274,0.665-0.274
	s0.482,0.092,0.664,0.274l2.875,2.874l2.875-2.874c0.182-0.183,0.402-0.274,0.664-0.274c0.262,0,0.482,0.092,0.666,0.274
	l1.328,1.332c0.183,0.181,0.275,0.402,0.275,0.663c0,0.261-0.092,0.481-0.275,0.665l-2.872,2.874l2.872,2.872
	C105.267,309.122,105.359,309.345,105.359,309.606z"/>
<path d="M22.059,241.593c-0.269,0-0.499-0.099-0.69-0.296l-6.925-6.923c-0.2-0.197-0.296-0.427-0.296-0.696s0.096-0.498,0.296-0.693
	l6.925-6.926c0.191-0.194,0.421-0.293,0.69-0.293c0.27,0,0.505,0.099,0.697,0.293c0.197,0.196,0.293,0.428,0.293,0.695v13.849
	c0,0.27-0.096,0.5-0.293,0.694C22.564,241.494,22.328,241.593,22.059,241.593z"/>
<path fill="#FFFFFF" d="M55.132,239.551c-0.269,0-0.499-0.099-0.69-0.297l-6.925-6.922c-0.2-0.197-0.296-0.428-0.296-0.696
	c0-0.27,0.096-0.498,0.296-0.694l6.925-6.925c0.191-0.194,0.421-0.293,0.69-0.293s0.505,0.099,0.697,0.293
	c0.197,0.196,0.293,0.428,0.293,0.695v13.849c0,0.27-0.096,0.499-0.293,0.693C55.637,239.452,55.401,239.551,55.132,239.551z"/>
<path fill="#B0B0B0" d="M91.821,239.551c-0.269,0-0.5-0.099-0.691-0.297l-6.925-6.922c-0.2-0.197-0.296-0.428-0.296-0.696
	c0-0.27,0.096-0.498,0.296-0.694l6.925-6.925c0.191-0.194,0.422-0.293,0.691-0.293s0.505,0.099,0.697,0.293
	c0.197,0.196,0.293,0.428,0.293,0.695v13.849c0,0.27-0.096,0.499-0.293,0.693C92.326,239.452,92.09,239.551,91.821,239.551z"/>
<path fill="#3E3E3F" d="M63.99,83c0.269,0,0.5,0.099,0.69,0.296l6.925,6.922c0.2,0.197,0.297,0.428,0.297,0.697
	s-0.097,0.497-0.297,0.693l-6.925,6.925c-0.19,0.194-0.422,0.293-0.69,0.293c-0.27,0-0.506-0.099-0.697-0.293
	C63.096,98.338,63,98.104,63,97.838V83.989c0-0.269,0.096-0.499,0.293-0.693C63.484,83.098,63.721,83,63.99,83z"/>
<path fill="#FFFFFF" d="M60.821,262.185c0.27,0,0.5,0.099,0.691,0.296l6.925,6.922c0.2,0.197,0.296,0.428,0.296,0.697
	s-0.096,0.497-0.296,0.693l-6.925,6.925c-0.191,0.194-0.422,0.293-0.691,0.293c-0.269,0-0.504-0.099-0.697-0.293
	c-0.196-0.195-0.293-0.428-0.293-0.695v-13.849c0-0.269,0.097-0.499,0.293-0.693C60.315,262.282,60.553,262.185,60.821,262.185z"/>
<path fill="#B0B0B0" d="M91.251,262.185c0.269,0,0.5,0.099,0.691,0.296l6.924,6.922c0.201,0.197,0.297,0.428,0.297,0.697
	s-0.096,0.497-0.297,0.693l-6.924,6.925c-0.191,0.194-0.423,0.293-0.691,0.293c-0.27,0-0.506-0.099-0.697-0.293
	c-0.197-0.195-0.293-0.428-0.293-0.695v-13.849c0-0.269,0.096-0.499,0.293-0.693C90.745,262.282,90.981,262.185,91.251,262.185z"/>
<path fill="#3E3E3F" d="M144.74,229.769c0,0.285-0.102,0.529-0.303,0.729l-1.465,1.468c-0.203,0.199-0.445,0.301-0.733,0.301
	c-0.289,0-0.532-0.102-0.731-0.301l-3.17-3.172l-3.169,3.172c-0.2,0.199-0.445,0.301-0.732,0.301c-0.287,0-0.531-0.102-0.732-0.301
	l-1.466-1.468c-0.2-0.201-0.302-0.445-0.302-0.729c0-0.289,0.102-0.534,0.302-0.735l3.169-3.166l-3.169-3.171
	c-0.2-0.201-0.302-0.445-0.302-0.733c0-0.287,0.102-0.53,0.302-0.73l1.466-1.47c0.201-0.199,0.445-0.302,0.732-0.302
	c0.287,0,0.532,0.103,0.732,0.302l3.169,3.171l3.17-3.171c0.199-0.199,0.442-0.302,0.731-0.302c0.288,0,0.53,0.103,0.733,0.302
	l1.465,1.47c0.201,0.2,0.303,0.443,0.303,0.73c0,0.288-0.102,0.532-0.303,0.733l-3.168,3.171l3.168,3.166
	C144.638,229.235,144.74,229.48,144.74,229.769z M138.338,213.781c-6.495,0-11.761,5.265-11.761,11.761
	c0,6.492,5.266,11.759,11.761,11.759c6.493,0,11.758-5.267,11.758-11.759C150.095,219.046,144.831,213.781,138.338,213.781z"/>
<path fill="#FFFFFF" d="M210.982,483.585v1.648c0,0.223-0.075,0.416-0.229,0.568c-0.151,0.165-0.332,0.245-0.541,0.245H193.3
	c-0.207,0-0.389-0.08-0.538-0.245c-0.152-0.152-0.229-0.354-0.229-0.568v-1.648c0-0.224,0.076-0.415,0.229-0.58
	c0.149-0.162,0.331-0.244,0.538-0.244h16.912c0.209,0,0.39,0.082,0.541,0.244C210.907,483.17,210.982,483.362,210.982,483.585z
	 M210.982,477.228v1.647c0,0.221-0.075,0.416-0.229,0.579c-0.151,0.163-0.332,0.245-0.541,0.245H193.3
	c-0.207,0-0.389-0.082-0.538-0.245c-0.152-0.163-0.229-0.358-0.229-0.579v-1.647c0-0.223,0.076-0.415,0.229-0.571
	c0.149-0.161,0.331-0.245,0.538-0.245h16.912c0.209,0,0.39,0.084,0.541,0.245C210.907,476.813,210.982,477.005,210.982,477.228z
	 M210.982,471.404v1.646c0,0.229-0.075,0.416-0.229,0.58c-0.151,0.162-0.332,0.242-0.541,0.242H193.3
	c-0.207,0-0.389-0.08-0.538-0.242c-0.152-0.164-0.229-0.354-0.229-0.58v-1.646c0-0.229,0.076-0.416,0.229-0.577
	c0.149-0.164,0.331-0.245,0.538-0.245h16.912c0.209,0,0.39,0.081,0.541,0.245C210.907,470.988,210.982,471.181,210.982,471.404z"/>
<path fill="#3E3E3F" d="M184.092,224.776c0,0.196-0.063,0.364-0.207,0.503l-1.008,1.01c-0.139,0.138-0.306,0.207-0.504,0.207
	c-0.197,0-0.365-0.069-0.503-0.207l-2.18-2.181l-2.181,2.181c-0.143,0.138-0.311,0.207-0.504,0.207
	c-0.197,0-0.365-0.069-0.504-0.207l-1.012-1.01c-0.139-0.139-0.208-0.307-0.208-0.503c0-0.198,0.069-0.366,0.208-0.505l2.184-2.177
	l-2.184-2.182c-0.139-0.138-0.208-0.307-0.208-0.504c0-0.197,0.069-0.365,0.208-0.502l1.012-1.012
	c0.139-0.137,0.307-0.206,0.504-0.206c0.194,0,0.362,0.069,0.504,0.206l2.182,2.182l2.18-2.182c0.139-0.137,0.307-0.206,0.503-0.206
	c0.198,0,0.365,0.069,0.505,0.206l1.008,1.012c0.144,0.137,0.207,0.305,0.207,0.502c0,0.197-0.064,0.366-0.207,0.504l-2.181,2.182
	l2.181,2.177C184.022,224.409,184.092,224.577,184.092,224.776z M179.688,213.782c-4.466,0-8.087,3.62-8.087,8.087
	c0,4.465,3.622,8.087,8.087,8.087c4.465,0,8.087-3.622,8.087-8.087C187.775,217.403,184.154,213.782,179.688,213.782z"/>
<path fill="#3E3E3F" d="M172.348,8.333c0-1.107-0.395-2.056-1.18-2.844c-0.789-0.786-1.734-1.188-2.846-1.188
	c-1.109,0-2.055,0.396-2.842,1.188c-0.789,0.788-1.182,1.729-1.182,2.844s0.393,2.055,1.182,2.843
	c0.787,0.787,1.732,1.188,2.842,1.188c1.111,0,2.059-0.396,2.846-1.188C171.955,10.387,172.348,9.44,172.348,8.333z M176.945,15.805
	c0,0.313-0.111,0.581-0.34,0.813c-0.229,0.228-0.498,0.341-0.809,0.341c-0.324,0-0.596-0.113-0.811-0.341l-3.082-3.072
	c-1.068,0.742-2.268,1.114-3.582,1.114c-0.854,0-1.676-0.167-2.457-0.499s-1.455-0.781-2.021-1.354
	c-0.564-0.563-1.016-1.23-1.346-2.021C162.166,10.005,162,9.185,162,8.33c0-0.855,0.166-1.675,0.498-2.456s0.779-1.455,1.346-2.021
	c0.566-0.566,1.24-1.021,2.021-1.354S167.469,2,168.322,2s1.676,0.166,2.455,0.499c0.781,0.332,1.455,0.781,2.021,1.354
	c0.564,0.563,1.016,1.231,1.348,2.021c0.334,0.781,0.5,1.604,0.5,2.456c0,1.317-0.371,2.511-1.113,3.584l3.08,3.08
	C176.836,15.218,176.945,15.488,176.945,15.805z"/>
<path fill="#FFFFFF" d="M203.784,509.208c0-1.107-0.394-2.056-1.183-2.844c-0.787-0.786-1.733-1.188-2.85-1.188
	c-1.104,0-2.055,0.396-2.844,1.188c-0.788,0.788-1.188,1.729-1.188,2.844s0.396,2.055,1.188,2.843
	c0.789,0.787,1.729,1.188,2.844,1.188s2.063-0.396,2.85-1.188C203.393,511.262,203.784,510.315,203.784,509.208z M208.382,516.68
	c0,0.313-0.112,0.581-0.34,0.813c-0.229,0.228-0.498,0.341-0.81,0.341c-0.323,0-0.594-0.113-0.813-0.341l-3.08-3.072
	c-1.067,0.742-2.269,1.114-3.584,1.114c-0.854,0-1.676-0.167-2.457-0.499c-0.776-0.332-1.45-0.781-2.021-1.354
	c-0.564-0.563-1.016-1.23-1.348-2.021c-0.332-0.781-0.498-1.602-0.498-2.456c0-0.855,0.166-1.675,0.498-2.456
	s0.775-1.455,1.348-2.021c0.563-0.565,1.238-1.021,2.021-1.354c0.781-0.333,1.604-0.499,2.457-0.499s1.681,0.166,2.457,0.499
	c0.781,0.332,1.455,0.781,2.021,1.354c0.563,0.563,1.021,1.231,1.354,2.021s0.498,1.604,0.498,2.456
	c0,1.317-0.371,2.511-1.107,3.584l3.074,3.08C208.271,516.093,208.382,516.363,208.382,516.68z"/>
<path fill="#3E3E3F" d="M143.734,192.225c0,0.274-0.098,0.507-0.29,0.7l-1.401,1.403c-0.193,0.19-0.425,0.288-0.701,0.288
	c-0.275,0-0.509-0.098-0.699-0.288l-3.032-3.033l-3.031,3.033c-0.192,0.19-0.425,0.288-0.701,0.288c-0.275,0-0.508-0.098-0.7-0.288
	l-1.401-1.403c-0.192-0.193-0.29-0.426-0.29-0.7c0-0.274,0.097-0.51,0.29-0.702l3.03-3.028l-3.03-3.031
	c-0.192-0.193-0.29-0.427-0.29-0.701c0-0.275,0.097-0.509,0.29-0.699l1.401-1.405c0.192-0.192,0.425-0.289,0.7-0.289
	c0.275,0,0.509,0.097,0.701,0.289l3.031,3.031l3.032-3.031c0.19-0.192,0.424-0.289,0.699-0.289s0.508,0.097,0.701,0.289l1.401,1.405
	c0.192,0.19,0.29,0.424,0.29,0.699c0,0.274-0.098,0.508-0.29,0.701l-3.03,3.031l3.03,3.028
	C143.636,191.716,143.734,191.951,143.734,192.225z"/>
<circle fill="none" stroke="#3E3E3F" stroke-width="2" stroke-miterlimit="10" cx="137.611" cy="188.493" r="11.714"/>
<path fill="#3E3E3F" d="M182.16,188.607c0,0.161-0.059,0.298-0.171,0.413l-0.83,0.832c-0.114,0.111-0.251,0.17-0.414,0.17
	c-0.165,0-0.303-0.059-0.416-0.17l-1.794-1.796l-1.794,1.796c-0.114,0.111-0.252,0.17-0.415,0.17s-0.301-0.059-0.415-0.17
	l-0.83-0.832c-0.114-0.115-0.171-0.252-0.171-0.413c0-0.163,0.059-0.303,0.171-0.417l1.794-1.792l-1.794-1.794
	c-0.114-0.115-0.171-0.254-0.171-0.416c0-0.162,0.059-0.301,0.171-0.413l0.83-0.833c0.114-0.113,0.251-0.172,0.415-0.172
	s0.301,0.059,0.415,0.172l1.794,1.795l1.794-1.795c0.113-0.113,0.251-0.172,0.416-0.172c0.163,0,0.3,0.059,0.414,0.172l0.831,0.833
	c0.113,0.112,0.171,0.251,0.171,0.413c0,0.162-0.058,0.301-0.171,0.416l-1.793,1.794l1.793,1.792
	C182.104,188.304,182.16,188.444,182.16,188.607z"/>
<circle fill="none" stroke="#3E3E3F" stroke-width="2" stroke-miterlimit="10" cx="178.535" cy="186.396" r="6.935"/>
<path d="M256.914,233.092c-0.156,0-0.292-0.058-0.402-0.17l-4.027-4.033c-0.116-0.114-0.18-0.25-0.18-0.405
	c0-0.156,0.063-0.291,0.18-0.405l4.027-4.033c0.11-0.115,0.246-0.172,0.402-0.172c0.157,0,0.293,0.059,0.405,0.172
	c0.116,0.113,0.172,0.248,0.172,0.404v8.066c0,0.158-0.056,0.293-0.172,0.406C257.208,233.035,257.071,233.092,256.914,233.092z"/>
<path fill="#FFFFFF" d="M256.788,212.218c-0.157,0-0.292-0.058-0.403-0.172l-4.033-4.033c-0.109-0.113-0.172-0.248-0.172-0.404
	c0-0.156,0.063-0.291,0.172-0.405l4.033-4.032c0.112-0.115,0.246-0.172,0.403-0.172s0.293,0.057,0.406,0.172
	c0.114,0.112,0.171,0.248,0.171,0.403v8.067c0,0.156-0.057,0.291-0.171,0.404C257.081,212.162,256.945,212.218,256.788,212.218z"/>
<path fill="#B0B0B0" d="M256.787,189.498c-0.156,0-0.292-0.057-0.402-0.171l-4.035-4.032c-0.109-0.115-0.172-0.25-0.172-0.406
	c0-0.156,0.063-0.291,0.172-0.404l4.035-4.034c0.11-0.112,0.246-0.17,0.402-0.17c0.157,0,0.293,0.058,0.405,0.17
	c0.116,0.114,0.171,0.249,0.171,0.405v8.066c0,0.157-0.057,0.293-0.171,0.405C257.081,189.441,256.944,189.498,256.787,189.498z"/>
<path fill="#B0B0B0" d="M273.455,180.279c0.157,0,0.292,0.057,0.403,0.171l4.034,4.033c0.115,0.114,0.172,0.249,0.172,0.405
	c0,0.156-0.057,0.291-0.172,0.404l-4.034,4.034c-0.112,0.114-0.246,0.171-0.403,0.171c-0.156,0-0.293-0.057-0.404-0.171
	c-0.115-0.114-0.172-0.248-0.172-0.405v-8.066c0-0.157,0.057-0.292,0.172-0.405C273.162,180.336,273.299,180.279,273.455,180.279z"
	/>
<path fill="#FFFFFF" d="M273.455,203c0.157,0,0.292,0.057,0.403,0.172l4.034,4.033c0.115,0.114,0.172,0.249,0.172,0.405
	c0,0.155-0.057,0.291-0.172,0.405l-4.034,4.033c-0.112,0.114-0.246,0.172-0.403,0.172c-0.156,0-0.293-0.059-0.404-0.172
	c-0.115-0.113-0.172-0.248-0.172-0.404v-8.067c0-0.157,0.057-0.292,0.172-0.403C273.162,203.056,273.299,203,273.455,203z"/>
<path d="M273.797,223.873c0.157,0,0.293,0.059,0.404,0.172l4.035,4.033c0.115,0.114,0.172,0.249,0.172,0.405
	c0,0.157-0.057,0.291-0.172,0.405l-4.034,4.033c-0.11,0.113-0.247,0.17-0.403,0.17s-0.293-0.058-0.404-0.17
	c-0.109-0.113-0.172-0.248-0.172-0.404v-8.067c0-0.157,0.063-0.292,0.172-0.405C273.506,223.929,273.641,223.873,273.797,223.873z"
	/>
<circle fill="#3E3E3F" cx="39.5" cy="89.5" r="6.5"/>
<circle fill="none" stroke="#B0B0B0" stroke-width="2" stroke-miterlimit="10" cx="299.424" cy="184.798" r="6.935"/>
<circle fill="#B0B0B0" cx="299.424" cy="219.798" r="6.935"/>
<circle fill="none" stroke="#FFFFFF" stroke-width="2" stroke-miterlimit="10" cx="332.424" cy="184.798" r="6.935"/>
<circle fill="#FFFFFF" cx="332.424" cy="219.798" r="6.935"/>
<path fill="#3E3E3F" d="M105.367,13.683c0,6.453-5.23,11.684-11.683,11.684C87.23,25.366,82,20.136,82,13.683
	C82,7.231,87.23,2,93.685,2C100.137,2,105.367,7.231,105.367,13.683z M100.119,17.038c-0.109-0.116-0.238-0.174-0.388-0.174H87.635
	c-0.148,0-0.277,0.059-0.386,0.174c-0.108,0.118-0.163,0.254-0.163,0.415v1.179c0,0.153,0.056,0.297,0.163,0.406
	c0.108,0.117,0.237,0.175,0.386,0.175h12.097c0.149,0,0.278-0.058,0.388-0.175c0.109-0.109,0.163-0.247,0.163-0.406v-1.179
	C100.282,17.294,100.229,17.156,100.119,17.038z M100.119,12.497c-0.109-0.115-0.238-0.175-0.388-0.175H87.635
	c-0.148,0-0.277,0.06-0.386,0.175c-0.108,0.112-0.163,0.25-0.163,0.409v1.178c0,0.158,0.056,0.298,0.163,0.415
	c0.108,0.116,0.237,0.175,0.386,0.175h12.097c0.149,0,0.278-0.059,0.388-0.175c0.109-0.117,0.163-0.256,0.163-0.415v-1.178
	C100.282,12.746,100.229,12.608,100.119,12.497z M100.119,8.327c-0.109-0.117-0.238-0.175-0.388-0.175H87.635
	c-0.148,0-0.277,0.058-0.386,0.175c-0.108,0.116-0.163,0.249-0.163,0.413v1.177c0,0.163,0.056,0.298,0.163,0.415
	c0.108,0.116,0.237,0.173,0.386,0.173h12.097c0.149,0,0.278-0.057,0.388-0.173c0.109-0.117,0.163-0.251,0.163-0.415V8.74
	C100.282,8.58,100.229,8.443,100.119,8.327z"/>
<path fill="#FFFFFF" d="M105.367,53.683c0,6.454-5.23,11.684-11.683,11.684C87.231,65.366,82,60.136,82,53.683
	C82,47.23,87.231,42,93.685,42C100.137,42,105.367,47.23,105.367,53.683z M100.12,57.038c-0.11-0.116-0.238-0.174-0.388-0.174
	H87.636c-0.149,0-0.278,0.058-0.386,0.174c-0.109,0.118-0.164,0.255-0.164,0.416v1.179c0,0.153,0.056,0.297,0.164,0.406
	c0.107,0.117,0.236,0.175,0.386,0.175h12.097c0.149,0,0.277-0.058,0.388-0.175c0.108-0.109,0.162-0.247,0.162-0.406v-1.179
	C100.282,57.294,100.229,57.156,100.12,57.038z M100.12,52.497c-0.11-0.116-0.238-0.176-0.388-0.176H87.636
	c-0.149,0-0.278,0.06-0.386,0.176c-0.109,0.112-0.164,0.249-0.164,0.408v1.179c0,0.158,0.056,0.298,0.164,0.414
	c0.107,0.117,0.236,0.176,0.386,0.176h12.097c0.149,0,0.277-0.059,0.388-0.176c0.108-0.116,0.162-0.255,0.162-0.414v-1.179
	C100.282,52.746,100.229,52.609,100.12,52.497z M100.12,48.327c-0.11-0.118-0.238-0.175-0.388-0.175H87.636
	c-0.149,0-0.278,0.057-0.386,0.175c-0.109,0.116-0.164,0.249-0.164,0.413v1.176c0,0.163,0.056,0.298,0.164,0.416
	c0.107,0.116,0.236,0.173,0.386,0.173h12.097c0.149,0,0.277-0.058,0.388-0.173c0.108-0.118,0.162-0.25,0.162-0.416V48.74
	C100.282,48.58,100.229,48.443,100.12,48.327z"/>
<path fill="#3E3E3F" d="M25.367,13.683c0,6.453-5.23,11.684-11.684,11.684S2,20.136,2,13.683C2,7.23,7.23,2,13.684,2
	S25.367,7.23,25.367,13.683z M19.675,13.228h1.86l-7.852-6.643l-7.851,6.643h1.786v7.553h4.223l0.006-4.862h3.79v4.862h4.037V13.228
	z"/>
<polygon fill="#3E3E3F" points="61.857,22.365 56.066,22.365 56.066,15.39 50.629,15.39 50.621,22.365 44.563,22.365 44.563,11.529 
	42,11.529 53.264,2 64.526,11.529 61.857,11.529 "/>
<path fill="#FFFFFF" d="M25.367,53.683c0,6.453-5.23,11.684-11.684,11.684S2,60.136,2,53.683C2,47.23,7.23,42,13.684,42
	S25.367,47.23,25.367,53.683z M19.675,53.228h1.86l-7.852-6.642l-7.851,6.642h1.786v7.553h4.223l0.006-4.862h3.79v4.862h4.037
	V53.228z"/>
<polygon fill="#FFFFFF" points="61.857,62.365 56.066,62.365 56.066,55.39 50.629,55.39 50.621,62.365 44.563,62.365 44.563,51.529 
	42,51.529 53.264,42 64.526,51.529 61.857,51.529 "/>
<path fill="#3E3E3F" d="M145.367,13.683c0,6.453-5.23,11.684-11.683,11.684c-6.454,0-11.685-5.23-11.685-11.684
	C122,7.231,127.23,2,133.685,2C140.137,2,145.367,7.231,145.367,13.683z M140.119,12.497c-0.109-0.115-0.238-0.176-0.388-0.176
	h-12.097c-0.148,0-0.277,0.061-0.386,0.176c-0.108,0.111-0.163,0.249-0.163,0.408v1.178c0,0.158,0.056,0.299,0.163,0.415
	c0.108,0.116,0.237,0.175,0.386,0.175h12.097c0.149,0,0.278-0.059,0.388-0.175s0.163-0.257,0.163-0.415v-1.178
	C140.282,12.746,140.229,12.608,140.119,12.497z"/>
<path fill="#FFFFFF" d="M145.367,53.683c0,6.453-5.23,11.684-11.683,11.684c-6.453,0-11.685-5.23-11.685-11.684
	C122,47.23,127.231,42,133.685,42C140.137,42,145.367,47.23,145.367,53.683z M140.12,52.497c-0.11-0.116-0.238-0.176-0.388-0.176
	h-12.097c-0.149,0-0.278,0.06-0.386,0.176c-0.109,0.111-0.164,0.248-0.164,0.408v1.179c0,0.158,0.056,0.298,0.164,0.413
	c0.107,0.117,0.236,0.177,0.386,0.177h12.097c0.149,0,0.277-0.06,0.388-0.177c0.108-0.115,0.162-0.255,0.162-0.413v-1.179
	C140.282,52.745,140.229,52.608,140.12,52.497z"/>
<path fill="#FFFFFF" d="M172.348,48.333c0-1.107-0.395-2.056-1.18-2.844c-0.789-0.786-1.734-1.188-2.846-1.188
	c-1.109,0-2.055,0.396-2.842,1.188c-0.789,0.788-1.182,1.729-1.182,2.844s0.393,2.055,1.182,2.843
	c0.787,0.787,1.732,1.188,2.842,1.188c1.111,0,2.059-0.396,2.846-1.188C171.955,50.387,172.348,49.44,172.348,48.333z
	 M176.945,55.805c0,0.313-0.111,0.581-0.34,0.813c-0.229,0.228-0.498,0.341-0.809,0.341c-0.324,0-0.596-0.113-0.811-0.341
	l-3.082-3.072c-1.068,0.742-2.268,1.114-3.582,1.114c-0.854,0-1.676-0.167-2.457-0.499s-1.455-0.781-2.021-1.354
	c-0.564-0.563-1.016-1.23-1.346-2.021C162.166,50.005,162,49.185,162,48.33c0-0.855,0.166-1.675,0.498-2.456
	s0.779-1.455,1.346-2.021c0.566-0.566,1.24-1.021,2.021-1.354S167.469,42,168.322,42s1.676,0.166,2.455,0.499
	c0.781,0.332,1.455,0.781,2.021,1.354c0.564,0.563,1.016,1.231,1.348,2.021c0.334,0.781,0.5,1.604,0.5,2.456
	c0,1.317-0.371,2.511-1.113,3.584l3.08,3.08C176.836,55.218,176.945,55.488,176.945,55.805z"/>
<g>
	<path fill="#3E3E3F" d="M97,96c0,1.104-0.896,2-2,2l0,0c-1.104,0-2-0.896-2-2V85c0-1.104,0.896-2,2-2l0,0c1.104,0,2,0.896,2,2V96z"
		/>
	<path fill="#3E3E3F" d="M106,96c0,1.104-0.896,2-2,2l0,0c-1.104,0-2-0.896-2-2V85c0-1.104,0.896-2,2-2l0,0c1.104,0,2,0.896,2,2V96z
		"/>
</g>
<circle fill="#3E3E3F" cx="9.5" cy="89.5" r="4.5"/>
<path fill="#7C1473" d="M305.566,58.784c0,31.36-56.783,99.466-56.783,99.466S192,90.144,192,58.784C192,27.423,217.423,2,248.783,2
	C280.145,2,305.566,27.423,305.566,58.784z"/>
<path fill="#7C1473" d="M312,35.474C312,24.92,331.109,2,331.109,2s19.109,22.92,19.109,33.474c0,10.554-8.556,19.11-19.109,19.11
	S312,46.028,312,35.474z"/>
</svg>
