<?xml version="1.0" encoding="utf-8"?>
<!-- Generator: Adobe Illustrator 15.0.2, SVG Export Plug-In . SVG Version: 6.00 Build 0)  -->
<!DOCTYPE svg PUBLIC "-//W3C//DTD SVG 1.1//EN" "http://www.w3.org/Graphics/SVG/1.1/DTD/svg11.dtd">
<svg version="1.1" id="Lager_1" xmlns="http://www.w3.org/2000/svg" xmlns:xlink="http://www.w3.org/1999/xlink" x="0px" y="0px"
	 width="351.75px" height="959.5px" viewBox="0 0 351.75 959.5" enable-background="new 0 0 351.75 959.5" xml:space="preserve">
<path fill="#3E3E3F" d="M13.983,566.08c0,0.261-0.092,0.479-0.275,0.664l-1.329,1.33c-0.183,0.182-0.403,0.271-0.665,0.271
	c-0.262,0-0.482-0.093-0.664-0.271l-2.875-2.877L5.3,568.074c-0.182,0.182-0.403,0.271-0.664,0.271
	c-0.261,0-0.482-0.093-0.664-0.271l-1.329-1.33c-0.182-0.186-0.274-0.403-0.274-0.664c0-0.262,0.092-0.482,0.274-0.666l2.874-2.872
	l-2.874-2.874c-0.182-0.184-0.274-0.403-0.274-0.664c0-0.262,0.092-0.481,0.274-0.663l1.329-1.332
	c0.182-0.184,0.403-0.271,0.664-0.271c0.261,0,0.482,0.092,0.664,0.271l2.875,2.874l2.875-2.874
	c0.181-0.184,0.402-0.271,0.664-0.271c0.262,0,0.482,0.092,0.665,0.271l1.329,1.332c0.183,0.182,0.275,0.401,0.275,0.663
	c0,0.261-0.092,0.48-0.275,0.664l-2.873,2.874l2.873,2.872C13.89,565.596,13.983,565.818,13.983,566.08z"/>
<path d="M1.701,437.622c0-0.156,0.058-0.292,0.171-0.402l4.033-4.034c0.114-0.114,0.249-0.172,0.405-0.172
	c0.156,0,0.291,0.058,0.405,0.172l4.034,4.034c0.114,0.11,0.171,0.246,0.171,0.402c0,0.157-0.058,0.293-0.171,0.405
	c-0.114,0.114-0.248,0.172-0.405,0.172H2.277c-0.157,0-0.292-0.058-0.405-0.172C1.758,437.916,1.701,437.779,1.701,437.622z"/>
<path fill="#FFFFFF" d="M32.574,437.496c0-0.156,0.058-0.292,0.172-0.402l4.033-4.034c0.114-0.114,0.249-0.171,0.405-0.171
	c0.156,0,0.291,0.058,0.405,0.171l4.033,4.034c0.114,0.111,0.171,0.246,0.171,0.402c0,0.157-0.057,0.293-0.171,0.406
	c-0.113,0.113-0.248,0.171-0.404,0.171h-8.067c-0.157,0-0.292-0.058-0.405-0.171C32.631,437.789,32.574,437.653,32.574,437.496z"/>
<path fill="#B0B0B0" d="M65.295,437.495c0-0.156,0.057-0.292,0.171-0.402l4.033-4.035c0.114-0.114,0.249-0.171,0.406-0.171
	c0.156,0,0.291,0.058,0.404,0.171l4.034,4.035c0.113,0.11,0.17,0.246,0.17,0.402c0,0.157-0.057,0.293-0.17,0.405
	c-0.114,0.114-0.249,0.171-0.405,0.171h-8.067c-0.157,0-0.292-0.058-0.405-0.171C65.352,437.789,65.295,437.652,65.295,437.495z"/>
<path fill="#B0B0B0" d="M74.514,454.163c0,0.157-0.057,0.292-0.171,0.403L70.31,458.6c-0.114,0.116-0.249,0.174-0.405,0.174
	c-0.156,0-0.291-0.058-0.405-0.174l-4.034-4.032c-0.114-0.112-0.171-0.246-0.171-0.403c0-0.156,0.057-0.293,0.171-0.404
	c0.114-0.116,0.248-0.171,0.405-0.171h8.067c0.157,0,0.292,0.056,0.405,0.171C74.457,453.87,74.514,454.007,74.514,454.163z"/>
<path fill="#FFFFFF" d="M41.793,454.163c0,0.157-0.057,0.292-0.172,0.403l-4.033,4.032c-0.114,0.116-0.249,0.174-0.405,0.174
	c-0.156,0-0.291-0.058-0.405-0.174l-4.034-4.032c-0.114-0.112-0.171-0.246-0.171-0.403c0-0.156,0.058-0.293,0.171-0.404
	c0.114-0.116,0.248-0.171,0.405-0.171h8.067c0.157,0,0.292,0.056,0.404,0.171C41.736,453.87,41.793,454.007,41.793,454.163z"/>
<path d="M10.92,454.506c0,0.156-0.058,0.293-0.172,0.403l-4.033,4.035c-0.114,0.114-0.249,0.172-0.405,0.172
	c-0.157,0-0.291-0.058-0.405-0.172l-4.033-4.034c-0.114-0.11-0.171-0.247-0.171-0.403s0.058-0.292,0.171-0.403
	c0.113-0.115,0.248-0.173,0.404-0.173h8.067c0.157,0,0.292,0.058,0.405,0.173C10.863,454.214,10.92,454.349,10.92,454.506z"/>
<path fill="#FFFFFF" d="M50.592,566.08c0,0.261-0.092,0.479-0.275,0.664l-1.329,1.33c-0.183,0.182-0.403,0.271-0.665,0.271
	c-0.262,0-0.482-0.093-0.664-0.271l-2.875-2.877l-2.875,2.877c-0.182,0.182-0.403,0.271-0.664,0.271
	c-0.261,0-0.482-0.093-0.664-0.271l-1.33-1.33c-0.182-0.186-0.274-0.403-0.274-0.664c0-0.262,0.092-0.482,0.274-0.666l2.874-2.871
	l-2.874-2.875c-0.182-0.184-0.274-0.403-0.274-0.664c0-0.262,0.092-0.479,0.274-0.663l1.33-1.332
	c0.182-0.184,0.403-0.271,0.664-0.271c0.261,0,0.482,0.092,0.664,0.271l2.875,2.874l2.875-2.874
	c0.181-0.184,0.402-0.271,0.664-0.271c0.262,0,0.482,0.092,0.665,0.271l1.329,1.332c0.183,0.184,0.275,0.401,0.275,0.663
	c0,0.261-0.092,0.48-0.275,0.664l-2.873,2.875l2.873,2.871C50.5,565.596,50.592,565.818,50.592,566.08z"/>
<path fill="#B0B0B0" d="M95.174,566.08c0,0.261-0.092,0.479-0.275,0.664l-1.328,1.33c-0.183,0.182-0.404,0.271-0.666,0.271
	c-0.262,0-0.481-0.093-0.664-0.271l-2.875-2.877l-2.875,2.877c-0.182,0.182-0.403,0.271-0.664,0.271
	c-0.261,0-0.482-0.093-0.665-0.271l-1.329-1.33c-0.181-0.186-0.273-0.403-0.273-0.664c0-0.262,0.092-0.482,0.273-0.666l2.874-2.871
	l-2.874-2.875c-0.181-0.184-0.273-0.403-0.273-0.664c0-0.262,0.092-0.479,0.273-0.663l1.329-1.332
	c0.183-0.184,0.404-0.271,0.665-0.271c0.261,0,0.482,0.092,0.664,0.271l2.875,2.874l2.875-2.874
	c0.182-0.184,0.402-0.271,0.664-0.271c0.262,0,0.482,0.092,0.666,0.271l1.328,1.332c0.183,0.184,0.275,0.401,0.275,0.663
	c0,0.261-0.092,0.48-0.275,0.664l-2.872,2.875l2.872,2.871C95.082,565.596,95.174,565.818,95.174,566.08z"/>
<path d="M11.874,498.066c-0.269,0-0.499-0.101-0.69-0.295l-6.925-6.926c-0.2-0.195-0.296-0.427-0.296-0.693
	c0-0.271,0.096-0.498,0.296-0.693l6.925-6.926c0.191-0.193,0.421-0.293,0.69-0.293c0.27,0,0.505,0.1,0.697,0.293
	c0.197,0.193,0.293,0.429,0.293,0.693v13.851c0,0.271-0.096,0.5-0.293,0.694C12.379,497.969,12.143,498.066,11.874,498.066z"/>
<path fill="#FFFFFF" d="M44.947,496.025c-0.269,0-0.499-0.102-0.69-0.299l-6.925-6.922c-0.2-0.195-0.296-0.429-0.296-0.695
	c0-0.271,0.096-0.498,0.296-0.693l6.925-6.926c0.191-0.192,0.421-0.292,0.69-0.292c0.269,0,0.505,0.1,0.697,0.292
	c0.197,0.196,0.293,0.43,0.293,0.693v13.852c0,0.271-0.096,0.499-0.293,0.692C45.452,495.927,45.216,496.025,44.947,496.025z"/>
<path fill="#B0B0B0" d="M81.636,496.025c-0.269,0-0.5-0.102-0.691-0.299l-6.925-6.922c-0.2-0.195-0.296-0.429-0.296-0.695
	c0-0.271,0.096-0.498,0.296-0.693l6.925-6.926c0.191-0.192,0.422-0.292,0.691-0.292c0.269,0,0.505,0.1,0.697,0.292
	c0.197,0.196,0.293,0.43,0.293,0.693v13.852c0,0.271-0.096,0.499-0.293,0.692C82.141,495.927,81.905,496.025,81.636,496.025z"/>
<path fill="#3E3E3F" d="M63.99,83c0.269,0,0.5,0.1,0.69,0.296l6.925,6.922c0.2,0.197,0.297,0.429,0.297,0.697
	c0,0.27-0.097,0.497-0.297,0.693l-6.925,6.925c-0.19,0.194-0.422,0.293-0.69,0.293c-0.27,0-0.506-0.099-0.697-0.293
	C63.096,98.338,63,98.104,63,97.838V83.989c0-0.269,0.096-0.499,0.293-0.693C63.484,83.098,63.721,83,63.99,83z"/>
<path fill="#FFFFFF" d="M50.636,518.658c0.271,0,0.5,0.101,0.691,0.297l6.925,6.923c0.2,0.195,0.296,0.428,0.296,0.695
	c0,0.269-0.096,0.497-0.296,0.691l-6.925,6.927c-0.191,0.191-0.422,0.293-0.691,0.293c-0.269,0-0.504-0.102-0.697-0.293
	c-0.196-0.195-0.293-0.43-0.293-0.695v-13.85c0-0.27,0.097-0.498,0.293-0.691C50.13,518.757,50.368,518.658,50.636,518.658z"/>
<path fill="#B0B0B0" d="M81.066,518.658c0.269,0,0.5,0.101,0.691,0.297l6.924,6.923c0.201,0.195,0.297,0.428,0.297,0.695
	c0,0.269-0.096,0.497-0.297,0.691l-6.924,6.927c-0.191,0.191-0.423,0.293-0.691,0.293c-0.27,0-0.506-0.102-0.697-0.293
	c-0.197-0.195-0.293-0.43-0.293-0.695v-13.85c0-0.27,0.096-0.498,0.293-0.691C80.56,518.757,80.796,518.658,81.066,518.658z"/>
<path fill="#3E3E3F" d="M134.556,486.243c0,0.284-0.103,0.528-0.304,0.729l-1.465,1.47c-0.203,0.197-0.444,0.301-0.733,0.301
	c-0.289,0-0.531-0.104-0.73-0.301l-3.17-3.174l-3.169,3.174c-0.2,0.197-0.445,0.301-0.732,0.301c-0.286,0-0.53-0.104-0.731-0.301
	l-1.467-1.47c-0.199-0.198-0.302-0.442-0.302-0.729c0-0.289,0.103-0.533,0.302-0.734l3.17-3.166l-3.17-3.171
	c-0.199-0.201-0.302-0.445-0.302-0.731c0-0.287,0.103-0.53,0.302-0.729l1.467-1.471c0.201-0.199,0.445-0.302,0.731-0.302
	c0.287,0,0.532,0.103,0.732,0.302l3.169,3.171l3.17-3.171c0.199-0.199,0.441-0.302,0.73-0.302c0.289,0,0.53,0.103,0.733,0.302
	l1.465,1.471c0.201,0.199,0.304,0.442,0.304,0.729c0,0.286-0.103,0.53-0.304,0.731l-3.168,3.171l3.168,3.166
	C134.453,485.71,134.556,485.954,134.556,486.243z M128.153,470.256c-6.495,0-11.761,5.267-11.761,11.761
	c0,6.492,5.266,11.762,11.761,11.762c6.492,0,11.758-5.27,11.758-11.762C139.91,475.52,134.646,470.256,128.153,470.256z"/>
<path fill="#FFFFFF" d="M223.604,526.255v1.647c0,0.224-0.074,0.416-0.229,0.566c-0.15,0.165-0.332,0.245-0.541,0.245h-16.912
	c-0.207,0-0.389-0.08-0.538-0.245c-0.151-0.15-0.229-0.354-0.229-0.566v-1.647c0-0.225,0.076-0.415,0.229-0.58
	c0.149-0.162,0.331-0.244,0.538-0.244h16.912c0.209,0,0.391,0.082,0.541,0.244C223.527,525.84,223.604,526.031,223.604,526.255z
	 M223.604,519.896v1.646c0,0.222-0.074,0.416-0.229,0.579c-0.15,0.163-0.332,0.245-0.541,0.245h-16.912
	c-0.207,0-0.389-0.082-0.538-0.245c-0.151-0.163-0.229-0.357-0.229-0.579v-1.646c0-0.225,0.076-0.415,0.229-0.571
	c0.149-0.161,0.331-0.245,0.538-0.245h16.912c0.209,0,0.391,0.084,0.541,0.245C223.527,519.481,223.604,519.675,223.604,519.896z
	 M223.604,514.073v1.646c0,0.229-0.074,0.416-0.229,0.58c-0.15,0.162-0.332,0.241-0.541,0.241h-16.912
	c-0.207,0-0.389-0.079-0.538-0.241c-0.151-0.164-0.229-0.354-0.229-0.58v-1.646c0-0.229,0.076-0.416,0.229-0.577
	c0.149-0.164,0.331-0.244,0.538-0.244h16.912c0.209,0,0.391,0.08,0.541,0.244C223.527,513.657,223.604,513.85,223.604,514.073z"/>
<path fill="#3E3E3F" d="M173.907,481.25c0,0.195-0.064,0.363-0.207,0.504l-1.008,1.01c-0.139,0.14-0.307,0.207-0.504,0.207
	s-0.365-0.067-0.504-0.207l-2.18-2.182l-2.18,2.182c-0.143,0.14-0.311,0.207-0.504,0.207c-0.197,0-0.365-0.067-0.504-0.207
	l-1.012-1.01c-0.14-0.141-0.209-0.309-0.209-0.504c0-0.197,0.069-0.365,0.209-0.505l2.184-2.177l-2.184-2.184
	c-0.14-0.139-0.209-0.308-0.209-0.504c0-0.197,0.069-0.365,0.209-0.502l1.012-1.013c0.139-0.138,0.307-0.206,0.504-0.206
	c0.193,0,0.361,0.068,0.504,0.206l2.182,2.183l2.18-2.183c0.139-0.138,0.307-0.206,0.502-0.206c0.199,0,0.365,0.068,0.506,0.206
	l1.008,1.013c0.143,0.137,0.207,0.305,0.207,0.502c0,0.196-0.064,0.365-0.207,0.504l-2.182,2.184l2.182,2.177
	C173.837,480.884,173.907,481.052,173.907,481.25z M169.503,470.257c-4.466,0-8.087,3.62-8.087,8.087
	c0,4.466,3.622,8.087,8.087,8.087s8.088-3.621,8.088-8.087S173.97,470.257,169.503,470.257z"/>
<path fill="#3E3E3F" d="M172.348,8.333c0-1.106-0.395-2.056-1.18-2.844c-0.789-0.786-1.734-1.188-2.846-1.188
	c-1.109,0-2.055,0.396-2.842,1.188c-0.789,0.788-1.182,1.729-1.182,2.844s0.393,2.056,1.182,2.843
	c0.787,0.787,1.732,1.188,2.842,1.188c1.111,0,2.059-0.396,2.846-1.188C171.955,10.387,172.348,9.44,172.348,8.333z M176.945,15.805
	c0,0.313-0.111,0.581-0.34,0.813c-0.229,0.229-0.5,0.341-0.812,0.341c-0.324,0-0.596-0.112-0.811-0.341l-3.082-3.072
	c-1.068,0.742-2.268,1.114-3.582,1.114c-0.854,0-1.676-0.167-2.457-0.499c-0.781-0.332-1.455-0.781-2.021-1.354
	c-0.564-0.563-1.016-1.23-1.346-2.021C162.166,10.005,162,9.185,162,8.33c0-0.854,0.166-1.675,0.498-2.456
	c0.332-0.781,0.779-1.455,1.346-2.021c0.566-0.566,1.24-1.021,2.021-1.354C166.646,2.166,167.469,2,168.322,2
	s1.676,0.166,2.455,0.499c0.781,0.332,1.455,0.781,2.021,1.354c0.564,0.563,1.016,1.23,1.348,2.021c0.334,0.781,0.5,1.604,0.5,2.456
	c0,1.317-0.371,2.511-1.113,3.584l3.08,3.08C176.836,15.218,176.945,15.488,176.945,15.805z"/>
<path fill="#FFFFFF" d="M217.257,553.914c0-1.106-0.394-2.056-1.183-2.844c-0.787-0.786-1.733-1.188-2.85-1.188
	c-1.104,0-2.058,0.396-2.847,1.188c-0.788,0.788-1.188,1.729-1.188,2.844s0.396,2.056,1.188,2.844
	c0.789,0.787,1.729,1.188,2.847,1.188c1.112,0,2.063-0.396,2.85-1.188C216.865,555.969,217.257,555.021,217.257,553.914z
	 M221.854,561.386c0,0.313-0.109,0.581-0.34,0.813c-0.229,0.229-0.498,0.341-0.81,0.341c-0.323,0-0.595-0.112-0.813-0.341
	l-3.08-3.072c-1.064,0.742-2.269,1.114-3.584,1.114c-0.854,0-1.676-0.167-2.457-0.499c-0.773-0.332-1.449-0.781-2.021-1.354
	c-0.563-0.563-1.017-1.229-1.349-2.021c-0.332-0.781-0.498-1.604-0.498-2.456c0-0.854,0.166-1.675,0.498-2.456
	c0.332-0.78,0.773-1.455,1.349-2.021c0.563-0.563,1.237-1.021,2.021-1.354c0.781-0.333,1.604-0.499,2.457-0.499
	c0.854,0,1.684,0.166,2.457,0.499c0.781,0.332,1.455,0.781,2.021,1.354c0.563,0.563,1.021,1.23,1.354,2.021
	c0.334,0.79,0.498,1.604,0.498,2.456c0,1.315-0.371,2.512-1.104,3.584l3.071,3.08C221.744,560.8,221.854,561.069,221.854,561.386z"
	/>
<path fill="#3E3E3F" d="M133.55,448.699c0,0.272-0.099,0.507-0.291,0.7l-1.4,1.401c-0.193,0.189-0.426,0.288-0.701,0.288
	c-0.275,0-0.51-0.099-0.699-0.288l-3.031-3.032l-3.031,3.032c-0.192,0.189-0.426,0.288-0.701,0.288c-0.275,0-0.508-0.099-0.7-0.288
	l-1.401-1.401c-0.191-0.193-0.289-0.428-0.289-0.7c0-0.273,0.097-0.51,0.289-0.702l3.03-3.027l-3.03-3.029
	c-0.191-0.193-0.289-0.429-0.289-0.701c0-0.274,0.097-0.511,0.289-0.699l1.401-1.404c0.192-0.19,0.425-0.289,0.7-0.289
	c0.275,0,0.509,0.099,0.701,0.289l3.031,3.03l3.031-3.03c0.189-0.19,0.424-0.289,0.699-0.289c0.275,0,0.508,0.099,0.701,0.289
	l1.4,1.404c0.192,0.188,0.291,0.425,0.291,0.699c0,0.272-0.099,0.508-0.291,0.701l-3.029,3.029l3.029,3.027
	C133.451,448.19,133.55,448.426,133.55,448.699z"/>
<circle fill="none" stroke="#3E3E3F" stroke-width="2" stroke-miterlimit="10" cx="127.427" cy="444.968" r="11.714"/>
<path fill="#3E3E3F" d="M171.976,445.081c0,0.161-0.059,0.299-0.172,0.413l-0.83,0.832c-0.113,0.109-0.25,0.17-0.414,0.17
	s-0.303-0.059-0.416-0.17l-1.793-1.796l-1.795,1.796c-0.113,0.109-0.252,0.17-0.414,0.17c-0.164,0-0.301-0.059-0.416-0.17
	l-0.83-0.832c-0.113-0.114-0.17-0.252-0.17-0.413c0-0.162,0.059-0.303,0.17-0.417l1.795-1.792l-1.795-1.794
	c-0.113-0.114-0.17-0.254-0.17-0.416c0-0.161,0.059-0.301,0.17-0.412l0.83-0.834c0.115-0.112,0.252-0.172,0.416-0.172
	s0.301,0.06,0.414,0.172l1.795,1.796l1.793-1.796c0.113-0.112,0.252-0.172,0.416-0.172s0.301,0.06,0.414,0.172l0.832,0.834
	c0.113,0.111,0.17,0.251,0.17,0.412c0,0.162-0.057,0.302-0.17,0.416l-1.793,1.794l1.793,1.792
	C171.919,444.778,171.976,444.919,171.976,445.081z"/>
<circle fill="none" stroke="#3E3E3F" stroke-width="2" stroke-miterlimit="10" cx="168.351" cy="442.87" r="6.935"/>
<path d="M246.729,489.566c-0.154,0-0.293-0.061-0.399-0.17l-4.026-4.033c-0.115-0.114-0.181-0.25-0.181-0.404
	c0-0.156,0.063-0.291,0.181-0.405l4.026-4.031c0.106-0.115,0.246-0.174,0.399-0.174c0.156,0,0.293,0.061,0.404,0.174
	c0.117,0.111,0.172,0.246,0.172,0.402v8.065c0,0.158-0.055,0.293-0.172,0.406C247.021,489.51,246.887,489.566,246.729,489.566z"/>
<path fill="#FFFFFF" d="M246.604,468.692c-0.154,0-0.291-0.06-0.4-0.174l-4.033-4.031c-0.107-0.113-0.172-0.248-0.172-0.403
	c0-0.156,0.063-0.291,0.172-0.405l4.033-4.032c0.109-0.113,0.246-0.172,0.4-0.172c0.158,0,0.293,0.059,0.405,0.172
	c0.115,0.112,0.173,0.248,0.173,0.403v8.066c0,0.155-0.058,0.291-0.173,0.402C246.896,468.636,246.762,468.692,246.604,468.692z"/>
<path fill="#B0B0B0" d="M246.604,445.972c-0.154,0-0.293-0.058-0.4-0.171l-4.035-4.032c-0.107-0.113-0.172-0.25-0.172-0.404
	c0-0.156,0.063-0.291,0.172-0.404l4.035-4.033c0.107-0.11,0.246-0.17,0.4-0.17c0.155,0,0.293,0.06,0.403,0.17
	c0.117,0.113,0.173,0.249,0.173,0.404v8.066c0,0.155-0.058,0.293-0.173,0.403C246.896,445.915,246.759,445.972,246.604,445.972z"/>
<path fill="#B0B0B0" d="M263.271,436.754c0.154,0,0.291,0.057,0.399,0.171l4.035,4.032c0.112,0.114,0.172,0.249,0.172,0.405
	c0,0.154-0.06,0.291-0.172,0.402l-4.035,4.034c-0.108,0.113-0.245,0.171-0.399,0.171c-0.156,0-0.293-0.058-0.404-0.171
	c-0.115-0.114-0.172-0.248-0.172-0.405v-8.064c0-0.156,0.057-0.292,0.172-0.404C262.979,436.81,263.113,436.754,263.271,436.754z"/>
<path fill="#FFFFFF" d="M263.271,459.474c0.154,0,0.291,0.059,0.399,0.174l4.035,4.031c0.112,0.114,0.172,0.249,0.172,0.404
	s-0.06,0.291-0.172,0.405l-4.035,4.031c-0.108,0.114-0.245,0.174-0.399,0.174c-0.156,0-0.293-0.061-0.404-0.174
	c-0.115-0.111-0.172-0.246-0.172-0.402v-8.066c0-0.157,0.057-0.292,0.172-0.401C262.979,459.53,263.113,459.474,263.271,459.474z"/>
<path d="M263.611,480.347c0.156,0,0.293,0.062,0.404,0.173l4.033,4.032c0.115,0.113,0.174,0.249,0.174,0.404
	c0,0.156-0.059,0.291-0.174,0.404l-4.033,4.031c-0.109,0.113-0.246,0.171-0.402,0.171c-0.155,0-0.293-0.059-0.403-0.171
	c-0.108-0.111-0.172-0.248-0.172-0.402v-8.065c0-0.156,0.063-0.292,0.172-0.404C263.32,480.402,263.456,480.347,263.611,480.347z"/>
<circle fill="#3E3E3F" cx="39.5" cy="89.5" r="6.5"/>
<circle fill="none" stroke="#B0B0B0" stroke-width="2" stroke-miterlimit="10" cx="289.238" cy="441.272" r="6.935"/>
<circle fill="#B0B0B0" cx="289.238" cy="476.272" r="6.935"/>
<circle fill="none" stroke="#FFFFFF" stroke-width="2" stroke-miterlimit="10" cx="322.238" cy="441.272" r="6.935"/>
<circle fill="#FFFFFF" cx="322.238" cy="476.272" r="6.935"/>
<path fill="#3E3E3F" d="M105.367,13.683c0,6.453-5.23,11.684-11.683,11.684C87.23,25.366,82,20.136,82,13.683
	C82,7.231,87.23,2,93.685,2C100.137,2,105.367,7.231,105.367,13.683z M100.119,17.038c-0.109-0.116-0.238-0.174-0.388-0.174H87.635
	c-0.148,0-0.277,0.059-0.386,0.174c-0.108,0.118-0.163,0.254-0.163,0.415v1.179c0,0.153,0.056,0.298,0.163,0.406
	c0.108,0.117,0.237,0.175,0.386,0.175h12.097c0.149,0,0.278-0.058,0.388-0.175c0.109-0.108,0.163-0.247,0.163-0.406v-1.179
	C100.282,17.294,100.229,17.156,100.119,17.038z M100.119,12.497c-0.109-0.115-0.238-0.175-0.388-0.175H87.635
	c-0.148,0-0.277,0.06-0.386,0.175c-0.108,0.112-0.163,0.25-0.163,0.409v1.178c0,0.158,0.056,0.298,0.163,0.415
	c0.108,0.116,0.237,0.175,0.386,0.175h12.097c0.149,0,0.278-0.059,0.388-0.175c0.109-0.117,0.163-0.256,0.163-0.415v-1.178
	C100.282,12.746,100.229,12.608,100.119,12.497z M100.119,8.327c-0.109-0.117-0.238-0.175-0.388-0.175H87.635
	c-0.148,0-0.277,0.058-0.386,0.175c-0.108,0.116-0.163,0.249-0.163,0.413v1.177c0,0.163,0.056,0.298,0.163,0.415
	c0.108,0.116,0.237,0.173,0.386,0.173h12.097c0.149,0,0.278-0.057,0.388-0.173c0.109-0.117,0.163-0.251,0.163-0.415V8.74
	C100.282,8.58,100.229,8.443,100.119,8.327z"/>
<path fill="#FFFFFF" d="M105.367,53.683c0,6.454-5.23,11.684-11.683,11.684C87.231,65.366,82,60.136,82,53.683
	C82,47.23,87.231,42,93.685,42C100.137,42,105.367,47.23,105.367,53.683z M100.12,57.038c-0.11-0.116-0.238-0.174-0.388-0.174
	H87.636c-0.149,0-0.278,0.058-0.386,0.174c-0.109,0.118-0.164,0.255-0.164,0.416v1.179c0,0.153,0.056,0.298,0.164,0.406
	c0.107,0.117,0.236,0.175,0.386,0.175h12.097c0.149,0,0.277-0.058,0.388-0.175c0.108-0.108,0.162-0.247,0.162-0.406v-1.179
	C100.282,57.294,100.229,57.156,100.12,57.038z M100.12,52.497c-0.11-0.116-0.238-0.176-0.388-0.176H87.636
	c-0.149,0-0.278,0.06-0.386,0.176c-0.109,0.112-0.164,0.249-0.164,0.408v1.179c0,0.158,0.056,0.298,0.164,0.414
	c0.107,0.117,0.236,0.176,0.386,0.176h12.097c0.149,0,0.277-0.059,0.388-0.176c0.108-0.116,0.162-0.255,0.162-0.414v-1.179
	C100.282,52.746,100.229,52.609,100.12,52.497z M100.12,48.327c-0.11-0.118-0.238-0.175-0.388-0.175H87.636
	c-0.149,0-0.278,0.057-0.386,0.175c-0.109,0.116-0.164,0.249-0.164,0.413v1.176c0,0.163,0.056,0.298,0.164,0.416
	c0.107,0.116,0.236,0.173,0.386,0.173h12.097c0.149,0,0.277-0.058,0.388-0.173c0.108-0.118,0.162-0.25,0.162-0.416V48.74
	C100.282,48.58,100.229,48.443,100.12,48.327z"/>
<path fill="#3E3E3F" d="M25.367,13.683c0,6.453-5.23,11.684-11.684,11.684S2,20.136,2,13.683C2,7.23,7.23,2,13.684,2
	S25.367,7.23,25.367,13.683z M19.675,13.228h1.86l-7.852-6.644l-7.851,6.644h1.786v7.553h4.223l0.006-4.862h3.79v4.862h4.037
	L19.675,13.228L19.675,13.228z"/>
<polygon fill="#3E3E3F" points="61.857,22.365 56.066,22.365 56.066,15.39 50.629,15.39 50.621,22.365 44.563,22.365 44.563,11.529 
	42,11.529 53.264,2 64.526,11.529 61.857,11.529 "/>
<path fill="#FFFFFF" d="M25.367,53.683c0,6.453-5.23,11.684-11.684,11.684S2,60.136,2,53.683C2,47.23,7.23,42,13.684,42
	S25.367,47.23,25.367,53.683z M19.675,53.228h1.86l-7.852-6.643l-7.851,6.643h1.786v7.553h4.223l0.006-4.862h3.79v4.862h4.037
	L19.675,53.228L19.675,53.228z"/>
<polygon fill="#FFFFFF" points="61.857,62.365 56.066,62.365 56.066,55.39 50.629,55.39 50.621,62.365 44.563,62.365 44.563,51.529 
	42,51.529 53.264,42 64.526,51.529 61.857,51.529 "/>
<path fill="#3E3E3F" d="M145.367,13.683c0,6.453-5.23,11.684-11.683,11.684c-6.454,0-11.685-5.229-11.685-11.684
	C122,7.231,127.23,2,133.685,2C140.137,2,145.367,7.231,145.367,13.683z M140.119,12.497c-0.109-0.115-0.238-0.176-0.388-0.176
	h-12.097c-0.148,0-0.277,0.061-0.386,0.176c-0.108,0.111-0.163,0.249-0.163,0.408v1.178c0,0.158,0.056,0.299,0.163,0.415
	c0.108,0.116,0.237,0.175,0.386,0.175h12.097c0.149,0,0.278-0.059,0.388-0.175c0.11-0.116,0.163-0.257,0.163-0.415v-1.178
	C140.282,12.746,140.229,12.608,140.119,12.497z"/>
<path fill="#FFFFFF" d="M145.367,53.683c0,6.453-5.23,11.684-11.683,11.684s-11.685-5.229-11.685-11.684
	C122,47.23,127.231,42,133.685,42C140.137,42,145.367,47.23,145.367,53.683z M140.12,52.497c-0.11-0.116-0.238-0.176-0.388-0.176
	h-12.097c-0.149,0-0.278,0.06-0.386,0.176c-0.109,0.111-0.164,0.248-0.164,0.408v1.179c0,0.158,0.056,0.298,0.164,0.413
	c0.107,0.117,0.236,0.177,0.386,0.177h12.097c0.149,0,0.277-0.06,0.388-0.177c0.108-0.115,0.162-0.255,0.162-0.413v-1.179
	C140.282,52.745,140.229,52.608,140.12,52.497z"/>
<path fill="#FFFFFF" d="M172.348,48.333c0-1.106-0.395-2.056-1.18-2.844c-0.789-0.786-1.734-1.188-2.846-1.188
	c-1.109,0-2.055,0.396-2.842,1.188c-0.789,0.788-1.182,1.729-1.182,2.844s0.393,2.056,1.182,2.843
	c0.787,0.787,1.732,1.188,2.842,1.188c1.111,0,2.059-0.396,2.846-1.188C171.955,50.387,172.348,49.44,172.348,48.333z
	 M176.945,55.805c0,0.313-0.111,0.581-0.34,0.813c-0.229,0.229-0.5,0.341-0.812,0.341c-0.324,0-0.596-0.112-0.811-0.341
	l-3.082-3.072c-1.068,0.742-2.268,1.114-3.582,1.114c-0.854,0-1.676-0.167-2.457-0.499c-0.781-0.332-1.455-0.781-2.021-1.354
	c-0.564-0.563-1.016-1.23-1.346-2.021c-0.33-0.781-0.496-1.601-0.496-2.456c0-0.854,0.166-1.675,0.498-2.456
	c0.332-0.781,0.779-1.455,1.346-2.021c0.566-0.566,1.24-1.021,2.021-1.354c0.781-0.333,1.604-0.499,2.457-0.499
	s1.676,0.166,2.455,0.499c0.781,0.332,1.455,0.781,2.021,1.354c0.564,0.563,1.016,1.23,1.348,2.021c0.334,0.781,0.5,1.604,0.5,2.456
	c0,1.317-0.371,2.511-1.113,3.584l3.079,3.08C176.836,55.218,176.945,55.488,176.945,55.805z"/>
<g>
	<path fill="#3E3E3F" d="M97,96c0,1.104-0.896,2-2,2l0,0c-1.104,0-2-0.896-2-2V85c0-1.104,0.896-2,2-2l0,0c1.104,0,2,0.896,2,2V96z"
		/>
	<path fill="#3E3E3F" d="M106,96c0,1.104-0.896,2-2,2l0,0c-1.104,0-2-0.896-2-2V85c0-1.104,0.896-2,2-2l0,0c1.104,0,2,0.896,2,2V96z
		"/>
</g>
<circle fill="#3E3E3F" cx="9.5" cy="89.5" r="4.5"/>
<g>
	<path stroke="#FFFFFF" stroke-width="0.5" d="M1.609,173.258c0-10.237,18.5-32.466,18.5-32.466s18.5,22.229,18.5,32.466
		c0,10.236-8.283,18.534-18.5,18.534C9.893,191.792,1.609,183.494,1.609,173.258z"/>
	<g>
		<path fill="#FFFFFF" d="M13.269,170.073v-3.63h1.445v11.298h-1.445v-0.668c-0.548,0.546-1.209,0.818-1.985,0.818
			c-1.157,0-2.057-0.359-2.7-1.075c-0.644-0.717-0.966-1.769-0.966-3.152c0-1.233,0.324-2.24,0.974-3.02
			c0.649-0.779,1.587-1.17,2.815-1.17c0.345,0,0.713,0.062,1.107,0.183C12.908,169.778,13.158,169.916,13.269,170.073z
			 M13.269,175.99v-4.728c-0.092-0.137-0.285-0.266-0.579-0.389c-0.294-0.124-0.581-0.186-0.86-0.186
			c-1.795,0-2.693,1.011-2.693,3.031c0,1.024,0.213,1.776,0.639,2.25c0.425,0.474,1.108,0.711,2.047,0.711
			c0.202,0,0.452-0.07,0.745-0.212C12.863,176.327,13.097,176.168,13.269,175.99z"/>
		<path fill="#FFFFFF" d="M21.948,170.073v-3.63h1.445v11.298h-1.445v-0.668c-0.548,0.546-1.209,0.818-1.985,0.818
			c-1.157,0-2.056-0.359-2.7-1.075c-0.644-0.717-0.966-1.769-0.966-3.152c0-1.233,0.324-2.24,0.974-3.02
			c0.649-0.779,1.587-1.17,2.815-1.17c0.345,0,0.714,0.062,1.107,0.183C21.586,169.778,21.837,169.916,21.948,170.073z
			 M21.948,175.99v-4.728c-0.092-0.137-0.284-0.266-0.579-0.389c-0.294-0.124-0.581-0.186-0.859-0.186
			c-1.795,0-2.693,1.011-2.693,3.031c0,1.024,0.213,1.776,0.639,2.25c0.425,0.474,1.107,0.711,2.046,0.711
			c0.203,0,0.452-0.07,0.746-0.212C21.542,176.327,21.776,176.168,21.948,175.99z"/>
		<path fill="#FFFFFF" d="M33.381,180.726H31.86v-7.6c0-0.676-0.216-1.233-0.647-1.67c-0.431-0.438-1.001-0.656-1.712-0.656
			c-0.75,0-1.342,0.212-1.772,0.637c-0.43,0.423-0.646,0.999-0.646,1.727v7.562h-1.522v-7.721c0-1.121,0.351-1.997,1.054-2.625
			c0.703-0.628,1.659-0.943,2.871-0.943c1.248,0,2.209,0.309,2.883,0.924c0.674,0.615,1.011,1.5,1.011,2.652L33.381,180.726
			L33.381,180.726z"/>
	</g>
</g>
<g>
	<path opacity="0.43" stroke="#FFFFFF" stroke-width="0.5" d="M302.684,288.911c-21.373,23.226-139.301,68.063-139.301,68.063
		s-25.093-56.046-3.72-79.272c21.374-23.228,70.718-39.547,110.212-36.452C309.371,244.346,324.059,265.684,302.684,288.911z"/>
	<path opacity="0.9" fill="#FFFFFF" d="M220.566,257.784c0,31.36-56.783,99.466-56.783,99.466S107,289.144,107,257.784
		C107,226.423,132.423,201,163.783,201C195.145,201,220.566,226.423,220.566,257.784z"/>
	<g>
		<path stroke="#FFFFFF" stroke-width="0.5" d="M141.994,234.308l-0.203,0.838c-0.229,0.008-0.605,0.076-1.13,0.203
			c-0.525,0.127-0.905,0.258-1.143,0.394c-0.364,0.211-0.662,0.616-0.895,1.212c-0.233,0.598-0.46,1.36-0.681,2.292l-3.067,13.253
			h-1.134l-7.374-15.215l-2.274,9.833c-0.103,0.44-0.188,0.884-0.256,1.333c-0.068,0.449-0.103,0.813-0.103,1.092
			c0,0.296,0.03,0.535,0.089,0.717c0.06,0.183,0.14,0.332,0.241,0.451c0.145,0.179,0.504,0.348,1.079,0.509
			c0.576,0.16,0.957,0.25,1.143,0.267l-0.19,0.838h-7.385l0.19-0.838c0.279-0.025,0.689-0.108,1.231-0.248
			c0.542-0.14,0.901-0.273,1.079-0.4c0.339-0.229,0.626-0.599,0.863-1.11c0.237-0.513,0.483-1.335,0.738-2.47l2.029-8.733
			c0.06-0.279,0.102-0.52,0.127-0.717c0.025-0.198,0.039-0.384,0.039-0.553c0-0.202-0.023-0.396-0.07-0.577
			c-0.047-0.183-0.155-0.375-0.324-0.578c-0.296-0.338-0.658-0.573-1.085-0.705c-0.428-0.131-0.811-0.214-1.149-0.248l0.203-0.838
			h5.176l6.834,14.071l2.074-8.968c0.102-0.449,0.187-0.887,0.255-1.313c0.067-0.428,0.102-0.793,0.102-1.099
			c0-0.278-0.027-0.514-0.083-0.705c-0.055-0.189-0.138-0.332-0.247-0.425c-0.203-0.178-0.546-0.332-1.028-0.463
			c-0.482-0.131-0.881-0.218-1.193-0.26l0.203-0.838L141.994,234.308L141.994,234.308z"/>
		<path stroke="#FFFFFF" stroke-width="0.5" d="M148.714,250.481h-0.076c-0.779,0.651-1.52,1.164-2.223,1.536
			s-1.503,0.559-2.401,0.559c-0.813,0-1.456-0.235-1.931-0.705c-0.474-0.47-0.711-1.085-0.711-1.847
			c0-0.203,0.017-0.444,0.051-0.725c0.034-0.279,0.114-0.693,0.24-1.243l0.988-3.961c0.093-0.382,0.164-0.714,0.215-0.997
			c0.051-0.284,0.076-0.558,0.076-0.819c0-0.474-0.078-0.789-0.234-0.946s-0.476-0.234-0.957-0.234c-0.187,0-0.423,0.035-0.71,0.105
			c-0.287,0.071-0.512,0.128-0.672,0.173l0.19-0.817c0.66-0.298,1.242-0.524,1.746-0.679c0.503-0.153,0.907-0.229,1.212-0.229
			c0.677,0,1.179,0.152,1.505,0.457c0.325,0.305,0.488,0.762,0.488,1.371c0,0.151-0.017,0.359-0.051,0.622
			c-0.034,0.262-0.084,0.524-0.151,0.787l-1.152,4.634c-0.084,0.354-0.156,0.688-0.216,0.997c-0.059,0.309-0.089,0.544-0.089,0.705
			c0,0.566,0.138,1.016,0.414,1.346c0.275,0.33,0.68,0.495,1.214,0.495c0.619,0,1.224-0.152,1.813-0.457
			c0.59-0.305,1.143-0.725,1.66-1.257l2.099-9.496l2.191-0.152l0.152,0.19l-2.182,9.939c-0.322,1.456-0.734,2.7-1.233,3.732
			c-0.499,1.032-1.083,1.866-1.752,2.501c-0.702,0.668-1.46,1.15-2.272,1.447c-0.812,0.296-1.739,0.443-2.78,0.443
			c-0.72,0-1.291-0.051-1.714-0.151c-0.423-0.102-0.758-0.241-1.003-0.419c-0.245-0.17-0.41-0.36-0.495-0.571
			s-0.127-0.423-0.127-0.635c0-0.364,0.11-0.687,0.33-0.966c0.22-0.278,0.538-0.419,0.953-0.419c0.313,0,0.579,0.089,0.8,0.268
			c0.22,0.178,0.397,0.373,0.533,0.584c0.152,0.229,0.292,0.486,0.419,0.773s0.229,0.517,0.306,0.687h0.305
			c0.482,0,0.992-0.119,1.53-0.355c0.537-0.236,1.03-0.604,1.479-1.104c0.482-0.542,0.917-1.24,1.302-2.096
			C148.179,252.699,148.485,251.675,148.714,250.481z"/>
		<path stroke="#FFFFFF" stroke-width="0.5" d="M160.433,241.074l-2.237,10.486c-0.396,1.879-1.233,3.415-2.511,4.607
			c-1.276,1.193-2.591,1.79-3.943,1.79c-0.743,0-1.291-0.142-1.642-0.425c-0.351-0.283-0.526-0.641-0.526-1.073
			c0-0.363,0.11-0.686,0.33-0.965c0.22-0.279,0.537-0.419,0.952-0.419c0.263,0,0.493,0.06,0.692,0.178
			c0.198,0.119,0.374,0.268,0.526,0.444c0.119,0.144,0.252,0.338,0.4,0.584c0.148,0.246,0.277,0.457,0.387,0.635
			c0.652-0.051,1.209-0.49,1.67-1.319c0.461-0.829,0.861-2.015,1.2-3.556l2.339-10.969h-2.479l0.266-1.155h2.446l0.183-0.861
			c0.203-0.98,0.524-1.863,0.965-2.648c0.44-0.786,0.939-1.454,1.498-2.002c0.55-0.541,1.174-0.965,1.873-1.274
			c0.697-0.308,1.368-0.462,2.012-0.462c0.745,0,1.293,0.143,1.645,0.426c0.351,0.283,0.526,0.641,0.526,1.072
			c0,0.364-0.104,0.687-0.313,0.965c-0.209,0.279-0.533,0.42-0.975,0.42c-0.263,0-0.492-0.058-0.688-0.172
			c-0.196-0.113-0.37-0.265-0.522-0.45c-0.17-0.211-0.306-0.411-0.408-0.598c-0.102-0.186-0.229-0.394-0.382-0.622
			c-0.586,0.025-1.104,0.41-1.555,1.153c-0.45,0.743-0.854,1.98-1.213,3.712l-0.284,1.343h3.203l-0.268,1.155H160.433
			L160.433,241.074z"/>
		<path stroke="#FFFFFF" stroke-width="0.5" d="M169.695,250.938l-0.19,0.813c-0.778,0.313-1.4,0.531-1.866,0.654
			c-0.466,0.123-0.863,0.184-1.193,0.184c-0.677,0-1.185-0.176-1.523-0.526c-0.338-0.352-0.508-0.786-0.508-1.303
			c0-0.195,0.017-0.398,0.051-0.61c0.034-0.212,0.089-0.479,0.165-0.801l1.342-5.402c0.067-0.296,0.133-0.614,0.196-0.953
			c0.063-0.338,0.095-0.627,0.095-0.864c0-0.474-0.078-0.79-0.234-0.945c-0.156-0.156-0.476-0.235-0.957-0.235
			c-0.186,0-0.433,0.03-0.741,0.089c-0.308,0.06-0.543,0.11-0.703,0.152l0.19-0.813c0.66-0.296,1.252-0.516,1.776-0.66
			c0.524-0.144,0.939-0.216,1.244-0.216c0.693,0,1.196,0.165,1.51,0.496s0.47,0.775,0.47,1.334c0,0.152-0.018,0.36-0.051,0.623
			c-0.034,0.263-0.085,0.525-0.152,0.788l-1.35,5.401c-0.084,0.331-0.157,0.654-0.221,0.973c-0.063,0.317-0.094,0.578-0.094,0.781
			c0,0.482,0.107,0.813,0.322,0.992c0.215,0.178,0.563,0.267,1.044,0.267c0.16,0,0.39-0.021,0.689-0.063
			C169.305,251.048,169.535,250.998,169.695,250.938z M170.597,234.701c0,0.482-0.156,0.903-0.47,1.263
			c-0.314,0.36-0.702,0.54-1.168,0.54c-0.432,0-0.804-0.171-1.117-0.514c-0.313-0.343-0.47-0.734-0.47-1.174
			c0-0.465,0.156-0.872,0.47-1.219c0.314-0.348,0.686-0.521,1.117-0.521c0.482,0,0.876,0.163,1.181,0.489
			C170.445,233.891,170.597,234.27,170.597,234.701z"/>
		<path stroke="#FFFFFF" stroke-width="0.5" d="M184.027,240.96c0,0.373-0.146,0.718-0.438,1.035
			c-0.293,0.317-0.654,0.477-1.087,0.477c-0.28,0-0.556-0.038-0.826-0.114c-0.271-0.076-0.567-0.19-0.891-0.343
			c-0.466,0.262-0.944,0.586-1.438,0.971c-0.496,0.385-1.033,0.852-1.617,1.397c0.482,1.255,0.892,2.281,1.226,3.081
			c0.335,0.801,0.621,1.455,0.858,1.963c0.305,0.636,0.641,1.087,1.01,1.354c0.367,0.267,0.771,0.4,1.212,0.4
			c0.203,0,0.481-0.03,0.838-0.092c0.354-0.061,0.631-0.124,0.825-0.188l-0.19,0.832c-0.788,0.318-1.407,0.533-1.856,0.643
			c-0.448,0.109-0.901,0.164-1.358,0.164c-0.543,0-1.007-0.149-1.394-0.451c-0.385-0.301-0.756-0.844-1.109-1.631
			c-0.346-0.753-0.654-1.496-0.925-2.228s-0.536-1.424-0.798-2.076l-1.465,1.239l-1.101,4.931h-2.372l3.779-16.35
			c0.06-0.263,0.1-0.444,0.121-0.547c0.021-0.102,0.031-0.229,0.031-0.381c0-0.305-0.051-0.54-0.152-0.705
			c-0.103-0.165-0.247-0.29-0.434-0.375c-0.179-0.075-0.403-0.127-0.676-0.151c-0.273-0.025-0.549-0.056-0.829-0.089l0.179-0.774
			l4.724-0.279L178,232.86l-3.106,13.216h0.051c0.955-1.033,1.825-1.928,2.606-2.685c0.782-0.758,1.602-1.53,2.455-2.317
			c0.609-0.559,1.092-0.941,1.447-1.149c0.354-0.208,0.734-0.311,1.143-0.311c0.43,0,0.777,0.121,1.039,0.362
			C183.896,240.217,184.027,240.545,184.027,240.96z"/>
		<path stroke="#FFFFFF" stroke-width="0.5" d="M195.911,242.145c0,0.897-0.281,1.67-0.845,2.313
			c-0.563,0.646-1.381,1.157-2.457,1.539c-0.786,0.289-1.582,0.521-2.387,0.7c-0.804,0.179-1.691,0.326-2.666,0.445
			c0,1.337,0.248,2.358,0.742,3.065c0.496,0.707,1.223,1.061,2.178,1.061c0.848,0,1.594-0.211,2.24-0.636
			c0.648-0.423,1.285-1.054,1.911-1.892l0.724,0.533c-0.677,1.033-1.522,1.857-2.539,2.476c-1.016,0.619-2.068,0.928-3.16,0.928
			c-1.498,0-2.644-0.42-3.436-1.259c-0.791-0.839-1.188-2.028-1.188-3.57c0-1.067,0.168-2.086,0.502-3.057
			c0.335-0.97,0.822-1.856,1.467-2.663c0.626-0.788,1.395-1.423,2.305-1.905c0.909-0.483,1.914-0.726,3.016-0.726
			c1.219,0,2.121,0.248,2.709,0.744C195.617,240.74,195.911,241.374,195.911,242.145z M193.575,241.833
			c0-0.33-0.048-0.589-0.14-0.778c-0.094-0.19-0.213-0.332-0.355-0.425c-0.152-0.101-0.313-0.165-0.482-0.189
			c-0.168-0.025-0.343-0.038-0.521-0.038c-1.017,0-1.953,0.558-2.813,1.672c-0.857,1.115-1.402,2.504-1.631,4.167
			c0.594-0.084,1.262-0.205,2.006-0.361c0.745-0.155,1.362-0.36,1.854-0.614c0.702-0.363,1.225-0.83,1.567-1.399
			C193.402,243.296,193.575,242.618,193.575,241.833z"/>
		<path stroke="#FFFFFF" stroke-width="0.5" d="M211.006,250.85l-0.191,0.813c-0.764,0.305-1.357,0.527-1.782,0.667
			c-0.425,0.141-0.854,0.209-1.287,0.209c-0.681,0-1.188-0.176-1.528-0.526c-0.34-0.353-0.51-0.786-0.51-1.304
			c0-0.187,0.018-0.392,0.051-0.615c0.034-0.225,0.09-0.489,0.166-0.795l1.254-4.74c0.094-0.364,0.17-0.695,0.225-0.991
			s0.082-0.534,0.082-0.712c0-0.567-0.135-1.018-0.403-1.348c-0.269-0.329-0.668-0.495-1.197-0.495
			c-0.512,0-1.087,0.169-1.725,0.509c-0.64,0.339-1.238,0.831-1.802,1.475l-2.17,9.328h-2.371l1.904-8.236
			c0.043-0.203,0.104-0.498,0.184-0.883c0.08-0.385,0.121-0.697,0.121-0.934c0-0.476-0.08-0.792-0.241-0.953
			c-0.161-0.161-0.484-0.242-0.97-0.242c-0.188,0-0.426,0.032-0.715,0.095s-0.515,0.116-0.677,0.159l0.19-0.813
			c0.664-0.296,1.252-0.517,1.762-0.66c0.512-0.145,0.949-0.216,1.314-0.216c0.672,0,1.152,0.182,1.441,0.546
			s0.442,0.868,0.46,1.512h0.076c0.927-0.746,1.729-1.298,2.401-1.658c0.676-0.359,1.443-0.54,2.304-0.54
			c0.81,0,1.44,0.235,1.896,0.706c0.457,0.471,0.685,1.086,0.685,1.85c0,0.151-0.022,0.423-0.07,0.813
			c-0.046,0.39-0.12,0.775-0.222,1.156l-1.067,4.08c-0.077,0.271-0.151,0.583-0.223,0.935c-0.072,0.353-0.108,0.625-0.108,0.819
			c0,0.482,0.105,0.812,0.317,0.985c0.212,0.173,0.56,0.26,1.042,0.26c0.161,0,0.393-0.027,0.691-0.083
			C210.613,250.965,210.846,250.909,211.006,250.85z"/>
		<path stroke="#FFFFFF" stroke-width="0.5" d="M138.191,275.555c0,1.135-0.199,2.211-0.596,3.228
			c-0.397,1.017-0.926,1.897-1.586,2.643c-0.735,0.822-1.532,1.433-2.39,1.83c-0.858,0.398-1.739,0.598-2.645,0.598
			c-0.727,0-1.323-0.089-1.788-0.268c-0.465-0.178-0.879-0.397-1.242-0.661l-0.741,3.327c-0.051,0.211-0.092,0.411-0.121,0.598
			c-0.029,0.186-0.045,0.334-0.045,0.443c0,0.229,0.083,0.41,0.248,0.546c0.165,0.136,0.354,0.233,0.565,0.292
			c0.211,0.068,0.448,0.119,0.711,0.152c0.262,0.034,0.499,0.059,0.711,0.076l-0.178,0.8h-7.002l0.178-0.8
			c0.271-0.018,0.524-0.038,0.762-0.063c0.238-0.024,0.461-0.067,0.673-0.127c0.263-0.076,0.472-0.218,0.629-0.426
			c0.156-0.208,0.269-0.464,0.336-0.769l2.65-11.689c0.067-0.322,0.131-0.646,0.19-0.972c0.059-0.326,0.089-0.607,0.089-0.846
			c0-0.474-0.074-0.792-0.223-0.952c-0.147-0.161-0.467-0.241-0.957-0.241c-0.187,0-0.423,0.036-0.71,0.107
			c-0.287,0.072-0.512,0.129-0.672,0.171l0.19-0.813c0.644-0.288,1.223-0.51,1.739-0.667c0.516-0.157,0.957-0.235,1.321-0.235
			c0.593,0,1.041,0.15,1.346,0.451c0.305,0.301,0.495,0.718,0.571,1.252h0.102c0.575-0.534,1.191-0.974,1.847-1.322
			c0.656-0.347,1.31-0.521,1.962-0.521c1.286,0,2.286,0.438,3.002,1.315C137.834,272.892,138.191,274.072,138.191,275.555z
			 M134.231,280.803c0.432-0.695,0.764-1.485,0.996-2.371c0.232-0.886,0.349-1.824,0.349-2.815c0-0.449-0.04-0.9-0.12-1.354
			c-0.081-0.453-0.21-0.828-0.388-1.125c-0.187-0.33-0.44-0.586-0.762-0.77c-0.322-0.183-0.744-0.272-1.27-0.272
			c-0.389,0-0.818,0.118-1.288,0.355c-0.47,0.237-1.043,0.682-1.72,1.334l-1.62,7.207c0.059,0.483,0.319,0.936,0.78,1.354
			c0.46,0.419,1.017,0.629,1.668,0.629c0.668,0,1.294-0.195,1.877-0.584C133.318,282.002,133.817,281.473,134.231,280.803z"/>
		<path stroke="#FFFFFF" stroke-width="0.5" d="M147.905,281.845h-0.089c-0.186,0.152-0.407,0.346-0.665,0.578
			c-0.259,0.233-0.561,0.455-0.907,0.667c-0.329,0.213-0.688,0.396-1.077,0.554c-0.389,0.158-0.812,0.234-1.268,0.234
			c-1.226,0-2.188-0.439-2.885-1.32c-0.697-0.882-1.046-2.084-1.046-3.609c0-1.05,0.194-2.071,0.584-3.063
			c0.389-0.991,0.926-1.882,1.61-2.669c0.651-0.754,1.426-1.361,2.322-1.822c0.896-0.462,1.818-0.693,2.766-0.693
			c0.601,0,1.173,0.081,1.719,0.241c0.546,0.161,0.975,0.343,1.288,0.546l2.33-0.597l0.152,0.189l-1.934,8.198
			c-0.068,0.263-0.138,0.583-0.21,0.96c-0.072,0.377-0.107,0.654-0.107,0.832c0,0.483,0.102,0.81,0.305,0.979
			c0.203,0.17,0.547,0.255,1.029,0.255c0.161,0,0.391-0.025,0.688-0.076c0.297-0.051,0.525-0.106,0.687-0.165l-0.19,0.813
			c-0.764,0.306-1.332,0.525-1.705,0.66c-0.373,0.135-0.827,0.203-1.361,0.203c-0.61,0-1.094-0.178-1.45-0.534
			C148.135,282.85,147.939,282.396,147.905,281.845z M149.734,273.813c0-0.279-0.029-0.546-0.089-0.8
			c-0.059-0.255-0.182-0.492-0.368-0.713c-0.169-0.212-0.402-0.381-0.698-0.509c-0.297-0.127-0.669-0.189-1.118-0.189
			c-0.618,0-1.219,0.204-1.804,0.609c-0.584,0.406-1.108,0.953-1.574,1.64c-0.44,0.644-0.801,1.424-1.08,2.339
			c-0.279,0.915-0.419,1.843-0.419,2.783c0,0.517,0.029,0.975,0.089,1.373c0.059,0.397,0.173,0.763,0.342,1.093
			c0.161,0.321,0.393,0.571,0.697,0.75c0.304,0.178,0.688,0.267,1.153,0.267c0.473,0,0.969-0.133,1.488-0.399
			c0.519-0.268,1.104-0.735,1.755-1.404L149.734,273.813z M151.407,266.092c0,0.914-0.352,1.69-1.054,2.33
			c-0.702,0.641-1.612,0.958-2.729,0.958c-0.88,0-1.574-0.211-2.082-0.635c-0.508-0.424-0.762-0.981-0.762-1.676
			c0-0.922,0.364-1.709,1.092-2.361c0.728-0.651,1.634-0.978,2.717-0.978c0.847,0,1.527,0.218,2.044,0.653
			C151.15,264.82,151.407,265.389,151.407,266.092z M149.82,266.089c0-0.441-0.113-0.823-0.339-1.143
			c-0.227-0.319-0.569-0.479-1.029-0.479c-0.623,0-1.126,0.261-1.51,0.779c-0.384,0.52-0.575,1.115-0.575,1.788
			c0,0.468,0.115,0.854,0.346,1.156c0.229,0.302,0.579,0.454,1.049,0.454c0.63,0,1.131-0.251,1.502-0.753
			C149.635,267.389,149.82,266.787,149.82,266.089z"/>
		<path stroke="#FFFFFF" stroke-width="0.5" d="M182.357,282.088l-0.19,0.813c-0.781,0.313-1.405,0.531-1.873,0.654
			c-0.467,0.123-0.866,0.184-1.196,0.184c-0.681,0-1.189-0.176-1.529-0.527c-0.34-0.352-0.51-0.786-0.51-1.303
			c0-0.187,0.018-0.392,0.051-0.616c0.035-0.224,0.09-0.488,0.166-0.794l1.254-4.741c0.096-0.363,0.17-0.694,0.225-0.99
			s0.083-0.534,0.083-0.712c0-0.567-0.122-1.018-0.366-1.348c-0.244-0.331-0.633-0.496-1.162-0.496c-0.563,0-1.118,0.135-1.66,0.401
			c-0.543,0.267-1.155,0.765-1.837,1.494l-2.229,9.417h-2.359l2.002-8.49c0.042-0.186,0.083-0.383,0.12-0.591
			c0.039-0.208,0.058-0.362,0.058-0.464c0-0.551-0.137-0.983-0.41-1.296s-0.675-0.471-1.204-0.471c-0.479,0-1.01,0.121-1.59,0.362
			c-0.58,0.241-1.253,0.782-2.018,1.622l-2.17,9.328h-2.372l1.904-8.236c0.067-0.296,0.133-0.614,0.196-0.953
			c0.063-0.339,0.096-0.627,0.096-0.863c0-0.491-0.081-0.815-0.242-0.973c-0.161-0.156-0.476-0.234-0.943-0.234
			c-0.188,0-0.428,0.036-0.722,0.105c-0.293,0.071-0.521,0.128-0.683,0.173l0.191-0.818c0.663-0.298,1.251-0.521,1.761-0.665
			c0.511-0.146,0.949-0.218,1.315-0.218c0.681,0,1.163,0.185,1.448,0.554s0.436,0.871,0.453,1.506h0.076
			c0.997-0.788,1.817-1.352,2.459-1.69c0.643-0.339,1.408-0.508,2.296-0.508c0.752,0,1.362,0.218,1.832,0.654
			c0.469,0.437,0.733,0.984,0.792,1.646h0.051c0.901-0.753,1.705-1.324,2.408-1.715c0.704-0.39,1.523-0.584,2.46-0.584
			c0.81,0,1.431,0.235,1.864,0.706c0.435,0.47,0.65,1.086,0.65,1.849c0,0.152-0.023,0.424-0.068,0.813
			c-0.047,0.39-0.121,0.775-0.224,1.156l-1.069,4.08c-0.075,0.271-0.147,0.583-0.217,0.935c-0.066,0.353-0.102,0.625-0.102,0.819
			c0,0.482,0.102,0.812,0.307,0.984c0.202,0.174,0.545,0.261,1.028,0.261c0.161,0,0.396-0.021,0.699-0.063
			S182.197,282.147,182.357,282.088z"/>
		<path stroke="#FFFFFF" stroke-width="0.5" d="M194.863,273.345c0,0.897-0.281,1.67-0.846,2.313
			c-0.563,0.646-1.381,1.157-2.455,1.539c-0.787,0.289-1.584,0.521-2.388,0.7s-1.692,0.326-2.666,0.445
			c0,1.337,0.247,2.358,0.743,3.065c0.494,0.707,1.221,1.061,2.178,1.061c0.846,0,1.592-0.212,2.24-0.636
			c0.646-0.423,1.284-1.054,1.91-1.892l0.725,0.533c-0.678,1.032-1.523,1.857-2.539,2.476c-1.017,0.618-2.07,0.927-3.162,0.927
			c-1.498,0-2.643-0.419-3.434-1.258c-0.792-0.839-1.188-2.029-1.188-3.571c0-1.066,0.166-2.086,0.502-3.056
			c0.334-0.97,0.822-1.856,1.466-2.663c0.626-0.788,1.395-1.423,2.304-1.906c0.91-0.482,1.915-0.725,3.016-0.725
			c1.219,0,2.123,0.248,2.711,0.744C194.568,271.94,194.863,272.574,194.863,273.345z M192.527,273.033
			c0-0.33-0.047-0.589-0.141-0.779c-0.093-0.189-0.212-0.332-0.354-0.424c-0.152-0.101-0.313-0.165-0.482-0.189
			c-0.169-0.025-0.343-0.038-0.521-0.038c-1.016,0-1.953,0.558-2.813,1.672c-0.859,1.115-1.402,2.504-1.632,4.167
			c0.593-0.084,1.261-0.205,2.006-0.361c0.745-0.156,1.362-0.36,1.854-0.615c0.701-0.362,1.226-0.829,1.566-1.398
			C192.355,274.496,192.527,273.818,192.527,273.033z"/>
		<path stroke="#FFFFFF" stroke-width="0.5" d="M207.482,272.77c0,0.236-0.034,0.497-0.103,0.78
			c-0.067,0.284-0.165,0.52-0.292,0.705c-0.152,0.229-0.318,0.404-0.502,0.527c-0.182,0.123-0.441,0.184-0.779,0.184
			c-0.457,0-0.801-0.113-1.029-0.343c-0.228-0.229-0.342-0.481-0.342-0.762c0-0.262,0.063-0.557,0.189-0.882
			s0.258-0.649,0.395-0.972c-0.103,0-0.27,0.027-0.502,0.083c-0.231,0.057-0.514,0.163-0.843,0.324s-0.702,0.403-1.12,0.726
			c-0.418,0.321-0.863,0.75-1.336,1.283l-2.046,9.1h-2.368l1.853-8.236c0.042-0.204,0.104-0.508,0.185-0.915s0.12-0.708,0.12-0.901
			c0-0.476-0.08-0.792-0.241-0.953c-0.16-0.161-0.48-0.242-0.964-0.242c-0.187,0-0.423,0.032-0.711,0.095
			c-0.287,0.063-0.511,0.116-0.672,0.159l0.19-0.813c0.66-0.296,1.244-0.516,1.752-0.659c0.508-0.145,0.942-0.217,1.308-0.217
			c0.677,0,1.159,0.185,1.446,0.554s0.432,0.921,0.432,1.658h0.076c1.008-0.872,1.771-1.482,2.292-1.83
			c0.521-0.348,1.063-0.521,1.632-0.521c0.271,0,0.533,0.034,0.787,0.103c0.254,0.067,0.47,0.182,0.646,0.343
			c0.188,0.178,0.324,0.383,0.412,0.616C207.438,271.993,207.482,272.33,207.482,272.77z"/>
	</g>
</g>
<path fill="#3E3E3F" d="M237.57,24.783c0,12.586-10.201,22.788-22.786,22.788C202.202,47.569,192,37.369,192,24.783
	C192,12.201,202.202,2,214.79,2C227.37,2,237.57,12.201,237.57,24.783z M227.337,31.327c-0.213-0.228-0.465-0.338-0.76-0.338
	h-23.588c-0.289,0-0.54,0.114-0.752,0.338c-0.212,0.23-0.318,0.495-0.318,0.809v2.298c0,0.3,0.111,0.583,0.318,0.793
	c0.212,0.227,0.463,0.341,0.752,0.341h23.592c0.29,0,0.543-0.114,0.756-0.341c0.212-0.21,0.318-0.482,0.318-0.793v-2.298
	C227.653,31.827,227.549,31.557,227.337,31.327z M227.337,22.472c-0.213-0.225-0.465-0.342-0.76-0.342h-23.588
	c-0.289,0-0.54,0.117-0.752,0.342c-0.212,0.218-0.318,0.486-0.318,0.796v2.297c0,0.31,0.111,0.58,0.318,0.81
	c0.212,0.227,0.463,0.34,0.752,0.34h23.592c0.29,0,0.543-0.115,0.756-0.34c0.212-0.229,0.318-0.499,0.318-0.81v-2.297
	C227.653,22.958,227.549,22.688,227.337,22.472z M227.337,14.339c-0.213-0.228-0.465-0.342-0.76-0.342h-23.588
	c-0.289,0-0.54,0.114-0.752,0.342c-0.212,0.226-0.318,0.485-0.318,0.805v2.296c0,0.317,0.111,0.58,0.318,0.809
	c0.212,0.226,0.463,0.337,0.752,0.337h23.592c0.29,0,0.543-0.111,0.756-0.337c0.212-0.229,0.318-0.49,0.318-0.809v-2.296
	C227.653,14.832,227.549,14.565,227.337,14.339z"/>
<path fill="#3E3E3F" d="M287.572,24.783c0,12.586-10.203,22.788-22.785,22.788C252.196,47.57,242,37.367,242,24.783
	C242.002,12.199,252.203,2,264.789,2S287.572,12.199,287.572,24.783z M266.528,43.106V26.187h5.676l0.851-6.594h-6.526v-4.208
	c0-1.91,0.526-3.21,3.266-3.21h3.489V6.274c-0.604-0.079-2.677-0.26-5.085-0.26c-5.035,0-8.481,3.072-8.481,8.716v4.863h-5.693
	v6.594h5.693v16.919H266.528L266.528,43.106z"/>
<g>
	<path fill="#3E3E3F" d="M337.571,24.783c0,12.586-10.201,22.788-22.785,22.788C302.198,47.57,292,37.367,292,24.783
		C292.001,12.199,302.203,2,314.789,2C327.376,2,337.571,12.199,337.571,24.783z"/>
	<g>
		<path fill="#FFFFFF" d="M296.666,22.828c0-0.894-0.02-1.596-0.071-2.299h1.369l0.087,1.405h0.034
			c0.422-0.791,1.403-1.579,2.809-1.579c1.175,0,3,0.701,3,3.614v5.054h-1.543v-4.896c0-1.368-0.509-2.509-1.967-2.509
			c-0.998,0-1.789,0.719-2.068,1.579c-0.071,0.193-0.106,0.456-0.106,0.72v5.104h-1.543V22.828z"/>
		<path fill="#FFFFFF" d="M307.266,25.056c0.035,2.088,1.352,2.947,2.913,2.947c1.104,0,1.789-0.193,2.351-0.438l0.28,1.106
			c-0.545,0.245-1.491,0.543-2.842,0.543c-2.614,0-4.175-1.737-4.175-4.298c0-2.561,1.508-4.561,3.981-4.561
			c2.789,0,3.508,2.421,3.508,3.982c0,0.315-0.019,0.545-0.052,0.719H307.266z M311.792,23.951c0.017-0.964-0.405-2.49-2.142-2.49
			c-1.578,0-2.246,1.421-2.369,2.49H311.792z"/>
		<path fill="#FFFFFF" d="M315.813,20.529l1.139,4.317c0.229,0.948,0.459,1.825,0.616,2.702h0.052
			c0.192-0.859,0.475-1.772,0.754-2.685l1.387-4.334h1.297l1.317,4.248c0.315,1.018,0.56,1.912,0.754,2.771h0.052
			c0.141-0.859,0.369-1.754,0.65-2.755l1.211-4.264h1.525l-2.736,8.491h-1.403l-1.299-4.053c-0.299-0.946-0.544-1.789-0.754-2.789
			h-0.034c-0.21,1.018-0.474,1.895-0.771,2.807l-1.37,4.035h-1.402l-2.563-8.491H315.813z"/>
		<path fill="#FFFFFF" d="M327.802,27.459c0.475,0.282,1.281,0.596,2.054,0.596c1.104,0,1.631-0.544,1.631-1.263
			c0-0.736-0.438-1.123-1.562-1.543c-1.544-0.561-2.264-1.385-2.264-2.404c0-1.369,1.123-2.491,2.929-2.491
			c0.861,0,1.616,0.229,2.071,0.527l-0.368,1.123c-0.333-0.21-0.946-0.507-1.736-0.507c-0.911,0-1.404,0.526-1.404,1.158
			c0,0.701,0.493,1.017,1.596,1.456c1.458,0.544,2.23,1.28,2.23,2.543c0,1.51-1.177,2.562-3.159,2.562
			c-0.931,0-1.791-0.246-2.386-0.597L327.802,27.459z"/>
	</g>
</g>
<g>
	<path fill="#FFFFFF" d="M237.57,74.784c0,12.584-10.201,22.787-22.786,22.787C202.202,97.569,192,87.369,192,74.784
		C192,62.203,202.202,52,214.79,52C227.37,52,237.57,62.203,237.57,74.784z"/>
	<path fill="#3E3E3F" d="M227.337,81.328c-0.213-0.227-0.465-0.339-0.76-0.339h-23.588c-0.289,0-0.54,0.114-0.752,0.339
		c-0.212,0.23-0.318,0.494-0.318,0.809v2.299c0,0.298,0.111,0.581,0.318,0.792c0.212,0.228,0.463,0.341,0.752,0.341h23.592
		c0.29,0,0.543-0.114,0.756-0.341c0.212-0.21,0.318-0.482,0.318-0.792v-2.299C227.653,81.827,227.549,81.559,227.337,81.328z"/>
	<path fill="#3E3E3F" d="M227.337,72.472c-0.213-0.225-0.465-0.342-0.76-0.342h-23.588c-0.289,0-0.54,0.118-0.752,0.342
		c-0.212,0.218-0.318,0.487-0.318,0.798v2.296c0,0.309,0.111,0.58,0.318,0.809c0.212,0.227,0.463,0.341,0.752,0.341h23.592
		c0.29,0,0.543-0.114,0.756-0.341c0.212-0.229,0.318-0.499,0.318-0.809v-2.296C227.653,72.958,227.549,72.689,227.337,72.472z"/>
	<path fill="#3E3E3F" d="M227.337,64.341c-0.213-0.23-0.465-0.342-0.76-0.342h-23.588c-0.289,0-0.54,0.113-0.752,0.342
		c-0.212,0.224-0.318,0.485-0.318,0.805v2.295c0,0.318,0.111,0.58,0.318,0.809c0.212,0.227,0.463,0.338,0.752,0.338h23.592
		c0.29,0,0.543-0.11,0.756-0.338c0.212-0.229,0.318-0.489,0.318-0.809v-2.295C227.653,64.833,227.549,64.565,227.337,64.341z"/>
</g>
<g>
	<path fill="#FFFFFF" d="M287.572,74.784c0,12.584-10.203,22.787-22.785,22.787C252.196,97.571,242,87.369,242,74.784
		C242.002,62.201,252.203,52,264.789,52S287.572,62.201,287.572,74.784z"/>
	<path fill="#3E3E3F" d="M265.271,91.332V74.413h5.677l0.85-6.593h-6.526V63.61c0-1.909,0.526-3.209,3.266-3.209l3.49-0.001v-5.898
		c-0.604-0.081-2.678-0.261-5.085-0.261c-5.036,0-8.482,3.072-8.482,8.715v4.864h-5.692v6.593h5.692v16.919H265.271L265.271,91.332z
		"/>
</g>
<g>
	<path fill="#FFFFFF" d="M337.571,74.784c0,12.584-10.201,22.787-22.785,22.787C302.198,97.571,292,87.369,292,74.784
		C292.001,62.201,302.203,52,314.789,52C327.376,52,337.571,62.201,337.571,74.784z"/>
	<g>
		<path fill="#3E3E3F" d="M296.665,72.656c0-0.896-0.019-1.597-0.07-2.298h1.368l0.086,1.403h0.036
			c0.42-0.79,1.403-1.578,2.806-1.578c1.177,0,3.002,0.702,3.002,3.614v5.053h-1.543v-4.896c0-1.369-0.51-2.509-1.967-2.509
			c-0.997,0-1.79,0.72-2.069,1.58c-0.07,0.193-0.105,0.456-0.105,0.718v5.106h-1.543V72.656z"/>
		<path fill="#3E3E3F" d="M307.265,74.884c0.033,2.087,1.35,2.947,2.912,2.947c1.105,0,1.789-0.193,2.351-0.438l0.28,1.105
			c-0.543,0.246-1.49,0.545-2.843,0.545c-2.614,0-4.174-1.737-4.174-4.298c0-2.562,1.51-4.561,3.981-4.561
			c2.791,0,3.51,2.421,3.51,3.982c0,0.315-0.02,0.544-0.054,0.719H307.265z M311.792,73.779c0.017-0.964-0.405-2.49-2.142-2.49
			c-1.578,0-2.246,1.42-2.369,2.49H311.792z"/>
		<path fill="#3E3E3F" d="M315.813,70.358l1.14,4.316c0.229,0.947,0.458,1.825,0.613,2.702h0.055
			c0.191-0.86,0.473-1.772,0.753-2.685l1.387-4.334h1.298l1.316,4.246c0.313,1.018,0.561,1.913,0.753,2.772h0.053
			c0.14-0.86,0.368-1.755,0.65-2.755l1.21-4.264h1.526l-2.736,8.491h-1.404l-1.298-4.053c-0.299-0.947-0.545-1.789-0.753-2.789
			h-0.037c-0.209,1.018-0.472,1.894-0.771,2.807l-1.37,4.036h-1.403l-2.562-8.491H315.813z"/>
		<path fill="#3E3E3F" d="M327.802,77.288c0.473,0.281,1.28,0.596,2.052,0.596c1.105,0,1.632-0.544,1.632-1.263
			c0-0.736-0.438-1.124-1.563-1.543c-1.545-0.563-2.264-1.387-2.264-2.404c0-1.369,1.124-2.491,2.93-2.491
			c0.861,0,1.615,0.228,2.07,0.527l-0.369,1.123c-0.332-0.211-0.944-0.508-1.735-0.508c-0.912,0-1.402,0.527-1.402,1.158
			c0,0.702,0.49,1.017,1.596,1.455c1.456,0.545,2.229,1.281,2.229,2.544c0,1.509-1.177,2.562-3.158,2.562
			c-0.931,0-1.791-0.246-2.388-0.597L327.802,77.288z"/>
	</g>
</g>
<g>
	<path fill="#FFFFFF" d="M237.57,134.784c0,12.584-10.201,22.787-22.785,22.787C202.203,157.568,192,147.368,192,134.784
		C192,122.202,202.203,112,214.791,112C227.371,112,237.57,122.202,237.57,134.784z"/>
	<g>
		<path stroke="#FFFFFF" stroke-width="0.5" d="M217.74,148.386c0,1.212-0.459,2.253-1.376,3.123
			c-0.918,0.869-1.99,1.304-3.218,1.304c-1.244,0-2.325-0.435-3.242-1.304c-0.918-0.87-1.376-1.91-1.376-3.123
			c0-1.212,0.458-2.261,1.376-3.146c0.917-0.886,1.998-1.328,3.242-1.328c1.228,0,2.3,0.442,3.218,1.328
			C217.281,146.125,217.74,147.174,217.74,148.386z M222.238,125.641c-0.687,1.453-1.636,3.537-2.848,6.251s-2.473,5.772-3.78,9.173
			h-1.843c0.191-4.071,0.283-7.36,0.275-9.868c-0.008-2.506-0.012-4.319-0.012-5.437c0-0.942,0.016-1.684,0.048-2.227
			s0.111-1.102,0.239-1.677c0.335-1.453,1.045-2.546,2.129-3.281c1.085-0.734,2.25-1.102,3.494-1.102
			c1.084,0,1.981,0.328,2.691,0.982c0.709,0.655,1.064,1.469,1.064,2.443c0,0.511-0.107,1.138-0.323,1.88
			C223.159,123.521,222.78,124.475,222.238,125.641z"/>
	</g>
</g>
<g>
	<path fill="#FFFFFF" d="M298.878,135.439c0-12.945-10.494-23.439-23.438-23.439C262.493,112,252,122.494,252,135.439
		s10.493,23.439,23.439,23.439c1.7,0,3.358-0.186,4.955-0.529l1.16,5.434c9.625-4.605,16.543-14.141,17.263-25.546
		c0.049-0.777,0.057-1.546,0.049-2.311C298.869,135.763,298.878,135.603,298.878,135.439"/>
	<path fill="#3E3E3F" d="M278.687,150.048c0,0,0.393,8.449,0.397,8.543c0.03-0.004,0.061-0.009,0.092-0.014
		c0.188-0.029,0.373-0.063,0.558-0.096c0.228-0.043,0.464-0.09,0.661-0.132C280.364,158.213,278.687,150.048,278.687,150.048"/>
</g>
<g>
	<path fill="#FFFFFF" d="M177.57,134.784c0,12.584-10.201,22.787-22.786,22.787C142.202,157.569,132,147.369,132,134.784
		C132,122.203,142.202,112,154.79,112C167.37,112,177.57,122.203,177.57,134.784z"/>
	<path fill="#3E3E3F" d="M167.337,141.328c-0.213-0.227-0.465-0.339-0.76-0.339h-23.588c-0.289,0-0.54,0.114-0.752,0.339
		c-0.212,0.23-0.318,0.494-0.318,0.809v2.299c0,0.298,0.111,0.581,0.318,0.792c0.212,0.228,0.463,0.341,0.752,0.341h23.592
		c0.29,0,0.543-0.114,0.756-0.341c0.212-0.21,0.318-0.482,0.318-0.792v-2.299C167.653,141.827,167.549,141.559,167.337,141.328z"/>
	<path fill="#3E3E3F" d="M167.337,132.472c-0.213-0.225-0.465-0.342-0.76-0.342h-23.588c-0.289,0-0.54,0.118-0.752,0.342
		c-0.212,0.218-0.318,0.487-0.318,0.798v2.296c0,0.309,0.111,0.58,0.318,0.809c0.212,0.227,0.463,0.341,0.752,0.341h23.592
		c0.29,0,0.543-0.114,0.756-0.341c0.212-0.229,0.318-0.499,0.318-0.809v-2.296C167.653,132.958,167.549,132.689,167.337,132.472z"/>
	<path fill="#3E3E3F" d="M167.337,124.341c-0.213-0.23-0.465-0.342-0.76-0.342h-23.588c-0.289,0-0.54,0.113-0.752,0.342
		c-0.212,0.224-0.318,0.485-0.318,0.805v2.295c0,0.318,0.111,0.58,0.318,0.809c0.212,0.227,0.463,0.338,0.752,0.338h23.592
		c0.29,0,0.543-0.11,0.756-0.338c0.212-0.229,0.318-0.489,0.318-0.809v-2.295C167.653,124.833,167.549,124.565,167.337,124.341z"/>
</g>
</svg>
