<?xml version="1.0" encoding="utf-8"?>
<!-- Generator: Adobe Illustrator 15.0.2, SVG Export Plug-In . SVG Version: 6.00 Build 0)  -->
<!DOCTYPE svg PUBLIC "-//W3C//DTD SVG 1.1//EN" "http://www.w3.org/Graphics/SVG/1.1/DTD/svg11.dtd">
<svg version="1.1" id="Lager_1" xmlns="http://www.w3.org/2000/svg" xmlns:xlink="http://www.w3.org/1999/xlink" x="0px" y="0px"
	 width="351.75px" height="959.5px" viewBox="0 0 351.75 959.5" enable-background="new 0 0 351.75 959.5" xml:space="preserve">
<path fill="#B0B0B0" d="M105.147,515.865v1.169c0,0.157-0.076,0.294-0.229,0.409c-0.151,0.108-0.331,0.174-0.54,0.174H87.466
	c-0.207,0-0.389-0.063-0.54-0.174c-0.151-0.115-0.229-0.252-0.229-0.409v-1.169c0-0.157,0.077-0.293,0.229-0.41
	c0.151-0.114,0.333-0.173,0.54-0.173h16.912c0.209,0,0.389,0.059,0.54,0.173C105.071,515.572,105.147,515.708,105.147,515.865z
	 M105.147,511.36v1.168c0,0.148-0.076,0.294-0.229,0.406c-0.151,0.111-0.331,0.178-0.54,0.178H87.466
	c-0.207,0-0.389-0.063-0.54-0.178c-0.151-0.112-0.229-0.258-0.229-0.406v-1.168c0-0.157,0.077-0.294,0.229-0.41
	c0.151-0.114,0.333-0.174,0.54-0.174h16.912c0.209,0,0.389,0.06,0.54,0.174C105.071,511.066,105.147,511.203,105.147,511.36z
	 M105.147,507.233v1.169c0,0.148-0.076,0.295-0.229,0.401c-0.151,0.115-0.331,0.182-0.54,0.182H87.466
	c-0.207,0-0.389-0.063-0.54-0.182c-0.151-0.106-0.229-0.253-0.229-0.401v-1.169c0-0.157,0.077-0.294,0.229-0.409
	c0.152-0.115,0.333-0.174,0.54-0.174h16.912c0.209,0,0.389,0.059,0.54,0.174C105.071,506.939,105.147,507.076,105.147,507.233z
	 M105.147,520.374v1.168c0,0.158-0.076,0.295-0.229,0.409c-0.151,0.117-0.331,0.174-0.54,0.174H87.466
	c-0.207,0-0.389-0.057-0.54-0.174c-0.151-0.114-0.229-0.251-0.229-0.409v-1.168c0-0.158,0.077-0.294,0.229-0.411
	c0.151-0.114,0.333-0.172,0.54-0.172h16.912c0.209,0,0.389,0.058,0.54,0.172C105.071,520.08,105.147,520.215,105.147,520.374z"/>
<path fill="#B0B0B0" d="M90.52,482.671v2.9c0,0.131-0.048,0.244-0.14,0.34c-0.094,0.098-0.205,0.145-0.334,0.145h-2.841
	c-0.128,0-0.238-0.047-0.332-0.145c-0.095-0.096-0.142-0.209-0.142-0.34v-2.9c0-0.131,0.047-0.245,0.142-0.34
	c0.094-0.096,0.204-0.146,0.332-0.146h2.841c0.129,0,0.24,0.057,0.334,0.146C90.472,482.426,90.52,482.541,90.52,482.671z
	 M90.52,476.869v2.896c0,0.141-0.048,0.246-0.14,0.35c-0.094,0.096-0.205,0.144-0.334,0.144h-2.841
	c-0.128,0-0.238-0.048-0.332-0.144c-0.095-0.104-0.142-0.209-0.142-0.35v-2.896c0-0.131,0.047-0.245,0.142-0.34
	c0.094-0.104,0.204-0.146,0.332-0.146h2.841c0.129,0,0.24,0.049,0.334,0.146C90.472,476.624,90.52,476.738,90.52,476.869z
	 M90.52,471.067v2.896c0,0.131-0.048,0.244-0.14,0.342c-0.094,0.103-0.205,0.146-0.334,0.146h-2.841
	c-0.128,0-0.238-0.048-0.332-0.146c-0.095-0.098-0.142-0.211-0.142-0.342v-2.896c0-0.142,0.047-0.246,0.142-0.35
	c0.094-0.097,0.204-0.145,0.332-0.145h2.841c0.129,0,0.24,0.048,0.334,0.145C90.472,470.821,90.52,470.934,90.52,471.067z
	 M105.112,482.671v2.9c0,0.131-0.028,0.244-0.086,0.34c-0.059,0.098-0.125,0.145-0.204,0.145H92.657
	c-0.079,0-0.146-0.047-0.203-0.145c-0.059-0.096-0.087-0.209-0.087-0.34v-2.9c0-0.131,0.028-0.245,0.087-0.34
	c0.057-0.096,0.124-0.146,0.203-0.146h12.165c0.079,0,0.146,0.057,0.204,0.146S105.112,482.541,105.112,482.671z M105.112,476.869
	v2.896c0,0.141-0.028,0.246-0.086,0.35c-0.059,0.096-0.125,0.144-0.204,0.144H92.657c-0.079,0-0.146-0.048-0.203-0.144
	c-0.059-0.104-0.087-0.209-0.087-0.35v-2.896c0-0.131,0.028-0.245,0.087-0.34c0.057-0.104,0.124-0.146,0.203-0.146h12.165
	c0.079,0,0.146,0.049,0.204,0.146C105.084,476.624,105.112,476.738,105.112,476.869z M105.112,471.067v2.896
	c0,0.131-0.028,0.244-0.086,0.342c-0.059,0.103-0.125,0.146-0.204,0.146H92.657c-0.079,0-0.146-0.048-0.203-0.146
	c-0.059-0.098-0.087-0.211-0.087-0.342v-2.896c0-0.142,0.028-0.246,0.087-0.35c0.057-0.097,0.124-0.145,0.203-0.145h12.165
	c0.079,0,0.146,0.048,0.204,0.145C105.084,470.821,105.112,470.934,105.112,471.067z"/>
<path fill="#FFFFFF" d="M69.292,515.865v1.169c0,0.157-0.076,0.294-0.229,0.409c-0.152,0.108-0.332,0.174-0.541,0.174H51.61
	c-0.207,0-0.388-0.063-0.539-0.174c-0.152-0.115-0.229-0.252-0.229-0.409v-1.169c0-0.157,0.076-0.293,0.229-0.41
	c0.151-0.114,0.332-0.173,0.539-0.173h16.912c0.209,0,0.389,0.059,0.541,0.173C69.216,515.572,69.292,515.708,69.292,515.865z
	 M69.292,511.36v1.168c0,0.148-0.076,0.294-0.229,0.406c-0.153,0.111-0.332,0.178-0.541,0.178H51.61
	c-0.207,0-0.388-0.063-0.539-0.178c-0.152-0.112-0.229-0.258-0.229-0.406v-1.168c0-0.157,0.076-0.294,0.229-0.41
	c0.151-0.114,0.332-0.174,0.539-0.174h16.912c0.209,0,0.389,0.06,0.541,0.174C69.216,511.066,69.292,511.203,69.292,511.36z
	 M69.292,507.233v1.169c0,0.148-0.076,0.295-0.229,0.401c-0.153,0.115-0.332,0.182-0.541,0.182H51.61
	c-0.207,0-0.388-0.063-0.539-0.182c-0.152-0.106-0.229-0.253-0.229-0.401v-1.169c0-0.157,0.076-0.294,0.229-0.409
	c0.151-0.115,0.332-0.174,0.539-0.174h16.912c0.209,0,0.389,0.059,0.541,0.174S69.292,507.076,69.292,507.233z M69.292,520.374
	v1.168c0,0.158-0.076,0.295-0.229,0.409c-0.152,0.117-0.332,0.174-0.541,0.174H51.61c-0.207,0-0.388-0.057-0.539-0.174
	c-0.152-0.114-0.229-0.251-0.229-0.409v-1.168c0-0.158,0.076-0.294,0.229-0.411c0.151-0.114,0.332-0.172,0.539-0.172h16.912
	c0.209,0,0.389,0.058,0.541,0.172C69.216,520.08,69.292,520.215,69.292,520.374z"/>
<path fill="#FFFFFF" d="M54.665,482.671v2.9c0,0.131-0.048,0.244-0.141,0.34c-0.094,0.098-0.205,0.145-0.333,0.145H51.35
	c-0.128,0-0.238-0.047-0.332-0.145c-0.095-0.096-0.142-0.209-0.142-0.34v-2.9c0-0.131,0.047-0.245,0.142-0.34
	c0.094-0.096,0.204-0.146,0.332-0.146h2.841c0.128,0,0.239,0.057,0.333,0.146C54.617,482.426,54.665,482.541,54.665,482.671z
	 M54.665,476.869v2.896c0,0.141-0.048,0.246-0.141,0.35c-0.094,0.096-0.205,0.144-0.333,0.144H51.35
	c-0.128,0-0.238-0.048-0.332-0.144c-0.095-0.104-0.142-0.209-0.142-0.35v-2.896c0-0.131,0.047-0.245,0.142-0.34
	c0.094-0.104,0.204-0.146,0.332-0.146h2.841c0.128,0,0.239,0.049,0.333,0.146C54.617,476.624,54.665,476.738,54.665,476.869z
	 M54.665,471.067v2.896c0,0.131-0.048,0.244-0.141,0.342c-0.094,0.103-0.205,0.146-0.333,0.146H51.35
	c-0.128,0-0.238-0.048-0.332-0.146c-0.095-0.098-0.142-0.211-0.142-0.342v-2.896c0-0.142,0.047-0.246,0.142-0.35
	c0.094-0.097,0.204-0.145,0.332-0.145h2.841c0.128,0,0.239,0.048,0.333,0.145C54.617,470.821,54.665,470.934,54.665,471.067z
	 M69.257,482.671v2.9c0,0.131-0.027,0.244-0.086,0.34c-0.057,0.098-0.125,0.145-0.203,0.145H56.802
	c-0.078,0-0.146-0.047-0.203-0.145c-0.058-0.096-0.086-0.209-0.086-0.34v-2.9c0-0.131,0.028-0.245,0.086-0.34
	c0.057-0.096,0.125-0.146,0.203-0.146h12.166c0.078,0,0.146,0.057,0.203,0.146C69.229,482.426,69.257,482.541,69.257,482.671z
	 M69.257,476.869v2.896c0,0.141-0.027,0.246-0.086,0.35c-0.057,0.096-0.125,0.144-0.203,0.144H56.802
	c-0.078,0-0.146-0.048-0.203-0.144c-0.058-0.104-0.086-0.209-0.086-0.35v-2.896c0-0.131,0.028-0.245,0.086-0.34
	c0.057-0.104,0.125-0.146,0.203-0.146h12.166c0.078,0,0.146,0.049,0.203,0.146C69.229,476.624,69.257,476.738,69.257,476.869z
	 M69.257,471.067v2.896c0,0.131-0.027,0.244-0.086,0.342c-0.057,0.103-0.125,0.146-0.203,0.146H56.802
	c-0.078,0-0.146-0.048-0.203-0.146c-0.058-0.098-0.086-0.211-0.086-0.342v-2.896c0-0.142,0.028-0.246,0.086-0.35
	c0.057-0.097,0.125-0.145,0.203-0.145h12.166c0.078,0,0.146,0.048,0.203,0.145C69.229,470.821,69.257,470.934,69.257,471.067z"/>
<path fill="#3E3E3F" d="M18.764,482.99v2.896c0,0.131-0.047,0.243-0.14,0.339c-0.094,0.104-0.205,0.146-0.334,0.146h-2.841
	c-0.128,0-0.238-0.048-0.332-0.146c-0.094-0.096-0.141-0.208-0.141-0.339v-2.896c0-0.132,0.047-0.246,0.141-0.34
	c0.094-0.104,0.204-0.146,0.332-0.146h2.841c0.129,0,0.24,0.048,0.334,0.146C18.717,482.744,18.764,482.858,18.764,482.99z
	 M18.764,477.188v2.898c0,0.132-0.047,0.246-0.14,0.341c-0.094,0.104-0.205,0.146-0.334,0.146h-2.841
	c-0.128,0-0.238-0.047-0.332-0.146c-0.094-0.095-0.141-0.209-0.141-0.341v-2.898c0-0.133,0.047-0.237,0.141-0.342
	c0.094-0.097,0.204-0.146,0.332-0.146h2.841c0.129,0,0.24,0.049,0.334,0.146C18.717,476.942,18.764,477.055,18.764,477.188z
	 M18.764,471.384v2.9c0,0.131-0.047,0.244-0.14,0.342c-0.094,0.094-0.205,0.142-0.334,0.142h-2.841
	c-0.128,0-0.238-0.048-0.332-0.142c-0.094-0.098-0.141-0.211-0.141-0.342v-2.9c0-0.132,0.047-0.246,0.141-0.341
	c0.094-0.097,0.204-0.144,0.332-0.144h2.841c0.129,0,0.24,0.047,0.334,0.144C18.717,471.138,18.764,471.252,18.764,471.384z
	 M33.356,482.99v2.896c0,0.131-0.028,0.243-0.086,0.339c-0.058,0.104-0.125,0.146-0.203,0.146H20.901
	c-0.079,0-0.146-0.048-0.203-0.146c-0.059-0.096-0.087-0.208-0.087-0.339v-2.896c0-0.132,0.028-0.246,0.087-0.34
	c0.057-0.104,0.124-0.146,0.203-0.146h12.166c0.078,0,0.146,0.048,0.203,0.146C33.328,482.744,33.356,482.858,33.356,482.99z
	 M33.356,477.188v2.898c0,0.132-0.028,0.246-0.086,0.341c-0.058,0.104-0.125,0.146-0.203,0.146H20.901
	c-0.079,0-0.146-0.047-0.203-0.146c-0.059-0.095-0.087-0.209-0.087-0.341v-2.898c0-0.133,0.028-0.237,0.087-0.342
	c0.057-0.097,0.124-0.146,0.203-0.146h12.166c0.078,0,0.146,0.049,0.203,0.146C33.328,476.942,33.356,477.055,33.356,477.188z
	 M33.356,471.384v2.9c0,0.131-0.028,0.244-0.086,0.342c-0.058,0.094-0.125,0.142-0.203,0.142H20.901
	c-0.079,0-0.146-0.048-0.203-0.142c-0.059-0.098-0.087-0.211-0.087-0.342v-2.9c0-0.132,0.028-0.246,0.087-0.341
	c0.057-0.097,0.124-0.144,0.203-0.144h12.166c0.078,0,0.146,0.047,0.203,0.144C33.328,471.138,33.356,471.252,33.356,471.384z"/>
<path fill="#3E3E3F" d="M33.392,516.183v1.168c0,0.158-0.076,0.304-0.229,0.409c-0.152,0.117-0.332,0.174-0.541,0.174H15.71
	c-0.207,0-0.389-0.057-0.54-0.174c-0.151-0.11-0.229-0.251-0.229-0.409v-1.168c0-0.149,0.077-0.294,0.229-0.402
	c0.151-0.114,0.333-0.182,0.54-0.182h16.912c0.209,0,0.389,0.063,0.541,0.182C33.315,515.889,33.392,516.025,33.392,516.183z
	 M33.392,511.678v1.167c0,0.157-0.076,0.295-0.229,0.41c-0.152,0.116-0.332,0.174-0.541,0.174H15.71
	c-0.207,0-0.389-0.058-0.54-0.174c-0.151-0.115-0.229-0.253-0.229-0.41v-1.167c0-0.153,0.077-0.295,0.229-0.411
	c0.151-0.105,0.333-0.174,0.54-0.174h16.912c0.209,0,0.389,0.063,0.541,0.174C33.315,511.383,33.392,511.52,33.392,511.678z
	 M33.392,507.551v1.168c0,0.158-0.076,0.295-0.229,0.411c-0.152,0.114-0.332,0.172-0.541,0.172H15.71
	c-0.207,0-0.389-0.058-0.54-0.172c-0.151-0.116-0.229-0.253-0.229-0.411v-1.168c0-0.158,0.077-0.295,0.229-0.409
	c0.151-0.107,0.333-0.174,0.54-0.174h16.912c0.209,0,0.389,0.063,0.541,0.174C33.315,507.256,33.392,507.393,33.392,507.551z
	 M33.392,520.691v1.168c0,0.149-0.076,0.295-0.229,0.401c-0.152,0.116-0.332,0.183-0.541,0.183H15.71
	c-0.207,0-0.389-0.063-0.54-0.183c-0.151-0.106-0.229-0.252-0.229-0.401v-1.168c0-0.158,0.077-0.293,0.229-0.41
	c0.151-0.115,0.333-0.173,0.54-0.173h16.912c0.209,0,0.389,0.058,0.541,0.173C33.315,520.398,33.392,520.533,33.392,520.691z"/>
<path fill="#3E3E3F" d="M22.178,144.827c0,0.26-0.092,0.48-0.275,0.664l-1.329,1.33c-0.183,0.181-0.403,0.273-0.665,0.273
	c-0.262,0-0.482-0.093-0.664-0.273l-2.875-2.876l-2.875,2.876c-0.182,0.181-0.403,0.273-0.664,0.273
	c-0.261,0-0.482-0.093-0.664-0.273l-1.329-1.33c-0.182-0.184-0.274-0.404-0.274-0.664c0-0.261,0.092-0.483,0.274-0.666l2.874-2.872
	l-2.874-2.874c-0.182-0.184-0.274-0.404-0.274-0.665c0-0.261,0.092-0.482,0.274-0.663l1.329-1.332
	c0.182-0.183,0.403-0.274,0.664-0.274c0.261,0,0.482,0.092,0.664,0.274l2.875,2.874l2.875-2.874
	c0.181-0.183,0.402-0.274,0.664-0.274c0.262,0,0.482,0.092,0.665,0.274l1.329,1.332c0.183,0.181,0.275,0.402,0.275,0.663
	c0,0.261-0.092,0.481-0.275,0.665l-2.873,2.874l2.873,2.872C22.085,144.343,22.178,144.566,22.178,144.827z"/>
<path d="M9.896,16.369c0-0.157,0.058-0.292,0.171-0.403l4.033-4.034c0.114-0.116,0.249-0.172,0.405-0.172
	c0.156,0,0.291,0.056,0.405,0.172l4.034,4.034c0.114,0.111,0.171,0.246,0.171,0.403c0,0.157-0.058,0.293-0.171,0.405
	c-0.114,0.116-0.248,0.172-0.405,0.172h-8.067c-0.157,0-0.292-0.056-0.405-0.172C9.953,16.663,9.896,16.526,9.896,16.369z"/>
<path fill="#FFFFFF" d="M40.769,16.243c0-0.157,0.058-0.292,0.172-0.403l4.033-4.034c0.114-0.116,0.249-0.171,0.405-0.171
	c0.156,0,0.291,0.056,0.405,0.171l4.033,4.034c0.114,0.112,0.171,0.246,0.171,0.403c0,0.157-0.057,0.293-0.171,0.406
	c-0.113,0.115-0.248,0.171-0.404,0.171h-8.067c-0.157,0-0.292-0.056-0.405-0.171C40.826,16.536,40.769,16.4,40.769,16.243z"/>
<path fill="#B0B0B0" d="M73.49,16.242c0-0.157,0.057-0.292,0.171-0.403l4.033-4.035c0.114-0.116,0.249-0.171,0.406-0.171
	c0.156,0,0.291,0.056,0.404,0.171l4.034,4.035c0.113,0.111,0.17,0.246,0.17,0.403c0,0.157-0.057,0.293-0.17,0.405
	c-0.114,0.116-0.249,0.171-0.405,0.171h-8.067c-0.157,0-0.292-0.056-0.405-0.171C73.547,16.536,73.49,16.399,73.49,16.242z"/>
<path fill="#B0B0B0" d="M82.709,32.91c0,0.157-0.057,0.292-0.171,0.403l-4.033,4.034c-0.114,0.116-0.249,0.172-0.405,0.172
	c-0.156,0-0.291-0.056-0.405-0.172l-4.034-4.034c-0.114-0.112-0.171-0.246-0.171-0.403c0-0.157,0.057-0.293,0.171-0.405
	c0.114-0.116,0.248-0.171,0.405-0.171h8.067c0.157,0,0.292,0.056,0.405,0.171C82.652,32.617,82.709,32.753,82.709,32.91z"/>
<path fill="#FFFFFF" d="M49.988,32.91c0,0.157-0.057,0.292-0.172,0.403l-4.033,4.034c-0.114,0.116-0.249,0.172-0.405,0.172
	c-0.156,0-0.291-0.056-0.405-0.172l-4.034-4.034c-0.114-0.112-0.171-0.246-0.171-0.403c0-0.157,0.058-0.293,0.171-0.405
	c0.114-0.116,0.248-0.171,0.405-0.171h8.067c0.157,0,0.292,0.056,0.404,0.171C49.931,32.617,49.988,32.753,49.988,32.91z"/>
<path d="M19.115,33.252c0,0.157-0.058,0.293-0.172,0.404l-4.033,4.035c-0.114,0.116-0.249,0.172-0.405,0.172
	c-0.157,0-0.291-0.056-0.405-0.172l-4.033-4.034c-0.114-0.111-0.171-0.247-0.171-0.404c0-0.156,0.058-0.292,0.171-0.404
	c0.113-0.116,0.248-0.172,0.404-0.172h8.067c0.157,0,0.292,0.056,0.405,0.172C19.058,32.96,19.115,33.096,19.115,33.252z"/>
<path fill="#3E3E3F" d="M24.108,240.868c0,0.582-0.47,1.052-1.053,1.052h-10.53c-0.581,0-1.053-0.47-1.053-1.052
	c0-2.108,2.034-4.071,4.116-4.851c-1.202-0.743-2.01-2.06-2.01-3.575v-1.052c0-2.33,1.886-4.213,4.213-4.213
	c2.325,0,4.211,1.883,4.211,4.213v1.052c0,1.516-0.807,2.832-2.009,3.575C22.074,236.796,24.108,238.759,24.108,240.868z"/>
<path fill="#FFFFFF" d="M53.54,655.229c0,1.813-1.467,3.273-3.282,3.273H17.439c-1.813,0-3.282-1.462-3.282-3.273
	c0-6.563,6.341-12.688,12.826-15.107c-3.742-2.318-6.262-6.424-6.262-11.147V625.7c0-7.268,5.874-13.145,13.127-13.145
	c7.251,0,13.127,5.877,13.127,13.145v3.271c0,4.729-2.52,8.829-6.262,11.147C47.196,642.543,53.54,648.662,53.54,655.229z"/>
<path fill="#3E3E3F" d="M41.292,787.962c0.215,0.21,0.288,0.39,0.22,0.53c-0.068,0.146-0.248,0.223-0.54,0.223H16.193
	c-0.29,0-0.468-0.073-0.536-0.223c-0.07-0.146,0.005-0.32,0.219-0.53l11.95-11.961c0.102-0.097,0.209-0.166,0.321-0.212H16.733
	c-0.29,0-0.545-0.108-0.757-0.319c-0.214-0.221-0.319-0.468-0.319-0.76v-2.153c0-0.292,0.105-0.545,0.319-0.759
	c0.212-0.212,0.467-0.316,0.757-0.316h23.7c0.292,0,0.545,0.104,0.759,0.316c0.213,0.214,0.32,0.467,0.32,0.759v2.153
	c0,0.292-0.107,0.539-0.32,0.76c-0.214,0.211-0.467,0.319-0.759,0.319H29.024c0.122,0.046,0.227,0.115,0.315,0.212L41.292,787.962z"
	/>
<path fill="#FFFFFF" d="M110.939,578.26h7.103v-7.103h-7.103V578.26z M119.62,578.26h7.893v-7.103h-7.893V578.26z M110.939,569.576
	h7.103v-7.896h-7.103V569.576z M119.62,569.576h7.893v-7.896h-7.893V569.576z M110.939,560.104h7.103v-7.099h-7.103V560.104z
	 M129.092,578.26h7.893v-7.103h-7.893V578.26z M119.62,560.104h7.893v-7.099h-7.893V560.104z M138.563,578.26h7.103v-7.103h-7.103
	V578.26z M129.092,569.576h7.893v-7.896h-7.893V569.576z M120.412,548.271v-7.104c0-0.212-0.082-0.398-0.234-0.555
	c-0.156-0.159-0.343-0.235-0.558-0.235h-1.577c-0.215,0-0.396,0.076-0.554,0.235c-0.158,0.147-0.235,0.343-0.235,0.555v7.104
	c0,0.216,0.077,0.396,0.235,0.556c0.158,0.16,0.339,0.229,0.554,0.229h1.577c0.215,0,0.401-0.066,0.558-0.229
	C120.33,548.666,120.412,548.482,120.412,548.271z M138.563,569.576h7.103v-7.896h-7.103V569.576z M129.092,560.104h7.893v-7.099
	h-7.893V560.104z M138.563,560.104h7.103v-7.099h-7.103V560.104z M139.352,548.271v-7.104c0-0.212-0.076-0.398-0.234-0.555
	c-0.156-0.159-0.342-0.235-0.555-0.235h-1.578c-0.215,0-0.397,0.076-0.557,0.235c-0.156,0.147-0.232,0.343-0.232,0.555v7.104
	c0,0.216,0.078,0.396,0.232,0.556c0.158,0.16,0.342,0.229,0.557,0.229h1.578c0.211,0,0.397-0.066,0.555-0.229
	C139.275,548.666,139.352,548.482,139.352,548.271z M148.82,546.69v31.563c0,0.856-0.313,1.604-0.938,2.229
	c-0.623,0.611-1.361,0.933-2.218,0.933H110.94c-0.856,0-1.594-0.313-2.221-0.933c-0.626-0.626-0.936-1.365-0.936-2.229V546.69
	c0-0.854,0.31-1.602,0.936-2.227c0.627-0.627,1.365-0.938,2.221-0.938h3.157v-2.367c0-1.086,0.385-2.011,1.158-2.788
	c0.771-0.771,1.702-1.159,2.788-1.159h1.577c1.083,0,2.014,0.396,2.789,1.159c0.772,0.777,1.157,1.702,1.157,2.788v2.367h9.47
	v-2.367c0-1.086,0.386-2.011,1.161-2.788c0.774-0.771,1.702-1.159,2.788-1.159h1.578c1.086,0,2.014,0.396,2.787,1.159
	c0.772,0.777,1.156,1.702,1.156,2.788v2.367h3.159c0.856,0,1.595,0.312,2.218,0.938C148.509,545.097,148.82,545.837,148.82,546.69z"
	/>
<path fill="#3E3E3F" d="M141.021,650.779h-3.277v3.271c0,1.815-1.465,3.276-3.28,3.276c-1.813,0-3.278-1.461-3.278-3.276v-3.271
	h-3.277c-1.815,0-3.28-1.467-3.28-3.277c0-1.813,1.465-3.282,3.28-3.282h3.277v-3.271c0-1.813,1.465-3.281,3.278-3.281
	c1.815,0,3.28,1.47,3.28,3.281v3.271h3.277c1.813,0,3.276,1.477,3.276,3.282C144.298,649.313,142.833,650.779,141.021,650.779z
	 M125.09,638.126c-4.054,1.213-7.02,4.928-7.02,9.375c0,4.279,2.748,7.88,6.558,9.229v0.604h-22.951
	c-1.807,0-3.277-1.461-3.277-3.276c0-6.556,6.336-12.674,12.815-15.096c-3.742-2.313-6.258-6.419-6.258-11.136v-3.275
	c0-7.247,5.869-13.118,13.113-13.118c7.244,0,13.116,5.871,13.116,13.118v3.275c0,1.521-0.341,2.938-0.827,4.309
	C127.864,633.322,125.899,635.436,125.09,638.126z"/>
<path fill="#3E3E3F" d="M21.334,317.513v-1.934c2.138-0.762,3.681-2.783,3.681-5.183c0-2.4-1.542-4.431-3.681-5.188v-1.936
	c3.173,0.816,5.521,3.689,5.521,7.122C26.855,313.827,24.507,316.698,21.334,317.513z M14.89,314.076
	c-1.523,0-2.761-1.234-2.761-2.76v-1.845c0-1.521,1.238-2.761,2.761-2.761h0.922l4.6-3.683v14.725l-4.6-3.681L14.89,314.076
	L14.89,314.076z M18.574,314.076v-2.76v-1.845v-2.761l-1.842,1.84H14.89c-0.508,0-0.919,0.413-0.919,0.92v1.845
	c0,0.507,0.412,0.921,0.919,0.921h1.842L18.574,314.076z M24.094,310.397c0,1.711-1.174,3.139-2.76,3.547v-1.962
	c0.547-0.321,0.92-0.907,0.92-1.585c0-0.685-0.373-1.271-0.92-1.593v-1.959C22.919,307.255,24.094,308.68,24.094,310.397z"/>
<path fill="#3E3E3F" d="M20.689,347.614c-5.758,0-8.523-7.457-8.523-7.457s2.765-7.458,8.523-7.458c5.76,0,8.523,7.458,8.523,7.458
	S26.449,347.614,20.689,347.614z M20.689,334.83c-2.942,0-5.326,2.385-5.326,5.327c0,2.938,2.384,5.326,5.326,5.326
	c2.943,0,5.328-2.389,5.328-5.326C26.017,337.214,23.632,334.83,20.689,334.83z M20.689,343.352c-1.766,0-3.195-1.432-3.195-3.191
	c0-0.376,0.078-0.731,0.196-1.066h1.935v-1.934c0.333-0.123,0.69-0.196,1.065-0.196c1.767,0,3.197,1.433,3.197,3.196
	C23.886,341.92,22.456,343.352,20.689,343.352z"/>
<path fill="#FFFFFF" d="M58.787,144.827c0,0.26-0.092,0.48-0.275,0.664l-1.329,1.33c-0.183,0.181-0.403,0.273-0.665,0.273
	c-0.262,0-0.482-0.093-0.664-0.273l-2.875-2.876l-2.875,2.876c-0.182,0.181-0.403,0.273-0.664,0.273
	c-0.261,0-0.482-0.093-0.664-0.273l-1.33-1.33c-0.182-0.184-0.274-0.404-0.274-0.664c0-0.261,0.092-0.483,0.274-0.666l2.874-2.872
	l-2.874-2.874c-0.182-0.184-0.274-0.404-0.274-0.665c0-0.261,0.092-0.482,0.274-0.663l1.33-1.332
	c0.182-0.183,0.403-0.274,0.664-0.274c0.261,0,0.482,0.092,0.664,0.274l2.875,2.874l2.875-2.874
	c0.181-0.183,0.402-0.274,0.664-0.274c0.262,0,0.482,0.092,0.665,0.274l1.329,1.332c0.183,0.181,0.275,0.402,0.275,0.663
	c0,0.261-0.092,0.481-0.275,0.665l-2.873,2.874l2.873,2.872C58.695,144.343,58.787,144.566,58.787,144.827z"/>
<path fill="#B0B0B0" d="M103.369,144.827c0,0.26-0.092,0.48-0.275,0.664l-1.328,1.33c-0.183,0.181-0.404,0.273-0.666,0.273
	c-0.262,0-0.481-0.093-0.664-0.273l-2.875-2.876l-2.875,2.876c-0.182,0.181-0.403,0.273-0.664,0.273s-0.482-0.093-0.665-0.273
	l-1.329-1.33c-0.181-0.184-0.273-0.404-0.273-0.664c0-0.261,0.092-0.483,0.273-0.666l2.874-2.872l-2.874-2.874
	c-0.181-0.184-0.273-0.404-0.273-0.665c0-0.261,0.092-0.482,0.273-0.663l1.329-1.332c0.183-0.183,0.404-0.274,0.665-0.274
	s0.482,0.092,0.664,0.274l2.875,2.874l2.875-2.874c0.182-0.183,0.402-0.274,0.664-0.274c0.262,0,0.482,0.092,0.666,0.274
	l1.328,1.332c0.183,0.181,0.275,0.402,0.275,0.663c0,0.261-0.092,0.481-0.275,0.665l-2.872,2.874l2.872,2.872
	C103.277,144.343,103.369,144.566,103.369,144.827z"/>
<path fill="#B0B0B0" d="M103.718,240.271c0,0.582-0.47,1.052-1.053,1.052h-10.53c-0.581,0-1.053-0.47-1.053-1.052
	c0-2.109,2.034-4.071,4.116-4.851c-1.202-0.743-2.011-2.06-2.011-3.575v-1.053c0-2.328,1.886-4.214,4.213-4.214
	c2.325,0,4.211,1.886,4.211,4.214v1.053c0,1.516-0.807,2.832-2.009,3.575C101.684,236.2,103.718,238.162,103.718,240.271z"/>
<path fill="#5C85B1" d="M159.641,240.071c0,0.583-0.469,1.054-1.051,1.054h-10.531c-0.58,0-1.051-0.471-1.051-1.054
	c0-2.106,2.034-4.07,4.114-4.85c-1.203-0.742-2.009-2.06-2.009-3.574v-1.053c0-2.328,1.885-4.214,4.212-4.214
	c2.325,0,4.212,1.886,4.212,4.214v1.053c0,1.515-0.809,2.832-2.01,3.574C157.607,236,159.641,237.964,159.641,240.071z"/>
<path fill="#005BAA" d="M209.54,240.112c0,0.583-0.474,1.052-1.056,1.052h-10.528c-0.583,0-1.054-0.469-1.054-1.052
	c0-2.108,2.035-4.071,4.117-4.848c-1.203-0.744-2.021-2.063-2.021-3.577v-1.052c0-2.328,1.895-4.214,4.217-4.214
	s4.219,1.886,4.219,4.214v1.052c0,1.515-0.813,2.833-2.02,3.577C207.504,236.041,209.54,238.003,209.54,240.112z"/>
<path fill="#B0B0B0" d="M98.039,787.962c0.214,0.21,0.289,0.39,0.221,0.53c-0.068,0.146-0.248,0.223-0.54,0.223H72.94
	c-0.29,0-0.468-0.073-0.536-0.223c-0.07-0.146,0.005-0.32,0.219-0.53l11.95-11.961c0.102-0.097,0.209-0.166,0.321-0.212H73.479
	c-0.29,0-0.544-0.108-0.757-0.319c-0.214-0.221-0.319-0.468-0.319-0.76v-2.153c0-0.292,0.105-0.545,0.319-0.759
	c0.212-0.212,0.467-0.316,0.757-0.316H97.18c0.292,0,0.544,0.104,0.758,0.316c0.214,0.214,0.321,0.467,0.321,0.759v2.153
	c0,0.292-0.107,0.539-0.321,0.76c-0.214,0.211-0.467,0.319-0.758,0.319H85.771c0.122,0.046,0.227,0.115,0.315,0.212L98.039,787.962z
	"/>
<path fill="#5C85B1" d="M164.258,787.962c0.215,0.21,0.287,0.39,0.221,0.53c-0.066,0.146-0.248,0.223-0.539,0.223h-24.78
	c-0.29,0-0.47-0.073-0.538-0.223c-0.068-0.146,0.006-0.32,0.22-0.53l11.951-11.961c0.102-0.097,0.208-0.166,0.318-0.212h-11.416
	c-0.288,0-0.543-0.108-0.754-0.319c-0.215-0.221-0.32-0.468-0.32-0.76v-2.153c0-0.292,0.105-0.545,0.32-0.759
	c0.211-0.212,0.467-0.316,0.754-0.316h23.702c0.293,0,0.545,0.104,0.762,0.316c0.214,0.214,0.318,0.467,0.318,0.759v2.153
	c0,0.292-0.104,0.539-0.318,0.76c-0.217,0.211-0.469,0.319-0.762,0.319h-11.411c0.125,0.046,0.229,0.115,0.316,0.212
	L164.258,787.962z"/>
<path fill="#B0B0B0" d="M101.787,316.704v-1.938c2.139-0.762,3.679-2.779,3.679-5.183c0-2.4-1.54-4.424-3.679-5.187v-1.938
	c3.173,0.817,5.521,3.69,5.521,7.123C107.308,313.014,104.96,315.886,101.787,316.704z M95.344,313.263
	c-1.525,0-2.761-1.229-2.761-2.759v-1.841c0-1.523,1.236-2.76,2.761-2.76h0.921l4.601-3.684v14.729l-4.601-3.688L95.344,313.263
	L95.344,313.263z M99.025,313.263v-2.759v-1.841v-2.76l-1.839,1.839h-1.842c-0.509,0-0.919,0.412-0.919,0.921v1.841
	c0,0.508,0.41,0.923,0.919,0.923h1.842L99.025,313.263z M104.546,309.585c0,1.71-1.175,3.139-2.759,3.547v-1.963
	c0.548-0.32,0.918-0.906,0.918-1.584c0-0.681-0.37-1.269-0.918-1.588v-1.964C103.372,306.444,104.546,307.869,104.546,309.585z"/>
<path fill="#005BAA" d="M204.189,315.949v-1.938c2.139-0.76,3.68-2.779,3.68-5.184c0-2.401-1.541-4.424-3.68-5.186v-1.934
	c3.172,0.814,5.521,3.688,5.521,7.119C209.711,312.259,207.361,315.131,204.189,315.949z M197.745,312.509
	c-1.524,0-2.761-1.231-2.761-2.761v-1.841c0-1.523,1.23-2.76,2.761-2.76h0.921l4.602-3.683v14.729l-4.602-3.686L197.745,312.509
	L197.745,312.509z M201.428,312.509v-2.761v-1.841v-2.76l-1.841,1.839h-1.842c-0.507,0-0.919,0.414-0.919,0.921v1.841
	c0,0.509,0.412,0.923,0.919,0.923h1.842L201.428,312.509z M206.948,308.83c0,1.713-1.175,3.139-2.759,3.548v-1.963
	c0.547-0.32,0.918-0.907,0.918-1.585c0-0.681-0.371-1.269-0.918-1.588v-1.961C205.773,305.688,206.948,307.115,206.948,308.83z"/>
<path fill="#B0B0B0" d="M99.633,346.917c-5.757,0-8.521-7.457-8.521-7.457s2.764-7.457,8.521-7.457c5.762,0,8.525,7.457,8.525,7.457
	S105.395,346.917,99.633,346.917z M99.633,334.134c-2.941,0-5.325,2.384-5.325,5.326s2.384,5.326,5.325,5.326
	c2.944,0,5.328-2.384,5.328-5.326S102.577,334.134,99.633,334.134z M99.633,342.656c-1.764,0-3.195-1.436-3.195-3.195
	c0-0.376,0.077-0.729,0.197-1.066h1.935v-1.934c0.333-0.122,0.688-0.195,1.063-0.195c1.768,0,3.198,1.436,3.198,3.195
	S101.401,342.656,99.633,342.656z"/>
<path fill="#005BAA" d="M203.195,346.222c-5.758,0-8.522-7.457-8.522-7.457s2.765-7.459,8.522-7.459
	c5.762,0,8.525,7.459,8.525,7.459S208.957,346.222,203.195,346.222z M203.195,333.436c-2.94,0-5.325,2.39-5.325,5.329
	c0,2.94,2.385,5.325,5.325,5.325c2.943,0,5.328-2.385,5.328-5.325C208.523,335.822,206.141,333.436,203.195,333.436z
	 M203.195,341.959c-1.764,0-3.194-1.433-3.194-3.194c0-0.377,0.076-0.729,0.196-1.063h1.935v-1.938
	c0.334-0.121,0.688-0.192,1.063-0.192c1.768,0,3.199,1.434,3.199,3.194C206.395,340.527,204.963,341.959,203.195,341.959z"/>
<path fill="#5C85B1" d="M153.939,316.007v-1.934c2.138-0.767,3.679-2.784,3.679-5.188c0-2.399-1.541-4.424-3.679-5.186v-1.935
	c3.174,0.816,5.521,3.69,5.521,7.12C159.46,312.32,157.113,315.191,153.939,316.007z M147.495,312.569
	c-1.524,0-2.761-1.237-2.761-2.767v-1.838c0-1.524,1.236-2.76,2.761-2.76h0.921l4.602-3.683v14.724l-4.602-3.681L147.495,312.569
	L147.495,312.569z M151.177,312.569v-2.767v-1.838v-2.76l-1.84,1.836h-1.842c-0.507,0-0.919,0.414-0.919,0.924v1.838
	c0,0.515,0.412,0.928,0.919,0.928h1.842L151.177,312.569z M156.697,308.888c0,1.713-1.174,3.142-2.758,3.55v-1.965
	c0.547-0.315,0.918-0.903,0.918-1.585c0-0.679-0.371-1.267-0.918-1.583v-1.964C155.523,305.749,156.697,307.174,156.697,308.888z"/>
<path fill="#5C85B1" d="M152.945,346.28c-5.758,0-8.522-7.457-8.522-7.457s2.765-7.457,8.522-7.457c5.761,0,8.526,7.457,8.526,7.457
	S158.706,346.28,152.945,346.28z M152.945,333.496c-2.941,0-5.325,2.385-5.325,5.327c0,2.939,2.384,5.327,5.325,5.327
	c2.943,0,5.328-2.388,5.328-5.327C158.273,335.88,155.889,333.496,152.945,333.496z M152.945,342.019
	c-1.766,0-3.194-1.433-3.194-3.192c0-0.375,0.076-0.731,0.196-1.065h1.935v-1.934c0.333-0.122,0.688-0.197,1.063-0.197
	c1.768,0,3.199,1.437,3.199,3.196C156.145,340.586,154.713,342.019,152.945,342.019z"/>
<path d="M20.069,76.814c-0.269,0-0.499-0.099-0.69-0.296l-6.925-6.923c-0.2-0.197-0.296-0.427-0.296-0.696s0.096-0.498,0.296-0.693
	l6.925-6.926c0.191-0.194,0.421-0.293,0.69-0.293c0.27,0,0.505,0.099,0.697,0.293c0.197,0.196,0.293,0.428,0.293,0.695v13.849
	c0,0.27-0.096,0.5-0.293,0.694C20.574,76.715,20.338,76.814,20.069,76.814z"/>
<path fill="#FFFFFF" d="M53.142,74.772c-0.269,0-0.499-0.099-0.69-0.297l-6.925-6.922c-0.2-0.197-0.296-0.428-0.296-0.696
	c0-0.27,0.096-0.498,0.296-0.694l6.925-6.925c0.191-0.194,0.421-0.293,0.69-0.293s0.505,0.099,0.697,0.293
	c0.197,0.196,0.293,0.428,0.293,0.695v13.849c0,0.27-0.096,0.499-0.293,0.693C53.647,74.673,53.411,74.772,53.142,74.772z"/>
<path fill="#B0B0B0" d="M89.831,74.772c-0.269,0-0.5-0.099-0.691-0.297l-6.925-6.922c-0.2-0.197-0.296-0.428-0.296-0.696
	c0-0.27,0.096-0.498,0.296-0.694l6.925-6.925c0.191-0.194,0.422-0.293,0.691-0.293s0.505,0.099,0.697,0.293
	c0.197,0.196,0.293,0.428,0.293,0.695v13.849c0,0.27-0.096,0.499-0.293,0.693C90.336,74.673,90.1,74.772,89.831,74.772z"/>
<path d="M13.188,92.406c0.269,0,0.5,0.099,0.691,0.296l6.925,6.922c0.2,0.197,0.296,0.428,0.296,0.697s-0.096,0.497-0.296,0.693
	l-6.925,6.925c-0.191,0.194-0.422,0.293-0.691,0.293s-0.505-0.099-0.697-0.293c-0.197-0.195-0.293-0.428-0.293-0.695V93.395
	c0-0.269,0.096-0.499,0.293-0.693C12.683,92.504,12.919,92.406,13.188,92.406z"/>
<path fill="#FFFFFF" d="M55.163,92.406c0.269,0,0.5,0.099,0.691,0.296l6.925,6.922c0.2,0.197,0.296,0.428,0.296,0.697
	s-0.096,0.497-0.296,0.693l-6.925,6.925c-0.191,0.194-0.422,0.293-0.691,0.293s-0.505-0.099-0.697-0.293
	c-0.197-0.195-0.293-0.428-0.293-0.695V93.395c0-0.269,0.096-0.499,0.293-0.693C54.657,92.504,54.894,92.406,55.163,92.406z"/>
<path fill="#B0B0B0" d="M85.592,92.406c0.269,0,0.5,0.099,0.691,0.296l6.925,6.922c0.2,0.197,0.296,0.428,0.296,0.697
	s-0.096,0.497-0.296,0.693l-6.925,6.925c-0.191,0.194-0.422,0.293-0.691,0.293c-0.269,0-0.505-0.099-0.697-0.293
	c-0.197-0.195-0.293-0.428-0.293-0.695V93.395c0-0.269,0.096-0.499,0.293-0.693C85.087,92.504,85.323,92.406,85.592,92.406z"/>
<path fill="#3E3E3F" d="M142.75,64.99c0,0.285-0.102,0.529-0.303,0.729l-1.465,1.468c-0.203,0.199-0.445,0.301-0.733,0.301
	c-0.289,0-0.532-0.102-0.731-0.301l-3.17-3.172l-3.169,3.172c-0.2,0.199-0.445,0.301-0.732,0.301c-0.287,0-0.531-0.102-0.732-0.301
	l-1.466-1.468c-0.2-0.201-0.302-0.445-0.302-0.729c0-0.289,0.102-0.534,0.302-0.735l3.169-3.166l-3.169-3.171
	c-0.2-0.201-0.302-0.445-0.302-0.733c0-0.287,0.102-0.53,0.302-0.73l1.466-1.47c0.201-0.199,0.445-0.302,0.732-0.302
	c0.287,0,0.532,0.103,0.732,0.302l3.169,3.171l3.17-3.171c0.199-0.199,0.442-0.302,0.731-0.302c0.288,0,0.53,0.103,0.733,0.302
	l1.465,1.47c0.201,0.2,0.303,0.443,0.303,0.73c0,0.288-0.102,0.532-0.303,0.733l-3.168,3.171l3.168,3.166
	C142.648,64.456,142.75,64.701,142.75,64.99z M136.348,49.002c-6.495,0-11.761,5.265-11.761,11.761
	c0,6.492,5.266,11.759,11.761,11.759c6.493,0,11.758-5.267,11.758-11.759C148.105,54.267,142.841,49.002,136.348,49.002z"/>
<path fill="#005BAA" d="M219.618,787.962c0.215,0.21,0.286,0.39,0.221,0.53c-0.069,0.146-0.248,0.223-0.539,0.223h-24.78
	c-0.289,0-0.47-0.073-0.537-0.223c-0.063-0.146,0.006-0.32,0.228-0.53l11.942-11.961c0.104-0.097,0.209-0.166,0.32-0.212h-11.416
	c-0.289,0-0.543-0.108-0.756-0.319c-0.214-0.221-0.32-0.468-0.32-0.76v-2.153c0-0.292,0.106-0.545,0.32-0.759
	c0.213-0.212,0.467-0.316,0.756-0.316h23.701c0.293,0,0.545,0.104,0.76,0.316c0.213,0.214,0.32,0.467,0.32,0.759v2.153
	c0,0.292-0.107,0.539-0.32,0.76c-0.215,0.211-0.467,0.319-0.76,0.319h-11.41c0.125,0.046,0.23,0.115,0.316,0.212L219.618,787.962z"
	/>
<path fill="#3E3E3F" d="M159.659,483.585v1.648c0,0.223-0.076,0.416-0.229,0.568c-0.152,0.165-0.332,0.245-0.541,0.245h-16.912
	c-0.207,0-0.389-0.08-0.539-0.245c-0.151-0.152-0.229-0.354-0.229-0.568v-1.648c0-0.224,0.077-0.415,0.229-0.58
	c0.15-0.162,0.332-0.244,0.539-0.244h16.912c0.209,0,0.389,0.082,0.541,0.244C159.583,483.17,159.659,483.362,159.659,483.585z
	 M159.659,477.228v1.647c0,0.221-0.076,0.416-0.229,0.579c-0.152,0.163-0.332,0.245-0.541,0.245h-16.912
	c-0.207,0-0.389-0.082-0.539-0.245c-0.151-0.163-0.229-0.358-0.229-0.579v-1.647c0-0.223,0.077-0.415,0.229-0.571
	c0.15-0.161,0.332-0.245,0.539-0.245h16.912c0.209,0,0.389,0.084,0.541,0.245C159.583,476.813,159.659,477.005,159.659,477.228z
	 M159.659,471.404v1.646c0,0.229-0.076,0.416-0.229,0.58c-0.152,0.162-0.332,0.242-0.541,0.242h-16.912
	c-0.207,0-0.389-0.08-0.539-0.242c-0.151-0.164-0.229-0.354-0.229-0.58v-1.646c0-0.229,0.077-0.416,0.229-0.577
	c0.15-0.164,0.332-0.245,0.539-0.245h16.912c0.209,0,0.389,0.081,0.541,0.245C159.583,470.988,159.659,471.181,159.659,471.404z"/>
<path fill="#FFFFFF" d="M210.982,483.585v1.648c0,0.223-0.075,0.416-0.229,0.568c-0.151,0.165-0.332,0.245-0.541,0.245H193.3
	c-0.207,0-0.389-0.08-0.538-0.245c-0.152-0.152-0.229-0.354-0.229-0.568v-1.648c0-0.224,0.076-0.415,0.229-0.58
	c0.149-0.162,0.331-0.244,0.538-0.244h16.912c0.209,0,0.39,0.082,0.541,0.244C210.907,483.17,210.982,483.362,210.982,483.585z
	 M210.982,477.228v1.647c0,0.221-0.075,0.416-0.229,0.579c-0.151,0.163-0.332,0.245-0.541,0.245H193.3
	c-0.207,0-0.389-0.082-0.538-0.245c-0.152-0.163-0.229-0.358-0.229-0.579v-1.647c0-0.223,0.076-0.415,0.229-0.571
	c0.149-0.161,0.331-0.245,0.538-0.245h16.912c0.209,0,0.39,0.084,0.541,0.245C210.907,476.813,210.982,477.005,210.982,477.228z
	 M210.982,471.404v1.646c0,0.229-0.075,0.416-0.229,0.58c-0.151,0.162-0.332,0.242-0.541,0.242H193.3
	c-0.207,0-0.389-0.08-0.538-0.242c-0.152-0.164-0.229-0.354-0.229-0.58v-1.646c0-0.229,0.076-0.416,0.229-0.577
	c0.149-0.164,0.331-0.245,0.538-0.245h16.912c0.209,0,0.39,0.081,0.541,0.245C210.907,470.988,210.982,471.181,210.982,471.404z"/>
<path fill="#3E3E3F" d="M182.102,59.997c0,0.196-0.063,0.364-0.207,0.503l-1.008,1.01c-0.139,0.138-0.306,0.207-0.504,0.207
	c-0.197,0-0.365-0.069-0.503-0.207l-2.18-2.181l-2.181,2.181c-0.142,0.138-0.31,0.207-0.504,0.207c-0.197,0-0.365-0.069-0.504-0.207
	L173.5,60.5c-0.139-0.139-0.208-0.307-0.208-0.503c0-0.198,0.069-0.366,0.208-0.505l2.184-2.177l-2.184-2.182
	c-0.139-0.138-0.208-0.307-0.208-0.504c0-0.197,0.069-0.365,0.208-0.502l1.012-1.012c0.139-0.137,0.307-0.206,0.504-0.206
	c0.194,0,0.362,0.069,0.504,0.206l2.181,2.182l2.18-2.182c0.139-0.137,0.307-0.206,0.503-0.206c0.198,0,0.365,0.069,0.505,0.206
	l1.008,1.012c0.144,0.137,0.207,0.305,0.207,0.502c0,0.197-0.064,0.366-0.207,0.504l-2.181,2.182l2.181,2.177
	C182.032,59.63,182.102,59.798,182.102,59.997z M177.698,49.003c-4.466,0-8.087,3.62-8.087,8.087c0,4.465,3.622,8.087,8.087,8.087
	c4.465,0,8.087-3.622,8.087-8.087C185.785,52.624,182.164,49.003,177.698,49.003z"/>
<path fill="#3E3E3F" d="M153.859,510.958c0-1.107-0.394-2.056-1.18-2.844c-0.789-0.786-1.734-1.188-2.844-1.188
	s-2.056,0.396-2.843,1.188c-0.788,0.788-1.182,1.729-1.182,2.844s0.394,2.055,1.182,2.843c0.788,0.787,1.733,1.188,2.843,1.188
	s2.057-0.396,2.844-1.188C153.467,513.012,153.859,512.065,153.859,510.958z M158.458,518.43c0,0.313-0.112,0.581-0.341,0.813
	c-0.229,0.228-0.497,0.341-0.809,0.341c-0.324,0-0.594-0.113-0.81-0.341l-3.081-3.072c-1.07,0.742-2.268,1.114-3.583,1.114
	c-0.854,0-1.676-0.167-2.457-0.499c-0.781-0.332-1.455-0.781-2.021-1.354c-0.565-0.563-1.015-1.23-1.346-2.021
	c-0.332-0.781-0.498-1.602-0.498-2.456c0-0.855,0.166-1.675,0.498-2.456c0.332-0.781,0.78-1.455,1.346-2.021
	c0.566-0.566,1.24-1.021,2.021-1.354c0.781-0.333,1.603-0.499,2.457-0.499s1.676,0.166,2.456,0.499
	c0.781,0.332,1.455,0.781,2.021,1.354c0.564,0.563,1.016,1.231,1.348,2.021c0.333,0.781,0.5,1.604,0.5,2.456
	c0,1.317-0.371,2.511-1.114,3.584l3.081,3.08C158.348,517.843,158.458,518.113,158.458,518.43z"/>
<path fill="#FFFFFF" d="M203.784,509.208c0-1.107-0.394-2.056-1.183-2.844c-0.787-0.786-1.733-1.188-2.85-1.188
	c-1.104,0-2.055,0.396-2.844,1.188c-0.788,0.788-1.188,1.729-1.188,2.844s0.396,2.055,1.188,2.843
	c0.789,0.787,1.729,1.188,2.844,1.188s2.063-0.396,2.85-1.188C203.393,511.262,203.784,510.315,203.784,509.208z M208.382,516.68
	c0,0.313-0.112,0.581-0.34,0.813c-0.229,0.228-0.498,0.341-0.81,0.341c-0.323,0-0.594-0.113-0.813-0.341l-3.08-3.072
	c-1.067,0.742-2.269,1.114-3.584,1.114c-0.854,0-1.676-0.167-2.457-0.499c-0.776-0.332-1.45-0.781-2.021-1.354
	c-0.564-0.563-1.016-1.23-1.348-2.021c-0.332-0.781-0.498-1.602-0.498-2.456c0-0.855,0.166-1.675,0.498-2.456
	s0.775-1.455,1.348-2.021c0.563-0.565,1.238-1.021,2.021-1.354c0.781-0.333,1.604-0.499,2.457-0.499s1.681,0.166,2.457,0.499
	c0.781,0.332,1.455,0.781,2.021,1.354c0.563,0.563,1.021,1.231,1.354,2.021s0.498,1.604,0.498,2.456
	c0,1.317-0.371,2.511-1.107,3.584l3.074,3.08C208.271,516.093,208.382,516.363,208.382,516.68z"/>
<path fill="#3E3E3F" stroke="#3E3E3F" stroke-width="0.5" stroke-miterlimit="10" d="M20.689,395.824c-1.212,0-2.346,0.207-3.4,0.62
	c-1.055,0.414-1.894,0.971-2.515,1.672c-0.621,0.7-0.931,1.458-0.931,2.271c0,0.666,0.212,1.3,0.637,1.904
	c0.425,0.604,1.024,1.125,1.796,1.563l0.775,0.446l-0.241,0.854c-0.142,0.542-0.35,1.053-0.624,1.53
	c0.904-0.37,1.721-0.883,2.452-1.521l0.384-0.339l0.508,0.054c0.41,0.048,0.796,0.072,1.159,0.072c1.213,0,2.346-0.207,3.401-0.621
	c1.055-0.413,1.893-0.971,2.515-1.671c0.621-0.702,0.931-1.46,0.931-2.274c0-0.813-0.31-1.568-0.931-2.271
	c-0.622-0.701-1.46-1.258-2.515-1.672C23.036,396.031,21.902,395.824,20.689,395.824z M28.678,400.388
	c0,1.035-0.356,1.99-1.07,2.867c-0.713,0.876-1.683,1.569-2.906,2.076c-1.225,0.509-2.562,0.763-4.012,0.763
	c-0.415,0-0.846-0.021-1.292-0.067c-1.177,1.041-2.544,1.76-4.101,2.154c-0.292,0.082-0.63,0.148-1.017,0.195h-0.045
	c-0.089,0-0.17-0.031-0.241-0.093c-0.071-0.063-0.119-0.146-0.142-0.246v-0.009c-0.018-0.024-0.02-0.063-0.004-0.106
	c0.014-0.048,0.021-0.077,0.018-0.089c-0.003-0.013,0.01-0.04,0.041-0.085l0.053-0.081c0,0,0.021-0.024,0.063-0.075
	c0.041-0.051,0.065-0.077,0.071-0.079c0.042-0.049,0.134-0.147,0.277-0.31c0.143-0.156,0.245-0.271,0.307-0.338
	c0.063-0.069,0.154-0.188,0.276-0.354s0.219-0.313,0.29-0.454c0.071-0.139,0.152-0.313,0.24-0.522
	c0.09-0.215,0.167-0.44,0.232-0.678c-0.933-0.529-1.668-1.188-2.206-1.965c-0.538-0.775-0.807-1.611-0.807-2.507
	c0-1.032,0.356-1.986,1.07-2.861c0.713-0.876,1.683-1.57,2.906-2.077c1.225-0.513,2.562-0.767,4.012-0.767
	c1.45,0,2.788,0.254,4.012,0.767c1.224,0.507,2.193,1.201,2.906,2.077S28.678,399.355,28.678,400.388z"/>
<path fill="#3E3E3F" stroke="#3E3E3F" stroke-width="0.5" stroke-miterlimit="10" d="M27.714,433.267v-6.396
	c-0.178,0.199-0.369,0.383-0.574,0.55c-1.489,1.146-2.672,2.082-3.55,2.814c-0.283,0.237-0.514,0.427-0.692,0.56
	c-0.178,0.133-0.417,0.267-0.72,0.404c-0.302,0.136-0.587,0.203-0.854,0.203h-0.009h-0.009c-0.267,0-0.551-0.067-0.854-0.203
	c-0.302-0.142-0.542-0.271-0.72-0.404c-0.177-0.133-0.409-0.318-0.691-0.56c-0.878-0.732-2.062-1.676-3.55-2.814
	c-0.206-0.167-0.396-0.351-0.575-0.55v6.396c0,0.072,0.027,0.145,0.079,0.188c0.053,0.053,0.115,0.08,0.188,0.08h12.265
	c0.073,0,0.135-0.027,0.188-0.08C27.688,433.403,27.714,433.339,27.714,433.267z M27.714,424.511v-0.093v-0.111
	c0,0-0.001-0.032-0.004-0.104c-0.002-0.073-0.01-0.107-0.024-0.104s-0.029-0.021-0.046-0.072c-0.016-0.056-0.041-0.072-0.075-0.063
	c-0.034,0.011-0.073,0.004-0.117-0.021H15.183c-0.073,0-0.135,0.025-0.188,0.076c-0.052,0.058-0.079,0.117-0.079,0.188
	c0,0.936,0.409,1.723,1.225,2.368c1.072,0.845,2.186,1.726,3.341,2.64c0.033,0.03,0.131,0.112,0.292,0.246
	c0.162,0.138,0.289,0.241,0.383,0.313c0.095,0.07,0.218,0.159,0.371,0.266c0.152,0.102,0.293,0.177,0.42,0.227
	c0.128,0.056,0.248,0.076,0.358,0.076h0.009h0.009c0.11,0,0.229-0.021,0.358-0.076c0.127-0.05,0.268-0.125,0.42-0.227
	c0.153-0.104,0.277-0.191,0.371-0.266c0.094-0.07,0.223-0.178,0.383-0.313c0.161-0.134,0.258-0.216,0.292-0.246
	c1.155-0.914,2.269-1.795,3.341-2.64c0.3-0.239,0.579-0.563,0.836-0.962C27.585,425.203,27.714,424.839,27.714,424.511z
	 M28.781,424.201v9.063c0,0.367-0.13,0.688-0.392,0.942c-0.261,0.261-0.575,0.392-0.941,0.392H15.183
	c-0.366,0-0.68-0.131-0.941-0.392c-0.262-0.262-0.392-0.575-0.392-0.942v-9.063c0-0.365,0.13-0.678,0.392-0.939
	c0.261-0.261,0.575-0.392,0.941-0.392h12.265c0.367,0,0.681,0.131,0.941,0.392C28.65,423.523,28.781,423.835,28.781,424.201z"/>
<path fill="#B0B0B0" stroke="#B0B0B0" stroke-width="0.5" stroke-miterlimit="10" d="M98.392,394.052c-1.212,0-2.346,0.207-3.4,0.62
	c-1.055,0.414-1.894,0.971-2.515,1.672c-0.621,0.7-0.931,1.458-0.931,2.272c0,0.666,0.212,1.3,0.637,1.9
	c0.425,0.604,1.024,1.125,1.796,1.563l0.775,0.447l-0.241,0.854c-0.142,0.542-0.35,1.053-0.624,1.533
	c0.904-0.373,1.721-0.882,2.452-1.523l0.384-0.339l0.508,0.058c0.41,0.048,0.796,0.068,1.159,0.068c1.213,0,2.346-0.207,3.401-0.621
	c1.055-0.411,1.893-0.971,2.515-1.671c0.621-0.702,0.931-1.46,0.931-2.271c0-0.814-0.31-1.572-0.931-2.272
	c-0.622-0.701-1.46-1.258-2.515-1.672C100.738,394.259,99.604,394.052,98.392,394.052z M106.38,398.617
	c0,1.035-0.356,1.99-1.07,2.867c-0.713,0.876-1.683,1.565-2.906,2.072c-1.225,0.513-2.562,0.767-4.012,0.767
	c-0.415,0-0.846-0.023-1.292-0.071c-1.177,1.041-2.544,1.76-4.101,2.158c-0.292,0.082-0.63,0.146-1.017,0.195h-0.044
	c-0.089,0-0.17-0.031-0.241-0.097c-0.071-0.063-0.119-0.145-0.142-0.246v-0.009c-0.018-0.021-0.02-0.059-0.004-0.104
	c0.014-0.052,0.021-0.077,0.018-0.09c-0.003-0.016,0.01-0.04,0.041-0.088l0.053-0.078c0,0,0.021-0.023,0.063-0.074
	c0.041-0.055,0.065-0.077,0.071-0.079c0.042-0.049,0.134-0.151,0.277-0.313c0.143-0.152,0.245-0.27,0.307-0.338
	c0.063-0.066,0.154-0.186,0.276-0.352c0.122-0.166,0.219-0.317,0.29-0.454c0.071-0.141,0.152-0.313,0.24-0.526
	c0.09-0.215,0.167-0.438,0.232-0.678c-0.933-0.529-1.668-1.185-2.206-1.961c-0.538-0.779-0.807-1.615-0.807-2.507
	c0-1.033,0.356-1.99,1.07-2.865c0.713-0.876,1.683-1.57,2.906-2.077c1.225-0.509,2.562-0.763,4.012-0.763s2.788,0.254,4.012,0.763
	c1.224,0.507,2.193,1.201,2.906,2.077C106.024,396.626,106.38,397.583,106.38,398.617z"/>
<path fill="#5C85B1" stroke="#5C85B1" stroke-width="0.5" stroke-miterlimit="10" d="M151.703,394.226
	c-1.212,0-2.346,0.207-3.4,0.62c-1.055,0.414-1.894,0.975-2.515,1.672c-0.621,0.7-0.931,1.458-0.931,2.272
	c0,0.666,0.211,1.3,0.637,1.904c0.425,0.604,1.023,1.125,1.796,1.563l0.774,0.447l-0.24,0.854c-0.143,0.542-0.35,1.057-0.624,1.533
	c0.903-0.373,1.721-0.882,2.452-1.521l0.384-0.343l0.508,0.058c0.41,0.048,0.796,0.071,1.159,0.071c1.213,0,2.346-0.206,3.4-0.62
	c1.056-0.413,1.894-0.975,2.516-1.675c0.621-0.698,0.931-1.46,0.931-2.271c0-0.814-0.31-1.572-0.931-2.272
	c-0.622-0.697-1.46-1.258-2.516-1.672C154.049,394.433,152.916,394.226,151.703,394.226z M159.691,398.791
	c0,1.035-0.356,1.99-1.07,2.867c-0.713,0.876-1.684,1.565-2.906,2.076c-1.225,0.509-2.563,0.763-4.012,0.763
	c-0.415,0-0.846-0.023-1.292-0.071c-1.177,1.041-2.544,1.76-4.101,2.158c-0.293,0.082-0.631,0.148-1.018,0.195h-0.044
	c-0.089,0-0.17-0.031-0.241-0.097c-0.07-0.063-0.119-0.145-0.142-0.243v-0.012c-0.019-0.021-0.021-0.059-0.005-0.104
	c0.015-0.048,0.021-0.077,0.019-0.089c-0.003-0.017,0.011-0.04,0.041-0.085l0.054-0.081c0,0,0.021-0.024,0.063-0.075
	c0.041-0.051,0.064-0.077,0.07-0.079c0.043-0.049,0.135-0.151,0.277-0.312c0.143-0.154,0.245-0.271,0.307-0.34
	c0.063-0.065,0.154-0.186,0.276-0.352c0.122-0.166,0.22-0.317,0.29-0.454c0.071-0.139,0.152-0.313,0.24-0.526
	c0.09-0.215,0.167-0.438,0.232-0.678c-0.934-0.529-1.668-1.184-2.207-1.961c-0.537-0.779-0.807-1.615-0.807-2.507
	c0-1.033,0.355-1.99,1.07-2.865c0.713-0.876,1.684-1.567,2.906-2.077c1.225-0.509,2.562-0.763,4.012-0.763
	c1.449,0,2.788,0.254,4.012,0.763c1.225,0.51,2.193,1.201,2.906,2.077C159.335,396.8,159.691,397.757,159.691,398.791z"/>
<path fill="#005BAA" stroke="#005BAA" stroke-width="0.5" stroke-miterlimit="10" d="M203.195,394.4
	c-1.211,0-2.346,0.207-3.399,0.616c-1.055,0.414-1.894,0.975-2.517,1.676c-0.619,0.696-0.93,1.458-0.93,2.271
	c0,0.666,0.213,1.3,0.637,1.904c0.426,0.604,1.021,1.125,1.798,1.563l0.774,0.447l-0.242,0.854
	c-0.146,0.544-0.354,1.055-0.623,1.531c0.904-0.373,1.722-0.882,2.451-1.521l0.385-0.339l0.509,0.054
	c0.409,0.048,0.796,0.072,1.157,0.072c1.214,0,2.347-0.207,3.402-0.621c1.055-0.413,1.894-0.975,2.514-1.671
	c0.621-0.702,0.933-1.46,0.933-2.274c0-0.813-0.312-1.572-0.933-2.271c-0.62-0.701-1.459-1.262-2.514-1.676
	C205.542,394.607,204.409,394.4,203.195,394.4z M211.186,398.964c0,1.035-0.354,1.99-1.063,2.867
	c-0.721,0.876-1.688,1.569-2.906,2.076c-1.229,0.509-2.563,0.763-4.012,0.763c-0.415,0-0.854-0.023-1.295-0.071
	c-1.182,1.041-2.549,1.764-4.104,2.158c-0.293,0.082-0.633,0.148-1.02,0.195h-0.044c-0.091,0-0.17-0.031-0.241-0.093
	c-0.07-0.063-0.119-0.146-0.143-0.246v-0.013c-0.021-0.021-0.021-0.059-0.004-0.104c0.015-0.048,0.021-0.077,0.019-0.089
	c-0.003-0.016,0.01-0.04,0.041-0.085l0.053-0.081c0,0,0.021-0.024,0.063-0.075c0.044-0.051,0.066-0.077,0.072-0.079
	c0.041-0.049,0.133-0.151,0.274-0.31c0.146-0.156,0.245-0.271,0.31-0.338c0.063-0.069,0.151-0.188,0.274-0.354
	c0.121-0.166,0.222-0.316,0.289-0.454c0.069-0.139,0.149-0.313,0.24-0.522c0.09-0.219,0.167-0.44,0.229-0.682
	c-0.938-0.525-1.668-1.184-2.205-1.961c-0.539-0.775-0.813-1.614-0.813-2.507c0-1.033,0.354-1.99,1.063-2.865
	c0.717-0.876,1.688-1.566,2.906-2.074c1.229-0.512,2.563-0.766,4.012-0.766c1.451,0,2.787,0.254,4.02,0.766
	c1.229,0.508,2.188,1.198,2.902,2.074C210.829,396.974,211.186,397.931,211.186,398.964z"/>
<path fill="#3E3E3F" d="M141.744,27.446c0,0.274-0.098,0.507-0.29,0.7l-1.401,1.403c-0.193,0.19-0.425,0.288-0.701,0.288
	c-0.275,0-0.509-0.098-0.699-0.288l-3.032-3.033l-3.031,3.033c-0.192,0.19-0.425,0.288-0.701,0.288c-0.275,0-0.508-0.098-0.7-0.288
	l-1.401-1.403c-0.192-0.193-0.29-0.426-0.29-0.7c0-0.274,0.097-0.51,0.29-0.702l3.03-3.028l-3.03-3.031
	c-0.192-0.193-0.29-0.427-0.29-0.701c0-0.275,0.097-0.509,0.29-0.699l1.401-1.405c0.192-0.192,0.425-0.289,0.7-0.289
	c0.275,0,0.509,0.097,0.701,0.289l3.031,3.031l3.032-3.031c0.19-0.192,0.424-0.289,0.699-0.289s0.508,0.097,0.701,0.289l1.401,1.405
	c0.192,0.19,0.29,0.424,0.29,0.699c0,0.274-0.098,0.508-0.29,0.701l-3.03,3.031l3.03,3.028
	C141.646,26.937,141.744,27.172,141.744,27.446z"/>
<circle fill="none" stroke="#3E3E3F" stroke-width="2" stroke-miterlimit="10" cx="135.621" cy="23.714" r="11.714"/>
<path fill="#3E3E3F" d="M180.17,23.828c0,0.161-0.059,0.298-0.171,0.413l-0.83,0.832c-0.114,0.111-0.251,0.17-0.414,0.17
	c-0.165,0-0.303-0.059-0.416-0.17l-1.794-1.796l-1.794,1.796c-0.114,0.111-0.252,0.17-0.415,0.17s-0.301-0.059-0.415-0.17
	l-0.83-0.832c-0.114-0.115-0.171-0.252-0.171-0.413c0-0.163,0.059-0.303,0.171-0.417l1.794-1.792l-1.794-1.794
	c-0.114-0.115-0.171-0.254-0.171-0.416c0-0.162,0.059-0.301,0.171-0.413l0.83-0.833c0.114-0.113,0.251-0.172,0.415-0.172
	s0.301,0.059,0.415,0.172l1.794,1.795l1.794-1.795c0.113-0.113,0.251-0.172,0.416-0.172c0.163,0,0.3,0.059,0.414,0.172L180,18.996
	c0.113,0.112,0.171,0.251,0.171,0.413c0,0.162-0.058,0.301-0.171,0.416l-1.793,1.794L180,23.411
	C180.113,23.525,180.17,23.665,180.17,23.828z"/>
<circle fill="none" stroke="#3E3E3F" stroke-width="2" stroke-miterlimit="10" cx="176.545" cy="21.617" r="6.935"/>
<path fill="#3E3E3F" d="M14.887,274.517h7.969v-2.276h-7.969V274.517z M14.887,268.826h7.969v-3.416h-1.423
	c-0.237,0-0.438-0.082-0.604-0.248c-0.166-0.167-0.249-0.368-0.249-0.605v-1.423h-5.693V268.826z M25.133,269.394
	c0-0.153-0.056-0.287-0.169-0.399c-0.113-0.113-0.246-0.169-0.4-0.169s-0.287,0.056-0.4,0.169c-0.113,0.112-0.169,0.246-0.169,0.399
	c0,0.155,0.056,0.288,0.169,0.4c0.113,0.113,0.246,0.17,0.4,0.17s0.288-0.057,0.4-0.17
	C25.077,269.682,25.133,269.549,25.133,269.394z M26.271,269.394v3.7c0,0.077-0.028,0.146-0.084,0.2
	c-0.057,0.057-0.123,0.084-0.2,0.084h-1.992v1.423c0,0.237-0.083,0.439-0.249,0.605s-0.368,0.249-0.605,0.249h-8.538
	c-0.237,0-0.439-0.083-0.605-0.249s-0.249-0.368-0.249-0.605v-1.423h-1.992c-0.077,0-0.144-0.027-0.2-0.084
	c-0.057-0.057-0.084-0.123-0.084-0.2v-3.7c0-0.468,0.167-0.869,0.502-1.204s0.737-0.503,1.205-0.503h0.569v-4.838
	c0-0.237,0.083-0.439,0.249-0.604c0.166-0.167,0.368-0.25,0.605-0.25h5.977c0.237,0,0.498,0.06,0.782,0.179
	c0.285,0.118,0.51,0.261,0.676,0.427l1.352,1.352c0.166,0.166,0.308,0.391,0.427,0.676c0.119,0.285,0.178,0.545,0.178,0.782v2.277
	h0.569c0.469,0,0.87,0.168,1.206,0.503C26.104,268.525,26.271,268.926,26.271,269.394z"/>
<path fill="#B0B0B0" d="M93.781,274.517h7.969v-2.276h-7.969V274.517z M93.781,268.826h7.969v-3.416h-1.423
	c-0.237,0-0.438-0.082-0.604-0.248c-0.166-0.167-0.249-0.368-0.249-0.605v-1.423h-5.692L93.781,268.826L93.781,268.826z
	 M104.026,269.394c0-0.153-0.056-0.287-0.169-0.399c-0.113-0.113-0.246-0.169-0.4-0.169s-0.287,0.056-0.4,0.169
	c-0.113,0.112-0.169,0.246-0.169,0.399c0,0.155,0.056,0.288,0.169,0.4c0.113,0.113,0.246,0.17,0.4,0.17s0.288-0.057,0.4-0.17
	C103.97,269.682,104.026,269.549,104.026,269.394z M105.165,269.394v3.7c0,0.077-0.028,0.146-0.084,0.2
	c-0.057,0.057-0.123,0.084-0.2,0.084h-1.992v1.423c0,0.237-0.083,0.439-0.249,0.605s-0.368,0.249-0.605,0.249h-8.538
	c-0.237,0-0.439-0.083-0.605-0.249s-0.249-0.368-0.249-0.605v-1.423H90.65c-0.077,0-0.144-0.027-0.2-0.084
	c-0.057-0.057-0.084-0.123-0.084-0.2v-3.7c0-0.468,0.167-0.869,0.502-1.204s0.737-0.503,1.205-0.503h0.569v-4.838
	c0-0.237,0.083-0.439,0.249-0.604c0.166-0.167,0.368-0.25,0.605-0.25h5.977c0.237,0,0.498,0.06,0.782,0.179
	c0.285,0.118,0.51,0.261,0.676,0.427l1.352,1.352c0.166,0.166,0.308,0.391,0.427,0.676s0.178,0.545,0.178,0.782v2.277h0.569
	c0.469,0,0.87,0.168,1.206,0.503C104.998,268.525,105.165,268.926,105.165,269.394z"/>
<path fill="#5C85B1" d="M148.084,273.687h7.969v-2.276h-7.969V273.687z M148.084,267.996h7.969v-3.416h-1.423
	c-0.237,0-0.438-0.082-0.604-0.248c-0.166-0.167-0.248-0.368-0.248-0.605v-1.423h-5.691L148.084,267.996L148.084,267.996z
	 M158.33,268.564c0-0.153-0.057-0.287-0.169-0.399c-0.113-0.113-0.246-0.169-0.399-0.169c-0.154,0-0.287,0.056-0.4,0.169
	c-0.112,0.112-0.17,0.246-0.17,0.399c0,0.155,0.058,0.288,0.17,0.4c0.113,0.113,0.246,0.17,0.4,0.17c0.153,0,0.287-0.057,0.399-0.17
	C158.273,268.852,158.33,268.719,158.33,268.564z M159.468,268.564v3.7c0,0.077-0.028,0.144-0.084,0.2
	c-0.057,0.057-0.122,0.084-0.2,0.084h-1.992v1.423c0,0.237-0.082,0.439-0.248,0.605s-0.367,0.249-0.604,0.249h-8.54
	c-0.237,0-0.438-0.083-0.604-0.249s-0.25-0.368-0.25-0.605v-1.423h-1.991c-0.077,0-0.144-0.027-0.2-0.084
	c-0.057-0.057-0.084-0.123-0.084-0.2v-3.7c0-0.468,0.167-0.869,0.502-1.204s0.737-0.503,1.205-0.503h0.568v-4.838
	c0-0.237,0.084-0.439,0.25-0.604c0.166-0.167,0.367-0.25,0.604-0.25h5.978c0.236,0,0.498,0.06,0.781,0.179
	c0.285,0.118,0.51,0.261,0.676,0.427l1.354,1.352c0.166,0.166,0.309,0.391,0.428,0.676c0.118,0.285,0.178,0.545,0.178,0.782v2.277
	h0.57c0.469,0,0.868,0.168,1.204,0.503C159.301,267.695,159.468,268.096,159.468,268.564z"/>
<path fill="#005BAA" d="M198.503,273.857h7.97v-2.276h-7.97V273.857z M198.503,268.166h7.97v-3.416h-1.424
	c-0.236,0-0.438-0.082-0.604-0.248c-0.166-0.167-0.25-0.368-0.25-0.605v-1.423h-5.691L198.503,268.166L198.503,268.166z
	 M208.749,268.734c0-0.153-0.058-0.287-0.17-0.399c-0.112-0.113-0.246-0.169-0.399-0.169c-0.154,0-0.287,0.056-0.4,0.169
	c-0.104,0.112-0.168,0.246-0.168,0.399c0,0.155,0.063,0.288,0.168,0.4c0.113,0.113,0.246,0.17,0.4,0.17
	c0.153,0,0.287-0.057,0.399-0.17C208.691,269.022,208.749,268.889,208.749,268.734z M209.889,268.734v3.7
	c0,0.077-0.029,0.144-0.086,0.2c-0.057,0.057-0.123,0.084-0.199,0.084h-1.992v1.423c0,0.237-0.084,0.439-0.25,0.605
	s-0.359,0.249-0.604,0.249h-8.537c-0.238,0-0.438-0.083-0.604-0.249s-0.25-0.368-0.25-0.605v-1.423h-1.992
	c-0.077,0-0.145-0.027-0.2-0.084c-0.057-0.057-0.084-0.123-0.084-0.2v-3.7c0-0.468,0.167-0.869,0.502-1.204
	c0.335-0.335,0.737-0.503,1.206-0.503h0.568v-4.838c0-0.237,0.084-0.439,0.25-0.604c0.166-0.167,0.365-0.25,0.604-0.25h5.979
	c0.233,0,0.495,0.06,0.778,0.179c0.285,0.118,0.51,0.261,0.676,0.427l1.354,1.352c0.165,0.166,0.311,0.391,0.43,0.676
	c0.119,0.285,0.184,0.545,0.184,0.782v2.277h0.563c0.469,0,0.868,0.168,1.205,0.503
	C209.723,267.866,209.889,268.266,209.889,268.734z"/>
<path fill="none" stroke="#3E3E3F" stroke-width="1.8" stroke-miterlimit="10" d="M27.822,374.002c0.402,0.401,0.402,1.053,0,1.454
	l-4.725,4.725c-0.401,0.4-1.052,0.401-1.453,0l-8.087-8.087c-0.401-0.397-0.401-1.052,0-1.453l4.725-4.724
	c0.402-0.401,1.052-0.402,1.454,0L27.822,374.002z M14.284,366.644c-0.903,0.901-0.903,2.368,0,3.271
	c0.903,0.901,2.368,0.902,3.271,0c0.904-0.903,0.903-2.369,0-3.271C16.652,365.74,15.188,365.74,14.284,366.644z"/>
<path fill="none" stroke="#B0B0B0" stroke-width="1.8" stroke-miterlimit="10" d="M107.856,374.002c0.402,0.401,0.402,1.053,0,1.454
	l-4.725,4.725c-0.401,0.4-1.052,0.401-1.453,0l-8.087-8.087c-0.401-0.397-0.401-1.052,0-1.453l4.725-4.724
	c0.402-0.401,1.052-0.402,1.454,0L107.856,374.002z M94.319,366.644c-0.903,0.901-0.903,2.368,0,3.271
	c0.903,0.901,2.368,0.902,3.271,0c0.904-0.903,0.903-2.369,0-3.271C96.687,365.74,95.223,365.74,94.319,366.644z"/>
<path fill="none" stroke="#5C85B1" stroke-width="1.8" stroke-miterlimit="10" d="M160.078,374.002c0.402,0.401,0.402,1.053,0,1.454
	l-4.725,4.725c-0.401,0.4-1.054,0.401-1.453,0l-8.088-8.087c-0.4-0.397-0.4-1.052,0-1.453l4.726-4.724
	c0.401-0.401,1.052-0.402,1.454,0L160.078,374.002z M146.541,366.644c-0.902,0.901-0.902,2.368,0,3.271
	c0.902,0.901,2.368,0.902,3.271,0c0.902-0.903,0.901-2.369,0-3.271C148.909,365.74,147.443,365.74,146.541,366.644z"/>
<path fill="none" stroke="#005BAA" stroke-width="1.8" stroke-miterlimit="10" d="M210.354,374.002c0.401,0.401,0.401,1.053,0,1.454
	l-4.726,4.725c-0.399,0.4-1.052,0.401-1.453,0l-8.086-8.087c-0.401-0.397-0.401-1.052,0-1.453l4.726-4.724
	c0.4-0.401,1.06-0.402,1.453,0L210.354,374.002z M196.814,366.644c-0.902,0.901-0.902,2.368,0,3.271
	c0.896,0.901,2.367,0.902,3.271,0c0.901-0.903,0.901-2.369,0-3.271C199.184,365.74,197.721,365.74,196.814,366.644z"/>
<path fill="#B0B0B0" stroke="#B0B0B0" stroke-width="0.5" stroke-miterlimit="10" d="M106.034,433.267v-6.396
	c-0.178,0.199-0.369,0.383-0.574,0.55c-1.489,1.146-2.672,2.082-3.55,2.814c-0.283,0.237-0.514,0.427-0.692,0.56
	c-0.178,0.133-0.417,0.267-0.72,0.404c-0.302,0.136-0.587,0.203-0.854,0.203h-0.009h-0.009c-0.267,0-0.551-0.067-0.854-0.203
	c-0.302-0.142-0.542-0.271-0.72-0.404c-0.177-0.133-0.409-0.318-0.691-0.56c-0.878-0.732-2.062-1.676-3.55-2.814
	c-0.206-0.167-0.396-0.351-0.575-0.55v6.396c0,0.072,0.027,0.145,0.079,0.188c0.053,0.053,0.115,0.08,0.188,0.08h12.265
	c0.073,0,0.135-0.027,0.188-0.08C106.007,433.403,106.034,433.339,106.034,433.267z M106.034,424.511v-0.093v-0.111
	c0,0-0.001-0.032-0.004-0.104c-0.002-0.073-0.01-0.107-0.024-0.104c-0.014,0.003-0.029-0.021-0.046-0.072
	c-0.016-0.056-0.041-0.072-0.075-0.063c-0.034,0.011-0.073,0.004-0.117-0.021H93.502c-0.073,0-0.135,0.025-0.188,0.076
	c-0.052,0.058-0.079,0.117-0.079,0.188c0,0.936,0.409,1.723,1.225,2.368c1.072,0.845,2.186,1.726,3.341,2.64
	c0.033,0.03,0.131,0.112,0.292,0.246c0.162,0.138,0.289,0.241,0.383,0.313c0.095,0.07,0.218,0.159,0.371,0.266
	c0.152,0.102,0.293,0.177,0.42,0.227c0.128,0.056,0.248,0.076,0.358,0.076h0.009h0.009c0.11,0,0.229-0.021,0.358-0.076
	c0.127-0.05,0.268-0.125,0.42-0.227c0.153-0.104,0.277-0.191,0.371-0.266c0.094-0.07,0.223-0.178,0.383-0.313
	c0.161-0.134,0.258-0.216,0.292-0.246c1.155-0.914,2.269-1.795,3.341-2.64c0.3-0.239,0.579-0.563,0.836-0.962
	C105.905,425.203,106.034,424.839,106.034,424.511z M107.101,424.201v9.063c0,0.367-0.13,0.688-0.392,0.942
	c-0.261,0.261-0.575,0.392-0.941,0.392H93.502c-0.366,0-0.68-0.131-0.941-0.392c-0.262-0.262-0.392-0.575-0.392-0.942v-9.063
	c0-0.365,0.13-0.678,0.392-0.939c0.261-0.261,0.575-0.392,0.941-0.392h12.265c0.367,0,0.681,0.131,0.941,0.392
	C106.97,423.523,107.101,423.835,107.101,424.201z"/>
<path fill="#5C85B1" stroke="#5C85B1" stroke-width="0.5" stroke-miterlimit="10" d="M158.496,433.267v-6.396
	c-0.178,0.199-0.369,0.383-0.574,0.55c-1.488,1.146-2.672,2.082-3.55,2.814c-0.283,0.237-0.515,0.427-0.692,0.56
	c-0.177,0.133-0.416,0.267-0.72,0.404c-0.302,0.136-0.587,0.203-0.854,0.203h-0.008h-0.01c-0.268,0-0.551-0.067-0.854-0.203
	c-0.303-0.142-0.543-0.271-0.721-0.404c-0.178-0.133-0.408-0.318-0.691-0.56c-0.877-0.732-2.063-1.676-3.549-2.814
	c-0.207-0.167-0.396-0.351-0.576-0.55v6.396c0,0.072,0.027,0.145,0.08,0.188c0.053,0.053,0.115,0.08,0.188,0.08h12.266
	c0.072,0,0.136-0.027,0.188-0.08C158.469,433.403,158.496,433.339,158.496,433.267z M158.496,424.511v-0.093v-0.111
	c0,0-0.001-0.032-0.004-0.104c-0.002-0.073-0.01-0.107-0.024-0.104c-0.014,0.003-0.028-0.021-0.046-0.072
	c-0.016-0.056-0.041-0.072-0.074-0.063c-0.035,0.011-0.074,0.004-0.117-0.021h-12.266c-0.072,0-0.135,0.025-0.188,0.076
	c-0.053,0.058-0.079,0.117-0.079,0.188c0,0.936,0.409,1.723,1.225,2.368c1.072,0.845,2.187,1.726,3.341,2.64
	c0.033,0.03,0.131,0.112,0.293,0.246c0.161,0.138,0.289,0.241,0.383,0.313c0.096,0.07,0.219,0.159,0.371,0.266
	c0.151,0.102,0.293,0.177,0.42,0.227c0.127,0.056,0.248,0.076,0.357,0.076h0.01h0.008c0.11,0,0.229-0.021,0.358-0.076
	c0.127-0.05,0.269-0.125,0.42-0.227c0.153-0.104,0.277-0.191,0.371-0.266c0.095-0.07,0.224-0.178,0.384-0.313
	c0.16-0.134,0.258-0.216,0.291-0.246c1.155-0.914,2.271-1.795,3.342-2.64c0.299-0.239,0.578-0.563,0.836-0.962
	C158.367,425.203,158.496,424.839,158.496,424.511z M159.563,424.201v9.063c0,0.367-0.129,0.688-0.392,0.942
	c-0.261,0.261-0.575,0.392-0.94,0.392h-12.266c-0.365,0-0.68-0.131-0.941-0.392c-0.262-0.262-0.392-0.575-0.392-0.942v-9.063
	c0-0.365,0.13-0.678,0.392-0.939c0.262-0.261,0.576-0.392,0.941-0.392h12.266c0.367,0,0.682,0.131,0.94,0.392
	C159.432,423.523,159.563,423.835,159.563,424.201z"/>
<path fill="#005BAA" stroke="#005BAA" stroke-width="0.5" stroke-miterlimit="10" d="M209.596,433.267v-6.396
	c-0.179,0.199-0.369,0.383-0.574,0.55c-1.48,1.146-2.672,2.082-3.549,2.814c-0.283,0.237-0.516,0.427-0.693,0.56
	c-0.176,0.133-0.41,0.267-0.719,0.404c-0.304,0.136-0.588,0.203-0.854,0.203h-0.012h-0.008c-0.271,0-0.551-0.067-0.854-0.203
	c-0.302-0.142-0.542-0.271-0.722-0.404c-0.178-0.133-0.407-0.318-0.688-0.56c-0.879-0.732-2.063-1.676-3.551-2.814
	c-0.205-0.167-0.396-0.351-0.574-0.55v6.396c0,0.072,0.026,0.145,0.078,0.188c0.056,0.053,0.115,0.08,0.188,0.08h12.267
	c0.071,0,0.135-0.027,0.188-0.08C209.568,433.403,209.596,433.339,209.596,433.267z M209.596,424.511v-0.093v-0.111
	c0,0-0.002-0.032-0.005-0.104c-0.002-0.073-0.01-0.107-0.024-0.104c-0.014,0.003-0.021-0.021-0.045-0.072
	c-0.018-0.056-0.041-0.072-0.076-0.063c-0.025,0.011-0.064,0.004-0.107-0.021h-12.271c-0.065,0-0.135,0.025-0.188,0.076
	c-0.052,0.058-0.078,0.117-0.078,0.188c0,0.936,0.408,1.723,1.229,2.368c1.072,0.845,2.188,1.726,3.345,2.64
	c0.028,0.03,0.132,0.112,0.293,0.246c0.155,0.138,0.284,0.241,0.383,0.313c0.101,0.07,0.22,0.159,0.371,0.266
	c0.147,0.102,0.293,0.177,0.42,0.227c0.129,0.056,0.248,0.076,0.354,0.076h0.013h0.01c0.104,0,0.229-0.021,0.354-0.076
	c0.127-0.05,0.271-0.125,0.42-0.227c0.154-0.104,0.275-0.191,0.371-0.266c0.098-0.07,0.227-0.178,0.386-0.313
	c0.159-0.134,0.26-0.216,0.294-0.246c1.15-0.914,2.27-1.795,3.341-2.64c0.3-0.239,0.579-0.563,0.837-0.962
	C209.467,425.203,209.596,424.839,209.596,424.511z M210.662,424.201v9.063c0,0.367-0.13,0.688-0.393,0.942
	c-0.27,0.261-0.574,0.392-0.94,0.392h-12.267c-0.365,0-0.688-0.131-0.939-0.392c-0.262-0.262-0.393-0.575-0.393-0.942v-9.063
	c0-0.365,0.131-0.678,0.393-0.939c0.261-0.261,0.575-0.392,0.939-0.392h12.267c0.366,0,0.68,0.131,0.94,0.392
	C210.532,423.523,210.662,423.835,210.662,424.201z"/>
<path fill="#3E3E3F" d="M24.08,175.659c0,1.539-1.248,2.786-2.786,2.786h-1.631l0.818-0.818c0.299-0.3,0.52-0.655,0.654-1.039h0.159
	c0.514,0,0.929-0.415,0.929-0.929V167.3H11.076v8.358c0,0.514,0.416,0.929,0.929,0.929h0.158c0.135,0.385,0.356,0.743,0.658,1.044
	l0.815,0.813h-1.631c-1.54,0-2.787-1.247-2.787-2.786v-9.288c0-1.538,1.247-2.786,2.787-2.786h9.289
	c1.539,0,2.786,1.248,2.786,2.786V175.659z M12.005,164.513c-0.513,0-0.929,0.416-0.929,0.929c0,0.513,0.416,0.929,0.929,0.929
	c0.512,0,0.929-0.416,0.929-0.929C12.934,164.929,12.517,164.513,12.005,164.513z M14.792,174.73h0.928v-2.786
	c0-0.514,0.416-0.929,0.929-0.929c0.514,0,0.929,0.415,0.929,0.929v2.786h0.929c0.375,0,0.715,0.226,0.857,0.574
	c0.144,0.349,0.063,0.748-0.201,1.013l-1.857,1.857c-0.182,0.182-0.419,0.272-0.657,0.272c-0.238,0-0.476-0.091-0.657-0.272
	l-1.858-1.857c-0.265-0.265-0.344-0.667-0.201-1.013C14.076,174.956,14.416,174.73,14.792,174.73z"/>
<path fill="#5C85B1" d="M169.604,202.925l-1.373,1.372c-0.854,0.856-2.129,1.027-3.162,0.538l3.162-3.163
	c0.362-0.364,0.362-0.95,0-1.313l-1.313-1.316c-0.361-0.364-0.95-0.364-1.313,0l-3.162,3.164c-0.493-1.033-0.321-2.307,0.535-3.164
	l1.371-1.372c1.088-1.087,2.854-1.087,3.938,0l1.313,1.314C170.691,200.075,170.691,201.837,169.604,202.925z M160.35,206.922
	c-0.363-0.361-0.363-0.947,0-1.312l3.94-3.938c0.364-0.364,0.95-0.364,1.313,0c0.36,0.361,0.36,0.947,0,1.312l-3.939,3.938
	C161.301,207.288,160.712,207.288,160.35,206.922z M157.723,208.239l1.313,1.313c0.362,0.363,0.95,0.363,1.313,0l3.163-3.164
	c0.491,1.033,0.319,2.307-0.535,3.164l-1.256,1.372c-1.091,1.089-2.854,1.089-3.938,0l-1.432-1.429c-1.088-1.09-1.088-2.853,0-3.941
	l1.373-1.257c0.857-0.856,2.129-1.028,3.166-0.536l-3.166,3.161C157.359,207.288,157.359,207.877,157.723,208.239z M170.419,206.364
	v3.486c0,0.135-0.049,0.251-0.147,0.35c-0.099,0.099-0.215,0.147-0.351,0.147c-0.135,0-0.251-0.049-0.351-0.147l-1.12-1.12
	l-2.583,2.583c-0.053,0.052-0.111,0.078-0.18,0.078c-0.067,0-0.127-0.026-0.182-0.078l-0.887-0.887
	c-0.055-0.052-0.078-0.111-0.078-0.179c0-0.068,0.023-0.128,0.078-0.18l2.583-2.583l-1.12-1.121
	c-0.102-0.098-0.146-0.215-0.146-0.35c0-0.135,0.049-0.251,0.146-0.351c0.102-0.099,0.215-0.147,0.354-0.147h3.482
	c0.139,0,0.252,0.049,0.354,0.147C170.37,206.113,170.419,206.229,170.419,206.364z"/>
<path fill="#3E3E3F" d="M24.316,202.925l-1.374,1.372c-0.857,0.856-2.128,1.027-3.162,0.538l3.162-3.163
	c0.363-0.364,0.363-0.95,0-1.313l-1.313-1.316c-0.363-0.364-0.95-0.364-1.313,0l-3.163,3.164c-0.493-1.033-0.321-2.307,0.536-3.164
	l1.371-1.372c1.088-1.087,2.854-1.087,3.94,0l1.315,1.314C25.403,200.075,25.403,201.837,24.316,202.925z M15.063,206.922
	c-0.363-0.361-0.363-0.947,0-1.312l3.94-3.938c0.364-0.364,0.95-0.364,1.314,0c0.363,0.361,0.363,0.947,0,1.312l-3.94,3.938
	C16.014,207.288,15.425,207.288,15.063,206.922z M12.435,208.239l1.313,1.313c0.363,0.363,0.95,0.363,1.313,0l3.163-3.164
	c0.493,1.033,0.321,2.307-0.535,3.164l-1.256,1.372c-1.089,1.089-2.852,1.089-3.94,0l-1.431-1.429c-1.088-1.09-1.088-2.853,0-3.941
	l1.373-1.257c0.858-0.856,2.128-1.028,3.164-0.536l-3.164,3.161C12.073,207.288,12.073,207.877,12.435,208.239z"/>
<path fill="#5C85B1" d="M60.8,202.925l-1.374,1.372c-0.857,0.856-2.128,1.027-3.162,0.538l3.162-3.163
	c0.363-0.364,0.363-0.95,0-1.313l-1.313-1.316c-0.363-0.364-0.95-0.364-1.313,0l-3.163,3.164c-0.493-1.033-0.321-2.307,0.536-3.164
	l1.371-1.372c1.088-1.087,2.854-1.087,3.94,0l1.315,1.314C61.887,200.075,61.887,201.837,60.8,202.925z M51.546,206.922
	c-0.363-0.361-0.363-0.947,0-1.312l3.94-3.938c0.364-0.364,0.95-0.364,1.314,0c0.363,0.361,0.363,0.947,0,1.312l-3.94,3.938
	C52.498,207.288,51.909,207.288,51.546,206.922z M48.919,208.239l1.313,1.313c0.363,0.363,0.95,0.363,1.313,0l3.163-3.164
	c0.493,1.033,0.321,2.307-0.535,3.164l-1.256,1.372c-1.089,1.089-2.852,1.089-3.94,0l-1.431-1.429c-1.088-1.09-1.088-2.853,0-3.941
	l1.373-1.257c0.858-0.856,2.128-1.028,3.164-0.536l-3.164,3.161C48.557,207.288,48.557,207.877,48.919,208.239z"/>
<path fill="#005BAA" d="M96.993,202.925l-1.374,1.372c-0.857,0.856-2.128,1.027-3.162,0.538l3.162-3.163
	c0.363-0.364,0.363-0.95,0-1.313l-1.313-1.316c-0.363-0.364-0.95-0.364-1.313,0l-3.163,3.164c-0.493-1.033-0.321-2.307,0.536-3.164
	l1.371-1.372c1.088-1.087,2.854-1.087,3.94,0l1.315,1.314C98.08,200.075,98.08,201.837,96.993,202.925z M87.739,206.922
	c-0.363-0.361-0.363-0.947,0-1.312l3.94-3.938c0.364-0.364,0.95-0.364,1.314,0c0.363,0.361,0.363,0.947,0,1.312l-3.94,3.938
	C88.69,207.288,88.102,207.288,87.739,206.922z M85.112,208.239l1.313,1.313c0.363,0.363,0.95,0.363,1.313,0l3.163-3.164
	c0.493,1.033,0.321,2.307-0.535,3.164l-1.256,1.372c-1.089,1.089-2.852,1.089-3.94,0l-1.431-1.429c-1.088-1.09-1.088-2.853,0-3.941
	l1.373-1.257c0.858-0.856,2.128-1.028,3.164-0.536l-3.164,3.161C84.75,207.288,84.75,207.877,85.112,208.239z"/>
<path fill="#3E3E3F" d="M131.816,202.925l-1.374,1.372c-0.857,0.856-2.128,1.027-3.162,0.538l3.162-3.163
	c0.363-0.364,0.363-0.95,0-1.313l-1.313-1.316c-0.363-0.364-0.95-0.364-1.313,0l-3.163,3.164c-0.493-1.033-0.321-2.307,0.536-3.164
	l1.371-1.372c1.088-1.087,2.854-1.087,3.94,0l1.315,1.314C132.904,200.075,132.904,201.837,131.816,202.925z M122.563,206.922
	c-0.363-0.361-0.363-0.947,0-1.312l3.94-3.938c0.364-0.364,0.95-0.364,1.314,0c0.363,0.361,0.363,0.947,0,1.312l-3.94,3.938
	C123.514,207.288,122.925,207.288,122.563,206.922z M119.936,208.239l1.313,1.313c0.363,0.363,0.95,0.363,1.313,0l3.163-3.164
	c0.493,1.033,0.321,2.307-0.535,3.164l-1.256,1.372c-1.089,1.089-2.852,1.089-3.94,0l-1.431-1.429c-1.088-1.09-1.088-2.853,0-3.941
	l1.373-1.257c0.858-0.856,2.128-1.028,3.164-0.536l-3.164,3.161C119.573,207.288,119.573,207.877,119.936,208.239z M132.632,206.364
	v3.486c0,0.135-0.049,0.251-0.148,0.35c-0.098,0.099-0.215,0.147-0.35,0.147c-0.135,0-0.251-0.049-0.35-0.147l-1.121-1.12
	l-2.583,2.583c-0.052,0.052-0.111,0.078-0.179,0.078s-0.127-0.026-0.179-0.078l-0.887-0.887c-0.052-0.052-0.078-0.111-0.078-0.179
	c0-0.068,0.026-0.128,0.078-0.18l2.583-2.583l-1.12-1.121c-0.099-0.098-0.148-0.215-0.148-0.35c0-0.135,0.049-0.251,0.148-0.351
	c0.098-0.099,0.215-0.147,0.35-0.147h3.486c0.135,0,0.252,0.049,0.35,0.147C132.583,206.113,132.632,206.229,132.632,206.364z"/>
<path fill="#005BAA" d="M208.975,202.925l-1.373,1.372c-0.854,0.856-2.127,1.027-3.162,0.538l3.162-3.163
	c0.362-0.364,0.362-0.95,0-1.313l-1.313-1.316c-0.363-0.364-0.949-0.364-1.313,0l-3.162,3.164c-0.492-1.033-0.321-2.307,0.535-3.164
	l1.371-1.372c1.088-1.087,2.854-1.087,3.938,0l1.313,1.314C210.063,200.075,210.063,201.837,208.975,202.925z M199.723,206.922
	c-0.363-0.361-0.363-0.947,0-1.312l3.938-3.938c0.362-0.364,0.95-0.364,1.313,0c0.355,0.361,0.355,0.947,0,1.312l-3.938,3.938
	C200.673,207.288,200.083,207.288,199.723,206.922z M197.094,208.239l1.313,1.313c0.362,0.363,0.95,0.363,1.313,0l3.154-3.164
	c0.493,1.033,0.32,2.307-0.527,3.164l-1.264,1.372c-1.09,1.089-2.854,1.089-3.938,0l-1.432-1.429c-1.092-1.09-1.092-2.853,0-3.941
	l1.369-1.257c0.855-0.856,2.134-1.028,3.164-0.536l-3.164,3.161C196.73,207.288,196.73,207.877,197.094,208.239z M209.79,206.364
	v3.486c0,0.135-0.049,0.251-0.147,0.35c-0.099,0.099-0.216,0.147-0.351,0.147s-0.252-0.049-0.351-0.147l-1.121-1.12l-2.584,2.583
	c-0.051,0.052-0.11,0.078-0.178,0.078c-0.068,0-0.127-0.026-0.188-0.078l-0.891-0.887c-0.057-0.052-0.074-0.111-0.074-0.179
	c0-0.068,0.021-0.128,0.074-0.18l2.582-2.583l-1.117-1.121c-0.104-0.098-0.146-0.215-0.146-0.35c0-0.135,0.05-0.251,0.146-0.351
	c0.101-0.099,0.217-0.147,0.354-0.147h3.481c0.135,0,0.252,0.049,0.354,0.147C209.741,206.113,209.79,206.229,209.79,206.364z"/>
<path fill="#5C85B1" d="M63.052,175.659c0,1.539-1.248,2.786-2.786,2.786h-1.631l0.818-0.818c0.299-0.3,0.52-0.655,0.654-1.039
	h0.159c0.514,0,0.929-0.415,0.929-0.929V167.3H50.049v8.358c0,0.514,0.416,0.929,0.929,0.929h0.158
	c0.135,0.385,0.356,0.743,0.658,1.044l0.815,0.813h-1.631c-1.54,0-2.787-1.247-2.787-2.786v-9.288c0-1.538,1.247-2.786,2.787-2.786
	h9.289c1.539,0,2.786,1.248,2.786,2.786v9.289H63.052L63.052,175.659z M50.978,164.513c-0.513,0-0.929,0.416-0.929,0.929
	c0,0.513,0.416,0.929,0.929,0.929c0.512,0,0.929-0.416,0.929-0.929C51.907,164.929,51.49,164.513,50.978,164.513z M53.764,174.73
	h0.929v-2.786c0-0.514,0.416-0.929,0.929-0.929c0.514,0,0.929,0.415,0.929,0.929v2.786h0.929c0.375,0,0.715,0.226,0.857,0.574
	c0.144,0.349,0.063,0.748-0.201,1.013l-1.857,1.857c-0.182,0.182-0.419,0.272-0.657,0.272c-0.238,0-0.476-0.091-0.657-0.272
	l-1.858-1.857c-0.265-0.265-0.344-0.667-0.201-1.013C53.048,174.956,53.388,174.73,53.764,174.73z"/>
<path fill="#005BAA" d="M99.188,175.659c0,1.539-1.248,2.786-2.786,2.786H94.77l0.818-0.818c0.299-0.3,0.52-0.655,0.654-1.039h0.159
	c0.514,0,0.929-0.415,0.929-0.929V167.3H86.184v8.358c0,0.514,0.416,0.929,0.929,0.929h0.158c0.135,0.385,0.356,0.743,0.658,1.044
	l0.815,0.813h-1.631c-1.54,0-2.787-1.247-2.787-2.786v-9.288c0-1.538,1.247-2.786,2.787-2.786h9.289
	c1.539,0,2.786,1.248,2.786,2.786V175.659z M87.113,164.513c-0.513,0-0.929,0.416-0.929,0.929c0,0.513,0.416,0.929,0.929,0.929
	c0.512,0,0.929-0.416,0.929-0.929C88.042,164.929,87.625,164.513,87.113,164.513z M89.899,174.73h0.929v-2.786
	c0-0.514,0.416-0.929,0.929-0.929c0.514,0,0.929,0.415,0.929,0.929v2.786h0.929c0.375,0,0.715,0.226,0.857,0.574
	c0.144,0.349,0.063,0.748-0.201,1.013l-1.857,1.857c-0.182,0.182-0.419,0.272-0.657,0.272c-0.238,0-0.476-0.091-0.657-0.272
	l-1.858-1.857c-0.265-0.265-0.344-0.667-0.201-1.013C89.184,174.956,89.523,174.73,89.899,174.73z"/>
<path fill="#FFFFFF" d="M39.462,732.261v-1.896c0-0.277-0.09-0.515-0.268-0.688c-0.179-0.18-0.407-0.268-0.685-0.268h-2.856V715.13
	c0-0.278-0.089-0.507-0.268-0.686c-0.179-0.188-0.407-0.271-0.684-0.271h-9.519c-0.278,0-0.506,0.09-0.685,0.271
	c-0.178,0.179-0.268,0.398-0.268,0.686v1.903c0,0.271,0.09,0.506,0.268,0.684c0.179,0.185,0.407,0.271,0.685,0.271h2.856v11.425
	h-2.856c-0.278,0-0.506,0.088-0.685,0.268c-0.178,0.185-0.268,0.406-0.268,0.688v1.896c0,0.277,0.09,0.513,0.268,0.688
	c0.179,0.18,0.407,0.268,0.685,0.268H38.51c0.278,0,0.506-0.088,0.685-0.268C39.373,732.767,39.462,732.539,39.462,732.261z
	 M35.654,709.414v-5.71c0-0.278-0.089-0.508-0.268-0.688c-0.179-0.178-0.407-0.268-0.684-0.268h-5.711
	c-0.277,0-0.505,0.09-0.684,0.268c-0.179,0.187-0.268,0.407-0.268,0.688v5.71c0,0.278,0.089,0.507,0.268,0.686
	c0.179,0.188,0.407,0.271,0.684,0.271h5.711c0.277,0,0.505-0.09,0.684-0.271C35.565,709.921,35.654,709.692,35.654,709.414z
	 M54.693,717.981c0,4.145-1.021,7.969-3.064,11.469s-4.815,6.271-8.314,8.313c-3.5,2.043-7.323,3.064-11.468,3.064
	s-7.967-1.021-11.468-3.064c-3.5-2.042-6.271-4.813-8.314-8.313C10.021,725.95,9,722.125,9,717.981
	c0-4.146,1.021-7.976,3.064-11.476c2.043-3.501,4.814-6.271,8.314-8.313s7.323-3.063,11.468-3.063s7.968,1.021,11.468,3.063
	s6.271,4.813,8.314,8.313S54.693,713.837,54.693,717.981z"/>
<path fill="#5C85B1" d="M135.703,698.904h-33.158V736.6l13.697-12.313l2.882-2.582l2.882,2.582l13.697,12.313V698.904z
	 M136.092,695.018c0.496,0,0.973,0.099,1.424,0.273c0.715,0.263,1.28,0.677,1.701,1.243c0.42,0.563,0.631,1.188,0.631,1.883v39.127
	c0,0.688-0.211,1.317-0.631,1.883c-0.421,0.565-0.986,0.98-1.701,1.243c-0.41,0.164-0.884,0.244-1.424,0.244
	c-1.036,0-1.932-0.323-2.688-0.971l-14.28-12.871l-14.28,12.871c-0.777,0.668-1.673,1.001-2.688,1.001
	c-0.498,0-0.972-0.101-1.425-0.274c-0.712-0.263-1.28-0.678-1.7-1.243c-0.421-0.563-0.632-1.188-0.632-1.883v-39.127
	c0-0.688,0.21-1.316,0.632-1.883c0.42-0.566,0.988-0.98,1.7-1.243c0.453-0.184,0.927-0.273,1.425-0.273H136.092z"/>
<path fill="#FFFFFF" d="M63.718,240.271c0,0.582-0.47,1.052-1.053,1.052h-10.53c-0.581,0-1.053-0.47-1.053-1.052
	c0-2.109,2.034-4.071,4.116-4.851c-1.202-0.743-2.011-2.06-2.011-3.575v-1.053c0-2.328,1.886-4.214,4.213-4.214
	c2.325,0,4.211,1.886,4.211,4.214v1.053c0,1.516-0.807,2.832-2.009,3.575C61.684,236.2,63.718,238.162,63.718,240.271z"/>
<path fill="#FFFFFF" d="M61.787,316.704v-1.938c2.139-0.762,3.679-2.779,3.679-5.183c0-2.4-1.54-4.424-3.679-5.187v-1.938
	c3.173,0.817,5.521,3.69,5.521,7.123C67.309,313.014,64.96,315.886,61.787,316.704z M55.344,313.263
	c-1.525,0-2.761-1.229-2.761-2.759v-1.841c0-1.523,1.236-2.76,2.761-2.76h0.921l4.601-3.684v14.729l-4.601-3.688L55.344,313.263
	L55.344,313.263L55.344,313.263z M59.025,313.263v-2.759v-1.841v-2.76l-1.839,1.839h-1.842c-0.509,0-0.919,0.412-0.919,0.921v1.841
	c0,0.508,0.41,0.923,0.919,0.923h1.842L59.025,313.263z M64.546,309.585c0,1.71-1.175,3.139-2.759,3.547v-1.963
	c0.548-0.32,0.918-0.906,0.918-1.584c0-0.681-0.37-1.269-0.918-1.588v-1.964C63.372,306.444,64.546,307.869,64.546,309.585z"/>
<path fill="#FFFFFF" d="M59.633,346.917c-5.757,0-8.521-7.457-8.521-7.457s2.764-7.457,8.521-7.457c5.762,0,8.525,7.457,8.525,7.457
	S65.395,346.917,59.633,346.917z M59.633,334.134c-2.941,0-5.325,2.384-5.325,5.326s2.384,5.326,5.325,5.326
	c2.944,0,5.328-2.384,5.328-5.326S62.577,334.134,59.633,334.134z M59.633,342.656c-1.764,0-3.195-1.436-3.195-3.195
	c0-0.376,0.077-0.729,0.197-1.066h1.935v-1.934c0.333-0.122,0.688-0.195,1.063-0.195c1.768,0,3.198,1.436,3.198,3.195
	S61.4,342.656,59.633,342.656z"/>
<path fill="#FFFFFF" stroke="#FFFFFF" stroke-width="0.5" stroke-miterlimit="10" d="M58.392,394.052c-1.212,0-2.346,0.207-3.4,0.62
	c-1.055,0.414-1.894,0.971-2.515,1.672c-0.621,0.7-0.931,1.458-0.931,2.272c0,0.666,0.212,1.3,0.637,1.9
	c0.425,0.604,1.024,1.125,1.796,1.563l0.775,0.447l-0.241,0.854c-0.142,0.542-0.35,1.053-0.624,1.533
	c0.904-0.373,1.721-0.882,2.452-1.523l0.384-0.339l0.508,0.058c0.41,0.048,0.796,0.068,1.159,0.068c1.213,0,2.346-0.207,3.401-0.621
	c1.055-0.411,1.893-0.971,2.516-1.671c0.621-0.702,0.93-1.46,0.93-2.271c0-0.814-0.309-1.572-0.93-2.272
	c-0.623-0.701-1.461-1.258-2.516-1.672C60.738,394.259,59.604,394.052,58.392,394.052z M66.38,398.617
	c0,1.035-0.356,1.99-1.069,2.867c-0.713,0.876-1.684,1.565-2.906,2.072c-1.225,0.513-2.563,0.767-4.012,0.767
	c-0.415,0-0.846-0.023-1.292-0.071c-1.177,1.041-2.544,1.76-4.101,2.158c-0.292,0.082-0.63,0.146-1.017,0.195h-0.044
	c-0.089,0-0.17-0.031-0.241-0.097c-0.071-0.063-0.119-0.145-0.142-0.246v-0.009c-0.018-0.021-0.02-0.059-0.004-0.104
	c0.014-0.052,0.021-0.077,0.018-0.09c-0.003-0.016,0.01-0.04,0.041-0.088l0.053-0.078c0,0,0.021-0.023,0.063-0.074
	c0.041-0.055,0.065-0.077,0.071-0.079c0.042-0.049,0.134-0.151,0.277-0.313c0.143-0.152,0.245-0.27,0.307-0.338
	c0.063-0.066,0.154-0.186,0.276-0.352c0.122-0.166,0.219-0.317,0.29-0.454c0.071-0.141,0.152-0.313,0.24-0.526
	c0.09-0.215,0.167-0.438,0.232-0.678c-0.933-0.529-1.668-1.185-2.206-1.961c-0.538-0.779-0.807-1.615-0.807-2.507
	c0-1.033,0.356-1.99,1.07-2.865c0.713-0.876,1.683-1.57,2.906-2.077c1.225-0.509,2.562-0.763,4.012-0.763s2.788,0.254,4.012,0.763
	c1.224,0.507,2.193,1.201,2.906,2.077C66.023,396.626,66.38,397.583,66.38,398.617z"/>
<path fill="#FFFFFF" d="M53.781,274.517h7.969v-2.276h-7.969V274.517z M53.781,268.826h7.969v-3.416h-1.423
	c-0.237,0-0.438-0.082-0.604-0.248c-0.166-0.167-0.249-0.368-0.249-0.605v-1.423h-5.692L53.781,268.826L53.781,268.826z
	 M64.025,269.394c0-0.153-0.055-0.287-0.168-0.399c-0.113-0.113-0.246-0.169-0.4-0.169s-0.287,0.056-0.4,0.169
	c-0.113,0.112-0.168,0.246-0.168,0.399c0,0.155,0.055,0.288,0.168,0.4c0.113,0.113,0.246,0.17,0.4,0.17s0.288-0.057,0.4-0.17
	C63.971,269.682,64.025,269.549,64.025,269.394z M65.165,269.394v3.7c0,0.077-0.028,0.146-0.084,0.2
	c-0.058,0.057-0.123,0.084-0.2,0.084h-1.992v1.423c0,0.237-0.082,0.439-0.248,0.605s-0.369,0.249-0.605,0.249h-8.538
	c-0.237,0-0.439-0.083-0.605-0.249s-0.249-0.368-0.249-0.605v-1.423H50.65c-0.077,0-0.144-0.027-0.2-0.084
	c-0.057-0.057-0.084-0.123-0.084-0.2v-3.7c0-0.468,0.167-0.869,0.502-1.204s0.737-0.503,1.205-0.503h0.569v-4.838
	c0-0.237,0.083-0.439,0.249-0.604c0.166-0.167,0.368-0.25,0.605-0.25h5.977c0.237,0,0.498,0.06,0.782,0.179
	c0.285,0.118,0.511,0.261,0.677,0.427l1.352,1.352c0.166,0.166,0.308,0.391,0.427,0.676s0.179,0.545,0.179,0.782v2.277h0.568
	c0.469,0,0.87,0.168,1.206,0.503C64.998,268.525,65.165,268.926,65.165,269.394z"/>
<path fill="none" stroke="#FFFFFF" stroke-width="1.8" stroke-miterlimit="10" d="M67.855,374.002c0.402,0.401,0.402,1.053,0,1.454
	l-4.725,4.725c-0.4,0.4-1.052,0.401-1.453,0l-8.087-8.087c-0.401-0.397-0.401-1.052,0-1.453l4.725-4.724
	c0.402-0.401,1.052-0.402,1.454,0L67.855,374.002z M54.319,366.644c-0.903,0.901-0.903,2.368,0,3.271
	c0.903,0.901,2.368,0.902,3.271,0c0.904-0.903,0.903-2.369,0-3.271C56.687,365.74,55.223,365.74,54.319,366.644z"/>
<path fill="#FFFFFF" stroke="#FFFFFF" stroke-width="0.5" stroke-miterlimit="10" d="M66.034,433.267v-6.396
	c-0.179,0.199-0.369,0.383-0.574,0.55c-1.489,1.146-2.672,2.082-3.55,2.814c-0.283,0.237-0.514,0.427-0.692,0.56
	c-0.178,0.133-0.417,0.267-0.72,0.404c-0.302,0.136-0.587,0.203-0.854,0.203h-0.009h-0.009c-0.267,0-0.551-0.067-0.854-0.203
	c-0.302-0.142-0.542-0.271-0.72-0.404c-0.177-0.133-0.409-0.318-0.691-0.56c-0.878-0.732-2.062-1.676-3.55-2.814
	c-0.206-0.167-0.396-0.351-0.575-0.55v6.396c0,0.072,0.027,0.145,0.079,0.188c0.053,0.053,0.115,0.08,0.188,0.08h12.265
	c0.073,0,0.135-0.027,0.188-0.08C66.007,433.403,66.034,433.339,66.034,433.267z M66.034,424.511v-0.093v-0.111
	c0,0-0.001-0.032-0.005-0.104c-0.002-0.073-0.01-0.107-0.023-0.104c-0.014,0.003-0.029-0.021-0.046-0.072
	c-0.017-0.057-0.041-0.072-0.075-0.063c-0.033,0.011-0.072,0.004-0.117-0.021H53.502c-0.073,0-0.135,0.025-0.188,0.076
	c-0.052,0.058-0.079,0.117-0.079,0.188c0,0.936,0.409,1.723,1.225,2.368c1.072,0.845,2.186,1.726,3.341,2.64
	c0.033,0.03,0.131,0.112,0.292,0.246c0.162,0.138,0.289,0.241,0.383,0.313c0.095,0.07,0.218,0.159,0.371,0.266
	c0.152,0.102,0.293,0.177,0.42,0.227c0.128,0.056,0.248,0.076,0.358,0.076h0.009h0.009c0.11,0,0.229-0.021,0.358-0.076
	c0.127-0.05,0.268-0.125,0.42-0.227c0.153-0.104,0.277-0.191,0.371-0.266c0.095-0.07,0.224-0.178,0.383-0.313
	c0.161-0.134,0.259-0.216,0.292-0.246c1.155-0.914,2.27-1.795,3.342-2.64c0.299-0.239,0.578-0.563,0.836-0.962
	C65.904,425.203,66.034,424.839,66.034,424.511z M67.102,424.201v9.063c0,0.367-0.131,0.688-0.393,0.942
	c-0.261,0.261-0.575,0.392-0.941,0.392H53.502c-0.366,0-0.68-0.131-0.941-0.392c-0.262-0.262-0.392-0.575-0.392-0.942v-9.063
	c0-0.365,0.13-0.678,0.392-0.939c0.261-0.261,0.575-0.392,0.941-0.392h12.266c0.366,0,0.681,0.131,0.94,0.392
	C66.971,423.523,67.102,423.835,67.102,424.201z"/>
<path d="M254.924,68.313c-0.156,0-0.292-0.058-0.402-0.17l-4.027-4.033c-0.116-0.114-0.18-0.25-0.18-0.405
	c0-0.156,0.063-0.291,0.18-0.405l4.027-4.033c0.11-0.115,0.246-0.172,0.402-0.172c0.157,0,0.293,0.059,0.405,0.172
	c0.116,0.113,0.172,0.248,0.172,0.404v8.066c0,0.158-0.056,0.293-0.172,0.406C255.218,68.256,255.081,68.313,254.924,68.313z"/>
<path fill="#FFFFFF" d="M254.798,47.439c-0.157,0-0.292-0.058-0.403-0.172l-4.033-4.033c-0.109-0.113-0.172-0.248-0.172-0.404
	c0-0.156,0.063-0.291,0.172-0.405l4.033-4.032c0.112-0.115,0.246-0.172,0.403-0.172s0.293,0.057,0.406,0.172
	c0.114,0.112,0.171,0.248,0.171,0.403v8.067c0,0.156-0.057,0.291-0.171,0.404C255.091,47.383,254.955,47.439,254.798,47.439z"/>
<path fill="#B0B0B0" d="M254.797,24.719c-0.156,0-0.292-0.057-0.402-0.171l-4.035-4.032c-0.109-0.115-0.172-0.25-0.172-0.406
	c0-0.156,0.063-0.291,0.172-0.404l4.035-4.034c0.11-0.112,0.246-0.17,0.402-0.17c0.157,0,0.293,0.058,0.405,0.17
	c0.116,0.114,0.171,0.249,0.171,0.405v8.066c0,0.157-0.057,0.293-0.171,0.405C255.091,24.662,254.954,24.719,254.797,24.719z"/>
<path fill="#B0B0B0" d="M271.465,15.5c0.157,0,0.292,0.057,0.403,0.171l4.034,4.033c0.115,0.114,0.172,0.249,0.172,0.405
	c0,0.156-0.057,0.291-0.172,0.404l-4.034,4.034c-0.112,0.114-0.246,0.171-0.403,0.171c-0.156,0-0.293-0.057-0.404-0.171
	c-0.115-0.114-0.172-0.248-0.172-0.405v-8.066c0-0.157,0.057-0.292,0.172-0.405C271.172,15.557,271.309,15.5,271.465,15.5z"/>
<path fill="#FFFFFF" d="M271.465,38.221c0.157,0,0.292,0.057,0.403,0.172l4.034,4.033c0.115,0.114,0.172,0.249,0.172,0.405
	c0,0.155-0.057,0.291-0.172,0.405l-4.034,4.033c-0.112,0.114-0.246,0.172-0.403,0.172c-0.156,0-0.293-0.059-0.404-0.172
	c-0.115-0.113-0.172-0.248-0.172-0.404v-8.067c0-0.157,0.057-0.292,0.172-0.403C271.172,38.277,271.309,38.221,271.465,38.221z"/>
<path d="M271.807,59.094c0.157,0,0.293,0.059,0.404,0.172l4.035,4.033c0.115,0.114,0.172,0.249,0.172,0.405
	c0,0.157-0.057,0.291-0.172,0.405l-4.034,4.033c-0.11,0.113-0.247,0.17-0.403,0.17s-0.293-0.058-0.404-0.17
	c-0.109-0.113-0.172-0.248-0.172-0.404v-8.067c0-0.157,0.063-0.292,0.172-0.405C271.516,59.15,271.65,59.094,271.807,59.094z"/>
<circle fill="none" stroke="#3E3E3F" stroke-width="2" stroke-miterlimit="10" cx="231.186" cy="101.617" r="6.935"/>
<circle fill="#3E3E3F" cx="231.186" cy="136.617" r="6.935"/>
<circle fill="none" stroke="#B0B0B0" stroke-width="2" stroke-miterlimit="10" cx="264.186" cy="101.617" r="6.935"/>
<circle fill="#B0B0B0" cx="264.186" cy="136.617" r="6.935"/>
<path fill="#3E3E3F" d="M210.462,732.261v-1.896c0-0.277-0.09-0.515-0.269-0.688c-0.178-0.18-0.406-0.268-0.688-0.268h-2.854V715.13
	c0-0.278-0.088-0.507-0.271-0.686c-0.179-0.188-0.403-0.271-0.685-0.271h-9.521c-0.275,0-0.506,0.09-0.685,0.271
	c-0.181,0.179-0.271,0.398-0.271,0.686v1.903c0,0.271,0.091,0.506,0.271,0.684c0.179,0.185,0.405,0.271,0.685,0.271h2.855v11.425
	h-2.855c-0.275,0-0.506,0.088-0.685,0.268c-0.181,0.185-0.271,0.406-0.271,0.688v1.896c0,0.277,0.091,0.513,0.271,0.688
	c0.179,0.18,0.405,0.268,0.685,0.268h13.328c0.277,0,0.507-0.088,0.688-0.268C210.373,732.767,210.462,732.539,210.462,732.261z
	 M206.654,709.414v-5.71c0-0.278-0.09-0.508-0.271-0.688c-0.181-0.178-0.404-0.268-0.686-0.268h-5.713
	c-0.275,0-0.508,0.09-0.688,0.268c-0.179,0.187-0.269,0.407-0.269,0.688v5.71c0,0.278,0.09,0.507,0.269,0.686
	c0.181,0.188,0.407,0.271,0.688,0.271h5.713c0.271,0,0.505-0.09,0.686-0.271C206.564,709.921,206.654,709.692,206.654,709.414z
	 M225.693,717.981c0,4.145-1.021,7.969-3.064,11.469s-4.814,6.271-8.314,8.313c-3.5,2.043-7.315,3.064-11.467,3.064
	c-4.146,0-7.968-1.021-11.469-3.064c-3.5-2.042-6.271-4.813-8.314-8.313S180,722.125,180,717.981c0-4.146,1.021-7.976,3.064-11.476
	c2.043-3.501,4.813-6.271,8.313-8.313s7.323-3.063,11.469-3.063c4.146,0,7.969,1.021,11.469,3.063s6.271,4.813,8.313,8.313
	S225.693,713.837,225.693,717.981z"/>
<circle fill="none" stroke="#FFFFFF" stroke-width="2" stroke-miterlimit="10" cx="297.186" cy="101.617" r="6.935"/>
<circle fill="#FFFFFF" cx="297.186" cy="136.617" r="6.935"/>
<path fill="#3E3E3F" d="M222.887,654.08c0,1.813-1.467,3.273-3.281,3.273h-32.816c-1.813,0-3.281-1.465-3.281-3.273
	c0-6.566,6.344-12.688,12.826-15.111c-3.742-2.314-6.266-6.424-6.266-11.146v-3.271c0-7.264,5.873-13.141,13.127-13.141
	c7.25,0,13.131,5.877,13.131,13.141v3.271c0,4.729-2.521,8.828-6.266,11.146C216.543,641.395,222.887,647.514,222.887,654.08z"/>
<path fill="#3E3E3F" d="M262.809,452.588c0,6.453-5.23,11.684-11.683,11.684c-6.454,0-11.685-5.23-11.685-11.684
	c0-6.452,5.23-11.683,11.685-11.683C257.578,440.905,262.809,446.136,262.809,452.588z M257.561,455.943
	c-0.109-0.116-0.238-0.174-0.388-0.174h-12.097c-0.148,0-0.277,0.059-0.386,0.174c-0.108,0.118-0.163,0.254-0.163,0.415v1.179
	c0,0.153,0.056,0.297,0.163,0.406c0.108,0.117,0.237,0.175,0.386,0.175h12.097c0.149,0,0.278-0.058,0.388-0.175
	c0.109-0.109,0.163-0.247,0.163-0.406v-1.179C257.724,456.199,257.67,456.061,257.561,455.943z M257.561,451.402
	c-0.109-0.115-0.238-0.175-0.388-0.175h-12.097c-0.148,0-0.277,0.06-0.386,0.175c-0.108,0.112-0.163,0.25-0.163,0.409v1.178
	c0,0.158,0.056,0.298,0.163,0.415c0.108,0.116,0.237,0.175,0.386,0.175h12.097c0.149,0,0.278-0.059,0.388-0.175
	c0.109-0.117,0.163-0.256,0.163-0.415v-1.178C257.724,451.651,257.67,451.514,257.561,451.402z M257.561,447.232
	c-0.109-0.117-0.238-0.175-0.388-0.175h-12.097c-0.148,0-0.277,0.058-0.386,0.175c-0.108,0.116-0.163,0.249-0.163,0.413v1.177
	c0,0.163,0.056,0.298,0.163,0.415c0.108,0.116,0.237,0.173,0.386,0.173h12.097c0.149,0,0.278-0.057,0.388-0.173
	c0.109-0.117,0.163-0.251,0.163-0.415v-1.177C257.724,447.485,257.67,447.348,257.561,447.232z"/>
<path fill="#FFFFFF" d="M311.092,452.588c0,6.454-5.23,11.684-11.683,11.684c-6.453,0-11.685-5.23-11.685-11.684
	c0-6.452,5.231-11.683,11.685-11.683C305.861,440.905,311.092,446.136,311.092,452.588z M305.845,455.943
	c-0.11-0.116-0.238-0.174-0.388-0.174H293.36c-0.149,0-0.278,0.058-0.386,0.174c-0.109,0.118-0.164,0.255-0.164,0.416v1.179
	c0,0.153,0.056,0.297,0.164,0.406c0.107,0.117,0.236,0.175,0.386,0.175h12.097c0.149,0,0.277-0.058,0.388-0.175
	c0.108-0.109,0.162-0.247,0.162-0.406v-1.179C306.007,456.2,305.953,456.061,305.845,455.943z M305.845,451.402
	c-0.11-0.116-0.238-0.176-0.388-0.176H293.36c-0.149,0-0.278,0.06-0.386,0.176c-0.109,0.112-0.164,0.249-0.164,0.408v1.179
	c0,0.158,0.056,0.298,0.164,0.414c0.107,0.117,0.236,0.176,0.386,0.176h12.097c0.149,0,0.277-0.059,0.388-0.176
	c0.108-0.116,0.162-0.255,0.162-0.414v-1.179C306.007,451.651,305.953,451.514,305.845,451.402z M305.845,447.232
	c-0.11-0.118-0.238-0.175-0.388-0.175H293.36c-0.149,0-0.278,0.057-0.386,0.175c-0.109,0.116-0.164,0.249-0.164,0.413v1.176
	c0,0.163,0.056,0.298,0.164,0.416c0.107,0.116,0.236,0.173,0.386,0.173h12.097c0.149,0,0.277-0.058,0.388-0.173
	c0.108-0.118,0.162-0.25,0.162-0.416v-1.176C306.007,447.485,305.953,447.348,305.845,447.232z"/>
<path fill="#3E3E3F" d="M262.379,412.698c0,6.453-5.23,11.684-11.684,11.684s-11.684-5.23-11.684-11.684
	c0-6.452,5.23-11.683,11.684-11.683S262.379,406.246,262.379,412.698z M256.687,412.243h1.86l-7.852-6.643l-7.851,6.643h1.786v7.553
	h4.223l0.006-4.862h3.79v4.862h4.037V412.243z"/>
<polygon fill="#3E3E3F" points="309.599,421.558 303.808,421.558 303.808,414.583 298.37,414.583 298.362,421.558 292.304,421.558 
	292.304,410.722 289.741,410.722 301.005,401.192 312.268,410.722 309.599,410.722 "/>
<path fill="#FFFFFF" d="M262.379,367.125c0,6.453-5.23,11.684-11.684,11.684s-11.684-5.23-11.684-11.684
	c0-6.452,5.23-11.683,11.684-11.683S262.379,360.672,262.379,367.125z M256.687,366.669h1.86l-7.852-6.642l-7.851,6.642h1.786v7.553
	h4.223l0.006-4.862h3.79v4.862h4.037V366.669z"/>
<polygon fill="#FFFFFF" points="309.599,377.146 303.808,377.146 303.808,370.171 298.37,370.171 298.362,377.146 292.304,377.146 
	292.304,366.311 289.741,366.311 301.005,356.781 312.268,366.311 309.599,366.311 "/>
<path fill="#3E3E3F" d="M262.379,490.318c0,6.453-5.23,11.684-11.683,11.684c-6.454,0-11.685-5.23-11.685-11.684
	c0-6.451,5.23-11.683,11.685-11.683C257.148,478.636,262.379,483.867,262.379,490.318z M257.131,489.133
	c-0.109-0.115-0.238-0.176-0.388-0.176h-12.097c-0.148,0-0.277,0.061-0.386,0.176c-0.108,0.111-0.163,0.249-0.163,0.408v1.178
	c0,0.158,0.056,0.299,0.163,0.415c0.108,0.116,0.237,0.175,0.386,0.175h12.097c0.149,0,0.278-0.059,0.388-0.175
	s0.163-0.257,0.163-0.415v-1.178C257.294,489.382,257.24,489.244,257.131,489.133z"/>
<path fill="#FFFFFF" d="M310.662,490.318c0,6.453-5.23,11.684-11.683,11.684c-6.453,0-11.685-5.23-11.685-11.684
	c0-6.452,5.231-11.683,11.685-11.683C305.432,478.636,310.662,483.866,310.662,490.318z M305.415,489.133
	c-0.11-0.116-0.238-0.176-0.388-0.176h-12.097c-0.149,0-0.278,0.06-0.386,0.176c-0.109,0.111-0.164,0.248-0.164,0.408v1.179
	c0,0.158,0.056,0.298,0.164,0.413c0.107,0.117,0.236,0.177,0.386,0.177h12.097c0.149,0,0.277-0.06,0.388-0.177
	c0.108-0.115,0.162-0.255,0.162-0.413v-1.179C305.577,489.381,305.523,489.244,305.415,489.133z"/>
</svg>
