<?xml version="1.0" encoding="utf-8"?>
<!-- Generator: Adobe Illustrator 15.0.2, SVG Export Plug-In . SVG Version: 6.00 Build 0)  -->
<!DOCTYPE svg PUBLIC "-//W3C//DTD SVG 1.1//EN" "http://www.w3.org/Graphics/SVG/1.1/DTD/svg11.dtd">
<svg version="1.1" id="Lager_1" xmlns="http://www.w3.org/2000/svg" xmlns:xlink="http://www.w3.org/1999/xlink" x="0px" y="0px"
	 width="1100px" height="600px" viewBox="0.188 0 1100 600" enable-background="new 0.188 0 1100 600" xml:space="preserve">
<path fill="#3E3E3F" d="M13.983,566.08c0,0.261-0.092,0.479-0.275,0.664l-1.329,1.33c-0.183,0.182-0.403,0.271-0.665,0.271
	c-0.262,0-0.482-0.093-0.664-0.271l-2.875-2.877L5.3,568.074c-0.182,0.182-0.403,0.271-0.664,0.271
	c-0.261,0-0.482-0.093-0.664-0.271l-1.329-1.33c-0.182-0.186-0.274-0.403-0.274-0.664c0-0.262,0.092-0.482,0.274-0.666l2.874-2.872
	l-2.874-2.874c-0.182-0.184-0.274-0.403-0.274-0.664c0-0.262,0.092-0.481,0.274-0.663l1.329-1.332
	c0.182-0.184,0.403-0.271,0.664-0.271c0.261,0,0.482,0.092,0.664,0.271l2.875,2.874l2.875-2.874
	c0.181-0.184,0.402-0.271,0.664-0.271c0.262,0,0.482,0.092,0.665,0.271l1.329,1.332c0.183,0.182,0.275,0.401,0.275,0.663
	c0,0.261-0.092,0.48-0.275,0.664l-2.873,2.874l2.873,2.872C13.89,565.596,13.983,565.818,13.983,566.08z"/>
<path d="M1.701,437.622c0-0.156,0.058-0.292,0.171-0.402l4.033-4.034c0.114-0.114,0.249-0.172,0.405-0.172
	c0.156,0,0.291,0.058,0.405,0.172l4.034,4.034c0.114,0.11,0.171,0.246,0.171,0.402c0,0.157-0.058,0.293-0.171,0.405
	c-0.114,0.114-0.248,0.172-0.405,0.172H2.277c-0.157,0-0.292-0.058-0.405-0.172C1.758,437.916,1.701,437.779,1.701,437.622z"/>
<path fill="#FFFFFF" d="M32.574,437.496c0-0.156,0.058-0.292,0.172-0.402l4.033-4.034c0.114-0.114,0.249-0.171,0.405-0.171
	c0.156,0,0.291,0.058,0.405,0.171l4.033,4.034c0.114,0.111,0.171,0.246,0.171,0.402c0,0.157-0.057,0.293-0.171,0.406
	c-0.113,0.113-0.248,0.171-0.404,0.171h-8.067c-0.157,0-0.292-0.058-0.405-0.171C32.631,437.789,32.574,437.653,32.574,437.496z"/>
<path fill="#B0B0B0" d="M65.295,437.495c0-0.156,0.057-0.292,0.171-0.402l4.033-4.035c0.114-0.114,0.249-0.171,0.406-0.171
	c0.156,0,0.291,0.058,0.404,0.171l4.034,4.035c0.113,0.11,0.17,0.246,0.17,0.402c0,0.157-0.057,0.293-0.17,0.405
	c-0.114,0.114-0.249,0.171-0.405,0.171h-8.067c-0.157,0-0.292-0.058-0.405-0.171C65.352,437.789,65.295,437.652,65.295,437.495z"/>
<path fill="#B0B0B0" d="M74.514,454.163c0,0.157-0.057,0.292-0.171,0.403L70.31,458.6c-0.114,0.116-0.249,0.174-0.405,0.174
	c-0.156,0-0.291-0.058-0.405-0.174l-4.034-4.032c-0.114-0.112-0.171-0.246-0.171-0.403c0-0.156,0.057-0.293,0.171-0.404
	c0.114-0.116,0.248-0.171,0.405-0.171h8.067c0.157,0,0.292,0.056,0.405,0.171C74.457,453.87,74.514,454.007,74.514,454.163z"/>
<path fill="#FFFFFF" d="M41.793,454.163c0,0.157-0.057,0.292-0.172,0.403l-4.033,4.032c-0.114,0.116-0.249,0.174-0.405,0.174
	c-0.156,0-0.291-0.058-0.405-0.174l-4.034-4.032c-0.114-0.112-0.171-0.246-0.171-0.403c0-0.156,0.058-0.293,0.171-0.404
	c0.114-0.116,0.248-0.171,0.405-0.171h8.067c0.157,0,0.292,0.056,0.404,0.171C41.736,453.87,41.793,454.007,41.793,454.163z"/>
<path d="M10.92,454.506c0,0.156-0.058,0.293-0.172,0.403l-4.033,4.035c-0.114,0.114-0.249,0.172-0.405,0.172
	c-0.157,0-0.291-0.058-0.405-0.172l-4.033-4.034c-0.114-0.11-0.171-0.247-0.171-0.403s0.058-0.292,0.171-0.403
	c0.113-0.115,0.248-0.173,0.404-0.173h8.067c0.157,0,0.292,0.058,0.405,0.173C10.863,454.214,10.92,454.349,10.92,454.506z"/>
<path fill="#FFFFFF" d="M50.592,566.08c0,0.261-0.092,0.479-0.275,0.664l-1.329,1.33c-0.183,0.182-0.403,0.271-0.665,0.271
	c-0.262,0-0.482-0.093-0.664-0.271l-2.875-2.877l-2.875,2.877c-0.182,0.182-0.403,0.271-0.664,0.271
	c-0.261,0-0.482-0.093-0.664-0.271l-1.33-1.33c-0.182-0.186-0.274-0.403-0.274-0.664c0-0.262,0.092-0.482,0.274-0.666l2.874-2.871
	l-2.874-2.875c-0.182-0.184-0.274-0.403-0.274-0.664c0-0.262,0.092-0.479,0.274-0.663l1.33-1.332
	c0.182-0.184,0.403-0.271,0.664-0.271c0.261,0,0.482,0.092,0.664,0.271l2.875,2.874l2.875-2.874
	c0.181-0.184,0.402-0.271,0.664-0.271c0.262,0,0.482,0.092,0.665,0.271l1.329,1.332c0.183,0.184,0.275,0.401,0.275,0.663
	c0,0.261-0.092,0.48-0.275,0.664l-2.873,2.875l2.873,2.871C50.5,565.596,50.592,565.818,50.592,566.08z"/>
<path fill="#B0B0B0" d="M95.174,566.08c0,0.261-0.092,0.479-0.275,0.664l-1.328,1.33c-0.183,0.182-0.404,0.271-0.666,0.271
	c-0.262,0-0.481-0.093-0.664-0.271l-2.875-2.877l-2.875,2.877c-0.182,0.182-0.403,0.271-0.664,0.271
	c-0.261,0-0.482-0.093-0.665-0.271l-1.329-1.33c-0.181-0.186-0.273-0.403-0.273-0.664c0-0.262,0.092-0.482,0.273-0.666l2.874-2.871
	l-2.874-2.875c-0.181-0.184-0.273-0.403-0.273-0.664c0-0.262,0.092-0.479,0.273-0.663l1.329-1.332
	c0.183-0.184,0.404-0.271,0.665-0.271c0.261,0,0.482,0.092,0.664,0.271l2.875,2.874l2.875-2.874
	c0.182-0.184,0.402-0.271,0.664-0.271c0.262,0,0.482,0.092,0.666,0.271l1.328,1.332c0.183,0.184,0.275,0.401,0.275,0.663
	c0,0.261-0.092,0.48-0.275,0.664l-2.872,2.875l2.872,2.871C95.082,565.596,95.174,565.818,95.174,566.08z"/>
<path d="M11.874,498.066c-0.269,0-0.499-0.101-0.69-0.295l-6.925-6.926c-0.2-0.195-0.296-0.427-0.296-0.693
	c0-0.271,0.096-0.498,0.296-0.693l6.925-6.926c0.191-0.193,0.421-0.293,0.69-0.293c0.27,0,0.505,0.1,0.697,0.293
	c0.197,0.193,0.293,0.429,0.293,0.693v13.851c0,0.271-0.096,0.5-0.293,0.694C12.379,497.969,12.143,498.066,11.874,498.066z"/>
<path fill="#FFFFFF" d="M44.947,496.025c-0.269,0-0.499-0.102-0.69-0.299l-6.925-6.922c-0.2-0.195-0.296-0.429-0.296-0.695
	c0-0.271,0.096-0.498,0.296-0.693l6.925-6.926c0.191-0.192,0.421-0.292,0.69-0.292c0.269,0,0.505,0.1,0.697,0.292
	c0.197,0.196,0.293,0.43,0.293,0.693v13.852c0,0.271-0.096,0.499-0.293,0.692C45.452,495.927,45.216,496.025,44.947,496.025z"/>
<path fill="#B0B0B0" d="M81.636,496.025c-0.269,0-0.5-0.102-0.691-0.299l-6.925-6.922c-0.2-0.195-0.296-0.429-0.296-0.695
	c0-0.271,0.096-0.498,0.296-0.693l6.925-6.926c0.191-0.192,0.422-0.292,0.691-0.292c0.269,0,0.505,0.1,0.697,0.292
	c0.197,0.196,0.293,0.43,0.293,0.693v13.852c0,0.271-0.096,0.499-0.293,0.692C82.141,495.927,81.905,496.025,81.636,496.025z"/>
<path fill="#3E3E3F" d="M63.99,83c0.269,0,0.5,0.1,0.69,0.296l6.925,6.922c0.2,0.197,0.297,0.429,0.297,0.697
	c0,0.27-0.097,0.497-0.297,0.693l-6.925,6.925c-0.19,0.194-0.422,0.293-0.69,0.293c-0.27,0-0.506-0.099-0.697-0.293
	C63.096,98.338,63,98.104,63,97.838V83.989c0-0.269,0.096-0.499,0.293-0.693C63.484,83.098,63.721,83,63.99,83z"/>
<path fill="#FFFFFF" d="M50.636,518.658c0.271,0,0.5,0.101,0.691,0.297l6.925,6.923c0.2,0.195,0.296,0.428,0.296,0.695
	c0,0.269-0.096,0.497-0.296,0.691l-6.925,6.927c-0.191,0.191-0.422,0.293-0.691,0.293c-0.269,0-0.504-0.102-0.697-0.293
	c-0.196-0.195-0.293-0.43-0.293-0.695v-13.85c0-0.27,0.097-0.498,0.293-0.691C50.13,518.757,50.368,518.658,50.636,518.658z"/>
<path fill="#B0B0B0" d="M81.066,518.658c0.269,0,0.5,0.101,0.691,0.297l6.924,6.923c0.201,0.195,0.297,0.428,0.297,0.695
	c0,0.269-0.096,0.497-0.297,0.691l-6.924,6.927c-0.191,0.191-0.423,0.293-0.691,0.293c-0.27,0-0.506-0.102-0.697-0.293
	c-0.197-0.195-0.293-0.43-0.293-0.695v-13.85c0-0.27,0.096-0.498,0.293-0.691C80.56,518.757,80.796,518.658,81.066,518.658z"/>
<path fill="#3E3E3F" d="M134.556,486.243c0,0.284-0.103,0.528-0.304,0.729l-1.465,1.47c-0.203,0.197-0.444,0.301-0.733,0.301
	c-0.289,0-0.531-0.104-0.73-0.301l-3.17-3.174l-3.169,3.174c-0.2,0.197-0.445,0.301-0.732,0.301c-0.286,0-0.53-0.104-0.731-0.301
	l-1.467-1.47c-0.199-0.198-0.302-0.442-0.302-0.729c0-0.289,0.103-0.533,0.302-0.734l3.17-3.166l-3.17-3.171
	c-0.199-0.201-0.302-0.445-0.302-0.731c0-0.287,0.103-0.53,0.302-0.729l1.467-1.471c0.201-0.199,0.445-0.302,0.731-0.302
	c0.287,0,0.532,0.103,0.732,0.302l3.169,3.171l3.17-3.171c0.199-0.199,0.441-0.302,0.73-0.302c0.289,0,0.53,0.103,0.733,0.302
	l1.465,1.471c0.201,0.199,0.304,0.442,0.304,0.729c0,0.286-0.103,0.53-0.304,0.731l-3.168,3.171l3.168,3.166
	C134.453,485.71,134.556,485.954,134.556,486.243z M128.153,470.256c-6.495,0-11.761,5.267-11.761,11.761
	c0,6.492,5.266,11.762,11.761,11.762c6.492,0,11.758-5.27,11.758-11.762C139.91,475.52,134.646,470.256,128.153,470.256z"/>
<path fill="#FFFFFF" d="M223.604,526.255v1.647c0,0.224-0.074,0.416-0.229,0.566c-0.15,0.165-0.332,0.245-0.541,0.245h-16.912
	c-0.207,0-0.389-0.08-0.538-0.245c-0.151-0.15-0.229-0.354-0.229-0.566v-1.647c0-0.225,0.076-0.415,0.229-0.58
	c0.149-0.162,0.331-0.244,0.538-0.244h16.912c0.209,0,0.391,0.082,0.541,0.244C223.527,525.84,223.604,526.031,223.604,526.255z
	 M223.604,519.896v1.646c0,0.222-0.074,0.416-0.229,0.579c-0.15,0.163-0.332,0.245-0.541,0.245h-16.912
	c-0.207,0-0.389-0.082-0.538-0.245c-0.151-0.163-0.229-0.357-0.229-0.579v-1.646c0-0.225,0.076-0.415,0.229-0.571
	c0.149-0.161,0.331-0.245,0.538-0.245h16.912c0.209,0,0.391,0.084,0.541,0.245C223.527,519.481,223.604,519.675,223.604,519.896z
	 M223.604,514.073v1.646c0,0.229-0.074,0.416-0.229,0.58c-0.15,0.162-0.332,0.241-0.541,0.241h-16.912
	c-0.207,0-0.389-0.079-0.538-0.241c-0.151-0.164-0.229-0.354-0.229-0.58v-1.646c0-0.229,0.076-0.416,0.229-0.577
	c0.149-0.164,0.331-0.244,0.538-0.244h16.912c0.209,0,0.391,0.08,0.541,0.244C223.527,513.657,223.604,513.85,223.604,514.073z"/>
<path fill="#3E3E3F" d="M173.907,481.25c0,0.195-0.064,0.363-0.207,0.504l-1.008,1.01c-0.139,0.14-0.307,0.207-0.504,0.207
	s-0.365-0.067-0.504-0.207l-2.18-2.182l-2.18,2.182c-0.143,0.14-0.311,0.207-0.504,0.207c-0.197,0-0.365-0.067-0.504-0.207
	l-1.012-1.01c-0.14-0.141-0.209-0.309-0.209-0.504c0-0.197,0.069-0.365,0.209-0.505l2.184-2.177l-2.184-2.184
	c-0.14-0.139-0.209-0.308-0.209-0.504c0-0.197,0.069-0.365,0.209-0.502l1.012-1.013c0.139-0.138,0.307-0.206,0.504-0.206
	c0.193,0,0.361,0.068,0.504,0.206l2.182,2.183l2.18-2.183c0.139-0.138,0.307-0.206,0.502-0.206c0.199,0,0.365,0.068,0.506,0.206
	l1.008,1.013c0.143,0.137,0.207,0.305,0.207,0.502c0,0.196-0.064,0.365-0.207,0.504l-2.182,2.184l2.182,2.177
	C173.837,480.884,173.907,481.052,173.907,481.25z M169.503,470.257c-4.466,0-8.087,3.62-8.087,8.087
	c0,4.466,3.622,8.087,8.087,8.087s8.088-3.621,8.088-8.087S173.97,470.257,169.503,470.257z"/>
<path fill="#FFFFFF" d="M217.257,553.914c0-1.106-0.394-2.056-1.183-2.844c-0.787-0.786-1.733-1.188-2.85-1.188
	c-1.104,0-2.058,0.396-2.847,1.188c-0.788,0.788-1.188,1.729-1.188,2.844s0.396,2.056,1.188,2.844
	c0.789,0.787,1.729,1.188,2.847,1.188c1.112,0,2.063-0.396,2.85-1.188C216.865,555.969,217.257,555.021,217.257,553.914z
	 M221.854,561.386c0,0.313-0.109,0.581-0.34,0.813c-0.229,0.229-0.498,0.341-0.81,0.341c-0.323,0-0.595-0.112-0.813-0.341
	l-3.08-3.072c-1.064,0.742-2.269,1.114-3.584,1.114c-0.854,0-1.676-0.167-2.457-0.499c-0.773-0.332-1.449-0.781-2.021-1.354
	c-0.563-0.563-1.017-1.229-1.349-2.021c-0.332-0.781-0.498-1.604-0.498-2.456c0-0.854,0.166-1.675,0.498-2.456
	c0.332-0.78,0.773-1.455,1.349-2.021c0.563-0.563,1.237-1.021,2.021-1.354c0.781-0.333,1.604-0.499,2.457-0.499
	c0.854,0,1.684,0.166,2.457,0.499c0.781,0.332,1.455,0.781,2.021,1.354c0.563,0.563,1.021,1.23,1.354,2.021
	c0.334,0.79,0.498,1.604,0.498,2.456c0,1.315-0.371,2.512-1.104,3.584l3.071,3.08C221.744,560.8,221.854,561.069,221.854,561.386z"
	/>
<path fill="#3E3E3F" d="M133.55,448.699c0,0.272-0.099,0.507-0.291,0.7l-1.4,1.401c-0.193,0.189-0.426,0.288-0.701,0.288
	c-0.275,0-0.51-0.099-0.699-0.288l-3.031-3.032l-3.031,3.032c-0.192,0.189-0.426,0.288-0.701,0.288c-0.275,0-0.508-0.099-0.7-0.288
	l-1.401-1.401c-0.191-0.193-0.289-0.428-0.289-0.7c0-0.273,0.097-0.51,0.289-0.702l3.03-3.027l-3.03-3.029
	c-0.191-0.193-0.289-0.429-0.289-0.701c0-0.274,0.097-0.511,0.289-0.699l1.401-1.404c0.192-0.19,0.425-0.289,0.7-0.289
	c0.275,0,0.509,0.099,0.701,0.289l3.031,3.03l3.031-3.03c0.189-0.19,0.424-0.289,0.699-0.289c0.275,0,0.508,0.099,0.701,0.289
	l1.4,1.404c0.192,0.188,0.291,0.425,0.291,0.699c0,0.272-0.099,0.508-0.291,0.701l-3.029,3.029l3.029,3.027
	C133.451,448.19,133.55,448.426,133.55,448.699z"/>
<circle fill="none" stroke="#3E3E3F" stroke-width="2" stroke-miterlimit="10" cx="127.427" cy="444.968" r="11.714"/>
<path fill="#3E3E3F" d="M171.976,445.081c0,0.161-0.059,0.299-0.172,0.413l-0.83,0.832c-0.113,0.109-0.25,0.17-0.414,0.17
	s-0.303-0.059-0.416-0.17l-1.793-1.796l-1.795,1.796c-0.113,0.109-0.252,0.17-0.414,0.17c-0.164,0-0.301-0.059-0.416-0.17
	l-0.83-0.832c-0.113-0.114-0.17-0.252-0.17-0.413c0-0.162,0.059-0.303,0.17-0.417l1.795-1.792l-1.795-1.794
	c-0.113-0.114-0.17-0.254-0.17-0.416c0-0.161,0.059-0.301,0.17-0.412l0.83-0.834c0.115-0.112,0.252-0.172,0.416-0.172
	s0.301,0.06,0.414,0.172l1.795,1.796l1.793-1.796c0.113-0.112,0.252-0.172,0.416-0.172s0.301,0.06,0.414,0.172l0.832,0.834
	c0.113,0.111,0.17,0.251,0.17,0.412c0,0.162-0.057,0.302-0.17,0.416l-1.793,1.794l1.793,1.792
	C171.919,444.778,171.976,444.919,171.976,445.081z"/>
<circle fill="none" stroke="#3E3E3F" stroke-width="2" stroke-miterlimit="10" cx="168.351" cy="442.87" r="6.935"/>
<path d="M246.729,489.566c-0.154,0-0.293-0.061-0.399-0.17l-4.026-4.033c-0.115-0.114-0.181-0.25-0.181-0.404
	c0-0.156,0.063-0.291,0.181-0.405l4.026-4.031c0.106-0.115,0.246-0.174,0.399-0.174c0.156,0,0.293,0.061,0.404,0.174
	c0.117,0.111,0.172,0.246,0.172,0.402v8.065c0,0.158-0.055,0.293-0.172,0.406C247.021,489.51,246.887,489.566,246.729,489.566z"/>
<path fill="#FFFFFF" d="M246.604,468.692c-0.154,0-0.291-0.06-0.4-0.174l-4.033-4.031c-0.107-0.113-0.172-0.248-0.172-0.403
	c0-0.156,0.063-0.291,0.172-0.405l4.033-4.032c0.109-0.113,0.246-0.172,0.4-0.172c0.158,0,0.293,0.059,0.405,0.172
	c0.115,0.112,0.173,0.248,0.173,0.403v8.066c0,0.155-0.058,0.291-0.173,0.402C246.896,468.636,246.762,468.692,246.604,468.692z"/>
<path fill="#B0B0B0" d="M246.604,445.972c-0.154,0-0.293-0.058-0.4-0.171l-4.035-4.032c-0.107-0.113-0.172-0.25-0.172-0.404
	c0-0.156,0.063-0.291,0.172-0.404l4.035-4.033c0.107-0.11,0.246-0.17,0.4-0.17c0.155,0,0.293,0.06,0.403,0.17
	c0.117,0.113,0.173,0.249,0.173,0.404v8.066c0,0.155-0.058,0.293-0.173,0.403C246.896,445.915,246.759,445.972,246.604,445.972z"/>
<path fill="#B0B0B0" d="M263.271,436.754c0.154,0,0.291,0.057,0.399,0.171l4.035,4.032c0.112,0.114,0.172,0.249,0.172,0.405
	c0,0.154-0.06,0.291-0.172,0.402l-4.035,4.034c-0.108,0.113-0.245,0.171-0.399,0.171c-0.156,0-0.293-0.058-0.404-0.171
	c-0.115-0.114-0.172-0.248-0.172-0.405v-8.064c0-0.156,0.057-0.292,0.172-0.404C262.979,436.81,263.113,436.754,263.271,436.754z"/>
<path fill="#FFFFFF" d="M263.271,459.474c0.154,0,0.291,0.059,0.399,0.174l4.035,4.031c0.112,0.114,0.172,0.249,0.172,0.404
	s-0.06,0.291-0.172,0.405l-4.035,4.031c-0.108,0.114-0.245,0.174-0.399,0.174c-0.156,0-0.293-0.061-0.404-0.174
	c-0.115-0.111-0.172-0.246-0.172-0.402v-8.066c0-0.157,0.057-0.292,0.172-0.401C262.979,459.53,263.113,459.474,263.271,459.474z"/>
<path d="M263.611,480.347c0.156,0,0.293,0.062,0.404,0.173l4.033,4.032c0.115,0.113,0.174,0.249,0.174,0.404
	c0,0.156-0.059,0.291-0.174,0.404l-4.033,4.031c-0.109,0.113-0.246,0.171-0.402,0.171c-0.155,0-0.293-0.059-0.403-0.171
	c-0.108-0.111-0.172-0.248-0.172-0.402v-8.065c0-0.156,0.063-0.292,0.172-0.404C263.32,480.402,263.456,480.347,263.611,480.347z"/>
<circle fill="#3E3E3F" cx="39.5" cy="89.5" r="6.5"/>
<circle fill="none" stroke="#B0B0B0" stroke-width="2" stroke-miterlimit="10" cx="289.238" cy="441.272" r="6.935"/>
<circle fill="#B0B0B0" cx="289.238" cy="476.272" r="6.935"/>
<circle fill="none" stroke="#FFFFFF" stroke-width="2" stroke-miterlimit="10" cx="322.238" cy="441.272" r="6.935"/>
<circle fill="#FFFFFF" cx="322.238" cy="476.272" r="6.935"/>
<path fill="#3E3E3F" d="M105.367,13.683c0,6.453-5.23,11.684-11.683,11.684C87.23,25.366,82,20.136,82,13.683
	C82,7.231,87.23,2,93.685,2C100.137,2,105.367,7.231,105.367,13.683z M100.119,17.038c-0.109-0.116-0.238-0.174-0.388-0.174H87.635
	c-0.148,0-0.277,0.059-0.386,0.174c-0.108,0.118-0.163,0.254-0.163,0.415v1.179c0,0.153,0.056,0.298,0.163,0.406
	c0.108,0.117,0.237,0.175,0.386,0.175h12.097c0.149,0,0.278-0.058,0.388-0.175c0.109-0.108,0.163-0.247,0.163-0.406v-1.179
	C100.282,17.294,100.229,17.156,100.119,17.038z M100.119,12.497c-0.109-0.115-0.238-0.175-0.388-0.175H87.635
	c-0.148,0-0.277,0.06-0.386,0.175c-0.108,0.112-0.163,0.25-0.163,0.409v1.178c0,0.158,0.056,0.298,0.163,0.415
	c0.108,0.116,0.237,0.175,0.386,0.175h12.097c0.149,0,0.278-0.059,0.388-0.175c0.109-0.117,0.163-0.256,0.163-0.415v-1.178
	C100.282,12.746,100.229,12.608,100.119,12.497z M100.119,8.327c-0.109-0.117-0.238-0.175-0.388-0.175H87.635
	c-0.148,0-0.277,0.058-0.386,0.175c-0.108,0.116-0.163,0.249-0.163,0.413v1.177c0,0.163,0.056,0.298,0.163,0.415
	c0.108,0.116,0.237,0.173,0.386,0.173h12.097c0.149,0,0.278-0.057,0.388-0.173c0.109-0.117,0.163-0.251,0.163-0.415V8.74
	C100.282,8.58,100.229,8.443,100.119,8.327z"/>
<path fill="#FFFFFF" d="M105.367,53.683c0,6.454-5.23,11.684-11.683,11.684C87.231,65.366,82,60.136,82,53.683
	C82,47.23,87.231,42,93.685,42C100.137,42,105.367,47.23,105.367,53.683z M100.12,57.038c-0.11-0.116-0.238-0.174-0.388-0.174
	H87.636c-0.149,0-0.278,0.058-0.386,0.174c-0.109,0.118-0.164,0.255-0.164,0.416v1.179c0,0.153,0.056,0.298,0.164,0.406
	c0.107,0.117,0.236,0.175,0.386,0.175h12.097c0.149,0,0.277-0.058,0.388-0.175c0.108-0.108,0.162-0.247,0.162-0.406v-1.179
	C100.282,57.294,100.229,57.156,100.12,57.038z M100.12,52.497c-0.11-0.116-0.238-0.176-0.388-0.176H87.636
	c-0.149,0-0.278,0.06-0.386,0.176c-0.109,0.112-0.164,0.249-0.164,0.408v1.179c0,0.158,0.056,0.298,0.164,0.414
	c0.107,0.117,0.236,0.176,0.386,0.176h12.097c0.149,0,0.277-0.059,0.388-0.176c0.108-0.116,0.162-0.255,0.162-0.414v-1.179
	C100.282,52.746,100.229,52.609,100.12,52.497z M100.12,48.327c-0.11-0.118-0.238-0.175-0.388-0.175H87.636
	c-0.149,0-0.278,0.057-0.386,0.175c-0.109,0.116-0.164,0.249-0.164,0.413v1.176c0,0.163,0.056,0.298,0.164,0.416
	c0.107,0.116,0.236,0.173,0.386,0.173h12.097c0.149,0,0.277-0.058,0.388-0.173c0.108-0.118,0.162-0.25,0.162-0.416V48.74
	C100.282,48.58,100.229,48.443,100.12,48.327z"/>
<path fill="#3E3E3F" d="M25.367,13.683c0,6.453-5.23,11.684-11.684,11.684S2,20.136,2,13.683C2,7.23,7.23,2,13.684,2
	S25.367,7.23,25.367,13.683z M19.675,13.228h1.86l-7.852-6.644l-7.851,6.644h1.786v7.553h4.223l0.006-4.862h3.79v4.862h4.037
	L19.675,13.228L19.675,13.228z"/>
<polygon fill="#3E3E3F" points="61.857,22.365 56.066,22.365 56.066,15.39 50.629,15.39 50.621,22.365 44.563,22.365 44.563,11.529 
	42,11.529 53.264,2 64.526,11.529 61.857,11.529 "/>
<path fill="#FFFFFF" d="M25.367,53.683c0,6.453-5.23,11.684-11.684,11.684S2,60.136,2,53.683C2,47.23,7.23,42,13.684,42
	S25.367,47.23,25.367,53.683z M19.675,53.228h1.86l-7.852-6.643l-7.851,6.643h1.786v7.553h4.223l0.006-4.862h3.79v4.862h4.037
	L19.675,53.228L19.675,53.228z"/>
<polygon fill="#FFFFFF" points="61.857,62.365 56.066,62.365 56.066,55.39 50.629,55.39 50.621,62.365 44.563,62.365 44.563,51.529 
	42,51.529 53.264,42 64.526,51.529 61.857,51.529 "/>
<path fill="#3E3E3F" d="M145.367,13.683c0,6.453-5.23,11.684-11.683,11.684c-6.454,0-11.685-5.229-11.685-11.684
	C122,7.231,127.23,2,133.685,2C140.137,2,145.367,7.231,145.367,13.683z M140.119,12.497c-0.109-0.115-0.238-0.176-0.388-0.176
	h-12.097c-0.148,0-0.277,0.061-0.386,0.176c-0.108,0.111-0.163,0.249-0.163,0.408v1.178c0,0.158,0.056,0.299,0.163,0.415
	c0.108,0.116,0.237,0.175,0.386,0.175h12.097c0.149,0,0.278-0.059,0.388-0.175c0.11-0.116,0.163-0.257,0.163-0.415v-1.178
	C140.282,12.746,140.229,12.608,140.119,12.497z"/>
<path fill="#FFFFFF" d="M145.367,53.683c0,6.453-5.23,11.684-11.683,11.684s-11.685-5.229-11.685-11.684
	C122,47.23,127.231,42,133.685,42C140.137,42,145.367,47.23,145.367,53.683z M140.12,52.497c-0.11-0.116-0.238-0.176-0.388-0.176
	h-12.097c-0.149,0-0.278,0.06-0.386,0.176c-0.109,0.111-0.164,0.248-0.164,0.408v1.179c0,0.158,0.056,0.298,0.164,0.413
	c0.107,0.117,0.236,0.177,0.386,0.177h12.097c0.149,0,0.277-0.06,0.388-0.177c0.108-0.115,0.162-0.255,0.162-0.413v-1.179
	C140.282,52.745,140.229,52.608,140.12,52.497z"/>
<g>
	<path fill="#3E3E3F" d="M97,96c0,1.104-0.896,2-2,2l0,0c-1.104,0-2-0.896-2-2V85c0-1.104,0.896-2,2-2l0,0c1.104,0,2,0.896,2,2V96z"
		/>
	<path fill="#3E3E3F" d="M106,96c0,1.104-0.896,2-2,2l0,0c-1.104,0-2-0.896-2-2V85c0-1.104,0.896-2,2-2l0,0c1.104,0,2,0.896,2,2V96z
		"/>
</g>
<circle fill="#3E3E3F" cx="9.5" cy="89.5" r="4.5"/>
<g>
	<path fill="#3E3E3F" d="M1.609,173.258c0-10.237,18.5-32.466,18.5-32.466s18.5,22.229,18.5,32.466
		c0,10.236-8.283,18.534-18.5,18.534C9.893,191.792,1.609,183.494,1.609,173.258z"/>
	<g>
		<path fill="#FFFFFF" d="M13.269,170.073v-3.63h1.445v11.298h-1.445v-0.668c-0.548,0.546-1.209,0.818-1.985,0.818
			c-1.157,0-2.057-0.359-2.7-1.075c-0.644-0.717-0.966-1.769-0.966-3.152c0-1.233,0.324-2.24,0.974-3.02
			c0.649-0.779,1.587-1.17,2.815-1.17c0.345,0,0.713,0.062,1.107,0.183C12.908,169.778,13.158,169.916,13.269,170.073z
			 M13.269,175.99v-4.728c-0.092-0.137-0.285-0.266-0.579-0.389c-0.294-0.124-0.581-0.186-0.86-0.186
			c-1.795,0-2.693,1.011-2.693,3.031c0,1.024,0.213,1.776,0.639,2.25c0.425,0.474,1.108,0.711,2.047,0.711
			c0.202,0,0.452-0.07,0.745-0.212C12.863,176.327,13.097,176.168,13.269,175.99z"/>
		<path fill="#FFFFFF" d="M21.948,170.073v-3.63h1.445v11.298h-1.445v-0.668c-0.548,0.546-1.209,0.818-1.985,0.818
			c-1.157,0-2.056-0.359-2.7-1.075c-0.644-0.717-0.966-1.769-0.966-3.152c0-1.233,0.324-2.24,0.974-3.02
			c0.649-0.779,1.587-1.17,2.815-1.17c0.345,0,0.714,0.062,1.107,0.183C21.586,169.778,21.837,169.916,21.948,170.073z
			 M21.948,175.99v-4.728c-0.092-0.137-0.284-0.266-0.579-0.389c-0.294-0.124-0.581-0.186-0.859-0.186
			c-1.795,0-2.693,1.011-2.693,3.031c0,1.024,0.213,1.776,0.639,2.25c0.425,0.474,1.107,0.711,2.046,0.711
			c0.203,0,0.452-0.07,0.746-0.212C21.542,176.327,21.776,176.168,21.948,175.99z"/>
		<path fill="#FFFFFF" d="M33.381,180.726H31.86v-7.6c0-0.676-0.216-1.233-0.647-1.67c-0.431-0.438-1.001-0.656-1.712-0.656
			c-0.75,0-1.342,0.212-1.772,0.637c-0.43,0.423-0.646,0.999-0.646,1.727v7.562h-1.522v-7.721c0-1.121,0.351-1.997,1.054-2.625
			c0.703-0.628,1.659-0.943,2.871-0.943c1.248,0,2.209,0.309,2.883,0.924c0.674,0.615,1.011,1.5,1.011,2.652L33.381,180.726
			L33.381,180.726z"/>
	</g>
</g>
<path fill="#3E3E3F" d="M237.57,24.783c0,12.586-10.201,22.788-22.786,22.788C202.202,47.569,192,37.369,192,24.783
	C192,12.201,202.202,2,214.79,2C227.37,2,237.57,12.201,237.57,24.783z M227.337,31.327c-0.213-0.228-0.465-0.338-0.76-0.338
	h-23.588c-0.289,0-0.54,0.114-0.752,0.338c-0.212,0.23-0.318,0.495-0.318,0.809v2.298c0,0.3,0.111,0.583,0.318,0.793
	c0.212,0.227,0.463,0.341,0.752,0.341h23.592c0.29,0,0.543-0.114,0.756-0.341c0.212-0.21,0.318-0.482,0.318-0.793v-2.298
	C227.653,31.827,227.549,31.557,227.337,31.327z M227.337,22.472c-0.213-0.225-0.465-0.342-0.76-0.342h-23.588
	c-0.289,0-0.54,0.117-0.752,0.342c-0.212,0.218-0.318,0.486-0.318,0.796v2.297c0,0.31,0.111,0.58,0.318,0.81
	c0.212,0.227,0.463,0.34,0.752,0.34h23.592c0.29,0,0.543-0.115,0.756-0.34c0.212-0.229,0.318-0.499,0.318-0.81v-2.297
	C227.653,22.958,227.549,22.688,227.337,22.472z M227.337,14.339c-0.213-0.228-0.465-0.342-0.76-0.342h-23.588
	c-0.289,0-0.54,0.114-0.752,0.342c-0.212,0.226-0.318,0.485-0.318,0.805v2.296c0,0.317,0.111,0.58,0.318,0.809
	c0.212,0.226,0.463,0.337,0.752,0.337h23.592c0.29,0,0.543-0.111,0.756-0.337c0.212-0.229,0.318-0.49,0.318-0.809v-2.296
	C227.653,14.832,227.549,14.565,227.337,14.339z"/>
<path fill="#3E3E3F" d="M287.572,24.783c0,12.586-10.203,22.788-22.785,22.788C252.196,47.57,242,37.367,242,24.783
	C242.002,12.199,252.203,2,264.789,2S287.572,12.199,287.572,24.783z M266.528,43.106V26.187h5.676l0.851-6.594h-6.526v-4.208
	c0-1.91,0.526-3.21,3.266-3.21h3.489V6.274c-0.604-0.079-2.677-0.26-5.085-0.26c-5.035,0-8.481,3.072-8.481,8.716v4.863h-5.693
	v6.594h5.693v16.919H266.528L266.528,43.106z"/>
<g>
	<path fill="#3E3E3F" d="M337.571,24.783c0,12.586-10.201,22.788-22.785,22.788C302.198,47.57,292,37.367,292,24.783
		C292.001,12.199,302.203,2,314.789,2C327.376,2,337.571,12.199,337.571,24.783z"/>
	<g>
		<path fill="#FFFFFF" d="M296.666,22.828c0-0.894-0.02-1.596-0.071-2.299h1.369l0.087,1.405h0.034
			c0.422-0.791,1.403-1.579,2.809-1.579c1.175,0,3,0.701,3,3.614v5.054h-1.543v-4.896c0-1.368-0.509-2.509-1.967-2.509
			c-0.998,0-1.789,0.719-2.068,1.579c-0.071,0.193-0.106,0.456-0.106,0.72v5.104h-1.543V22.828z"/>
		<path fill="#FFFFFF" d="M307.266,25.056c0.035,2.088,1.352,2.947,2.913,2.947c1.104,0,1.789-0.193,2.351-0.438l0.28,1.106
			c-0.545,0.245-1.491,0.543-2.842,0.543c-2.614,0-4.175-1.737-4.175-4.298c0-2.561,1.508-4.561,3.981-4.561
			c2.789,0,3.508,2.421,3.508,3.982c0,0.315-0.019,0.545-0.052,0.719H307.266z M311.792,23.951c0.017-0.964-0.405-2.49-2.142-2.49
			c-1.578,0-2.246,1.421-2.369,2.49H311.792z"/>
		<path fill="#FFFFFF" d="M315.813,20.529l1.139,4.317c0.229,0.948,0.459,1.825,0.616,2.702h0.052
			c0.192-0.859,0.475-1.772,0.754-2.685l1.387-4.334h1.297l1.317,4.248c0.315,1.018,0.56,1.912,0.754,2.771h0.052
			c0.141-0.859,0.369-1.754,0.65-2.755l1.211-4.264h1.525l-2.736,8.491h-1.403l-1.299-4.053c-0.299-0.946-0.544-1.789-0.754-2.789
			h-0.034c-0.21,1.018-0.474,1.895-0.771,2.807l-1.37,4.035h-1.402l-2.563-8.491H315.813z"/>
		<path fill="#FFFFFF" d="M327.802,27.459c0.475,0.282,1.281,0.596,2.054,0.596c1.104,0,1.631-0.544,1.631-1.263
			c0-0.736-0.438-1.123-1.562-1.543c-1.544-0.561-2.264-1.385-2.264-2.404c0-1.369,1.123-2.491,2.929-2.491
			c0.861,0,1.616,0.229,2.071,0.527l-0.368,1.123c-0.333-0.21-0.946-0.507-1.736-0.507c-0.911,0-1.404,0.526-1.404,1.158
			c0,0.701,0.493,1.017,1.596,1.456c1.458,0.544,2.23,1.28,2.23,2.543c0,1.51-1.177,2.562-3.159,2.562
			c-0.931,0-1.791-0.246-2.386-0.597L327.802,27.459z"/>
	</g>
</g>
<g>
	<path fill="#FFFFFF" d="M237.57,74.784c0,12.584-10.201,22.787-22.786,22.787C202.202,97.569,192,87.369,192,74.784
		C192,62.203,202.202,52,214.79,52C227.37,52,237.57,62.203,237.57,74.784z"/>
	<path fill="#3E3E3F" d="M227.337,81.328c-0.213-0.227-0.465-0.339-0.76-0.339h-23.588c-0.289,0-0.54,0.114-0.752,0.339
		c-0.212,0.23-0.318,0.494-0.318,0.809v2.299c0,0.298,0.111,0.581,0.318,0.792c0.212,0.228,0.463,0.341,0.752,0.341h23.592
		c0.29,0,0.543-0.114,0.756-0.341c0.212-0.21,0.318-0.482,0.318-0.792v-2.299C227.653,81.827,227.549,81.559,227.337,81.328z"/>
	<path fill="#3E3E3F" d="M227.337,72.472c-0.213-0.225-0.465-0.342-0.76-0.342h-23.588c-0.289,0-0.54,0.118-0.752,0.342
		c-0.212,0.218-0.318,0.487-0.318,0.798v2.296c0,0.309,0.111,0.58,0.318,0.809c0.212,0.227,0.463,0.341,0.752,0.341h23.592
		c0.29,0,0.543-0.114,0.756-0.341c0.212-0.229,0.318-0.499,0.318-0.809v-2.296C227.653,72.958,227.549,72.689,227.337,72.472z"/>
	<path fill="#3E3E3F" d="M227.337,64.341c-0.213-0.23-0.465-0.342-0.76-0.342h-23.588c-0.289,0-0.54,0.113-0.752,0.342
		c-0.212,0.224-0.318,0.485-0.318,0.805v2.295c0,0.318,0.111,0.58,0.318,0.809c0.212,0.227,0.463,0.338,0.752,0.338h23.592
		c0.29,0,0.543-0.11,0.756-0.338c0.212-0.229,0.318-0.489,0.318-0.809v-2.295C227.653,64.833,227.549,64.565,227.337,64.341z"/>
</g>
<g>
	<path fill="#FFFFFF" d="M287.572,74.784c0,12.584-10.203,22.787-22.785,22.787C252.196,97.571,242,87.369,242,74.784
		C242.002,62.201,252.203,52,264.789,52S287.572,62.201,287.572,74.784z"/>
	<path fill="#3E3E3F" d="M265.271,91.332V74.413h5.677l0.85-6.593h-6.526V63.61c0-1.909,0.526-3.209,3.266-3.209l3.49-0.001v-5.898
		c-0.604-0.081-2.678-0.261-5.085-0.261c-5.036,0-8.482,3.072-8.482,8.715v4.864h-5.692v6.593h5.692v16.919H265.271L265.271,91.332z
		"/>
</g>
<g>
	<path fill="#FFFFFF" d="M337.571,74.784c0,12.584-10.201,22.787-22.785,22.787C302.198,97.571,292,87.369,292,74.784
		C292.001,62.201,302.203,52,314.789,52C327.376,52,337.571,62.201,337.571,74.784z"/>
	<g>
		<path fill="#3E3E3F" d="M296.665,72.656c0-0.896-0.019-1.597-0.07-2.298h1.368l0.086,1.403h0.036
			c0.42-0.79,1.403-1.578,2.806-1.578c1.177,0,3.002,0.702,3.002,3.614v5.053h-1.543v-4.896c0-1.369-0.51-2.509-1.967-2.509
			c-0.997,0-1.79,0.72-2.069,1.58c-0.07,0.193-0.105,0.456-0.105,0.718v5.106h-1.543V72.656z"/>
		<path fill="#3E3E3F" d="M307.265,74.884c0.033,2.087,1.35,2.947,2.912,2.947c1.105,0,1.789-0.193,2.351-0.438l0.28,1.105
			c-0.543,0.246-1.49,0.545-2.843,0.545c-2.614,0-4.174-1.737-4.174-4.298c0-2.562,1.51-4.561,3.981-4.561
			c2.791,0,3.51,2.421,3.51,3.982c0,0.315-0.02,0.544-0.054,0.719H307.265z M311.792,73.779c0.017-0.964-0.405-2.49-2.142-2.49
			c-1.578,0-2.246,1.42-2.369,2.49H311.792z"/>
		<path fill="#3E3E3F" d="M315.813,70.358l1.14,4.316c0.229,0.947,0.458,1.825,0.613,2.702h0.055
			c0.191-0.86,0.473-1.772,0.753-2.685l1.387-4.334h1.298l1.316,4.246c0.313,1.018,0.561,1.913,0.753,2.772h0.053
			c0.14-0.86,0.368-1.755,0.65-2.755l1.21-4.264h1.526l-2.736,8.491h-1.404l-1.298-4.053c-0.299-0.947-0.545-1.789-0.753-2.789
			h-0.037c-0.209,1.018-0.472,1.894-0.771,2.807l-1.37,4.036h-1.403l-2.562-8.491H315.813z"/>
		<path fill="#3E3E3F" d="M327.802,77.288c0.473,0.281,1.28,0.596,2.052,0.596c1.105,0,1.632-0.544,1.632-1.263
			c0-0.736-0.438-1.124-1.563-1.543c-1.545-0.563-2.264-1.387-2.264-2.404c0-1.369,1.124-2.491,2.93-2.491
			c0.861,0,1.615,0.228,2.07,0.527l-0.369,1.123c-0.332-0.211-0.944-0.508-1.735-0.508c-0.912,0-1.402,0.527-1.402,1.158
			c0,0.702,0.49,1.017,1.596,1.455c1.456,0.545,2.229,1.281,2.229,2.544c0,1.509-1.177,2.562-3.158,2.562
			c-0.931,0-1.791-0.246-2.388-0.597L327.802,77.288z"/>
	</g>
</g>
<g>
	<path fill="#FFFFFF" d="M298.878,135.439c0-12.945-10.494-23.439-23.438-23.439C262.493,112,252,122.494,252,135.439
		s10.493,23.439,23.439,23.439c1.7,0,3.358-0.186,4.955-0.529l1.16,5.434c9.625-4.605,16.543-14.141,17.263-25.546
		c0.049-0.777,0.057-1.546,0.049-2.311C298.869,135.763,298.878,135.603,298.878,135.439"/>
	<path fill="#3E3E3F" d="M278.687,150.048c0,0,0.393,8.449,0.397,8.543c0.03-0.004,0.061-0.009,0.092-0.014
		c0.188-0.029,0.373-0.063,0.558-0.096c0.228-0.043,0.464-0.09,0.661-0.132C280.364,158.213,278.687,150.048,278.687,150.048"/>
</g>
<g>
	<path fill="#3E3E3F" d="M586.086,241.973c0,0.7-0.455,1.296-1.338,1.792l-31.42,17.979c-0.885,0.52-1.936,0.768-3.145,0.768
		c-1.232,0-2.26-0.249-3.146-0.768l-31.42-17.979c-0.877-0.497-1.328-1.092-1.328-1.792c0-0.7,0.451-1.311,1.328-1.808
		c0.877-0.512,1.945-0.763,3.145-0.763h62.836c1.227,0,2.268,0.251,3.148,0.763C585.645,240.663,586.086,241.276,586.086,241.973z"
		/>
	<path fill="#FFFFFF" d="M586.09,235.602c0,0.697-0.461,1.293-1.357,1.79L553.33,255.37c-0.885,0.52-1.945,0.768-3.154,0.768
		c-1.232,0-2.258-0.249-3.145-0.768l-31.422-17.979c-0.871-0.497-1.324-1.093-1.324-1.79c0-0.7,0.453-1.313,1.324-1.81
		c0.893-0.512,1.951-0.761,3.146-0.761h62.842c1.227,0,2.264,0.249,3.141,0.761C585.643,234.288,586.09,234.902,586.09,235.602z"/>
	<path fill="#3E3E3F" d="M586.086,224.7c0,0.7-0.455,1.296-1.338,1.793l-31.42,17.979c-0.885,0.52-1.936,0.768-3.145,0.768
		c-1.232,0-2.26-0.248-3.146-0.768l-31.42-17.979c-0.877-0.497-1.328-1.093-1.328-1.793c0-0.7,0.451-1.311,1.328-1.808
		c0.877-0.512,1.945-0.763,3.145-0.763h62.836c1.227,0,2.268,0.251,3.148,0.763C585.645,223.389,586.086,224.002,586.086,224.7z"/>
	<path fill="#FFFFFF" d="M586.09,218.328c0,0.697-0.461,1.293-1.357,1.79l-31.402,17.979c-0.885,0.52-1.945,0.768-3.154,0.768
		c-1.232,0-2.258-0.249-3.145-0.768l-31.422-17.979c-0.871-0.497-1.324-1.093-1.324-1.79c0-0.7,0.453-1.313,1.324-1.81
		c0.893-0.512,1.951-0.761,3.146-0.761h62.842c1.227,0,2.264,0.249,3.141,0.761C585.643,217.015,586.09,217.628,586.09,218.328z"/>
</g>
<g>
	<path fill="#FFFFFF" d="M357.758,134.784c0,12.584-10.2,22.786-22.784,22.786c-12.583-0.003-22.786-10.202-22.786-22.786
		c0-12.582,10.203-22.784,22.791-22.784C347.559,112,357.758,122.202,357.758,134.784z"/>
	<path fill="#3E3E3F" d="M340.31,132.657c0-2.053-0.731-3.817-2.19-5.279c-1.464-1.459-3.219-2.206-5.283-2.206
		c-2.058,0-3.813,0.736-5.274,2.206c-1.465,1.462-2.192,3.209-2.192,5.279c0,2.07,0.729,3.816,2.192,5.276
		c1.461,1.461,3.216,2.206,5.274,2.206c2.063,0,3.824-0.735,5.283-2.206C339.582,136.47,340.31,134.712,340.31,132.657z
		 M348.842,146.527c0,0.581-0.204,1.077-0.631,1.509c-0.424,0.425-0.928,0.633-1.506,0.633c-0.603,0-1.106-0.208-1.507-0.633
		l-5.721-5.703c-1.981,1.378-4.209,2.068-6.647,2.068c-1.586,0-3.111-0.31-4.563-0.927c-1.448-0.615-2.7-1.449-3.75-2.513
		c-1.049-1.045-1.887-2.283-2.498-3.751c-0.609-1.45-0.918-2.972-0.918-4.559c0-1.586,0.309-3.109,0.925-4.56
		c0.616-1.451,1.445-2.701,2.498-3.752c1.052-1.05,2.302-1.895,3.75-2.514c1.451-0.617,2.979-0.926,4.562-0.926
		c1.584,0,3.112,0.309,4.558,0.926c1.45,0.617,2.7,1.45,3.752,2.514c1.047,1.045,1.886,2.283,2.502,3.752
		c0.62,1.45,0.929,2.977,0.929,4.56c0,2.443-0.688,4.659-2.063,6.652l5.715,5.717C348.641,145.437,348.842,145.938,348.842,146.527z
		"/>
</g>
<g>
	<path fill="#FFFFFF" d="M237.758,134.784c0,12.584-10.2,22.787-22.784,22.787c-12.583-0.003-22.786-10.203-22.786-22.787
		c0-12.582,10.203-22.784,22.791-22.784C227.559,112,237.758,122.202,237.758,134.784z"/>
	<g>
		<path fill="#3E3E3F" d="M217.928,148.386c0,1.212-0.461,2.253-1.377,3.123c-0.918,0.869-1.989,1.304-3.219,1.304
			c-1.244,0-2.324-0.435-3.242-1.304c-0.918-0.87-1.375-1.91-1.375-3.123c0-1.212,0.457-2.261,1.375-3.146
			c0.918-0.886,1.998-1.328,3.242-1.328c1.229,0,2.301,0.442,3.219,1.328C217.469,146.125,217.928,147.173,217.928,148.386z"/>
		<path fill="#3E3E3F" d="M222.426,125.641c-0.688,1.453-1.637,3.537-2.848,6.251c-1.213,2.714-2.474,5.772-3.781,9.173h-1.842
			c0.19-4.071,0.282-7.36,0.274-9.868c-0.008-2.506-0.013-4.319-0.013-5.438c0-0.942,0.017-1.684,0.049-2.227
			c0.031-0.543,0.109-1.102,0.238-1.677c0.334-1.453,1.045-2.546,2.129-3.281c1.084-0.734,2.25-1.102,3.494-1.102
			c1.084,0,1.98,0.328,2.69,0.982c0.709,0.655,1.063,1.469,1.063,2.443c0,0.511-0.106,1.138-0.322,1.88
			C223.347,123.521,222.967,124.475,222.426,125.641z"/>
	</g>
</g>
<path fill="#FFFFFF" d="M177.758,134.784c0,12.584-10.2,22.787-22.785,22.787c-12.583-0.002-22.785-10.202-22.785-22.787
	c0-12.581,10.202-22.784,22.79-22.784C167.558,112,177.758,122.203,177.758,134.784z M167.524,141.328
	c-0.213-0.227-0.465-0.339-0.76-0.339h-23.589c-0.288,0-0.539,0.114-0.752,0.339c-0.213,0.23-0.317,0.494-0.317,0.809v2.299
	c0,0.298,0.11,0.581,0.317,0.792c0.213,0.228,0.464,0.341,0.752,0.341h23.593c0.29,0,0.543-0.114,0.756-0.341
	c0.212-0.21,0.317-0.482,0.317-0.792v-2.299C167.84,141.827,167.736,141.559,167.524,141.328z M167.524,132.472
	c-0.213-0.225-0.465-0.342-0.76-0.342h-23.589c-0.288,0-0.539,0.118-0.752,0.342c-0.213,0.218-0.317,0.487-0.317,0.798v2.296
	c0,0.309,0.11,0.58,0.317,0.809c0.213,0.227,0.464,0.341,0.752,0.341h23.593c0.29,0,0.543-0.114,0.756-0.341
	c0.212-0.229,0.317-0.499,0.317-0.809v-2.296C167.84,132.958,167.736,132.688,167.524,132.472z M167.524,124.34
	c-0.213-0.23-0.465-0.342-0.76-0.342h-23.589c-0.288,0-0.539,0.113-0.752,0.342c-0.213,0.224-0.317,0.485-0.317,0.805v2.295
	c0,0.318,0.11,0.58,0.317,0.809c0.213,0.227,0.464,0.338,0.752,0.338h23.593c0.29,0,0.543-0.11,0.756-0.338
	c0.212-0.229,0.317-0.489,0.317-0.809v-2.295C167.84,124.833,167.736,124.564,167.524,124.34z"/>
<g>
	<path fill="#3E3E3F" d="M185.556,13.683c0,6.453-5.23,11.684-11.684,11.684s-11.685-5.229-11.685-11.684
		C162.188,7.231,167.419,2,173.874,2C180.325,2,185.556,7.231,185.556,13.683z"/>
	<path fill="#FFFFFF" d="M176.746,12.537c0-1.106-0.395-2.056-1.18-2.844c-0.789-0.786-1.734-1.188-2.846-1.188
		c-1.109,0-2.055,0.396-2.842,1.188c-0.789,0.788-1.183,1.729-1.183,2.844s0.394,2.056,1.183,2.843
		c0.787,0.787,1.731,1.188,2.842,1.188c1.111,0,2.059-0.396,2.846-1.188C176.354,14.591,176.746,13.644,176.746,12.537z
		 M181.344,20.009c0,0.313-0.111,0.581-0.34,0.813c-0.229,0.229-0.5,0.341-0.812,0.341c-0.323,0-0.596-0.112-0.812-0.341
		l-3.082-3.072c-1.067,0.742-2.268,1.114-3.582,1.114c-0.854,0-1.676-0.167-2.457-0.499c-0.78-0.332-1.454-0.781-2.021-1.354
		c-0.563-0.563-1.016-1.23-1.346-2.021c-0.329-0.781-0.495-1.601-0.495-2.456c0-0.854,0.166-1.675,0.498-2.456
		c0.332-0.781,0.779-1.455,1.346-2.021s1.24-1.021,2.021-1.354s1.604-0.499,2.457-0.499c0.853,0,1.676,0.166,2.455,0.499
		c0.781,0.332,1.455,0.781,2.021,1.354c0.563,0.563,1.017,1.23,1.349,2.021c0.334,0.781,0.5,1.604,0.5,2.456
		c0,1.317-0.371,2.511-1.113,3.584l3.08,3.08C181.234,19.422,181.344,19.692,181.344,20.009z"/>
</g>
<g>
	<path fill="#FFFFFF" d="M185.556,53.683c0,6.453-5.23,11.684-11.684,11.684s-11.685-5.229-11.685-11.684
		C162.188,47.231,167.419,42,173.874,42C180.325,42,185.556,47.231,185.556,53.683z"/>
	<path fill="#3E3E3F" d="M176.746,52.537c0-1.106-0.395-2.056-1.18-2.844c-0.789-0.786-1.734-1.188-2.846-1.188
		c-1.109,0-2.055,0.396-2.842,1.188c-0.789,0.788-1.183,1.729-1.183,2.844s0.394,2.056,1.183,2.843
		c0.787,0.787,1.731,1.188,2.842,1.188c1.111,0,2.059-0.396,2.846-1.188C176.354,54.591,176.746,53.644,176.746,52.537z
		 M181.344,60.009c0,0.313-0.111,0.581-0.34,0.813c-0.229,0.229-0.5,0.341-0.812,0.341c-0.323,0-0.596-0.112-0.812-0.341
		l-3.082-3.072c-1.067,0.742-2.268,1.114-3.582,1.114c-0.854,0-1.676-0.167-2.457-0.499c-0.78-0.332-1.454-0.781-2.021-1.354
		c-0.563-0.563-1.016-1.23-1.346-2.021c-0.329-0.781-0.495-1.601-0.495-2.456c0-0.854,0.166-1.675,0.498-2.456
		c0.332-0.781,0.779-1.455,1.346-2.021s1.24-1.021,2.021-1.354s1.604-0.499,2.457-0.499c0.853,0,1.676,0.166,2.455,0.499
		c0.781,0.332,1.455,0.781,2.021,1.354c0.563,0.563,1.017,1.23,1.349,2.021c0.334,0.781,0.5,1.604,0.5,2.456
		c0,1.317-0.371,2.511-1.113,3.584l3.08,3.08C181.234,59.422,181.344,59.692,181.344,60.009z"/>
</g>
</svg>
