<?xml version="1.0" encoding="utf-8"?>
<!-- Generator: Adobe Illustrator 15.0.2, SVG Export Plug-In . SVG Version: 6.00 Build 0)  -->
<!DOCTYPE svg PUBLIC "-//W3C//DTD SVG 1.1//EN" "http://www.w3.org/Graphics/SVG/1.1/DTD/svg11.dtd">
<svg version="1.1" id="Lager_1" xmlns="http://www.w3.org/2000/svg" xmlns:xlink="http://www.w3.org/1999/xlink" x="0px" y="0px"
	 width="1600px" height="160px" viewBox="0 0 1600 160" enable-background="new 0 0 1600 160" xml:space="preserve">
<g>
	<path fill="#EF7D00" d="M69.981,35.99C69.981,17.217,54.763,2,35.991,2C17.217,2,2,17.217,2,35.99
		c0,18.772,15.217,33.989,33.991,33.989c2.466,0,4.869-0.269,7.186-0.767l1.682,7.881c13.958-6.678,23.99-20.506,25.034-37.046
		c0.071-1.126,0.084-2.242,0.07-3.352C69.968,36.46,69.981,36.227,69.981,35.99"/>
	<path fill="#DADADA" d="M41.392,69.548c0.189-0.03,0.378-0.063,0.567-0.096c-0.183,0.032-0.366,0.063-0.549,0.093
		C41.404,69.546,41.398,69.547,41.392,69.548 M42.03,69.438c0.086-0.015,0.172-0.03,0.258-0.047
		c-0.023,0.005-0.047,0.009-0.07,0.014C42.156,69.416,42.093,69.428,42.03,69.438"/>
	<path fill="#CA6301" d="M41.278,69.564c-0.008-0.137-0.577-12.389-0.577-12.389s2.434,11.841,2.474,12.037
		c-0.265,0.058-0.579,0.12-0.886,0.179c-0.086,0.017-0.172,0.032-0.258,0.047c-0.024,0.005-0.048,0.009-0.071,0.014
		c-0.189,0.033-0.378,0.065-0.567,0.096C41.352,69.554,41.314,69.56,41.278,69.564"/>
	<path fill="#FFFFFF" d="M32.232,39.684c0-0.618-0.243-1.097-0.729-1.437c-0.486-0.339-1.231-0.509-2.233-0.509
		c-0.56,0-1.032,0.022-1.415,0.067v3.758c0.266,0.029,0.498,0.048,0.697,0.055c0.199,0.008,0.49,0.012,0.873,0.012
		c0.958,0,1.666-0.169,2.123-0.509C32.004,40.782,32.232,40.304,32.232,39.684L32.232,39.684z M31.967,33.361
		c0-0.486-0.203-0.902-0.608-1.249c-0.405-0.346-1.006-0.52-1.801-0.52c-0.339,0-0.642,0.015-0.907,0.044
		c-0.265,0.03-0.53,0.066-0.796,0.111v3.382c0.207,0.03,0.405,0.048,0.597,0.056c0.191,0.008,0.457,0.011,0.796,0.011
		c0.914,0,1.595-0.158,2.045-0.476C31.742,34.404,31.967,33.951,31.967,33.361L31.967,33.361z M36.3,40.082
		c0,0.634-0.151,1.238-0.453,1.813c-0.302,0.575-0.752,1.08-1.349,1.515c-0.597,0.436-1.349,0.781-2.255,1.039
		s-1.972,0.387-3.195,0.387c-0.708,0-1.492-0.029-2.354-0.088c-0.862-0.06-1.691-0.141-2.487-0.243V28.675
		c0.295-0.044,0.634-0.089,1.017-0.133c0.383-0.044,0.781-0.081,1.193-0.11s0.822-0.056,1.227-0.077
		c0.405-0.022,0.77-0.033,1.095-0.033c1.179,0,2.21,0.121,3.095,0.364s1.625,0.567,2.222,0.973c0.597,0.406,1.042,0.87,1.337,1.394
		c0.295,0.522,0.442,1.064,0.442,1.624c0,0.855-0.232,1.574-0.696,2.156s-1.161,1.064-2.089,1.447
		c1.105,0.34,1.923,0.826,2.454,1.459C36.035,38.373,36.3,39.153,36.3,40.082L36.3,40.082z"/>
	<polygon fill="#FFFFFF" points="42.424,31.925 42.424,35.506 47.995,35.506 47.995,38.8 42.424,38.8 42.424,44.681 38.666,44.681 
		38.666,28.476 48.923,28.476 48.923,31.925 42.424,31.925 	"/>
</g>
<g>
	<path fill="#FCCEA2" d="M69.981,115.99C69.981,97.217,54.763,82,35.991,82C17.217,82,2,97.217,2,115.99
		c0,18.772,15.217,33.989,33.991,33.989c2.466,0,4.869-0.269,7.186-0.767l1.682,7.881c13.958-6.678,23.99-20.506,25.034-37.046
		c0.071-1.126,0.084-2.242,0.07-3.352C69.968,116.46,69.981,116.227,69.981,115.99"/>
	<path fill="#DADADA" d="M41.392,149.548c0.189-0.03,0.378-0.063,0.567-0.096c-0.183,0.032-0.366,0.063-0.549,0.093
		C41.404,149.546,41.398,149.547,41.392,149.548 M42.03,149.438c0.086-0.015,0.172-0.03,0.258-0.047
		c-0.023,0.005-0.047,0.009-0.07,0.014C42.156,149.416,42.093,149.428,42.03,149.438"/>
	<path fill="#D5AB82" d="M41.278,149.564c-0.008-0.137-0.577-12.389-0.577-12.389s2.434,11.841,2.474,12.037
		c-0.265,0.058-0.579,0.12-0.886,0.179c-0.086,0.017-0.172,0.032-0.258,0.047c-0.024,0.005-0.048,0.009-0.071,0.014
		c-0.189,0.033-0.378,0.065-0.567,0.096C41.352,149.554,41.314,149.56,41.278,149.564"/>
	<path fill="#EF7D00" d="M42.47,114.729c-0.269,0.843-1.177,1.313-2.019,1.045l-10.494-3.338c-0.843-0.268-1.313-1.177-1.045-2.02
		l3.338-10.493c0.268-0.843,1.176-1.313,2.02-1.045l10.493,3.338c0.843,0.268,1.313,1.178,1.045,2.02L42.47,114.729L42.47,114.729z"
		/>
	<path fill="#FFFFFF" d="M42.571,108.983c-0.917,2.878-3.991,4.469-6.869,3.554c-2.877-0.915-4.469-3.991-3.554-6.869
		c0.916-2.877,3.991-4.469,6.869-3.553C41.896,103.03,43.487,106.105,42.571,108.983"/>
	<path fill="#EF7D00" d="M39.597,109.554c-0.081,0.251-0.216,0.471-0.408,0.66c-0.191,0.188-0.432,0.332-0.722,0.428
		c-0.291,0.097-0.631,0.14-1.021,0.127c-0.391-0.011-0.828-0.094-1.311-0.247c-0.279-0.089-0.586-0.199-0.919-0.332
		c-0.333-0.131-0.65-0.268-0.952-0.408l1.988-6.253c0.122,0.021,0.262,0.045,0.419,0.077c0.157,0.028,0.319,0.065,0.485,0.105
		s0.332,0.081,0.493,0.123c0.163,0.042,0.309,0.084,0.438,0.125c0.465,0.147,0.857,0.325,1.175,0.533
		c0.319,0.206,0.57,0.427,0.756,0.663c0.185,0.235,0.301,0.475,0.353,0.717c0.051,0.245,0.041,0.478-0.03,0.698
		c-0.107,0.338-0.289,0.593-0.546,0.765c-0.256,0.171-0.591,0.274-1.007,0.309c0.394,0.273,0.656,0.567,0.786,0.885
		C39.706,108.847,39.712,109.188,39.597,109.554 M38.729,106.355c0.062-0.193,0.034-0.382-0.082-0.57
		c-0.117-0.188-0.332-0.331-0.647-0.432c-0.134-0.042-0.254-0.074-0.362-0.096c-0.109-0.022-0.219-0.04-0.329-0.057l-0.426,1.336
		c0.079,0.038,0.155,0.069,0.229,0.097c0.074,0.026,0.178,0.062,0.314,0.104c0.36,0.114,0.65,0.138,0.868,0.07
		C38.51,106.738,38.656,106.587,38.729,106.355 M38.04,108.886c0.078-0.244,0.042-0.464-0.107-0.659
		c-0.149-0.194-0.422-0.355-0.818-0.481c-0.22-0.069-0.409-0.12-0.566-0.151l-0.473,1.484c0.102,0.046,0.19,0.082,0.269,0.109
		c0.077,0.028,0.191,0.066,0.343,0.114c0.378,0.12,0.679,0.142,0.902,0.066C37.812,109.29,37.963,109.131,38.04,108.886"/>
	<path fill="#EF7D00" d="M51.344,130.227c0,0.883-0.724,1.607-1.608,1.607H38.724c-0.884,0-1.608-0.725-1.608-1.607v-11.012
		c0-0.885,0.724-1.607,1.608-1.607h11.011c0.885,0,1.608,0.723,1.608,1.607V130.227L51.344,130.227z"/>
	<path fill="#FFFFFF" d="M49.699,124.72c0,3.021-2.449,5.469-5.469,5.469c-3.021,0-5.469-2.448-5.469-5.469
		c0-3.02,2.448-5.468,5.469-5.468C47.25,119.252,49.699,121.7,49.699,124.72"/>
	<polygon fill="#EF7D00" points="44.024,122.859 44.024,124.291 46.251,124.291 46.251,125.608 44.024,125.608 44.024,127.96 
		42.521,127.96 42.521,121.481 46.623,121.481 46.623,122.859 44.024,122.859 	"/>
	<path fill="#EF7D00" d="M34.865,127.986c0,0.885-0.724,1.607-1.608,1.607H22.246c-0.884,0-1.608-0.723-1.608-1.607v-11.011
		c0-0.885,0.724-1.608,1.608-1.608h11.011c0.885,0,1.608,0.724,1.608,1.608V127.986L34.865,127.986z"/>
	<path fill="#FFFFFF" d="M33.22,122.48c0,3.021-2.448,5.469-5.468,5.469s-5.468-2.448-5.468-5.469c0-3.02,2.448-5.468,5.468-5.468
		S33.22,119.461,33.22,122.48"/>
	<path fill="#FCCEA2" d="M27.073,122.869c1.123-0.695,1.592-1.041,1.592-1.949c0-0.715-0.418-1.175-1.144-1.175
		c-0.52,0-0.929,0.214-1.123,0.572c0.327,0.111,0.52,0.378,0.52,0.704c0,0.418-0.275,0.755-0.745,0.755
		c-0.48,0-0.806-0.377-0.806-0.887c0-0.92,0.949-1.809,2.368-1.809c1.501,0,2.317,0.878,2.317,1.91c0,1.082-0.847,1.622-2.062,2.174
		c-1.093,0.499-1.583,0.826-1.828,1.357l0.031,0.041c0.276-0.193,0.653-0.306,1.021-0.306c0.734,0,1.275,0.459,1.724,0.459
		c0.409,0,0.573-0.297,0.767-1.103l0.551,0.05c-0.122,1.624-0.663,2.216-1.47,2.216c-1.042,0-1.46-0.979-2.125-0.979
		c-0.071,0-0.164,0.02-0.193,0.02c0.061,0.071,0.122,0.204,0.122,0.357c0,0.326-0.235,0.602-0.612,0.602
		c-0.438,0-0.735-0.356-0.735-0.857C25.245,124.217,26,123.512,27.073,122.869"/>
</g>
<g>
	<path fill="#64C2C8" d="M150.241,36.12c0-18.844-15.276-34.12-34.121-34.12C97.276,2,82,17.276,82,36.12
		c0,18.844,15.276,34.12,34.121,34.12c2.476,0,4.888-0.271,7.213-0.771l1.688,7.911c14.012-6.703,24.082-20.584,25.13-37.188
		c0.071-1.13,0.084-2.25,0.071-3.364C150.228,36.593,150.241,36.358,150.241,36.12"/>
	<path fill="#DADADA" d="M121.542,69.806c0.19-0.03,0.38-0.063,0.569-0.096c-0.183,0.032-0.367,0.064-0.551,0.094
		C121.554,69.805,121.548,69.806,121.542,69.806 M122.183,69.696c0.087-0.015,0.173-0.03,0.26-0.047
		c-0.023,0.004-0.047,0.009-0.071,0.014C122.309,69.674,122.246,69.686,122.183,69.696"/>
	<path fill="#46A2A4" d="M121.428,69.823c-0.009-0.138-0.58-12.437-0.58-12.437s2.442,11.886,2.483,12.083
		c-0.266,0.058-0.581,0.121-0.889,0.18c-0.086,0.017-0.173,0.032-0.26,0.047c-0.024,0.005-0.048,0.01-0.072,0.014
		c-0.189,0.033-0.379,0.065-0.569,0.096C121.502,69.813,121.464,69.818,121.428,69.823"/>
	<polygon fill="#FFFFFF" points="103.049,44.844 103.049,28.577 113.347,28.577 113.347,32.039 106.822,32.039 106.822,34.946 
		112.77,34.946 112.77,38.23 106.822,38.23 106.822,41.404 113.347,41.404 113.347,44.844 103.049,44.844 	"/>
	<polygon fill="#FFFFFF" points="125.974,44.844 120.004,37.231 120.004,44.844 116.231,44.844 116.231,28.577 120.004,28.577 
		120.004,35.656 125.707,28.577 130.168,28.577 123.488,36.322 130.523,44.844 125.974,44.844 	"/>
</g>
<g>
	<path fill="#CDE8EA" d="M150.241,116.12c0-18.845-15.276-34.12-34.121-34.12C97.276,82,82,97.275,82,116.12
		c0,18.844,15.276,34.12,34.121,34.12c2.476,0,4.888-0.271,7.213-0.771l1.688,7.911c14.012-6.703,24.082-20.584,25.13-37.188
		c0.071-1.13,0.084-2.25,0.071-3.364C150.228,116.593,150.241,116.358,150.241,116.12"/>
	<path fill="#DADADA" d="M121.542,149.806c0.19-0.03,0.38-0.063,0.569-0.096c-0.183,0.032-0.367,0.064-0.551,0.094
		C121.554,149.805,121.548,149.806,121.542,149.806 M122.183,149.696c0.087-0.015,0.173-0.03,0.26-0.047
		c-0.023,0.004-0.047,0.009-0.071,0.014C122.309,149.674,122.246,149.686,122.183,149.696"/>
	<path fill="#A9C4C5" d="M121.428,149.823c-0.009-0.138-0.58-12.437-0.58-12.437s2.442,11.886,2.483,12.083
		c-0.266,0.058-0.581,0.121-0.889,0.18c-0.086,0.017-0.173,0.032-0.26,0.047c-0.024,0.005-0.048,0.01-0.072,0.014
		c-0.189,0.033-0.379,0.065-0.569,0.096C121.502,149.813,121.464,149.818,121.428,149.823"/>
	<polygon fill="#FFFFFF" points="101.641,125.492 129.326,125.492 129.326,107.167 101.641,107.167 101.641,125.492 	"/>
	<polygon fill="#64C2C8" points="114.794,106.408 117.087,106.408 117.087,102.969 114.794,102.969 114.794,106.408 	"/>
	<path fill="#64C2C8" d="M114.796,116.725c0-2.531-2.053-4.585-4.586-4.585c-2.532,0-4.585,2.054-4.585,4.585
		c0,2.533,2.053,4.586,4.585,4.586v-4.586H114.796L114.796,116.725z"/>
	<path fill="#BEE2E5" d="M115.94,117.872h-4.584v4.585c2.484,0,4.508-1.976,4.584-4.441V117.872L115.94,117.872z"/>
	<polygon fill="#64C2C8" points="118.235,114.432 126.259,114.432 126.259,112.14 118.235,112.14 118.235,114.432 	"/>
	<polygon fill="#64C2C8" points="126.258,115.578 118.235,115.578 118.235,117.871 126.258,117.871 126.258,115.578 	"/>
	<polygon fill="#64C2C8" points="118.235,121.311 126.259,121.311 126.259,119.019 118.235,119.019 118.235,121.311 	"/>
	<path fill="#64C2C8" d="M120.365,131.039l-3.439-5.731l-0.033-0.037l-0.156-0.171l-0.167-0.151l-0.038-0.034l-0.149-0.053
		l-0.222-0.08l-0.221-0.011l-0.214,0.011l-0.231,0.083l-0.142,0.05l-0.035,0.033l-0.175,0.157l-0.149,0.165l-0.036,0.037
		l-3.438,5.731c-0.325,0.544-0.15,1.247,0.394,1.573c0.183,0.11,0.387,0.164,0.589,0.164c0.388,0,0.768-0.199,0.984-0.558
		l2.457-4.094l2.455,4.095c0.216,0.358,0.595,0.557,0.985,0.557c0.199,0,0.402-0.053,0.587-0.164
		C120.515,132.286,120.69,131.582,120.365,131.039"/>
	<path fill="#64C2C8" d="M131.992,105.261H99.891v3.439h1.147v18.343h29.808V108.7h1.146V105.261L131.992,105.261z M128.553,124.75
		h-25.222V108.7h25.222V124.75L128.553,124.75z"/>
</g>
</svg>
