<?xml version="1.0" encoding="utf-8"?>
<!-- Generator: Adobe Illustrator 15.0.2, SVG Export Plug-In . SVG Version: 6.00 Build 0)  -->
<!DOCTYPE svg PUBLIC "-//W3C//DTD SVG 1.1//EN" "http://www.w3.org/Graphics/SVG/1.1/DTD/svg11.dtd">
<svg version="1.1" id="Lager_1" xmlns="http://www.w3.org/2000/svg" xmlns:xlink="http://www.w3.org/1999/xlink" x="0px" y="0px"
	 width="1600px" height="241.834px" viewBox="0 0 1600 241.834" enable-background="new 0 0 1600 241.834" xml:space="preserve">
<g>
	<path fill="#575756" d="M231.37,36.685C231.37,17.528,215.841,2,196.685,2C177.528,2,162,17.528,162,36.685
		c0,19.155,15.528,34.685,34.685,34.685c2.517,0,4.968-0.274,7.333-0.783l1.716,8.042c14.244-6.814,24.48-20.925,25.546-37.803
		c0.072-1.148,0.086-2.288,0.071-3.42C231.357,37.164,231.37,36.927,231.37,36.685"/>
	<path fill="#DADADA" d="M202.196,70.928c0.193-0.031,0.386-0.063,0.579-0.098c-0.187,0.033-0.373,0.064-0.561,0.095
		C202.209,70.926,202.202,70.927,202.196,70.928 M202.849,70.816c0.088-0.016,0.176-0.031,0.264-0.048
		c-0.024,0.005-0.049,0.009-0.072,0.014C202.976,70.794,202.912,70.806,202.849,70.816"/>
	<path fill="#4D4D4C" d="M202.08,70.945c-0.008-0.14-0.589-12.643-0.589-12.643s2.483,12.083,2.524,12.283
		c-0.27,0.059-0.59,0.123-0.903,0.183c-0.088,0.017-0.176,0.032-0.264,0.048c-0.024,0.005-0.049,0.009-0.073,0.014
		c-0.193,0.034-0.386,0.066-0.579,0.098C202.155,70.934,202.117,70.939,202.08,70.945"/>
	<polygon fill="#FCEB30" points="184.864,45.553 184.864,29.017 195.332,29.017 195.332,32.536 188.699,32.536 188.699,35.491 
		194.745,35.491 194.745,38.83 188.699,38.83 188.699,42.056 195.332,42.056 195.332,45.553 184.864,45.553 	"/>
	<polygon fill="#FCEB30" points="198.264,45.553 198.264,29.017 208.731,29.017 208.731,32.536 202.1,32.536 202.1,35.491 
		208.145,35.491 208.145,38.83 202.1,38.83 202.1,42.056 208.731,42.056 208.731,45.553 198.264,45.553 	"/>
</g>
<g>
	<path fill="#FCEB30" d="M231.37,116.685C231.37,97.528,215.841,82,196.685,82C177.528,82,162,97.528,162,116.685
		c0,19.155,15.528,34.685,34.685,34.685c2.517,0,4.968-0.275,7.333-0.783l1.716,8.042c14.244-6.814,24.48-20.925,25.546-37.803
		c0.072-1.148,0.086-2.288,0.071-3.42C231.357,117.164,231.37,116.927,231.37,116.685"/>
	<path fill="#DADADA" d="M202.196,150.928c0.193-0.031,0.386-0.063,0.579-0.098c-0.187,0.033-0.373,0.064-0.561,0.095
		C202.209,150.926,202.202,150.927,202.196,150.928 M202.849,150.816c0.088-0.016,0.176-0.031,0.264-0.048
		c-0.024,0.005-0.049,0.009-0.072,0.014C202.976,150.794,202.912,150.806,202.849,150.816"/>
	<path fill="#D4C722" d="M202.08,150.945c-0.008-0.14-0.589-12.643-0.589-12.643s2.483,12.083,2.524,12.283
		c-0.27,0.059-0.59,0.123-0.903,0.183c-0.088,0.017-0.176,0.032-0.264,0.048c-0.024,0.005-0.049,0.009-0.073,0.014
		c-0.193,0.034-0.386,0.066-0.579,0.098C202.155,150.934,202.117,150.939,202.08,150.945"/>
	<path fill="#575756" d="M201.222,128.034c-0.77,0.438-1.538,0.877-2.308,1.316l-0.066,0.05c0.01-0.021,0.02-0.048,0.03-0.09
		c0.057-0.224,0.113-0.447,0.17-0.671c0.507-1.994,1.014-3.988,1.521-5.983c0.932-3.665,1.863-7.33,2.794-10.995
		c0.012-0.042-0.034-0.079-0.073-0.057c-2.078,1.225-4.156,2.448-6.233,3.673c-0.926,0.546-1.853,1.092-2.78,1.637
		c0.024-0.032,0.053-0.077,0.081-0.141c0.161-0.367,0.321-0.734,0.481-1.101c2.041-4.667,4.083-9.333,6.125-14
		c0.016-0.033-0.002-0.074-0.043-0.074h-5.751l-0.048,0.036c-1.705,6.703-3.41,13.406-5.115,20.108
		c-0.011,0.043,0.035,0.079,0.073,0.057c1.922-1.11,3.845-2.219,5.767-3.329c0.87-0.502,1.739-1.004,2.61-1.507l0.054-0.04
		c-0.016,0.023-0.043,0.081-0.06,0.197c-0.056,0.389-0.112,0.779-0.168,1.169c-0.401,2.787-0.802,5.574-1.203,8.362
		c-0.114,0.794-0.342,2.38-0.342,2.38s-1.319-1.749-1.682-2.208c-0.034-0.044-0.092,0.003-0.084,0.048
		c0.55,2.691,1.101,5.383,1.651,8.073l0.007,0.015l0.05,0.023l0.035-0.021c1.524-2.286,3.049-4.574,4.574-6.861
		C201.318,128.059,201.263,128.01,201.222,128.034 M203.258,111.676l-0.01,0.005l0.018-0.038L203.258,111.676 M200.885,101.702
		l0.002-0.005h0.01L200.885,101.702 M190.151,121.706l0.204-0.117C190.252,121.675,190.179,121.732,190.151,121.706
		 M195.095,126.945l-0.007-0.011l-0.015-0.073L195.095,126.945 M201.171,128.185l0.008-0.012l0.05-0.028L201.171,128.185"/>
</g>
<g>
	<path fill="#575756" d="M311.37,36.685C311.37,17.528,295.841,2,276.686,2C257.528,2,242,17.528,242,36.685
		c0,19.155,15.528,34.685,34.686,34.685c2.516,0,4.968-0.274,7.333-0.783l1.716,8.042c14.244-6.814,24.48-20.925,25.546-37.803
		c0.072-1.148,0.086-2.288,0.071-3.42C311.357,37.164,311.37,36.927,311.37,36.685"/>
	<path fill="#DADADA" d="M282.196,70.928c0.193-0.031,0.386-0.063,0.579-0.098c-0.187,0.033-0.373,0.064-0.561,0.095
		C282.209,70.926,282.203,70.927,282.196,70.928 M282.849,70.816c0.088-0.016,0.176-0.031,0.264-0.048
		c-0.024,0.005-0.049,0.009-0.072,0.014C282.976,70.794,282.912,70.806,282.849,70.816"/>
	<path fill="#4D4D4C" d="M282.08,70.945c-0.008-0.14-0.589-12.643-0.589-12.643s2.483,12.083,2.524,12.283
		c-0.27,0.059-0.59,0.123-0.903,0.183c-0.088,0.017-0.176,0.032-0.264,0.048c-0.024,0.005-0.049,0.009-0.073,0.014
		c-0.193,0.034-0.386,0.066-0.579,0.098C282.155,70.934,282.117,70.939,282.08,70.945"/>
	<polygon fill="#FFFFFF" points="268.203,32.536 268.203,36.19 273.888,36.19 273.888,39.552 268.203,39.552 268.203,45.553 
		264.368,45.553 264.368,29.017 274.836,29.017 274.836,32.536 268.203,32.536 	"/>
	<polygon fill="#FFFFFF" points="285.28,32.536 285.28,45.553 281.445,45.553 281.445,32.536 276.482,32.536 276.482,29.017 
		290.243,29.017 290.243,32.536 285.28,32.536 	"/>
</g>
<g>
	<path fill="#B2B2B2" d="M311.37,116.685C311.37,97.528,295.841,82,276.686,82C257.528,82,242,97.528,242,116.685
		c0,19.155,15.528,34.685,34.686,34.685c2.516,0,4.968-0.275,7.333-0.783l1.716,8.042c14.244-6.814,24.48-20.925,25.546-37.803
		c0.072-1.148,0.086-2.288,0.071-3.42C311.357,117.164,311.37,116.927,311.37,116.685"/>
	<path fill="#DADADA" d="M282.196,150.928c0.193-0.031,0.386-0.063,0.579-0.098c-0.187,0.033-0.373,0.064-0.561,0.095
		C282.209,150.926,282.203,150.927,282.196,150.928 M282.849,150.816c0.088-0.016,0.176-0.031,0.264-0.048
		c-0.024,0.005-0.049,0.009-0.072,0.014C282.976,150.794,282.912,150.806,282.849,150.816"/>
	<path fill="#989898" d="M282.08,150.945c-0.008-0.14-0.589-12.643-0.589-12.643s2.483,12.083,2.524,12.283
		c-0.27,0.059-0.59,0.123-0.903,0.183c-0.088,0.017-0.176,0.032-0.264,0.048c-0.024,0.005-0.049,0.009-0.073,0.014
		c-0.193,0.034-0.386,0.066-0.579,0.098C282.155,150.934,282.117,150.939,282.08,150.945"/>
	<path fill="#575756" d="M271.031,98.471h-3.832c-0.917,0-1.665,0.749-1.665,1.666v0.195v0.828v1.665h1.665h3.832h1.664v-1.665
		v-0.828v-0.195C272.695,99.22,271.947,98.471,271.031,98.471"/>
	<path fill="#575756" d="M286.352,110.139l-10.632-5.389c-0.814-0.413-2.23-0.751-3.147-0.751h-1.101h-4.272h-1.666v1.663v0.831
		v24.853c0,0.912,0.749,1.663,1.666,1.663h18.972c0.914,0,1.665-0.751,1.665-1.663v-18.794
		C287.836,111.638,287.168,110.552,286.352,110.139"/>
	<path fill="#FFFFFF" d="M270.586,118.504c0,3.368,2.727,6.101,6.1,6.101c3.37,0,6.098-2.732,6.098-6.101
		c0-3.367-2.728-6.102-6.098-6.102C273.313,112.402,270.586,115.137,270.586,118.504"/>
	<path fill="#1D1D1B" d="M276.683,115.01c0.146,0.617,0.311,1.109,0.495,1.477c0.186,0.366,0.468,0.764,0.846,1.19l0.164,0.182
		c0.493,0.552,0.74,1.104,0.74,1.654c0,0.609-0.22,1.133-0.661,1.568s-0.969,0.654-1.584,0.654c-0.612,0-1.138-0.219-1.579-0.654
		s-0.66-0.959-0.66-1.568c0-0.551,0.246-1.103,0.739-1.654l0.164-0.182c0.379-0.427,0.66-0.824,0.846-1.19
		C276.377,116.119,276.54,115.627,276.683,115.01"/>
</g>
<g>
	<path fill="#7E1974" d="M391.581,36.79c0-19.215-15.576-34.79-34.79-34.79C337.576,2,322,17.575,322,36.79
		c0,19.213,15.576,34.79,34.791,34.79c2.523,0,4.983-0.275,7.354-0.784l1.723,8.065c14.286-6.835,24.554-20.987,25.622-37.918
		c0.074-1.153,0.087-2.294,0.072-3.431C391.568,37.271,391.581,37.033,391.581,36.79"/>
	<path fill="#FCEB30" d="M340.78,36.88v5.531c-0.643,0.369-1.315,0.656-2.016,0.862c-0.7,0.205-1.494,0.308-2.378,0.308
		c-0.854,0-1.65-0.145-2.388-0.435c-0.736-0.29-1.379-0.698-1.927-1.225c-0.55-0.526-0.981-1.156-1.297-1.889
		c-0.316-0.732-0.474-1.541-0.474-2.426c0-0.886,0.159-1.697,0.481-2.435c0.321-0.737,0.762-1.369,1.32-1.896
		s1.217-0.935,1.975-1.225c0.759-0.29,1.575-0.436,2.45-0.436c0.759,0,1.451,0.091,2.078,0.27c0.628,0.18,1.231,0.422,1.811,0.727
		l-1.122,2.165c-0.832-0.431-1.697-0.647-2.593-0.647c-0.579,0-1.088,0.084-1.524,0.253c-0.438,0.169-0.807,0.408-1.106,0.719
		c-0.301,0.312-0.526,0.68-0.68,1.106c-0.153,0.428-0.229,0.894-0.229,1.399c0,0.548,0.087,1.046,0.26,1.493
		c0.175,0.447,0.414,0.825,0.721,1.13c0.305,0.306,0.664,0.543,1.074,0.711c0.411,0.17,0.854,0.254,1.328,0.254
		c0.432,0,0.771-0.024,1.02-0.071c0.247-0.047,0.476-0.128,0.688-0.245v-1.707h-2.324V36.88H340.78L340.78,36.88z"/>
	<polygon fill="#FCEB30" points="348.604,38.809 348.604,43.392 345.917,43.392 345.917,38.793 341.839,31.807 344.922,31.807 
		347.292,36.248 349.662,31.807 352.682,31.807 348.604,38.809 	"/>
	<path fill="#FCEB30" d="M361.263,39.978c0,0.465-0.084,0.912-0.252,1.344c-0.169,0.433-0.425,0.816-0.768,1.153
		c-0.343,0.338-0.771,0.606-1.287,0.807c-0.517,0.199-1.122,0.3-1.817,0.3c-0.327,0-0.667-0.031-1.02-0.095
		c-0.354-0.063-0.701-0.148-1.043-0.253c-0.343-0.104-0.672-0.229-0.988-0.371s-0.6-0.298-0.854-0.466l0.743-2.435
		c0.474,0.338,0.995,0.608,1.564,0.814s1.127,0.308,1.676,0.308c0.474,0,0.81-0.097,1.012-0.292c0.199-0.195,0.3-0.435,0.3-0.719
		c0-0.147-0.023-0.287-0.071-0.419c-0.047-0.133-0.148-0.267-0.301-0.403s-0.362-0.276-0.633-0.419
		c-0.268-0.142-0.623-0.303-1.066-0.482c-0.505-0.21-0.934-0.439-1.287-0.688c-0.354-0.247-0.639-0.514-0.854-0.798
		s-0.37-0.588-0.465-0.908c-0.096-0.321-0.144-0.656-0.144-1.004c0-0.422,0.087-0.833,0.261-1.233
		c0.175-0.399,0.43-0.756,0.768-1.066c0.337-0.311,0.761-0.562,1.271-0.751c0.512-0.189,1.104-0.285,1.778-0.285
		c0.316,0,0.63,0.027,0.94,0.08s0.608,0.121,0.894,0.205c0.284,0.085,0.548,0.18,0.79,0.285c0.242,0.104,0.448,0.216,0.616,0.331
		l-0.681,2.402c-0.168-0.115-0.356-0.229-0.567-0.34c-0.212-0.11-0.43-0.211-0.656-0.3s-0.453-0.163-0.68-0.221
		c-0.227-0.059-0.445-0.087-0.656-0.087c-0.495,0-0.848,0.094-1.059,0.283c-0.212,0.19-0.317,0.406-0.317,0.648
		c0,0.189,0.038,0.354,0.112,0.49c0.072,0.137,0.194,0.263,0.362,0.379c0.169,0.116,0.383,0.231,0.64,0.348
		c0.259,0.116,0.567,0.253,0.926,0.411c0.538,0.231,0.988,0.472,1.351,0.72c0.364,0.247,0.653,0.511,0.869,0.79
		c0.217,0.279,0.369,0.579,0.459,0.9C361.219,39.265,361.263,39.609,361.263,39.978L361.263,39.978z"/>
	<path fill="#FCEB30" d="M370.052,29.578c0,0.327-0.114,0.605-0.341,0.837c-0.227,0.232-0.509,0.349-0.846,0.349
		c-0.326,0-0.606-0.116-0.837-0.349c-0.232-0.231-0.349-0.51-0.349-0.837c0-0.337,0.116-0.621,0.349-0.854
		c0.23-0.231,0.511-0.348,0.837-0.348c0.337,0,0.619,0.116,0.846,0.348C369.938,28.957,370.052,29.241,370.052,29.578
		L370.052,29.578z M367.333,36.453l-1.155,2.782h2.292L367.333,36.453L367.333,36.453z M367.032,29.578
		c0,0.327-0.116,0.605-0.349,0.837c-0.231,0.232-0.516,0.349-0.853,0.349c-0.327,0-0.607-0.116-0.838-0.349
		c-0.232-0.231-0.349-0.51-0.349-0.837c0-0.337,0.116-0.621,0.349-0.854c0.23-0.231,0.511-0.348,0.838-0.348
		c0.337,0,0.621,0.116,0.853,0.348C366.916,28.957,367.032,29.241,367.032,29.578L367.032,29.578z M370.193,43.392l-0.87-2.103
		h-3.998l-0.87,2.103h-2.733l5.453-11.68h0.363l5.453,11.68H370.193L370.193,43.392z"/>
	<path fill="#FCEB30" d="M379.755,35.663c0-0.484-0.174-0.861-0.521-1.13s-0.812-0.403-1.392-0.403c-0.21,0-0.389,0.006-0.536,0.016
		c-0.147,0.011-0.316,0.032-0.506,0.063v3.192c0.178,0.021,0.326,0.035,0.442,0.04c0.115,0.005,0.253,0.008,0.411,0.008
		c0.643,0,1.153-0.15,1.532-0.45C379.565,36.698,379.755,36.253,379.755,35.663L379.755,35.663z M380.229,43.392l-1.976-3.777
		c-0.085,0.011-0.161,0.017-0.229,0.017c-0.069,0-0.146,0-0.23,0c-0.2,0-0.369-0.003-0.506-0.009
		c-0.137-0.005-0.3-0.013-0.489-0.024v3.794h-2.688V31.917c0.495-0.053,1.017-0.097,1.564-0.134s1.165-0.056,1.85-0.056
		c0.906,0,1.675,0.101,2.308,0.301c0.632,0.2,1.151,0.474,1.557,0.821c0.405,0.349,0.7,0.756,0.885,1.225
		c0.185,0.47,0.277,0.967,0.277,1.494c0,0.695-0.173,1.335-0.521,1.92s-0.838,1.063-1.47,1.431l2.718,4.473H380.229L380.229,43.392z
		"/>
	<path fill="#7E1974" d="M391.581,36.79c0-19.215-15.576-34.79-34.79-34.79C337.576,2,322,17.575,322,36.79
		c0,19.213,15.576,34.79,34.791,34.79c2.523,0,4.983-0.275,7.354-0.784l1.723,8.065c14.286-6.835,24.554-20.987,25.622-37.918
		c0.074-1.153,0.087-2.294,0.072-3.431C391.568,37.271,391.581,37.033,391.581,36.79"/>
	<path fill="#651564" d="M362.203,71.154c-0.01-0.14-0.592-12.68-0.592-12.68s2.491,12.119,2.532,12.321
		c-0.292,0.062-0.642,0.132-0.979,0.195c-0.276,0.051-0.552,0.1-0.827,0.144C362.29,71.142,362.244,71.148,362.203,71.154"/>
	<path fill="#FCEB30" d="M340.78,36.88v5.531c-0.643,0.369-1.315,0.656-2.016,0.862c-0.7,0.205-1.494,0.308-2.378,0.308
		c-0.854,0-1.65-0.145-2.388-0.435c-0.736-0.29-1.379-0.698-1.927-1.225c-0.55-0.526-0.981-1.156-1.297-1.889
		c-0.316-0.732-0.474-1.541-0.474-2.426c0-0.886,0.159-1.697,0.481-2.435c0.321-0.737,0.762-1.369,1.32-1.896
		s1.217-0.935,1.975-1.225c0.759-0.29,1.575-0.436,2.45-0.436c0.759,0,1.451,0.091,2.078,0.27c0.628,0.18,1.231,0.422,1.811,0.727
		l-1.122,2.165c-0.832-0.431-1.697-0.647-2.593-0.647c-0.579,0-1.088,0.084-1.524,0.253c-0.438,0.169-0.807,0.408-1.106,0.719
		c-0.301,0.312-0.526,0.68-0.68,1.106c-0.153,0.428-0.229,0.894-0.229,1.399c0,0.548,0.087,1.046,0.26,1.493
		c0.175,0.447,0.414,0.825,0.721,1.13c0.305,0.306,0.664,0.543,1.074,0.711c0.411,0.17,0.854,0.254,1.328,0.254
		c0.432,0,0.771-0.024,1.02-0.071c0.247-0.047,0.476-0.128,0.688-0.245v-1.707h-2.324V36.88H340.78L340.78,36.88z"/>
	<polygon fill="#FCEB30" points="348.604,38.809 348.604,43.392 345.917,43.392 345.917,38.793 341.839,31.807 344.922,31.807 
		347.292,36.248 349.662,31.807 352.682,31.807 348.604,38.809 	"/>
	<path fill="#FCEB30" d="M361.263,39.978c0,0.465-0.084,0.912-0.252,1.344c-0.169,0.433-0.425,0.816-0.768,1.153
		c-0.343,0.338-0.771,0.606-1.287,0.807c-0.517,0.199-1.122,0.3-1.817,0.3c-0.327,0-0.667-0.031-1.02-0.095
		c-0.354-0.063-0.701-0.148-1.043-0.253c-0.343-0.104-0.672-0.229-0.988-0.371s-0.6-0.298-0.854-0.466l0.743-2.435
		c0.474,0.338,0.995,0.608,1.564,0.814s1.127,0.308,1.676,0.308c0.474,0,0.81-0.097,1.012-0.292c0.199-0.195,0.3-0.435,0.3-0.719
		c0-0.147-0.023-0.287-0.071-0.419c-0.047-0.133-0.148-0.267-0.301-0.403s-0.362-0.276-0.633-0.419
		c-0.268-0.142-0.623-0.303-1.066-0.482c-0.505-0.21-0.934-0.439-1.287-0.688c-0.354-0.247-0.639-0.514-0.854-0.798
		s-0.37-0.588-0.465-0.908c-0.096-0.321-0.144-0.656-0.144-1.004c0-0.422,0.087-0.833,0.261-1.233
		c0.175-0.399,0.43-0.756,0.768-1.066c0.337-0.311,0.761-0.562,1.271-0.751c0.512-0.189,1.104-0.285,1.778-0.285
		c0.316,0,0.63,0.027,0.94,0.08s0.608,0.121,0.894,0.205c0.284,0.085,0.548,0.18,0.79,0.285c0.242,0.104,0.448,0.216,0.616,0.331
		l-0.681,2.402c-0.168-0.115-0.356-0.229-0.567-0.34c-0.212-0.11-0.43-0.211-0.656-0.3s-0.453-0.163-0.68-0.221
		c-0.227-0.059-0.445-0.087-0.656-0.087c-0.495,0-0.848,0.094-1.059,0.283c-0.212,0.19-0.317,0.406-0.317,0.648
		c0,0.189,0.038,0.354,0.112,0.49c0.072,0.137,0.194,0.263,0.362,0.379c0.169,0.116,0.383,0.231,0.64,0.348
		c0.259,0.116,0.567,0.253,0.926,0.411c0.538,0.231,0.988,0.472,1.351,0.72c0.364,0.247,0.653,0.511,0.869,0.79
		c0.217,0.279,0.369,0.579,0.459,0.9C361.219,39.265,361.263,39.609,361.263,39.978L361.263,39.978z"/>
	<path fill="#FCEB30" d="M370.052,29.578c0,0.327-0.114,0.605-0.341,0.837c-0.227,0.232-0.509,0.349-0.846,0.349
		c-0.326,0-0.606-0.116-0.837-0.349c-0.232-0.231-0.349-0.51-0.349-0.837c0-0.337,0.116-0.621,0.349-0.854
		c0.23-0.231,0.511-0.348,0.837-0.348c0.337,0,0.619,0.116,0.846,0.348C369.938,28.957,370.052,29.241,370.052,29.578
		L370.052,29.578z M367.333,36.453l-1.155,2.782h2.292L367.333,36.453L367.333,36.453z M367.032,29.578
		c0,0.327-0.116,0.605-0.349,0.837c-0.231,0.232-0.516,0.349-0.853,0.349c-0.327,0-0.607-0.116-0.838-0.349
		c-0.232-0.231-0.349-0.51-0.349-0.837c0-0.337,0.116-0.621,0.349-0.854c0.23-0.231,0.511-0.348,0.838-0.348
		c0.337,0,0.621,0.116,0.853,0.348C366.916,28.957,367.032,29.241,367.032,29.578L367.032,29.578z M370.193,43.392l-0.87-2.103
		h-3.998l-0.87,2.103h-2.733l5.453-11.68h0.363l5.453,11.68H370.193L370.193,43.392z"/>
	<path fill="#FCEB30" d="M379.755,35.663c0-0.484-0.174-0.861-0.521-1.13s-0.812-0.403-1.392-0.403c-0.21,0-0.389,0.006-0.536,0.016
		c-0.147,0.011-0.316,0.032-0.506,0.063v3.192c0.178,0.021,0.326,0.035,0.442,0.04c0.115,0.005,0.253,0.008,0.411,0.008
		c0.643,0,1.153-0.15,1.532-0.45C379.565,36.698,379.755,36.253,379.755,35.663L379.755,35.663z M380.229,43.392l-1.976-3.777
		c-0.085,0.011-0.161,0.017-0.229,0.017c-0.069,0-0.146,0-0.23,0c-0.2,0-0.369-0.003-0.506-0.009
		c-0.137-0.005-0.3-0.013-0.489-0.024v3.794h-2.688V31.917c0.495-0.053,1.017-0.097,1.564-0.134s1.165-0.056,1.85-0.056
		c0.906,0,1.675,0.101,2.308,0.301c0.632,0.2,1.151,0.474,1.557,0.821c0.405,0.349,0.7,0.756,0.885,1.225
		c0.185,0.47,0.277,0.967,0.277,1.494c0,0.695-0.173,1.335-0.521,1.92s-0.838,1.063-1.47,1.431l2.718,4.473H380.229L380.229,43.392z
		"/>
</g>
<g>
	<path fill="#FCEB30" d="M391.563,116.781c0-19.209-15.571-34.781-34.781-34.781S322,97.572,322,116.781
		c0,19.21,15.572,34.782,34.782,34.782c2.523,0,4.982-0.275,7.354-0.785l1.72,8.064c14.284-6.834,24.55-20.983,25.618-37.908
		c0.072-1.152,0.086-2.294,0.071-3.43C391.55,117.263,391.563,117.024,391.563,116.781"/>
	<path fill="#DADADA" d="M362.304,151.122c0.102-0.017,0.203-0.033,0.304-0.05c-0.093,0.016-0.187,0.031-0.28,0.046
		C362.319,151.12,362.312,151.121,362.304,151.122 M363.069,150.99c0.062-0.012,0.124-0.022,0.186-0.034
		c-0.033,0.006-0.067,0.013-0.101,0.019C363.126,150.979,363.098,150.985,363.069,150.99"/>
	<path fill="#D4C722" d="M362.192,151.138c-0.009-0.14-0.591-12.677-0.591-12.677s2.49,12.116,2.531,12.317
		c-0.263,0.057-0.572,0.119-0.878,0.178c-0.062,0.012-0.124,0.022-0.186,0.034c-0.153,0.028-0.308,0.055-0.462,0.082
		c-0.101,0.017-0.202,0.033-0.304,0.05C362.265,151.128,362.228,151.133,362.192,151.138"/>
	<polygon fill="#FFFFFF" points="341.293,129.756 371.231,129.756 371.231,123.278 341.293,123.278 341.568,124.088 
		341.293,124.897 341.568,125.707 341.293,126.518 341.568,127.327 341.293,128.137 341.568,128.945 341.293,129.756 	"/>
	<path fill="#7E1974" d="M340.936,132.134h27.779c2.496,0,4.451-2.467,4.451-5.616c0-3.15-1.955-5.617-4.451-5.617h-27.779v2.378
		h27.779c1.123,0,2.073,1.483,2.073,3.239s-0.95,3.238-2.073,3.238h-27.779V132.134L340.936,132.134z"/>
	<path fill="#7E1974" d="M357.163,104.304c0.241-1.138,0.232-2.268-0.127-3.157c-0.788-1.941-3.14-1.138-1.755,0.021
		c0.584,0.485,1.085,1.371,0.985,3.056c-10.639-3.296-12.429,9.093-6.912,14.46c1.873,1.821,3.896,2.976,7.615,2.244
		c3.614,0.723,5.409-0.356,7.241-2.154C369.656,113.433,368.082,100.981,357.163,104.304"/>
	<path fill="#B78AB7" d="M358.822,103.137c3.371-1.462,3.001-4.588,3.001-4.588c-4.312,0.116-3.935,4.919-3.935,4.919
		c0.206-0.059,0.399-0.122,0.584-0.19L358.822,103.137L358.822,103.137z"/>
</g>
<g>
	<path fill="#BEE2E5" d="M471.37,36.685C471.37,17.528,455.841,2,436.686,2C417.528,2,402,17.528,402,36.685
		c0,19.155,15.528,34.685,34.686,34.685c2.516,0,4.968-0.274,7.333-0.783l1.716,8.042c14.244-6.814,24.48-20.925,25.546-37.803
		c0.072-1.148,0.086-2.288,0.071-3.42C471.357,37.164,471.37,36.927,471.37,36.685"/>
	<path fill="#DADADA" d="M442.196,70.928c0.193-0.031,0.386-0.063,0.579-0.098c-0.187,0.033-0.373,0.064-0.561,0.095
		C442.209,70.926,442.203,70.927,442.196,70.928 M442.849,70.816c0.088-0.016,0.176-0.031,0.264-0.048
		c-0.024,0.005-0.049,0.009-0.072,0.014C442.976,70.794,442.912,70.806,442.849,70.816"/>
	<path fill="#9ABDBF" d="M442.08,70.945c-0.008-0.14-0.589-12.643-0.589-12.643s2.483,12.083,2.524,12.283
		c-0.27,0.059-0.59,0.123-0.903,0.183c-0.088,0.017-0.176,0.032-0.264,0.048c-0.024,0.005-0.049,0.009-0.073,0.014
		c-0.193,0.034-0.386,0.066-0.579,0.098C442.155,70.934,442.117,70.939,442.08,70.945"/>
	<polygon fill="#DC0D15" points="424.474,28.882 428.314,28.882 428.314,45.442 424.474,45.442 424.474,28.882 	"/>
	<polygon fill="#DC0D15" points="445.508,45.442 445.305,37.308 440.719,43.114 440.311,43.114 435.68,37.308 435.521,45.442 
		431.816,45.442 432.584,28.768 433.104,28.723 440.604,38.189 447.926,28.723 448.444,28.768 449.236,45.442 445.508,45.442 	"/>
</g>
<g>
	<path fill="#DC0D15" d="M471.37,116.685C471.37,97.528,455.841,82,436.686,82C417.528,82,402,97.528,402,116.685
		c0,19.155,15.528,34.685,34.686,34.685c2.516,0,4.968-0.275,7.333-0.783l1.716,8.042c14.244-6.814,24.48-20.925,25.546-37.803
		c0.072-1.148,0.086-2.288,0.071-3.42C471.357,117.164,471.37,116.927,471.37,116.685"/>
	<path fill="#DADADA" d="M442.196,150.928c0.193-0.031,0.386-0.063,0.579-0.098c-0.187,0.033-0.373,0.064-0.561,0.095
		C442.209,150.926,442.203,150.927,442.196,150.928 M442.849,150.816c0.088-0.016,0.176-0.031,0.264-0.048
		c-0.024,0.005-0.049,0.009-0.072,0.014C442.976,150.794,442.912,150.806,442.849,150.816"/>
	<path fill="#B91110" d="M442.08,150.945c-0.008-0.14-0.589-12.643-0.589-12.643s2.483,12.083,2.524,12.283
		c-0.27,0.059-0.59,0.123-0.903,0.183c-0.088,0.017-0.176,0.032-0.264,0.048c-0.024,0.005-0.049,0.009-0.073,0.014
		c-0.193,0.034-0.386,0.066-0.579,0.098C442.155,150.934,442.117,150.939,442.08,150.945"/>
	<polygon fill="#BEE2E5" points="438.621,111.402 434.385,111.402 434.385,100.994 438.621,100.994 438.621,111.402 	"/>
	<polygon fill="#BEE2E5" points="438.621,117.982 434.385,117.982 434.385,113.365 438.621,113.365 438.621,117.982 	"/>
	<polygon fill="#BEE2E5" points="438.621,134.729 434.385,134.729 434.385,122.998 438.621,122.998 438.621,134.729 	"/>
	<polygon fill="#BEE2E5" points="425.94,121.568 449.005,121.568 449.005,115.066 425.94,115.066 422.624,118.317 425.94,121.568 	
		"/>
	<polygon fill="#BEE2E5" points="447.066,105.433 424.002,105.433 424.002,111.934 447.066,111.934 450.382,108.684 
		447.066,105.433 	"/>
</g>
<g>
	<path fill="#7E1974" d="M551.37,36.685C551.37,17.528,535.841,2,516.686,2C497.528,2,482,17.528,482,36.685
		c0,19.155,15.528,34.685,34.686,34.685c2.516,0,4.968-0.274,7.333-0.783l1.716,8.042c14.244-6.814,24.48-20.925,25.546-37.803
		c0.072-1.148,0.086-2.288,0.071-3.42C551.357,37.164,551.37,36.927,551.37,36.685"/>
	<path fill="#DADADA" d="M522.196,70.928c0.193-0.031,0.386-0.063,0.579-0.098c-0.187,0.033-0.373,0.064-0.561,0.095
		C522.209,70.926,522.203,70.927,522.196,70.928 M522.849,70.816c0.088-0.016,0.176-0.031,0.264-0.048
		c-0.024,0.005-0.049,0.009-0.072,0.014C522.976,70.794,522.912,70.806,522.849,70.816"/>
	<path fill="#651564" d="M522.08,70.945c-0.008-0.14-0.589-12.643-0.589-12.643s2.483,12.083,2.524,12.283
		c-0.27,0.059-0.59,0.123-0.903,0.183c-0.088,0.017-0.176,0.032-0.264,0.048c-0.024,0.005-0.049,0.009-0.073,0.014
		c-0.193,0.034-0.386,0.066-0.579,0.098C522.155,70.934,522.117,70.939,522.08,70.945"/>
	<polygon fill="#FFFFFF" points="515.806,45.868 505.834,36.913 505.834,45.553 501.999,45.553 501.999,28.791 502.519,28.701 
		512.354,37.59 512.354,29.017 516.188,29.017 516.188,45.801 515.806,45.868 	"/>
	<path fill="#FFFFFF" d="M525.325,35.649l-1.646,3.971h3.271L525.325,35.649L525.325,35.649z M529.408,45.553l-1.24-3h-5.707
		l-1.241,3h-3.903l7.783-16.671h0.519l7.783,16.671H529.408L529.408,45.553z"/>
</g>
<g>
	<path fill="#C4A1C7" d="M551.37,116.685C551.37,97.528,535.841,82,516.686,82C497.528,82,482,97.528,482,116.685
		c0,19.155,15.528,34.685,34.686,34.685c2.516,0,4.968-0.275,7.333-0.783l1.716,8.042c14.244-6.814,24.48-20.925,25.546-37.803
		c0.072-1.148,0.086-2.288,0.071-3.42C551.357,117.164,551.37,116.927,551.37,116.685"/>
	<path fill="#DADADA" d="M522.196,150.928c0.193-0.031,0.386-0.063,0.579-0.098c-0.187,0.033-0.373,0.064-0.561,0.095
		C522.209,150.926,522.203,150.927,522.196,150.928 M522.849,150.816c0.088-0.016,0.176-0.031,0.264-0.048
		c-0.024,0.005-0.049,0.009-0.072,0.014C522.976,150.794,522.912,150.806,522.849,150.816"/>
	<path fill="#A282A5" d="M522.08,150.945c-0.008-0.14-0.589-12.643-0.589-12.643s2.483,12.083,2.524,12.283
		c-0.27,0.059-0.59,0.123-0.903,0.183c-0.088,0.017-0.176,0.032-0.264,0.048c-0.024,0.005-0.049,0.009-0.073,0.014
		c-0.193,0.034-0.386,0.066-0.579,0.098C522.155,150.934,522.117,150.939,522.08,150.945"/>
	<path fill="#FFFFFF" d="M520.424,119.237c-0.322-0.026-0.689-0.052-1.016-0.052c-0.828,0-2.906,1.341-5.139,1.341h-1.896
		c-1.052,2.368-2.325,5.23-2.996,6.767c-1.271,2.922,1.2,3.295,1.2,3.295h12.217c0,0,2.469-0.373,1.197-3.295
		C523.193,125.467,521.546,121.755,520.424,119.237"/>
	<path fill="#FFFFFF" d="M517.383,103.646c1.05,0,1.902-0.854,1.902-1.902c0-1.048-0.853-1.902-1.902-1.902
		c-1.053,0-1.902,0.854-1.902,1.902C515.48,102.793,516.33,103.646,517.383,103.646"/>
	<path fill="#FFFFFF" d="M513.829,100.197c0.604,0,1.09-0.484,1.09-1.085c0-0.602-0.486-1.088-1.09-1.088
		c-0.597,0-1.084,0.486-1.084,1.088C512.745,99.713,513.232,100.197,513.829,100.197"/>
	<path fill="#FFFFFF" d="M517.559,97.671c0.601,0,1.088-0.487,1.088-1.089c0-0.598-0.487-1.087-1.088-1.087
		s-1.088,0.489-1.088,1.087C516.471,97.184,516.958,97.671,517.559,97.671"/>
	<path fill="#7E1974" d="M526.452,127.684c-1.538-3.535-5.553-12.522-5.997-13.515v-5.1c0.91-0.093,1.619-0.861,1.619-1.791
		c0-0.996-0.81-1.802-1.807-1.802h-7.085c-0.997,0-1.801,0.806-1.801,1.802c0,0.901,0.664,1.649,1.531,1.781v5.109
		c-0.441,0.992-4.455,9.979-5.996,13.515c-0.349,0.81-0.504,1.498-0.504,2.093c0.032,2.4,2.37,2.756,2.392,2.76l0.033,0.002h15.696
		l0.031-0.002c0.023-0.004,2.358-0.359,2.392-2.76C526.957,129.182,526.802,128.493,526.452,127.684 M524.447,131.617h-15.524
		c-0.192-0.044-1.618-0.35-1.588-1.841c0-0.436,0.114-1.005,0.428-1.725c1.629-3.731,6.028-13.582,6.034-13.595l0.037-0.09v-6.21
		h-0.651c-0.484-0.002-0.878-0.396-0.879-0.879c0.001-0.486,0.395-0.881,0.879-0.881h7.085c0.489,0,0.882,0.395,0.882,0.881
		c0,0.482-0.393,0.877-0.882,0.879h-0.733v6.21l0.039,0.09c0.008,0.013,4.406,9.863,6.033,13.595
		c0.312,0.72,0.424,1.289,0.424,1.725C526.064,131.271,524.641,131.573,524.447,131.617"/>
	<path fill="#7E1974" d="M520.269,105.477c0.996,0,1.806,0.806,1.806,1.802c0,0.93-0.709,1.698-1.618,1.791v5.101
		c0.442,0.991,4.458,9.979,5.996,13.514c0.35,0.81,0.504,1.497,0.504,2.092c-0.032,2.401-2.366,2.757-2.391,2.761l-0.032,0.002
		h-15.695l-0.033-0.002c-0.021-0.004-2.36-0.359-2.391-2.761c0-0.595,0.154-1.282,0.503-2.092
		c1.541-3.535,5.555-12.522,5.996-13.514v-5.111c-0.867-0.131-1.531-0.879-1.531-1.78c0-0.996,0.805-1.802,1.801-1.802H520.269
		L520.269,105.477z M520.269,105.006h-7.086c-1.252,0-2.271,1.02-2.271,2.272c0,0.975,0.636,1.836,1.532,2.147v4.644l-0.227,0.506
		c-1.078,2.417-4.358,9.771-5.73,12.92c-0.365,0.849-0.543,1.595-0.543,2.28c0.037,2.76,2.677,3.206,2.787,3.225l0.016,0.003
		l0.016,0.001l0.034,0.003l0.021,0.002h0.021h15.695h0.022l0.022-0.002l0.032-0.003l0.011-0.001l0.01-0.001
		c0.027-0.005,2.758-0.422,2.796-3.219c0-0.694-0.178-1.441-0.543-2.286c-1.404-3.229-4.875-11.004-5.958-13.428v-4.615
		c0.946-0.282,1.619-1.152,1.619-2.176C522.545,106.025,521.523,105.006,520.269,105.006"/>
	<path fill="#7E1974" d="M518.452,112.308h-2.045v0.924h2.045V112.308L518.452,112.308z M518.452,109.91h-2.045v0.924h2.045V109.91
		L518.452,109.91z M518.452,114.572h-2.045v0.924h2.045V114.572L518.452,114.572z"/>
</g>
<g>
	<path fill="#C4A1C7" d="M520.424,201.298c-0.322-0.026-0.689-0.052-1.016-0.052c-0.828,0-2.906,1.341-5.139,1.341h-1.896
		c-1.052,2.367-2.325,5.23-2.996,6.767c-1.271,2.922,1.2,3.295,1.2,3.295h12.217c0,0,2.469-0.373,1.197-3.295
		C523.193,207.527,521.546,203.815,520.424,201.298"/>
	<path fill="#C4A1C7" d="M517.383,185.707c1.05,0,1.902-0.854,1.902-1.902c0-1.048-0.853-1.902-1.902-1.902
		c-1.053,0-1.902,0.854-1.902,1.902C515.48,184.854,516.33,185.707,517.383,185.707"/>
	<path fill="#C4A1C7" d="M513.829,182.257c0.604,0,1.09-0.483,1.09-1.085c0-0.601-0.486-1.087-1.09-1.087
		c-0.597,0-1.084,0.486-1.084,1.087C512.745,181.773,513.232,182.257,513.829,182.257"/>
	<path fill="#C4A1C7" d="M517.558,179.731c0.601,0,1.089-0.487,1.089-1.089c0-0.598-0.488-1.087-1.089-1.087
		c-0.6,0-1.087,0.489-1.087,1.087C516.471,179.244,516.958,179.731,517.558,179.731"/>
	<path fill="#7E1974" d="M526.452,209.744c-1.538-3.535-5.553-12.522-5.997-13.515v-5.1c0.91-0.093,1.619-0.861,1.619-1.791
		c0-0.996-0.81-1.803-1.807-1.803h-7.085c-0.997,0-1.801,0.807-1.801,1.803c0,0.901,0.664,1.649,1.531,1.781v5.109
		c-0.441,0.992-4.455,9.979-5.996,13.515c-0.349,0.81-0.504,1.498-0.504,2.093c0.032,2.4,2.37,2.755,2.392,2.759l0.033,0.003h15.696
		l0.031-0.003c0.023-0.004,2.358-0.358,2.392-2.759C526.957,211.242,526.802,210.554,526.452,209.744 M524.447,213.679h-15.524
		c-0.192-0.045-1.618-0.352-1.588-1.842c0-0.436,0.115-1.005,0.428-1.725c1.63-3.731,6.028-13.582,6.034-13.595l0.037-0.09v-6.21
		h-0.651c-0.484-0.002-0.878-0.396-0.879-0.879c0.001-0.486,0.395-0.881,0.879-0.881h7.085c0.489,0,0.882,0.395,0.882,0.881
		c0,0.482-0.393,0.877-0.882,0.879h-0.733v6.21l0.039,0.09c0.008,0.013,4.406,9.863,6.033,13.595
		c0.312,0.72,0.424,1.289,0.424,1.725C526.064,213.332,524.641,213.634,524.447,213.679"/>
	<path fill="#7E1974" d="M520.27,187.536c0.995,0,1.805,0.807,1.805,1.803c0,0.93-0.709,1.698-1.618,1.791v5.1
		c0.442,0.992,4.458,9.979,5.996,13.515c0.35,0.81,0.504,1.497,0.504,2.092c-0.032,2.401-2.366,2.757-2.391,2.76l-0.032,0.003
		h-15.695l-0.033-0.003c-0.021-0.003-2.36-0.358-2.391-2.76c0-0.595,0.155-1.282,0.503-2.092c1.541-3.535,5.555-12.522,5.996-13.515
		v-5.11c-0.867-0.131-1.531-0.879-1.531-1.78c0-0.996,0.805-1.803,1.801-1.803H520.27L520.27,187.536z M520.27,187.066h-7.087
		c-1.252,0-2.271,1.02-2.271,2.272c0,0.975,0.636,1.836,1.532,2.147v4.644l-0.226,0.506c-1.079,2.417-4.359,9.771-5.731,12.92
		c-0.365,0.849-0.543,1.595-0.543,2.28c0.037,2.759,2.677,3.206,2.787,3.225l0.016,0.003l0.016,0.001l0.034,0.003l0.021,0.002h0.021
		h15.695h0.022l0.022-0.002l0.032-0.004h0.011l0.01-0.002c0.027-0.004,2.758-0.421,2.796-3.218c0-0.694-0.178-1.441-0.543-2.286
		c-1.405-3.229-4.875-11.004-5.958-13.428v-4.615c0.946-0.282,1.619-1.153,1.619-2.176
		C522.545,188.086,521.523,187.066,520.27,187.066"/>
	<path fill="#7E1974" d="M518.452,194.367h-2.045v0.925h2.045V194.367L518.452,194.367z M518.452,191.971h-2.045v0.924h2.045
		V191.971L518.452,191.971z M518.452,196.633h-2.045v0.924h2.045V196.633L518.452,196.633z"/>
</g>
<g>
	<path fill="#DC0D15" d="M631.37,36.685C631.37,17.528,615.841,2,596.686,2C577.528,2,562,17.528,562,36.685
		c0,19.155,15.528,34.685,34.686,34.685c2.516,0,4.968-0.274,7.333-0.783l1.716,8.042c14.244-6.814,24.48-20.925,25.546-37.803
		c0.072-1.148,0.086-2.288,0.071-3.42C631.357,37.164,631.37,36.927,631.37,36.685"/>
	<path fill="#DADADA" d="M602.196,70.928c0.193-0.031,0.386-0.063,0.579-0.098c-0.187,0.033-0.373,0.064-0.561,0.095
		C602.209,70.926,602.203,70.927,602.196,70.928 M602.849,70.816c0.088-0.016,0.176-0.031,0.264-0.048
		c-0.024,0.005-0.049,0.009-0.072,0.014C602.976,70.794,602.912,70.806,602.849,70.816"/>
	<path fill="#B91110" d="M602.08,70.945c-0.008-0.14-0.589-12.643-0.589-12.643s2.483,12.083,2.524,12.283
		c-0.27,0.059-0.59,0.123-0.903,0.183c-0.088,0.017-0.176,0.032-0.264,0.048c-0.024,0.005-0.049,0.009-0.073,0.014
		c-0.193,0.034-0.386,0.066-0.579,0.098C602.155,70.934,602.117,70.939,602.08,70.945"/>
	<path fill="#FFFFFF" d="M594.666,40.68c0,0.662-0.12,1.301-0.36,1.917c-0.241,0.617-0.606,1.166-1.095,1.647
		s-1.102,0.865-1.838,1.15c-0.737,0.286-1.603,0.429-2.595,0.429c-0.466,0-0.951-0.045-1.455-0.136c-0.504-0.09-1-0.21-1.489-0.36
		c-0.488-0.15-0.958-0.327-1.409-0.53s-0.857-0.425-1.219-0.665l1.061-3.475c0.677,0.481,1.421,0.869,2.233,1.162
		s1.609,0.439,2.392,0.439c0.677,0,1.157-0.139,1.443-0.417c0.285-0.278,0.429-0.62,0.429-1.026c0-0.211-0.034-0.41-0.102-0.598
		c-0.067-0.188-0.211-0.38-0.429-0.576c-0.218-0.194-0.519-0.395-0.902-0.598c-0.384-0.202-0.891-0.432-1.522-0.688
		c-0.722-0.301-1.335-0.628-1.839-0.981s-0.91-0.733-1.218-1.139c-0.309-0.406-0.53-0.839-0.666-1.298
		c-0.135-0.459-0.203-0.937-0.203-1.433c0-0.602,0.125-1.188,0.372-1.76c0.248-0.571,0.613-1.079,1.095-1.522
		c0.48-0.443,1.086-0.801,1.815-1.071s1.576-0.406,2.538-0.406c0.451,0,0.898,0.038,1.343,0.113
		c0.443,0.075,0.868,0.173,1.274,0.293s0.781,0.256,1.128,0.406c0.346,0.15,0.639,0.308,0.88,0.474l-0.971,3.429
		c-0.24-0.165-0.511-0.327-0.812-0.485c-0.302-0.157-0.613-0.301-0.937-0.429c-0.323-0.127-0.646-0.232-0.97-0.315
		c-0.323-0.082-0.636-0.124-0.937-0.124c-0.707,0-1.211,0.136-1.512,0.406s-0.45,0.579-0.45,0.925c0,0.271,0.052,0.504,0.157,0.699
		s0.278,0.376,0.519,0.541c0.241,0.166,0.546,0.331,0.914,0.497c0.368,0.165,0.809,0.36,1.319,0.586
		c0.768,0.331,1.41,0.674,1.93,1.026c0.519,0.354,0.932,0.729,1.24,1.129c0.309,0.398,0.526,0.826,0.654,1.285
		S594.666,40.153,594.666,40.68L594.666,40.68z"/>
	<path fill="#FFFFFF" d="M602.878,35.649l-1.647,3.971h3.271L602.878,35.649L602.878,35.649z M606.961,45.553l-1.24-3h-5.708
		l-1.24,3h-3.903l7.783-16.671h0.519l7.783,16.671H606.961L606.961,45.553z"/>
</g>
<g>
	<path fill="#EF987B" d="M631.37,116.685C631.37,97.528,615.841,82,596.686,82C577.528,82,562,97.528,562,116.685
		c0,19.155,15.528,34.685,34.686,34.685c2.516,0,4.968-0.275,7.333-0.783l1.716,8.042c14.244-6.814,24.48-20.925,25.546-37.803
		c0.072-1.148,0.086-2.288,0.071-3.42C631.357,117.164,631.37,116.927,631.37,116.685"/>
	<path fill="#DADADA" d="M602.196,150.928c0.193-0.031,0.386-0.063,0.579-0.098c-0.187,0.033-0.373,0.064-0.561,0.095
		C602.209,150.926,602.203,150.927,602.196,150.928 M602.849,150.816c0.088-0.016,0.176-0.031,0.264-0.048
		c-0.024,0.005-0.049,0.009-0.072,0.014C602.976,150.794,602.912,150.806,602.849,150.816"/>
	<path fill="#CA785E" d="M602.08,150.945c-0.008-0.14-0.589-12.643-0.589-12.643s2.483,12.083,2.524,12.283
		c-0.27,0.059-0.59,0.123-0.903,0.183c-0.088,0.017-0.176,0.032-0.264,0.048c-0.024,0.005-0.049,0.009-0.073,0.014
		c-0.193,0.034-0.386,0.066-0.579,0.098C602.155,150.934,602.117,150.939,602.08,150.945"/>
	<path fill="#FFFFFF" d="M581.659,110.249h4.244v-4.047h25.329l0.391,20.04c0,0-1.044,2.547-2.741,2.547s-24.22-0.326-24.22-0.326
		s-2.741-0.393-2.741-2.611C581.921,123.632,581.659,110.249,581.659,110.249"/>
	<path fill="#DC0D15" d="M612.665,104.951v21.044c0,1.957-1.708,3.708-3.499,3.708h-23.919c-2.959,0-4.542-1.541-4.542-5.292
		v-15.375h4.417v-4.083h27.543V104.951L612.665,104.951z M585.122,111.286h-2.167v13.125c0,1.916,0.458,2.835,1.041,2.835
		c0.709,0,1.126-0.919,1.126-2.835V111.286L585.122,111.286z M610.415,107.203h-23.043v17.208c0,1.332-0.25,2.291-0.625,3.041
		h22.419c0.75,0,1.249-0.874,1.249-1.457V107.203L610.415,107.203z M596.248,115.118h-5.292v-0.75h5.292V115.118L596.248,115.118z
		 M596.248,117.577h-5.292v-0.751h5.292V117.577L596.248,117.577z M596.248,119.952h-5.292V119.2h5.292V119.952L596.248,119.952z
		 M596.248,122.244h-5.292v-0.75h5.292V122.244L596.248,122.244z M596.248,124.618h-5.292v-0.75h5.292V124.618L596.248,124.618z
		 M591.747,110.494h13.875v1.459h-13.875V110.494L591.747,110.494z"/>
	<polygon fill="#EF987B" points="598.208,122.827 607.107,122.827 607.107,114.395 598.208,114.395 598.208,122.827 	"/>
</g>
<g>
	<path fill="#FFFFFF" d="M581.726,190.234h4.243v-4.047h25.33l0.391,20.041c0,0-1.045,2.546-2.741,2.546
		c-1.697,0-24.22-0.326-24.22-0.326s-2.741-0.393-2.741-2.611S581.726,190.234,581.726,190.234"/>
	<path fill="#DC0D15" d="M612.73,184.938v21.043c0,1.957-1.707,3.708-3.499,3.708h-23.919c-2.958,0-4.541-1.541-4.541-5.292v-15.375
		h4.417v-4.083L612.73,184.938L612.73,184.938L612.73,184.938z M585.188,191.271h-2.167v13.125c0,1.916,0.458,2.835,1.041,2.835
		c0.708,0,1.126-0.919,1.126-2.835V191.271L585.188,191.271z M610.481,187.188h-23.043v17.208c0,1.332-0.25,2.292-0.625,3.041
		h22.418c0.751,0,1.25-0.873,1.25-1.457V187.188L610.481,187.188z M596.314,195.104h-5.292v-0.749h5.292V195.104L596.314,195.104z
		 M596.314,197.563h-5.292v-0.751h5.292V197.563L596.314,197.563z M596.314,199.938h-5.292v-0.751h5.292V199.938L596.314,199.938z
		 M596.314,202.23h-5.292v-0.75h5.292V202.23L596.314,202.23z M596.314,204.604h-5.292v-0.751h5.292V204.604L596.314,204.604z
		 M591.813,190.479h13.875v1.459h-13.875V190.479L591.813,190.479z"/>
	<polygon fill="#EF987B" points="598.274,202.813 607.174,202.813 607.174,194.38 598.274,194.38 598.274,202.813 	"/>
</g>
<g>
	<path fill="#FAD8CA" d="M711.37,36.685C711.37,17.528,695.841,2,676.686,2C657.528,2,642,17.528,642,36.685
		c0,19.155,15.528,34.685,34.686,34.685c2.516,0,4.968-0.274,7.333-0.783l1.716,8.042c14.244-6.814,24.48-20.925,25.546-37.803
		c0.072-1.148,0.086-2.288,0.071-3.42C711.357,37.164,711.37,36.927,711.37,36.685"/>
	<path fill="#DADADA" d="M682.196,70.928c0.193-0.031,0.386-0.063,0.579-0.098c-0.187,0.033-0.373,0.064-0.561,0.095
		C682.209,70.926,682.203,70.927,682.196,70.928 M682.849,70.816c0.088-0.016,0.176-0.031,0.264-0.048
		c-0.024,0.005-0.049,0.009-0.072,0.014C682.976,70.794,682.912,70.806,682.849,70.816"/>
	<path fill="#D3B4A7" d="M682.08,70.945c-0.008-0.14-0.589-12.643-0.589-12.643s2.483,12.083,2.524,12.283
		c-0.27,0.059-0.59,0.123-0.903,0.183c-0.088,0.017-0.176,0.032-0.264,0.048c-0.024,0.005-0.049,0.009-0.073,0.014
		c-0.193,0.034-0.386,0.066-0.579,0.098C682.155,70.934,682.117,70.939,682.08,70.945"/>
	<polygon fill="#EF987B" points="667.425,45.688 666.974,45.688 659.078,29.017 663.477,29.017 667.244,37.95 671.012,29.017 
		675.32,29.017 667.425,45.688 	"/>
	<path fill="#EF987B" d="M688.721,37.296c0-0.752-0.105-1.439-0.316-2.064c-0.211-0.624-0.508-1.161-0.891-1.612
		c-0.384-0.451-0.843-0.805-1.376-1.061c-0.534-0.256-1.133-0.384-1.794-0.384c-0.646,0-1.24,0.128-1.782,0.384
		c-0.541,0.256-1.004,0.609-1.388,1.061c-0.383,0.451-0.68,0.988-0.891,1.612c-0.211,0.625-0.315,1.313-0.315,2.064
		c0,0.737,0.104,1.418,0.315,2.041c0.211,0.625,0.508,1.166,0.891,1.625c0.384,0.459,0.847,0.815,1.388,1.071
		c0.542,0.256,1.136,0.384,1.782,0.384c0.661,0,1.26-0.128,1.794-0.384c0.533-0.256,0.992-0.612,1.376-1.071
		c0.383-0.459,0.68-1,0.891-1.625C688.615,38.714,688.721,38.033,688.721,37.296L688.721,37.296z M692.826,37.296
		c0,1.219-0.207,2.346-0.62,3.384c-0.414,1.038-0.997,1.937-1.749,2.696c-0.752,0.759-1.65,1.356-2.695,1.793
		c-1.046,0.437-2.207,0.654-3.485,0.654s-2.437-0.218-3.475-0.654c-1.037-0.437-1.921-1.034-2.65-1.793
		c-0.729-0.76-1.289-1.658-1.681-2.696s-0.586-2.165-0.586-3.384c0-1.218,0.206-2.35,0.62-3.396
		c0.413-1.045,0.992-1.947,1.737-2.707c0.744-0.759,1.643-1.356,2.695-1.793s2.219-0.654,3.496-0.654
		c1.278,0,2.433,0.218,3.463,0.654s1.91,1.034,2.64,1.793c0.729,0.76,1.294,1.662,1.692,2.707
		C692.626,34.946,692.826,36.078,692.826,37.296L692.826,37.296z"/>
</g>
<g>
	<path fill="#EF987B" d="M711.37,116.685C711.37,97.528,695.841,82,676.686,82C657.528,82,642,97.528,642,116.685
		c0,19.155,15.528,34.685,34.686,34.685c2.516,0,4.968-0.275,7.333-0.783l1.716,8.042c14.244-6.814,24.48-20.925,25.546-37.803
		c0.072-1.148,0.086-2.288,0.071-3.42C711.357,117.164,711.37,116.927,711.37,116.685"/>
	<path fill="#DADADA" d="M682.196,150.928c0.193-0.031,0.386-0.063,0.579-0.098c-0.187,0.033-0.373,0.064-0.561,0.095
		C682.209,150.926,682.203,150.927,682.196,150.928 M682.849,150.816c0.088-0.016,0.176-0.031,0.264-0.048
		c-0.024,0.005-0.049,0.009-0.072,0.014C682.976,150.794,682.912,150.806,682.849,150.816"/>
	<path fill="#CA785E" d="M682.08,150.945c-0.008-0.14-0.589-12.643-0.589-12.643s2.483,12.083,2.524,12.283
		c-0.27,0.059-0.59,0.123-0.903,0.183c-0.088,0.017-0.176,0.032-0.264,0.048c-0.024,0.005-0.049,0.009-0.073,0.014
		c-0.193,0.034-0.386,0.066-0.579,0.098C682.155,150.934,682.117,150.939,682.08,150.945"/>
	<polygon fill="#FFFFFF" points="685.328,116.813 676.599,125.992 669.229,117.918 677.875,109.839 685.328,116.813 	"/>
	<path fill="#FAD8CA" d="M667.058,119.022l-4.186,4.186c-1.84,1.842-1.842,4.856,0,6.697l1.675,1.674
		c1.84,1.843,4.856,1.842,6.698,0l4.183-4.186L667.058,119.022L667.058,119.022z"/>
	<path fill="#FAD8CA" d="M677.939,108.143l-10.044,10.043l8.372,8.371l10.044-10.044L677.939,108.143L677.939,108.143z
		 M676.268,111.49c0.463-0.463,1.21-0.463,1.672,0c0.464,0.461,0.464,1.211,0,1.674c-0.462,0.461-1.209,0.461-1.672,0
		C675.805,112.701,675.805,111.951,676.268,111.49 M672.919,118.187c-0.464,0.462-1.214,0.464-1.674,0
		c-0.462-0.463-0.462-1.212,0-1.673c0.46-0.461,1.21-0.463,1.674,0C673.382,116.977,673.379,117.725,672.919,118.187
		 M675.429,120.699c-0.462,0.462-1.212,0.463-1.672-0.001c-0.463-0.464-0.463-1.213,0-1.675c0.46-0.461,1.21-0.463,1.672,0
		C675.893,119.487,675.893,120.236,675.429,120.699 M675.429,115.675c-0.462,0.463-1.212,0.463-1.672,0
		c-0.463-0.462-0.463-1.213,0-1.674c0.46-0.461,1.21-0.463,1.672,0C675.893,114.462,675.893,115.214,675.429,115.675
		 M677.939,123.209c-0.462,0.461-1.209,0.463-1.674-0.001c-0.463-0.462-0.461-1.211,0-1.674c0.463-0.462,1.212-0.462,1.674,0
		C678.402,121.998,678.402,122.748,677.939,123.209 M677.941,118.187c-0.464,0.464-1.211,0.464-1.674-0.001
		c-0.463-0.463-0.463-1.211,0-1.673s1.21-0.463,1.672,0C678.403,116.977,678.403,117.725,677.941,118.187 M680.45,120.697
		c-0.463,0.462-1.209,0.462-1.674,0c-0.462-0.464-0.462-1.212,0-1.675c0.464-0.463,1.211-0.463,1.674,0
		C680.914,119.485,680.913,120.234,680.45,120.697 M680.453,115.676c-0.463,0.464-1.212,0.464-1.675-0.001
		c-0.464-0.462-0.464-1.213,0-1.674c0.463-0.463,1.209-0.463,1.672,0C680.914,114.464,680.914,115.214,680.453,115.676
		 M681.288,118.186c-0.463-0.463-0.463-1.211,0-1.673c0.461-0.463,1.21-0.463,1.673,0c0.463,0.462,0.463,1.21,0,1.673
		C682.501,118.648,681.752,118.648,681.288,118.186"/>
	<path fill="#FAD8CA" d="M690.497,105.631l-1.675-1.674c-1.842-1.844-4.856-1.844-6.695,0l-3.349,3.349l8.37,8.369l3.349-3.348
		C692.339,110.485,692.339,107.473,690.497,105.631"/>
</g>
<g>
	<g>
		<defs>
			<rect id="SVGID_1_" x="661.491" y="184.12" width="30.388" height="30.387"/>
		</defs>
		<clipPath id="SVGID_2_">
			<use xlink:href="#SVGID_1_"  overflow="visible"/>
		</clipPath>
		<polygon clip-path="url(#SVGID_2_)" fill="#FFFFFF" points="685.328,198.358 676.599,207.538 669.229,199.464 677.875,191.385 
			685.328,198.358 		"/>
		<path clip-path="url(#SVGID_2_)" fill="#EF987B" d="M667.058,200.568l-4.186,4.186c-1.84,1.842-1.842,4.855,0,6.697l1.675,1.674
			c1.84,1.843,4.856,1.842,6.698,0l4.182-4.186L667.058,200.568L667.058,200.568z"/>
		<path clip-path="url(#SVGID_2_)" fill="#EF987B" d="M677.939,189.688l-10.044,10.043l8.372,8.371l10.044-10.045L677.939,189.688
			L677.939,189.688z M676.268,193.036c0.463-0.463,1.21-0.463,1.672,0c0.465,0.461,0.465,1.211,0,1.673
			c-0.462,0.462-1.209,0.462-1.672,0S675.805,193.497,676.268,193.036 M672.919,199.732c-0.464,0.462-1.214,0.463-1.674,0
			c-0.462-0.464-0.462-1.212,0-1.674c0.46-0.461,1.21-0.462,1.674,0C673.382,198.521,673.379,199.271,672.919,199.732
			 M675.429,202.245c-0.462,0.462-1.212,0.462-1.672-0.001c-0.463-0.464-0.463-1.213,0-1.675c0.46-0.462,1.21-0.463,1.672,0
			C675.894,201.033,675.894,201.781,675.429,202.245 M675.429,197.221c-0.462,0.463-1.212,0.463-1.672,0
			c-0.463-0.462-0.463-1.213,0-1.674c0.46-0.461,1.21-0.463,1.672,0C675.894,196.008,675.894,196.76,675.429,197.221
			 M677.939,204.755c-0.462,0.461-1.209,0.463-1.675-0.001c-0.462-0.463-0.46-1.212,0-1.675c0.464-0.461,1.213-0.461,1.675,0
			C678.402,203.543,678.402,204.294,677.939,204.755 M677.941,199.732c-0.464,0.463-1.211,0.463-1.674-0.001
			c-0.463-0.463-0.463-1.211,0-1.674c0.463-0.461,1.21-0.462,1.672,0C678.404,198.521,678.404,199.271,677.941,199.732
			 M680.45,202.242c-0.464,0.463-1.209,0.463-1.674,0c-0.462-0.463-0.462-1.211,0-1.674c0.464-0.463,1.21-0.463,1.674,0
			S680.913,201.78,680.45,202.242 M680.453,197.222c-0.463,0.464-1.212,0.464-1.675-0.001c-0.464-0.462-0.464-1.213,0-1.674
			c0.463-0.463,1.208-0.463,1.672,0C680.914,196.009,680.914,196.76,680.453,197.222 M681.288,199.731
			c-0.463-0.463-0.463-1.211,0-1.674c0.461-0.462,1.21-0.462,1.674,0c0.462,0.463,0.462,1.211,0,1.674
			C682.501,200.194,681.752,200.194,681.288,199.731"/>
		<path clip-path="url(#SVGID_2_)" fill="#EF987B" d="M690.496,187.177l-1.673-1.674c-1.843-1.844-4.857-1.844-6.697,0l-3.349,3.348
			l8.371,8.37l3.348-3.348C692.339,192.031,692.339,189.019,690.496,187.177"/>
	</g>
</g>
<g>
	<polygon fill="#DC0D15" points="438.804,191.854 434.567,191.854 434.567,181.445 438.804,181.445 438.804,191.854 	"/>
	<polygon fill="#DC0D15" points="438.804,198.434 434.567,198.434 434.567,193.816 438.804,193.816 438.804,198.434 	"/>
	<polygon fill="#DC0D15" points="438.804,215.18 434.567,215.18 434.567,203.449 438.804,203.449 438.804,215.18 	"/>
	<polygon fill="#DC0D15" points="426.123,202.019 449.188,202.019 449.188,195.518 426.123,195.518 422.807,198.769 
		426.123,202.019 	"/>
	<polygon fill="#DC0D15" points="447.248,185.884 424.184,185.884 424.184,192.385 447.248,192.385 450.564,189.135 
		447.248,185.884 	"/>
</g>
<g>
	<polygon fill="#EFE7F2" points="341.032,210.727 370.971,210.727 370.971,204.248 341.032,204.248 341.308,205.059 
		341.032,205.868 341.308,206.678 341.032,207.487 341.308,208.298 341.032,209.106 341.308,209.916 341.032,210.727 	"/>
	<path fill="#7E1974" d="M340.675,213.104h27.779c2.496,0,4.451-2.467,4.451-5.617c0-3.149-1.955-5.616-4.451-5.616h-27.779v2.377
		h27.779c1.124,0,2.073,1.484,2.073,3.239c0,1.756-0.949,3.239-2.073,3.239h-27.779V213.104L340.675,213.104z"/>
	<path fill="#7E1974" d="M356.901,185.274c0.242-1.139,0.233-2.268-0.127-3.157c-0.787-1.941-3.139-1.138-1.753,0.02
		c0.583,0.486,1.084,1.372,0.984,3.057c-10.64-3.296-12.43,9.093-6.912,14.46c1.872,1.821,3.896,2.975,7.615,2.244
		c3.614,0.723,5.409-0.356,7.241-2.154C369.396,194.403,367.821,181.952,356.901,185.274"/>
	<path fill="#B78AB7" d="M358.562,184.107c3.37-1.462,3.001-4.588,3.001-4.588c-4.312,0.116-3.935,4.919-3.935,4.919
		c0.206-0.059,0.399-0.122,0.584-0.191L358.562,184.107L358.562,184.107z"/>
</g>
<g>
	<path fill="#575756" d="M270.031,179.043h-3.832c-0.918,0-1.665,0.748-1.665,1.665v0.195v0.828v1.665h1.665h3.832h1.664v-1.665
		v-0.828v-0.195C271.695,179.791,270.947,179.043,270.031,179.043"/>
	<path fill="#575756" d="M285.352,190.71l-10.632-5.388c-0.814-0.413-2.23-0.752-3.147-0.752h-1.102h-4.271h-1.666v1.663v0.831
		v24.853c0,0.912,0.749,1.663,1.666,1.663h18.972c0.914,0,1.665-0.751,1.665-1.663v-18.794
		C286.836,192.209,286.168,191.123,285.352,190.71"/>
	<path fill="#FFFFFF" d="M269.586,199.075c0,3.368,2.727,6.102,6.099,6.102c3.371,0,6.099-2.733,6.099-6.102
		c0-3.366-2.728-6.102-6.099-6.102C272.313,192.974,269.586,195.709,269.586,199.075"/>
	<path fill="#1D1D1B" d="M275.682,195.581c0.146,0.617,0.312,1.11,0.496,1.477c0.186,0.366,0.467,0.764,0.846,1.19l0.164,0.182
		c0.492,0.552,0.739,1.104,0.739,1.654c0,0.609-0.22,1.133-0.66,1.568c-0.441,0.437-0.969,0.655-1.585,0.655
		c-0.611,0-1.137-0.219-1.578-0.655c-0.441-0.436-0.66-0.959-0.66-1.568c0-0.551,0.246-1.103,0.739-1.654l0.163-0.182
		c0.38-0.427,0.661-0.824,0.847-1.19C275.376,196.691,275.54,196.198,275.682,195.581"/>
</g>
<g>
	<g>
		<defs>
			<rect id="SVGID_3_" x="190.004" y="181.619" width="13.361" height="33.387"/>
		</defs>
		<clipPath id="SVGID_4_">
			<use xlink:href="#SVGID_3_"  overflow="visible"/>
		</clipPath>
		<path clip-path="url(#SVGID_4_)" fill="#575756" d="M201.221,208.055c-0.769,0.438-1.538,0.877-2.307,1.316
			c-0.031,0.017-0.05,0.034-0.066,0.05c0.009-0.021,0.021-0.049,0.03-0.091c0.057-0.224,0.113-0.446,0.17-0.67
			c0.507-1.994,1.014-3.989,1.522-5.983c0.931-3.665,1.861-7.33,2.793-10.995c0.012-0.043-0.034-0.079-0.073-0.057
			c-2.078,1.225-4.155,2.448-6.233,3.673c-0.926,0.545-1.853,1.092-2.78,1.637c0.024-0.032,0.053-0.077,0.081-0.141
			c0.161-0.367,0.321-0.734,0.481-1.101c2.041-4.667,4.083-9.333,6.125-14c0.016-0.033-0.002-0.074-0.043-0.074h-5.751
			c-0.021,0-0.043,0.014-0.049,0.035c-1.705,6.704-3.41,13.407-5.115,20.109c-0.011,0.043,0.035,0.079,0.074,0.056
			c1.922-1.109,3.845-2.219,5.767-3.328c0.87-0.502,1.74-1.005,2.61-1.508c0.028-0.016,0.044-0.029,0.054-0.04
			c-0.016,0.024-0.042,0.082-0.06,0.197c-0.056,0.39-0.112,0.779-0.168,1.169c-0.4,2.788-0.802,5.575-1.203,8.363
			c-0.114,0.793-0.342,2.38-0.342,2.38s-1.319-1.749-1.682-2.209c-0.034-0.043-0.092,0.004-0.084,0.048
			c0.55,2.692,1.101,5.384,1.651,8.074c0.001,0.006,0.005,0.01,0.007,0.015c0.011,0.021,0.03,0.029,0.05,0.023
			c0.013-0.002,0.026-0.008,0.035-0.021c1.524-2.287,3.049-4.574,4.574-6.861C201.318,208.079,201.263,208.03,201.221,208.055
			 M203.258,191.696l-0.01,0.004c0.006-0.012,0.015-0.024,0.018-0.037C203.263,191.674,203.26,191.685,203.258,191.696
			 M200.885,181.723l0.002-0.005h0.01C200.893,181.718,200.89,181.721,200.885,181.723 M190.151,201.727l0.204-0.118
			C190.253,201.695,190.179,201.753,190.151,201.727 M195.095,206.966l-0.007-0.011c-0.006-0.024-0.01-0.05-0.015-0.073
			C195.078,206.909,195.087,206.938,195.095,206.966 M201.171,208.205l0.008-0.012c0.017-0.01,0.033-0.02,0.051-0.028
			C201.211,208.175,201.19,208.189,201.171,208.205"/>
	</g>
</g>
<g>
	<path fill="#64C2C8" d="M151.37,36.685C151.37,17.528,135.841,2,116.685,2C97.528,2,82,17.528,82,36.685
		c0,19.155,15.528,34.685,34.685,34.685c2.517,0,4.968-0.274,7.333-0.783l1.716,8.042c14.244-6.814,24.48-20.925,25.545-37.803
		c0.073-1.148,0.086-2.288,0.072-3.42C151.357,37.164,151.37,36.927,151.37,36.685"/>
	<path fill="#DADADA" d="M122.196,70.928c0.193-0.031,0.386-0.063,0.579-0.098c-0.186,0.033-0.373,0.064-0.56,0.095
		C122.208,70.926,122.203,70.927,122.196,70.928 M122.848,70.816c0.088-0.016,0.176-0.031,0.264-0.048
		c-0.023,0.005-0.048,0.009-0.072,0.014C122.976,70.794,122.912,70.806,122.848,70.816"/>
	<path fill="#46A2A4" d="M122.081,70.945c-0.009-0.14-0.589-12.643-0.589-12.643s2.483,12.083,2.525,12.283
		c-0.271,0.059-0.59,0.123-0.904,0.183c-0.088,0.017-0.175,0.032-0.264,0.048c-0.024,0.005-0.049,0.009-0.073,0.014
		c-0.192,0.034-0.385,0.066-0.579,0.098C122.156,70.934,122.117,70.939,122.081,70.945"/>
	<polygon fill="#FFFFFF" points="103.398,45.553 103.398,29.017 113.865,29.017 113.865,32.536 107.233,32.536 107.233,35.491 
		113.279,35.491 113.279,38.83 107.233,38.83 107.233,42.056 113.865,42.056 113.865,45.553 103.398,45.553 	"/>
	<polygon fill="#FFFFFF" points="126.702,45.553 120.633,37.814 120.633,45.553 116.798,45.553 116.798,29.017 120.633,29.017 
		120.633,36.213 126.431,29.017 130.965,29.017 124.175,36.89 131.326,45.553 126.702,45.553 	"/>
</g>
<g>
	<path fill="#CDE8EA" d="M151.37,116.685C151.37,97.528,135.841,82,116.685,82C97.528,82,82,97.528,82,116.685
		c0,19.155,15.528,34.685,34.685,34.685c2.517,0,4.968-0.275,7.333-0.783l1.716,8.042c14.244-6.814,24.48-20.925,25.545-37.803
		c0.073-1.148,0.086-2.288,0.072-3.42C151.357,117.164,151.37,116.927,151.37,116.685"/>
	<path fill="#DADADA" d="M122.196,150.928c0.193-0.031,0.386-0.063,0.579-0.098c-0.186,0.033-0.373,0.064-0.56,0.095
		C122.208,150.926,122.203,150.927,122.196,150.928 M122.848,150.816c0.088-0.016,0.176-0.031,0.264-0.048
		c-0.023,0.005-0.048,0.009-0.072,0.014C122.976,150.794,122.912,150.806,122.848,150.816"/>
	<path fill="#A9C4C5" d="M122.081,150.945c-0.009-0.14-0.589-12.643-0.589-12.643s2.483,12.083,2.525,12.283
		c-0.271,0.059-0.59,0.123-0.904,0.183c-0.088,0.017-0.175,0.032-0.264,0.048c-0.024,0.005-0.049,0.009-0.073,0.014
		c-0.192,0.034-0.385,0.066-0.579,0.098C122.156,150.934,122.117,150.939,122.081,150.945"/>
	<polygon fill="#FFFFFF" points="101.966,126.212 130.109,126.212 130.109,107.583 101.966,107.583 101.966,126.212 	"/>
	<polygon fill="#64C2C8" points="115.337,106.812 117.668,106.812 117.668,103.315 115.337,103.315 115.337,106.812 	"/>
	<path fill="#64C2C8" d="M115.339,117.299c0-2.573-2.088-4.661-4.662-4.661c-2.574,0-4.662,2.088-4.662,4.661
		c0,2.575,2.088,4.662,4.662,4.662v-4.662H115.339L115.339,117.299z"/>
	<path fill="#BEE2E5" d="M116.502,118.465h-4.66v4.661c2.525,0,4.583-2.008,4.66-4.515V118.465L116.502,118.465z"/>
	<polygon fill="#64C2C8" points="118.834,114.969 126.991,114.969 126.991,112.638 118.834,112.638 118.834,114.969 	"/>
	<polygon fill="#64C2C8" points="126.991,116.134 118.834,116.134 118.834,118.465 126.991,118.465 126.991,116.134 	"/>
	<polygon fill="#64C2C8" points="118.834,121.961 126.991,121.961 126.991,119.63 118.834,119.63 118.834,121.961 	"/>
	<path fill="#64C2C8" d="M121,131.851l-3.496-5.827l-0.033-0.037l-0.159-0.174l-0.17-0.154l-0.038-0.035l-0.151-0.053l-0.226-0.081
		l-0.225-0.011l-0.217,0.011l-0.235,0.084l-0.144,0.05l-0.036,0.034l-0.178,0.16l-0.151,0.168l-0.036,0.038l-3.496,5.825
		c-0.33,0.554-0.153,1.269,0.401,1.6c0.186,0.112,0.394,0.167,0.599,0.167c0.394,0,0.78-0.202,1-0.567l2.498-4.16l2.496,4.162
		c0.219,0.364,0.605,0.565,1.001,0.565c0.203,0,0.409-0.054,0.597-0.167C121.152,133.118,121.33,132.402,121,131.851"/>
	<path fill="#64C2C8" d="M132.819,105.646h-32.632v3.496h1.166v18.646h30.3v-18.646h1.166V105.646L132.819,105.646z
		 M129.324,125.457h-25.639v-16.315h25.639V125.457L129.324,125.457z"/>
</g>
<g>
	<polygon fill="#FFFFFF" points="102.148,207.06 130.291,207.06 130.291,188.431 102.148,188.431 102.148,207.06 	"/>
	<polygon fill="#64C2C8" points="115.519,187.659 117.849,187.659 117.849,184.163 115.519,184.163 115.519,187.659 	"/>
	<path fill="#64C2C8" d="M115.521,198.146c0-2.573-2.088-4.661-4.662-4.661s-4.662,2.088-4.662,4.661
		c0,2.574,2.087,4.662,4.662,4.662v-4.662H115.521L115.521,198.146z"/>
	<path fill="#BEE2E5" d="M116.684,199.313h-4.66v4.661c2.525,0,4.583-2.008,4.66-4.515V199.313L116.684,199.313z"/>
	<polygon fill="#64C2C8" points="119.016,195.816 127.173,195.816 127.173,193.485 119.016,193.485 119.016,195.816 	"/>
	<polygon fill="#64C2C8" points="127.172,196.981 119.016,196.981 119.016,199.312 127.172,199.312 127.172,196.981 	"/>
	<polygon fill="#64C2C8" points="119.016,202.809 127.173,202.809 127.173,200.478 119.016,200.478 119.016,202.809 	"/>
	<path fill="#64C2C8" d="M121.181,212.698l-3.496-5.827l-0.033-0.037l-0.159-0.174l-0.17-0.154l-0.039-0.035l-0.152-0.053
		l-0.226-0.081l-0.225-0.011l-0.217,0.011l-0.235,0.084l-0.144,0.05l-0.036,0.034l-0.178,0.16l-0.151,0.168l-0.036,0.037
		l-3.496,5.826c-0.33,0.554-0.153,1.268,0.4,1.6c0.187,0.112,0.394,0.167,0.6,0.167c0.394,0,0.781-0.202,1-0.567l2.497-4.161
		l2.496,4.162c0.219,0.365,0.604,0.566,1.001,0.566c0.203,0,0.409-0.054,0.597-0.167
		C121.334,213.966,121.512,213.25,121.181,212.698"/>
	<path fill="#64C2C8" d="M133.001,186.493h-32.632v3.496h1.166v18.646h30.3v-18.646h1.166V186.493L133.001,186.493z
		 M129.505,206.305h-25.639v-16.315h25.639V206.305L129.505,206.305z"/>
</g>
<g>
	<path fill="#EF7D00" d="M71.37,36.802c0-19.156-15.529-34.685-34.685-34.685C17.528,2.117,2,17.646,2,36.802
		c0,19.155,15.528,34.685,34.685,34.685c2.517,0,4.968-0.274,7.333-0.783l1.716,8.042c14.244-6.814,24.48-20.925,25.545-37.803
		c0.073-1.148,0.086-2.288,0.072-3.42C71.357,37.281,71.37,37.044,71.37,36.802"/>
	<path fill="#DADADA" d="M42.196,71.045c0.193-0.031,0.386-0.063,0.579-0.098c-0.186,0.033-0.373,0.064-0.56,0.095
		C42.208,71.043,42.203,71.044,42.196,71.045 M42.848,70.934c0.088-0.016,0.176-0.031,0.264-0.048
		c-0.023,0.005-0.048,0.009-0.072,0.014C42.976,70.911,42.912,70.923,42.848,70.934"/>
	<path fill="#CA6301" d="M42.081,71.063c-0.009-0.14-0.589-12.643-0.589-12.643s2.483,12.083,2.525,12.283
		c-0.271,0.059-0.59,0.123-0.904,0.183c-0.088,0.017-0.175,0.032-0.264,0.048c-0.024,0.005-0.049,0.009-0.073,0.014
		c-0.192,0.034-0.385,0.066-0.579,0.098C42.156,71.051,42.117,71.057,42.081,71.063"/>
	<path fill="#FFFFFF" d="M32.85,40.571c0-0.632-0.248-1.12-0.744-1.467c-0.497-0.345-1.256-0.519-2.279-0.519
		c-0.572,0-1.053,0.022-1.444,0.068v3.834c0.271,0.031,0.508,0.05,0.71,0.057c0.203,0.008,0.5,0.012,0.892,0.012
		c0.977,0,1.699-0.173,2.166-0.52C32.617,41.691,32.85,41.203,32.85,40.571L32.85,40.571z M32.58,34.119
		c0-0.496-0.207-0.921-0.621-1.274c-0.414-0.353-1.026-0.53-1.838-0.53c-0.346,0-0.654,0.016-0.925,0.046
		c-0.271,0.03-0.542,0.067-0.812,0.112v3.451c0.21,0.03,0.414,0.05,0.609,0.057c0.195,0.008,0.466,0.012,0.812,0.012
		c0.932,0,1.628-0.162,2.087-0.485C32.35,35.184,32.58,34.721,32.58,34.119L32.58,34.119z M37.001,40.978
		c0,0.646-0.154,1.263-0.462,1.85c-0.309,0.587-0.767,1.102-1.376,1.546c-0.609,0.443-1.375,0.797-2.301,1.06
		c-0.925,0.264-2.012,0.395-3.26,0.395c-0.722,0-1.522-0.029-2.402-0.09s-1.726-0.143-2.538-0.248V29.337
		c0.301-0.045,0.646-0.09,1.038-0.136c0.391-0.045,0.797-0.082,1.218-0.112c0.421-0.03,0.838-0.057,1.252-0.079
		s0.786-0.033,1.117-0.033c1.203,0,2.255,0.124,3.158,0.372c0.903,0.248,1.658,0.579,2.268,0.992
		c0.609,0.414,1.063,0.888,1.364,1.421c0.301,0.534,0.452,1.087,0.452,1.658c0,0.873-0.237,1.605-0.711,2.2
		c-0.474,0.594-1.184,1.086-2.131,1.477c1.128,0.347,1.962,0.843,2.503,1.489C36.73,39.233,37.001,40.029,37.001,40.978
		L37.001,40.978z"/>
	<polygon fill="#FFFFFF" points="43.25,32.653 43.25,36.308 48.935,36.308 48.935,39.669 43.25,39.669 43.25,45.67 39.415,45.67 
		39.415,29.134 49.882,29.134 49.882,32.653 43.25,32.653 	"/>
</g>
<g>
	<path fill="#FCCEA2" d="M71.37,116.685C71.37,97.528,55.841,82,36.685,82C17.528,82,2,97.528,2,116.685
		c0,19.155,15.528,34.685,34.685,34.685c2.517,0,4.968-0.275,7.333-0.783l1.716,8.042c14.244-6.814,24.48-20.925,25.545-37.803
		c0.073-1.148,0.086-2.288,0.072-3.42C71.357,117.164,71.37,116.927,71.37,116.685"/>
	<path fill="#DADADA" d="M42.196,150.928c0.193-0.031,0.386-0.063,0.579-0.098c-0.186,0.033-0.373,0.064-0.56,0.095
		C42.208,150.926,42.203,150.927,42.196,150.928 M42.848,150.816c0.088-0.016,0.176-0.031,0.264-0.048
		c-0.023,0.005-0.048,0.009-0.072,0.014C42.976,150.794,42.912,150.806,42.848,150.816"/>
	<path fill="#D5AB82" d="M42.081,150.945c-0.009-0.14-0.589-12.643-0.589-12.643s2.483,12.083,2.525,12.283
		c-0.271,0.059-0.59,0.123-0.904,0.183c-0.088,0.017-0.175,0.032-0.264,0.048c-0.024,0.005-0.049,0.009-0.073,0.014
		c-0.192,0.034-0.385,0.066-0.579,0.098C42.156,150.934,42.117,150.939,42.081,150.945"/>
	<path fill="#EF7D00" d="M43.296,115.397c-0.274,0.859-1.201,1.34-2.061,1.066l-10.708-3.406c-0.86-0.273-1.34-1.201-1.067-2.062
		l3.406-10.707c0.273-0.859,1.2-1.339,2.061-1.066l10.708,3.406c0.86,0.273,1.339,1.201,1.066,2.062L43.296,115.397L43.296,115.397z
		"/>
	<path fill="#FFFFFF" d="M43.4,109.535c-0.935,2.937-4.073,4.56-7.009,3.625c-2.937-0.933-4.56-4.071-3.626-7.009
		c0.935-2.936,4.073-4.56,7.009-3.626C42.71,103.46,44.334,106.598,43.4,109.535"/>
	<path fill="#EF7D00" d="M40.365,110.117c-0.082,0.255-0.22,0.48-0.416,0.673c-0.195,0.192-0.44,0.34-0.737,0.437
		c-0.297,0.099-0.645,0.143-1.042,0.13c-0.399-0.012-0.845-0.096-1.337-0.253c-0.285-0.09-0.598-0.203-0.938-0.338
		c-0.34-0.134-0.664-0.273-0.971-0.417l2.029-6.381c0.125,0.021,0.267,0.046,0.428,0.079c0.16,0.029,0.325,0.066,0.495,0.107
		s0.339,0.083,0.503,0.126c0.166,0.043,0.315,0.086,0.447,0.127c0.475,0.15,0.875,0.332,1.2,0.545
		c0.326,0.21,0.582,0.436,0.771,0.677c0.189,0.239,0.308,0.484,0.36,0.731c0.051,0.249,0.042,0.486-0.03,0.712
		c-0.109,0.345-0.295,0.605-0.557,0.78c-0.261,0.175-0.604,0.28-1.028,0.314c0.401,0.279,0.669,0.579,0.802,0.903
		C40.476,109.395,40.482,109.743,40.365,110.117 M39.479,106.853c0.063-0.196,0.035-0.39-0.084-0.582
		c-0.12-0.19-0.339-0.337-0.661-0.439c-0.137-0.043-0.26-0.076-0.369-0.098c-0.111-0.023-0.223-0.042-0.335-0.059l-0.436,1.364
		c0.081,0.038,0.158,0.07,0.234,0.099c0.076,0.026,0.182,0.062,0.32,0.105c0.367,0.117,0.663,0.142,0.886,0.072
		C39.256,107.244,39.405,107.09,39.479,106.853 M38.775,109.436c0.08-0.25,0.044-0.474-0.109-0.673
		c-0.152-0.199-0.431-0.363-0.835-0.491c-0.225-0.071-0.417-0.123-0.578-0.154l-0.482,1.514c0.104,0.047,0.194,0.084,0.274,0.111
		c0.079,0.029,0.195,0.068,0.35,0.117c0.386,0.123,0.693,0.146,0.92,0.067C38.543,109.848,38.698,109.686,38.775,109.436"/>
	<path fill="#EF7D00" d="M52.352,131.212c0,0.901-0.738,1.64-1.641,1.64H39.475c-0.902,0-1.641-0.738-1.641-1.64v-11.237
		c0-0.901,0.739-1.64,1.641-1.64H50.71c0.903,0,1.641,0.738,1.641,1.64V131.212L52.352,131.212z"/>
	<path fill="#FFFFFF" d="M50.673,125.593c0,3.082-2.5,5.58-5.581,5.58c-3.082,0-5.581-2.498-5.581-5.58
		c0-3.081,2.499-5.58,5.581-5.58C48.174,120.013,50.673,122.512,50.673,125.593"/>
	<polygon fill="#EF7D00" points="44.883,123.694 44.883,125.155 47.155,125.155 47.155,126.499 44.883,126.499 44.883,128.898 
		43.349,128.898 43.349,122.288 47.535,122.288 47.535,123.694 44.883,123.694 	"/>
	<path fill="#EF7D00" d="M35.537,128.927c0,0.901-0.738,1.64-1.641,1.64H22.66c-0.903,0-1.641-0.738-1.641-1.64V117.69
		c0-0.903,0.738-1.642,1.641-1.642h11.236c0.903,0,1.641,0.738,1.641,1.642V128.927L35.537,128.927z"/>
	<path fill="#FFFFFF" d="M33.857,123.308c0,3.083-2.498,5.581-5.58,5.581c-3.082,0-5.58-2.498-5.58-5.581
		c0-3.081,2.498-5.58,5.58-5.58C31.359,117.728,33.857,120.227,33.857,123.308"/>
	<path fill="#FCCEA2" d="M27.585,123.705c1.146-0.71,1.625-1.063,1.625-1.99c0-0.729-0.427-1.199-1.167-1.199
		c-0.531,0-0.948,0.219-1.146,0.584c0.333,0.114,0.531,0.386,0.531,0.72c0,0.426-0.281,0.77-0.761,0.77
		c-0.49,0-0.822-0.385-0.822-0.905c0-0.938,0.969-1.845,2.417-1.845c1.532,0,2.365,0.896,2.365,1.949
		c0,1.104-0.865,1.655-2.104,2.219c-1.116,0.509-1.615,0.843-1.865,1.384l0.031,0.042c0.281-0.197,0.667-0.312,1.042-0.312
		c0.75,0,1.302,0.468,1.76,0.468c0.417,0,0.584-0.302,0.782-1.125l0.563,0.052c-0.125,1.656-0.677,2.261-1.5,2.261
		c-1.063,0-1.49-0.999-2.168-0.999c-0.073,0-0.167,0.021-0.197,0.021c0.063,0.073,0.125,0.208,0.125,0.364
		c0,0.334-0.24,0.614-0.625,0.614c-0.447,0-0.75-0.363-0.75-0.875C25.72,125.08,26.491,124.359,27.585,123.705"/>
</g>
<g>
	<g>
		<defs>
			<rect id="SVGID_5_" x="21.019" y="180.458" width="31.333" height="33.706"/>
		</defs>
		<clipPath id="SVGID_6_">
			<use xlink:href="#SVGID_5_"  overflow="visible"/>
		</clipPath>
		<path clip-path="url(#SVGID_6_)" fill="#EF7D00" d="M43.296,196.709c-0.274,0.86-1.201,1.34-2.061,1.066l-10.708-3.406
			c-0.86-0.272-1.34-1.2-1.067-2.061l3.406-10.707c0.273-0.86,1.2-1.34,2.061-1.066l10.708,3.406c0.86,0.272,1.34,1.201,1.066,2.061
			L43.296,196.709L43.296,196.709z"/>
	</g>
	<path fill="#FFFFFF" d="M43.399,190.847c-0.935,2.937-4.072,4.561-7.009,3.626c-2.937-0.933-4.56-4.072-3.626-7.009
		c0.935-2.936,4.073-4.561,7.009-3.626C42.71,184.771,44.334,187.91,43.399,190.847"/>
	<path fill="#EF7D00" d="M40.365,191.429c-0.082,0.256-0.22,0.48-0.416,0.674c-0.195,0.192-0.44,0.339-0.737,0.436
		c-0.297,0.1-0.645,0.144-1.042,0.131c-0.399-0.012-0.845-0.097-1.338-0.253c-0.285-0.091-0.598-0.203-0.937-0.338
		c-0.34-0.134-0.664-0.274-0.971-0.417l2.029-6.381c0.125,0.021,0.267,0.046,0.428,0.078c0.16,0.03,0.325,0.067,0.495,0.108
		c0.169,0.041,0.338,0.083,0.503,0.125c0.166,0.043,0.315,0.086,0.446,0.128c0.475,0.15,0.875,0.331,1.2,0.544
		c0.326,0.211,0.582,0.436,0.771,0.677c0.189,0.24,0.308,0.484,0.36,0.731c0.051,0.25,0.042,0.487-0.03,0.713
		c-0.109,0.345-0.295,0.604-0.557,0.779c-0.262,0.176-0.604,0.28-1.028,0.315c0.401,0.279,0.669,0.579,0.802,0.903
		C40.476,190.707,40.482,191.056,40.365,191.429 M39.479,188.165c0.063-0.197,0.035-0.39-0.084-0.582
		c-0.119-0.191-0.339-0.338-0.66-0.44c-0.136-0.043-0.26-0.075-0.369-0.098c-0.111-0.022-0.223-0.041-0.335-0.058l-0.435,1.363
		c0.081,0.038,0.158,0.071,0.234,0.099c0.076,0.027,0.182,0.063,0.32,0.106c0.367,0.117,0.663,0.141,0.886,0.072
		C39.256,188.556,39.405,188.401,39.479,188.165 M38.775,190.747c0.08-0.249,0.044-0.473-0.109-0.673
		c-0.152-0.198-0.431-0.362-0.835-0.491c-0.225-0.071-0.417-0.123-0.578-0.154l-0.482,1.515c0.104,0.047,0.194,0.084,0.274,0.111
		c0.079,0.029,0.195,0.068,0.35,0.117c0.386,0.122,0.693,0.145,0.92,0.067C38.543,191.16,38.698,190.997,38.775,190.747"/>
	<path fill="#EF7D00" d="M52.352,212.523c0,0.902-0.738,1.641-1.641,1.641H39.475c-0.903,0-1.641-0.738-1.641-1.641v-11.236
		c0-0.902,0.738-1.641,1.641-1.641H50.71c0.903,0,1.641,0.738,1.641,1.641V212.523L52.352,212.523z"/>
	<path fill="#FFFFFF" d="M50.673,206.904c0,3.083-2.5,5.581-5.581,5.581c-3.082,0-5.581-2.498-5.581-5.581
		c0-3.081,2.499-5.579,5.581-5.579C48.174,201.325,50.673,203.823,50.673,206.904"/>
	<polygon fill="#EF7D00" points="44.883,205.006 44.883,206.467 47.155,206.467 47.155,207.812 44.883,207.812 44.883,210.211 
		43.349,210.211 43.349,203.6 47.535,203.6 47.535,205.006 44.883,205.006 	"/>
	<path fill="#EF7D00" d="M35.537,210.238c0,0.902-0.738,1.641-1.641,1.641H22.66c-0.903,0-1.641-0.738-1.641-1.641v-11.236
		c0-0.902,0.738-1.641,1.641-1.641h11.236c0.903,0,1.641,0.738,1.641,1.641V210.238L35.537,210.238z"/>
	<path fill="#FFFFFF" d="M33.857,204.619c0,3.083-2.498,5.581-5.58,5.581c-3.082,0-5.58-2.498-5.58-5.581
		c0-3.081,2.498-5.579,5.58-5.579C31.359,199.04,33.857,201.538,33.857,204.619"/>
	<path fill="#FCCEA2" d="M27.585,205.017c1.146-0.709,1.625-1.063,1.625-1.989c0-0.729-0.427-1.199-1.167-1.199
		c-0.531,0-0.948,0.219-1.146,0.584c0.333,0.114,0.531,0.386,0.531,0.719c0,0.427-0.281,0.771-0.761,0.771
		c-0.49,0-0.822-0.386-0.822-0.905c0-0.938,0.969-1.845,2.417-1.845c1.532,0,2.365,0.896,2.365,1.948
		c0,1.104-0.865,1.656-2.104,2.219c-1.116,0.509-1.615,0.844-1.865,1.385l0.031,0.042c0.281-0.197,0.667-0.312,1.042-0.312
		c0.75,0,1.302,0.468,1.76,0.468c0.417,0,0.584-0.303,0.782-1.125l0.563,0.051c-0.125,1.657-0.676,2.262-1.5,2.262
		c-1.063,0-1.49-0.999-2.168-0.999c-0.073,0-0.167,0.021-0.197,0.021c0.063,0.072,0.125,0.208,0.125,0.364
		c0,0.333-0.239,0.614-0.625,0.614c-0.447,0-0.75-0.363-0.75-0.875C25.72,206.392,26.491,205.672,27.585,205.017"/>
</g>
</svg>
