<?xml version="1.0" encoding="utf-8"?>
<!-- Generator: Adobe Illustrator 15.0.2, SVG Export Plug-In . SVG Version: 6.00 Build 0)  -->
<!DOCTYPE svg PUBLIC "-//W3C//DTD SVG 1.1//EN" "http://www.w3.org/Graphics/SVG/1.1/DTD/svg11.dtd">
<svg version="1.1" id="Lager_1" xmlns="http://www.w3.org/2000/svg" xmlns:xlink="http://www.w3.org/1999/xlink" x="0px" y="0px"
	 width="800px" height="80px" viewBox="0 0 800 80" enable-background="new 0 0 800 80" xml:space="preserve">
<g>
	<path fill="#4F4F4F" d="M38.336,36.2c0,1.175-0.962,2.136-2.137,2.136H4.136C2.961,38.336,2,37.375,2,36.2V4.137
		C2,2.961,2.961,2,4.136,2H36.2c1.175,0,2.137,0.961,2.137,2.137L38.336,36.2L38.336,36.2z"/>
	<path id="Facebook_1_" fill="#FFFFFF" d="M17.555,14.503c0,0.497,0,2.716,0,2.716h-1.989v3.321h1.989v9.113h4.087V20.54h2.743
		c0,0,0.257-1.591,0.381-3.334c-0.357,0-3.108,0-3.108,0s0-1.931,0-2.27c0-0.34,0.446-0.796,0.886-0.796s1.367,0,2.228,0
		c0-0.452,0-2.014,0-3.458c-1.147,0-2.452,0-3.027,0C17.454,10.684,17.555,14.008,17.555,14.503z"/>
</g>
<g>
	<path fill="#4F4F4F" d="M78.335,36.2c0,1.175-0.961,2.136-2.136,2.136H44.137C42.961,38.336,42,37.375,42,36.2V4.137
		C42,2.961,42.961,2,44.137,2H76.2c1.175,0,2.136,0.961,2.136,2.137L78.335,36.2L78.335,36.2z"/>
	<path id="Twitter" fill="#FFFFFF" d="M64.267,25.068h-4.089c-0.568,0-1.052-0.199-1.448-0.6c-0.399-0.399-0.597-0.883-0.597-1.455
		V21.56h5.826c0.525,0,0.979-0.189,1.354-0.565s0.564-0.828,0.564-1.354c0-0.528-0.188-0.979-0.564-1.356
		c-0.377-0.375-0.831-0.564-1.359-0.564h-5.818v-4.522c0-0.568-0.203-1.055-0.606-1.461c-0.401-0.407-0.886-0.611-1.45-0.611
		c-0.579,0-1.072,0.201-1.473,0.599c-0.402,0.399-0.604,0.89-0.604,1.475v9.816c0,1.708,0.604,3.166,1.813,4.377
		c1.208,1.212,2.665,1.818,4.368,1.818h4.087c0.566,0,1.055-0.205,1.46-0.61c0.404-0.405,0.607-0.894,0.607-1.462
		c0-0.568-0.201-1.056-0.607-1.461C65.323,25.272,64.834,25.068,64.267,25.068z"/>
</g>
<g>
	<path fill="#4F4F4F" d="M118.336,36.2c0,1.175-0.961,2.136-2.136,2.136H84.137C82.962,38.336,82,37.375,82,36.2V4.137
		C82,2.961,82.962,2,84.137,2H116.2c1.175,0,2.136,0.961,2.136,2.137V36.2z"/>
	<path id="RSS" fill="#FFFFFF" d="M95.295,25.034c0.432,0.433,0.695,1.018,0.696,1.669c-0.001,0.65-0.265,1.235-0.694,1.666
		l-0.001,0.001c-0.431,0.428-1.02,0.691-1.675,0.691c-0.654,0-1.242-0.264-1.672-0.692c-0.43-0.431-0.694-1.015-0.694-1.666
		s0.266-1.237,0.694-1.669l0,0c0.431-0.428,1.019-0.693,1.672-0.693C94.275,24.341,94.863,24.607,95.295,25.034z M95.295,25.034
		L95.295,25.034C95.296,25.034,95.296,25.034,95.295,25.034L95.295,25.034z M91.948,28.37L91.948,28.37
		C91.947,28.369,91.947,28.369,91.948,28.37L91.948,28.37z M91.256,17.316v3.403c2.224,0.003,4.325,0.875,5.897,2.452
		c1.574,1.569,2.443,3.675,2.446,5.904H99.6v0.007h3.418c-0.002-3.244-1.321-6.181-3.452-8.313S94.499,17.318,91.256,17.316z
		 M91.262,11.254v3.403c7.943,0.007,14.402,6.473,14.407,14.426h3.412c-0.002-4.916-2-9.368-5.228-12.599
		C100.625,13.255,96.174,11.256,91.262,11.254z"/>
</g>
<g>
	<path fill="#4F4F4F" d="M158.336,36.2c0,1.175-0.962,2.136-2.137,2.136h-32.063c-1.176,0-2.138-0.961-2.138-2.136V4.137
		C122,2.961,122.962,2,124.137,2H156.2c1.175,0,2.137,0.961,2.137,2.137L158.336,36.2L158.336,36.2z"/>
	<path fill="#FFFFFF" d="M135.613,27.734h-3.205V17.479h3.205V27.734z M133.93,16.197h-0.023c-1.16,0-1.911-0.784-1.911-1.777
		c0-1.013,0.774-1.78,1.956-1.78c1.183,0,1.911,0.765,1.933,1.778C135.884,15.411,135.134,16.197,133.93,16.197z M148.432,27.734
		h-3.634v-5.306c0-1.391-0.567-2.338-1.818-2.338c-0.955,0-1.485,0.64-1.734,1.256c-0.094,0.222-0.079,0.529-0.079,0.838v5.55
		h-3.598c0,0,0.045-9.4,0-10.255h3.598v1.609c0.214-0.704,1.363-1.708,3.199-1.708c2.275,0,4.065,1.475,4.065,4.65L148.432,27.734
		L148.432,27.734z"/>
</g>
<g>
	<path fill="#4F4F4F" d="M198.336,36.199c0,1.176-0.96,2.137-2.136,2.137h-32.063c-1.176,0-2.138-0.961-2.138-2.137V4.136
		C162,2.961,162.962,2,164.137,2H196.2c1.175,0,2.136,0.961,2.136,2.136V36.199L198.336,36.199z"/>
	<path fill="#3C3B3C" d="M176.707,21.25h-3.89v1.191h1.312v7.012h1.268v-7.012h1.311V21.25L176.707,21.25z M178.777,27.994
		c-0.104,0.135-0.22,0.242-0.348,0.326c-0.128,0.086-0.232,0.129-0.314,0.129c-0.104,0-0.181-0.033-0.228-0.098
		c-0.049-0.064-0.071-0.168-0.071-0.311v-4.637h-1.125v5.057c0,0.359,0.063,0.631,0.198,0.811c0.133,0.18,0.327,0.27,0.587,0.27
		c0.211,0,0.43-0.064,0.653-0.191c0.224-0.129,0.439-0.318,0.646-0.564v0.67h1.125v-6.051h-1.125L178.777,27.994L178.777,27.994z
		 M183.136,23.326c-0.175,0-0.347,0.047-0.519,0.145c-0.169,0.094-0.331,0.234-0.481,0.42V21.25H181v8.203h1.137v-0.465
		c0.147,0.186,0.308,0.32,0.479,0.408c0.174,0.09,0.369,0.133,0.589,0.133c0.334,0,0.587-0.113,0.766-0.344
		c0.178-0.227,0.265-0.557,0.265-0.986v-3.357c0-0.494-0.095-0.869-0.281-1.129C183.764,23.455,183.492,23.326,183.136,23.326
		 M183.076,28.035c0,0.191-0.032,0.332-0.098,0.418c-0.064,0.084-0.167,0.125-0.305,0.125c-0.095,0-0.185-0.021-0.271-0.064
		s-0.175-0.115-0.267-0.213v-3.77c0.075-0.084,0.153-0.145,0.231-0.186c0.078-0.039,0.157-0.061,0.238-0.061
		c0.15,0,0.267,0.055,0.346,0.16c0.083,0.107,0.122,0.26,0.122,0.467L183.076,28.035L183.076,28.035z M188.392,26.57v-1.541
		c0-0.576-0.139-1.014-0.416-1.322c-0.275-0.305-0.672-0.457-1.188-0.457c-0.503,0-0.913,0.164-1.23,0.496
		c-0.318,0.328-0.479,0.758-0.479,1.283v2.717c0,0.582,0.146,1.037,0.437,1.373c0.289,0.332,0.686,0.498,1.188,0.498
		c0.562,0,0.982-0.156,1.263-0.471c0.282-0.314,0.424-0.781,0.424-1.4v-0.455h-1.157v0.42c0,0.359-0.037,0.586-0.111,0.689
		s-0.206,0.156-0.392,0.156c-0.179,0-0.306-0.061-0.379-0.184c-0.076-0.123-0.112-0.344-0.112-0.662v-1.14H188.392L188.392,26.57z
		 M186.239,25.018c0-0.254,0.04-0.436,0.118-0.545c0.078-0.109,0.206-0.164,0.385-0.164c0.173,0,0.296,0.055,0.374,0.164
		c0.078,0.109,0.118,0.291,0.118,0.545v0.613h-0.993L186.239,25.018L186.239,25.018z"/>
	<g>
		<g>
			<path id="SVGID_9_" fill="#FFFFFF" d="M180.168,18.803c-0.109,0-0.218,0-0.329,0c-2.087,0-4.136,0.04-6.142,0.125
				c-1.478,0-2.676,1.184-2.676,2.645c-0.089,1.158-0.127,2.316-0.125,3.473c-0.002,1.158,0.036,2.314,0.125,3.475
				c0,1.461,1.198,2.645,2.676,2.645c2.11,0.09,4.269,0.127,6.471,0.123c2.201,0.004,4.359-0.033,6.47-0.123
				c1.479,0,2.677-1.184,2.677-2.645c0.09-1.16,0.128-2.316,0.125-3.475c0.003-1.156-0.035-2.314-0.125-3.473
				c0-1.46-1.198-2.645-2.677-2.645c-2.007-0.084-4.056-0.125-6.143-0.125C180.387,18.803,180.277,18.803,180.168,18.803"/>
		</g>
		<g>
			<g>
				<g>
					<defs>
						<path id="SVGID_5_" d="M180.168,18.803c-0.109,0-0.218,0-0.329,0c-2.087,0-4.136,0.04-6.142,0.125
							c-1.478,0-2.676,1.184-2.676,2.645c-0.089,1.158-0.127,2.316-0.125,3.473c-0.002,1.158,0.036,2.314,0.125,3.475
							c0,1.461,1.198,2.645,2.676,2.645c2.11,0.09,4.269,0.127,6.471,0.123c2.201,0.004,4.359-0.033,6.47-0.123
							c1.479,0,2.677-1.184,2.677-2.645c0.09-1.16,0.128-2.316,0.125-3.475c0.003-1.156-0.035-2.314-0.125-3.473
							c0-1.46-1.198-2.645-2.677-2.645c-2.007-0.084-4.056-0.125-6.143-0.125C180.387,18.803,180.277,18.803,180.168,18.803"/>
					</defs>
					<clipPath id="SVGID_6_">
						<use xlink:href="#SVGID_5_"  overflow="visible"/>
					</clipPath>
					<rect x="170.894" y="18.803" clip-path="url(#SVGID_6_)" fill="#FFFFFF" width="18.548" height="12.488"/>
				</g>
			</g>
		</g>
	</g>
	<g>
		<g>
			<polygon id="SVGID_11_" fill="#FFFFFF" points="176.693,9.047 175.909,12.326 175.828,12.326 175.007,9.047 173.729,9.047 
				175.238,13.999 175.238,17.25 176.505,17.25 176.505,13.846 177.979,9.047 			"/>
		</g>
		<g>
			<g>
				<g>
					<defs>
						<polygon id="SVGID_7_" points="176.693,9.047 175.909,12.326 175.828,12.326 175.007,9.047 173.729,9.047 175.238,13.999 
							175.238,17.25 176.505,17.25 176.505,13.846 177.979,9.047 						"/>
					</defs>
					<clipPath id="SVGID_8_">
						<use xlink:href="#SVGID_7_"  overflow="visible"/>
					</clipPath>
					<rect x="173.729" y="9.047" clip-path="url(#SVGID_8_)" fill="#FFFFFF" width="4.251" height="8.204"/>
				</g>
			</g>
		</g>
	</g>
	<g>
		<g>
			<path id="SVGID_13_" fill="#FFFFFF" d="M179.2,16.218c-0.081-0.091-0.12-0.22-0.12-0.386v-3.297c0-0.132,0.043-0.238,0.129-0.32
				c0.085-0.08,0.197-0.12,0.335-0.12c0.147,0,0.269,0.04,0.359,0.12c0.092,0.082,0.138,0.188,0.138,0.32v3.297
				c0,0.162-0.044,0.29-0.133,0.382c-0.091,0.093-0.212,0.139-0.364,0.139C179.395,16.355,179.281,16.309,179.2,16.218
				 M178.377,11.462c-0.304,0.278-0.456,0.652-0.456,1.12l0.001,3.139c0,0.512,0.147,0.922,0.442,1.225
				c0.294,0.306,0.689,0.458,1.181,0.458c0.512,0,0.912-0.147,1.205-0.441c0.29-0.295,0.438-0.701,0.438-1.221v-3.124
				c0-0.461-0.148-0.838-0.445-1.131c-0.299-0.292-0.681-0.439-1.146-0.439C179.087,11.046,178.679,11.185,178.377,11.462"/>
		</g>
		<g>
			<g>
				<g>
					<defs>
						<path id="SVGID_10_" d="M179.2,16.218c-0.081-0.091-0.12-0.22-0.12-0.386v-3.297c0-0.132,0.043-0.238,0.129-0.32
							c0.085-0.08,0.197-0.12,0.335-0.12c0.147,0,0.269,0.04,0.359,0.12c0.092,0.082,0.138,0.188,0.138,0.32v3.297
							c0,0.162-0.044,0.29-0.133,0.382c-0.091,0.093-0.212,0.139-0.364,0.139C179.395,16.355,179.281,16.309,179.2,16.218
							 M178.377,11.462c-0.304,0.278-0.456,0.652-0.456,1.12l0.001,3.139c0,0.512,0.147,0.922,0.442,1.225
							c0.294,0.306,0.689,0.458,1.181,0.458c0.512,0,0.912-0.147,1.205-0.441c0.29-0.295,0.438-0.701,0.438-1.221v-3.124
							c0-0.461-0.148-0.838-0.445-1.131c-0.299-0.292-0.681-0.439-1.146-0.439C179.087,11.046,178.679,11.185,178.377,11.462"/>
					</defs>
					<clipPath id="SVGID_12_">
						<use xlink:href="#SVGID_10_"  overflow="visible"/>
					</clipPath>
					<rect x="177.922" y="11.046" clip-path="url(#SVGID_12_)" fill="#FFFFFF" width="3.267" height="6.358"/>
				</g>
			</g>
		</g>
	</g>
	<g>
		<g>
			<path id="SVGID_15_" fill="#FFFFFF" d="M184.229,11.199v4.592c-0.107,0.133-0.223,0.241-0.349,0.326
				c-0.127,0.085-0.23,0.128-0.313,0.128c-0.106,0-0.183-0.032-0.229-0.096s-0.07-0.167-0.07-0.312v-4.638h-1.123v5.057
				c0,0.36,0.063,0.63,0.194,0.811c0.134,0.179,0.328,0.27,0.59,0.27c0.211,0,0.428-0.065,0.652-0.192
				c0.226-0.128,0.44-0.317,0.647-0.563v0.668h1.125v-6.051H184.229L184.229,11.199z"/>
		</g>
		<g>
			<g>
				<g>
					<defs>
						<path id="SVGID_14_" d="M184.229,11.199v4.592c-0.107,0.133-0.223,0.241-0.349,0.326c-0.127,0.085-0.23,0.128-0.313,0.128
							c-0.106,0-0.183-0.032-0.229-0.096s-0.07-0.167-0.07-0.312v-4.638h-1.123v5.057c0,0.36,0.063,0.63,0.194,0.811
							c0.134,0.179,0.328,0.27,0.59,0.27c0.211,0,0.428-0.065,0.652-0.192c0.226-0.128,0.44-0.317,0.647-0.563v0.668h1.125v-6.051
							H184.229L184.229,11.199z"/>
					</defs>
					<clipPath id="SVGID_16_">
						<use xlink:href="#SVGID_14_"  overflow="visible"/>
					</clipPath>
					<rect x="182.145" y="11.199" clip-path="url(#SVGID_16_)" fill="#FFFFFF" width="3.208" height="6.138"/>
				</g>
			</g>
		</g>
	</g>
	<path fill="#4F4F4F" d="M176.222,20.827h-3.889v1.193h1.311v7.01h1.268v-7.01h1.312L176.222,20.827L176.222,20.827z
		 M178.292,27.572c-0.104,0.131-0.219,0.24-0.348,0.324c-0.127,0.086-0.231,0.129-0.313,0.129c-0.105,0-0.183-0.033-0.229-0.098
		c-0.049-0.064-0.071-0.168-0.071-0.311v-4.639h-1.124v5.057c0,0.361,0.063,0.631,0.196,0.813c0.133,0.18,0.328,0.27,0.587,0.27
		c0.211,0,0.429-0.064,0.654-0.191c0.223-0.131,0.438-0.318,0.646-0.564v0.67h1.125v-6.053h-1.125v4.593H178.292z M182.652,22.902
		c-0.175,0-0.348,0.049-0.52,0.145c-0.168,0.096-0.329,0.236-0.48,0.422v-2.642h-1.136v8.205h1.136v-0.467
		c0.146,0.184,0.306,0.32,0.477,0.408c0.176,0.09,0.371,0.135,0.592,0.135c0.333,0,0.587-0.115,0.765-0.344
		c0.176-0.229,0.263-0.559,0.263-0.986v-3.359c0-0.494-0.093-0.869-0.281-1.127C183.28,23.031,183.007,22.902,182.652,22.902
		 M182.59,27.611c0,0.193-0.031,0.332-0.097,0.416c-0.063,0.086-0.167,0.129-0.304,0.129c-0.097,0-0.187-0.023-0.272-0.066
		c-0.084-0.043-0.174-0.115-0.265-0.213v-3.771c0.076-0.082,0.153-0.143,0.23-0.182c0.078-0.041,0.157-0.061,0.239-0.061
		c0.15,0,0.268,0.053,0.348,0.158c0.081,0.107,0.121,0.262,0.121,0.467L182.59,27.611L182.59,27.611z M187.907,26.145v-1.539
		c0-0.574-0.138-1.016-0.414-1.32c-0.277-0.307-0.673-0.459-1.188-0.459c-0.502,0-0.913,0.164-1.231,0.494
		c-0.318,0.332-0.477,0.758-0.477,1.285v2.717c0,0.582,0.145,1.039,0.435,1.373c0.289,0.332,0.686,0.498,1.189,0.498
		c0.56,0,0.98-0.156,1.263-0.471c0.282-0.314,0.423-0.781,0.423-1.4v-0.455h-1.159v0.42c0,0.357-0.036,0.586-0.11,0.689
		c-0.075,0.104-0.206,0.156-0.394,0.156c-0.179,0-0.305-0.059-0.378-0.184c-0.076-0.123-0.111-0.344-0.111-0.662v-1.143
		L187.907,26.145L187.907,26.145z M185.755,24.596c0-0.256,0.039-0.436,0.118-0.547c0.076-0.109,0.206-0.164,0.384-0.164
		c0.174,0,0.296,0.055,0.375,0.164c0.078,0.111,0.118,0.291,0.118,0.547v0.611h-0.994L185.755,24.596L185.755,24.596z"/>
</g>
<g>
	<path fill="#4F4F4F" d="M238.351,36.199c0,1.176-0.961,2.137-2.137,2.137h-32.063c-1.175,0-2.137-0.961-2.137-2.137V4.136
		c0-1.175,0.962-2.136,2.137-2.136h32.063c1.176,0,2.137,0.961,2.137,2.136V36.199L238.351,36.199z"/>
	<polygon fill="#FFFFFF" points="226.364,14.441 226.364,11.641 225.171,11.641 225.171,14.441 222.37,14.441 222.37,15.62 
		225.171,15.62 225.171,18.442 226.364,18.442 226.364,15.62 229.165,15.62 229.165,14.441 	"/>
	<path fill="#FFFFFF" d="M221.329,22.623c-0.171-0.24-0.373-0.465-0.604-0.674c-0.231-0.209-0.468-0.418-0.704-0.627l-0.808-0.628
		c-0.117-0.104-0.244-0.227-0.38-0.369c-0.135-0.142-0.201-0.34-0.201-0.594s0.066-0.464,0.201-0.627
		c0.135-0.166,0.276-0.322,0.425-0.472c0.239-0.179,0.471-0.369,0.695-0.571c0.224-0.202,0.424-0.426,0.604-0.672
		c0.179-0.247,0.32-0.528,0.426-0.842c0.103-0.313,0.155-0.679,0.155-1.098c0-0.417-0.062-0.791-0.18-1.12
		c-0.12-0.328-0.262-0.616-0.425-0.862c-0.165-0.247-0.336-0.456-0.515-0.627c-0.181-0.172-0.337-0.311-0.472-0.416h1.39
		l1.432-0.783h-4.611c-0.611,0-1.271,0.076-1.979,0.225c-0.709,0.148-1.385,0.484-2.026,1.007c-0.477,0.417-0.835,0.892-1.073,1.42
		c-0.238,0.53-0.357,1.057-0.357,1.579c0,0.432,0.082,0.861,0.245,1.286c0.165,0.425,0.404,0.802,0.717,1.13
		c0.313,0.328,0.701,0.593,1.163,0.794c0.463,0.202,0.993,0.303,1.59,0.303c0.12,0,0.239-0.004,0.359-0.012
		c0.117-0.008,0.235-0.019,0.355-0.034c-0.059,0.135-0.11,0.265-0.154,0.391c-0.045,0.128-0.068,0.289-0.068,0.481
		c0,0.344,0.071,0.631,0.214,0.863c0.141,0.23,0.294,0.451,0.459,0.66c-0.255,0.014-0.554,0.037-0.896,0.066
		c-0.345,0.031-0.71,0.082-1.099,0.156c-0.387,0.074-0.777,0.176-1.175,0.303c-0.396,0.127-0.765,0.295-1.107,0.504
		c-0.656,0.387-1.107,0.84-1.354,1.354c-0.247,0.516-0.37,0.973-0.37,1.375c0,0.418,0.098,0.818,0.292,1.199
		c0.193,0.381,0.492,0.719,0.896,1.018c0.402,0.299,0.904,0.539,1.512,0.717c0.604,0.18,1.309,0.27,2.114,0.27
		c0.955,0,1.802-0.123,2.54-0.371c0.738-0.246,1.354-0.568,1.847-0.963c0.493-0.396,0.866-0.85,1.119-1.357
		c0.254-0.508,0.381-1.023,0.381-1.547c0-0.389-0.053-0.732-0.157-1.029C221.64,23.129,221.5,22.859,221.329,22.623z
		 M217.088,18.759c-0.477,0-0.891-0.14-1.241-0.417c-0.352-0.277-0.643-0.618-0.873-1.022c-0.23-0.404-0.402-0.838-0.516-1.303
		c-0.111-0.463-0.167-0.884-0.167-1.258c0-0.298,0.033-0.591,0.101-0.876c0.066-0.283,0.197-0.546,0.392-0.786
		c0.179-0.225,0.41-0.405,0.693-0.539c0.285-0.135,0.574-0.203,0.874-0.203c0.463,0,0.868,0.139,1.221,0.416
		c0.35,0.276,0.645,0.625,0.884,1.045c0.239,0.418,0.418,0.867,0.537,1.347c0.119,0.479,0.179,0.921,0.179,1.325
		c0,0.209-0.029,0.472-0.089,0.786c-0.06,0.315-0.217,0.6-0.47,0.854c-0.18,0.18-0.406,0.33-0.683,0.45
		C217.652,18.698,217.371,18.759,217.088,18.759z M219.562,27.072c-0.561,0.455-1.376,0.682-2.451,0.682
		c-1.209,0-2.168-0.252-2.877-0.76c-0.709-0.508-1.063-1.162-1.063-1.969c0-0.404,0.078-0.74,0.234-1.008
		c0.158-0.268,0.34-0.492,0.549-0.672c0.209-0.18,0.422-0.316,0.639-0.414c0.217-0.096,0.384-0.168,0.504-0.211
		c0.236-0.076,0.483-0.141,0.737-0.193c0.255-0.051,0.493-0.09,0.717-0.109c0.225-0.023,0.419-0.039,0.581-0.045
		c0.165-0.008,0.271-0.012,0.313-0.012c0.119,0,0.213,0,0.28,0c0.065,0,0.146,0.008,0.234,0.021
		c0.417,0.299,0.783,0.566,1.098,0.805c0.313,0.24,0.566,0.471,0.762,0.693c0.193,0.225,0.338,0.453,0.436,0.684
		c0.099,0.231,0.146,0.488,0.146,0.771C220.4,26.039,220.121,26.617,219.562,27.072z"/>
</g>
<g>
	<path fill="#4F4F4F" d="M278.335,36.199c0,1.176-0.961,2.137-2.136,2.137h-32.063c-1.177,0-2.137-0.961-2.137-2.137V4.136
		C242,2.961,242.96,2,244.136,2h32.063c1.175,0,2.136,0.961,2.136,2.136V36.199z"/>
	<circle fill="none" stroke="#FFFFFF" stroke-width="3" stroke-miterlimit="10" cx="260.167" cy="20.168" r="11.483"/>
	<line fill="none" stroke="#FFFFFF" stroke-width="3" stroke-miterlimit="10" x1="260.167" y1="12.062" x2="260.167" y2="21.682"/>
	<line fill="none" stroke="#FFFFFF" stroke-width="3" stroke-miterlimit="10" x1="261.145" y1="20.595" x2="267.911" y2="20.595"/>
</g>
<g>
	<path fill="#4F4F4F" d="M318.336,36.199c0,1.176-0.961,2.137-2.137,2.137h-32.063c-1.175,0-2.138-0.961-2.138-2.137V4.136
		C282,2.961,282.963,2,284.137,2H316.2c1.176,0,2.137,0.961,2.137,2.136L318.336,36.199L318.336,36.199z"/>
	<text transform="matrix(1 0 0 1 287.3918 24.9849)" fill="#FFFFFF" font-family="'MyriadPro-Bold'" font-size="16.2761">&gt;&gt;f</text>
</g>
<g>
	<g>
		<path fill="#4F4F4F" d="M358.336,36.199c0,1.176-0.962,2.137-2.136,2.137h-32.063c-1.176,0-2.138-0.961-2.138-2.137V4.136
			C322,2.961,322.962,2,324.137,2H356.2c1.174,0,2.136,0.961,2.136,2.136V36.199z"/>
	</g>
	<g>
		<path fill="#3C3B3C" d="M337.676,17.86v1.986l0.533,10.197v0.053c0,0.752-0.59,1.344-1.34,1.344c-0.752,0-1.341-0.592-1.341-1.344
			v-0.053l0.536-10.197V17.86c-1.073-0.483-1.879-1.932-1.879-3.595V9.862c0-0.321,0.214-0.535,0.538-0.535
			c0.32,0,0.534,0.213,0.534,0.535v3.597c0,0.323,0.217,0.538,0.537,0.538c0.322,0,0.537-0.215,0.537-0.538V9.434
			c0-0.269,0.27-0.538,0.536-0.538c0.323,0,0.537,0.217,0.537,0.538v4.025c0,0.323,0.215,0.538,0.538,0.538
			c0.32,0,0.536-0.215,0.536-0.538V9.81c0-0.269,0.268-0.482,0.537-0.482c0.32,0,0.534,0.213,0.534,0.535v4.403
			C339.552,15.928,338.747,17.376,337.676,17.86L337.676,17.86z"/>
		<path fill="#3C3B3C" d="M344.811,31.439c-0.751,0-1.342-0.592-1.342-1.344v-0.053l0.482-9.338c-0.7,0-1.29-0.591-1.29-1.343V16.14
			c0-4.024,0.857-7.245,1.88-7.245c0.59,0,1.073,0.482,1.073,1.075v9.819l0.536,10.252v0.053
			C346.151,30.848,345.562,31.439,344.811,31.439L344.811,31.439z"/>
	</g>
	<g>
		<path fill="#FFFFFF" d="M337.677,17.861v1.985l0.532,10.191v0.051c0,0.75-0.589,1.342-1.339,1.342
			c-0.751,0-1.341-0.592-1.341-1.342v-0.051l0.536-10.191v-1.985c-1.071-0.482-1.877-1.929-1.877-3.591v-4.4
			c0-0.321,0.214-0.535,0.538-0.535c0.32,0,0.535,0.214,0.535,0.535v3.594c0,0.323,0.216,0.537,0.535,0.537
			c0.322,0,0.538-0.213,0.538-0.537V9.442c0-0.269,0.269-0.538,0.534-0.538c0.324,0,0.537,0.217,0.537,0.538v4.022
			c0,0.323,0.214,0.537,0.538,0.537c0.32,0,0.535-0.213,0.535-0.537V9.818c0-0.269,0.268-0.483,0.537-0.483
			c0.32,0,0.533,0.214,0.533,0.535v4.4C339.552,15.932,338.748,17.379,337.677,17.861L337.677,17.861z"/>
		<path fill="#FFFFFF" d="M344.807,31.43c-0.751,0-1.341-0.592-1.341-1.342v-0.051l0.482-9.333c-0.7,0-1.289-0.591-1.289-1.341
			v-3.218c0-4.021,0.857-7.241,1.879-7.241c0.589,0,1.072,0.483,1.072,1.074v9.813l0.535,10.244v0.053
			C346.146,30.838,345.557,31.43,344.807,31.43L344.807,31.43z"/>
	</g>
</g>
<g>
	<g>
		<path fill="#4F4F4F" d="M398.336,36.199c0,1.176-0.96,2.137-2.136,2.137h-32.063c-1.176,0-2.138-0.961-2.138-2.137V4.136
			C362,2.961,362.962,2,364.137,2H396.2c1.176,0,2.136,0.961,2.136,2.136V36.199L398.336,36.199z"/>
	</g>
	<g transform="translate(0.000000,300.000000) scale(0.100000,-0.100000)">
		<path fill="#FFFFFF" d="M3809.929,2905.771c-2.734-0.581-14.531-2.959-26.27-5.176c-22.48-4.341-61.279-11.812-80.234-15.508
			l-11.23-2.129l0.166-83.267l0.234-83.267l34.883-6.738c19.189-3.77,47.168-9.102,62.178-12.051l27.236-5.254v107.383
			c0,85.322-0.254,107.314-0.996,107.227C3815.32,2906.914,3812.634,2906.421,3809.929,2905.771z M3763.572,2836.44
			c4.424-1.304,10.576-6.235,13.779-10.908c4.346-6.567,6.309-14.116,6.23-25.103c0-10.093-1.23-15.742-4.932-23.125
			c-8.438-16.66-29.844-20.039-42.158-6.738c-11.24,12.227-13.037,37.324-3.77,53.076c2.783,4.839,9.512,10.83,13.857,12.314
			C3750.769,2837.51,3759.372,2837.68,3763.572,2836.44z"/>
		<path fill="#FFFFFF" d="M3752.82,2822.578c-3.936-1.147-6.406-3.447-8.691-8.047c-1.895-3.931-2.295-5.898-2.549-13.037
			c-0.498-13.369,3.291-22.061,10.586-24.053c7.051-1.855,13.369,2.48,15.908,10.996c2.549,8.55,1.064,23.716-2.949,29.302
			C3762.243,2821.841,3757.165,2823.808,3752.82,2822.578z"/>
		<path fill="#FFFFFF" d="M3826.736,2840.874v-21.167l7.471-4.678l7.383-4.761l32.148,21.421
			c17.725,11.816,32.324,21.572,32.402,21.738c0.752,0.571-0.977,3.857-3.193,6.064l-2.539,2.471h-36.836h-36.836V2840.874
			L3826.736,2840.874z"/>
		<path fill="#FFFFFF" d="M3879.656,2817.163c-34.131-22.969-32.168-21.816-38.145-21.816c-4.111,0-5.576,0.41-9.697,2.949
			c-2.705,1.636-5,2.949-5.156,2.949c-0.166,0-0.244-12.378-0.088-27.476l0.244-27.48h36.514h36.582l3.203,3.184l3.203,3.203v41.099
			c0,22.573-0.078,41.108-0.156,41.03C3905.984,2834.804,3894.089,2826.845,3879.656,2817.163z"/>
	</g>
</g>
<g>
	<path fill="#4F4F4F" d="M438.338,36.199c0,1.176-0.961,2.137-2.137,2.137h-32.063c-1.176,0-2.139-0.961-2.139-2.137V4.136
		C402,2.961,402.963,2,404.138,2h32.063c1.176,0,2.137,0.961,2.137,2.136V36.199L438.338,36.199z"/>
	<text transform="matrix(1 0 0 1 408.7829 26.0806)" fill="#FFFFFF" font-family="'MyriadPro-BoldIt'" font-size="18.6133">Dx</text>
</g>
<g>
	<path fill="#4F4F4F" d="M478.335,36.199c0,1.176-0.962,2.137-2.137,2.137h-32.063c-1.175,0-2.135-0.961-2.135-2.137V4.136
		C442,2.961,442.961,2,444.135,2h32.063c1.175,0,2.136,0.961,2.136,2.136L478.335,36.199L478.335,36.199z"/>
	<g>
		<path fill="#FFFFFF" d="M469.119,26.604l-4.169-4.17c0.727-1.176,1.163-2.547,1.163-4.03c0-4.259-3.451-7.711-7.709-7.711
			c-4.26,0-7.713,3.453-7.713,7.711c0,4.26,3.453,7.711,7.713,7.711c1.481,0,2.854-0.439,4.027-1.164l4.172,4.17
			c0.694,0.695,1.819,0.695,2.516,0C469.814,28.428,469.814,27.299,469.119,26.604z M458.404,23.742
			c-2.948,0-5.339-2.389-5.339-5.337c0-2.949,2.391-5.339,5.339-5.339s5.337,2.39,5.337,5.339
			C463.741,21.354,461.353,23.742,458.404,23.742z"/>
	</g>
</g>
<g>
	<path fill="#808081" d="M38.336,76.2c0,1.174-0.961,2.136-2.137,2.136H4.136C2.961,78.336,2,77.374,2,76.2V44.139
		C2,42.962,2.961,42,4.136,42h32.063c1.176,0,2.137,0.962,2.137,2.139V76.2L38.336,76.2z"/>
	<path id="Facebook_2_" fill="#FFFFFF" d="M17.554,54.504c0,0.497,0,2.717,0,2.717h-1.989v3.319h1.989v9.114h4.087V60.54h2.742
		c0,0,0.258-1.591,0.382-3.333c-0.357,0-3.108,0-3.108,0s0-1.932,0-2.271s0.446-0.795,0.886-0.795c0.44,0,1.367,0,2.228,0
		c0-0.453,0-2.017,0-3.457c-1.147,0-2.452,0-3.027,0C17.454,50.684,17.554,54.008,17.554,54.504z"/>
</g>
<g>
	<path fill="#808081" d="M78.336,76.2c0,1.174-0.961,2.136-2.137,2.136H44.136C42.961,78.336,42,77.374,42,76.2V44.139
		C42,42.962,42.961,42,44.136,42h32.063c1.175,0,2.137,0.962,2.137,2.139V76.2z"/>
	<path id="Twitter_1_" fill="#FFFFFF" d="M64.267,65.066h-4.088c-0.569,0-1.054-0.197-1.449-0.598
		c-0.399-0.398-0.598-0.883-0.598-1.455v-1.453h5.826c0.526,0,0.979-0.188,1.354-0.564c0.376-0.378,0.564-0.828,0.564-1.354
		c0-0.529-0.188-0.98-0.565-1.357c-0.377-0.376-0.831-0.564-1.359-0.564h-5.819V53.2c0-0.569-0.202-1.056-0.606-1.462
		c-0.401-0.405-0.885-0.61-1.449-0.61c-0.579,0-1.072,0.201-1.473,0.601c-0.402,0.397-0.604,0.891-0.604,1.475v9.816
		c0,1.709,0.604,3.166,1.813,4.377c1.208,1.213,2.665,1.817,4.369,1.817h4.087c0.566,0,1.055-0.205,1.46-0.61
		c0.404-0.404,0.607-0.893,0.607-1.461c0-0.567-0.203-1.056-0.607-1.463C65.322,65.271,64.834,65.066,64.267,65.066z"/>
</g>
<g>
	<path fill="#808081" d="M118.336,76.2c0,1.174-0.962,2.136-2.137,2.136H84.136C82.961,78.336,82,77.374,82,76.2V44.139
		C82,42.962,82.961,42,84.136,42h32.063c1.175,0,2.137,0.962,2.137,2.139V76.2z"/>
	<path id="RSS_1_" fill="#FFFFFF" d="M95.294,65.035c0.433,0.434,0.695,1.018,0.696,1.668c-0.001,0.65-0.265,1.234-0.693,1.666
		h-0.003c-0.43,0.43-1.019,0.691-1.674,0.691c-0.654,0-1.241-0.263-1.672-0.691c-0.43-0.432-0.694-1.014-0.694-1.666
		c0-0.65,0.266-1.237,0.694-1.668l0,0c0.432-0.43,1.019-0.693,1.672-0.693C94.275,64.342,94.862,64.605,95.294,65.035z
		 M95.294,65.035L95.294,65.035C95.295,65.035,95.295,65.035,95.294,65.035L95.294,65.035z M91.947,68.369L91.947,68.369
		C91.946,68.369,91.946,68.369,91.947,68.369L91.947,68.369z M91.255,57.316v3.404c2.224,0.002,4.325,0.875,5.898,2.45
		c1.573,1.569,2.442,3.675,2.446,5.905H99.6v0.006h3.417c-0.003-3.243-1.32-6.182-3.452-8.313
		C97.435,58.637,94.499,57.318,91.255,57.316z M91.261,51.254v3.403c7.944,0.005,14.402,6.474,14.407,14.426h3.413
		c-0.002-4.915-2-9.368-5.228-12.599C100.624,53.255,96.174,51.257,91.261,51.254z"/>
</g>
<g>
	<path fill="#808081" d="M158.336,76.2c0,1.174-0.962,2.136-2.137,2.136h-32.063c-1.175,0-2.138-0.962-2.138-2.136V44.139
		c0-1.177,0.962-2.139,2.138-2.139H156.2c1.175,0,2.137,0.962,2.137,2.139L158.336,76.2L158.336,76.2z"/>
	<path fill="#FFFFFF" d="M135.613,67.734h-3.205V57.479h3.205V67.734z M133.929,56.197h-0.023c-1.16,0-1.911-0.784-1.911-1.776
		c0-1.013,0.774-1.78,1.957-1.78c1.182,0,1.91,0.766,1.932,1.776C135.884,55.411,135.134,56.197,133.929,56.197z M148.432,67.734
		h-3.634v-5.307c0-1.39-0.567-2.338-1.818-2.338c-0.956,0-1.485,0.641-1.735,1.258c-0.093,0.221-0.078,0.528-0.078,0.836v5.551
		h-3.598c0,0,0.044-9.401,0-10.256h3.598v1.609c0.213-0.703,1.363-1.707,3.198-1.707c2.275,0,4.066,1.475,4.066,4.65L148.432,67.734
		L148.432,67.734z"/>
</g>
<g>
	<path fill="#808081" d="M198.336,76.199c0,1.176-0.962,2.138-2.137,2.138h-32.063c-1.177,0-2.137-0.962-2.137-2.138V44.137
		c0-1.175,0.96-2.137,2.137-2.137h32.063c1.175,0,2.137,0.962,2.137,2.137V76.199L198.336,76.199z"/>
	<path fill="#3C3B3C" d="M176.706,61.251h-3.888v1.19h1.311v7.012h1.268v-7.012h1.311L176.706,61.251L176.706,61.251z
		 M178.776,67.995c-0.105,0.133-0.22,0.241-0.348,0.325c-0.129,0.086-0.232,0.129-0.313,0.129c-0.106,0-0.183-0.032-0.229-0.098
		c-0.05-0.063-0.072-0.168-0.072-0.311v-4.639h-1.125v5.057c0,0.359,0.064,0.631,0.199,0.813c0.132,0.18,0.326,0.27,0.586,0.27
		c0.21,0,0.429-0.063,0.653-0.191c0.224-0.129,0.439-0.316,0.646-0.563v0.668h1.125v-6.052h-1.125v4.593H178.776z M183.134,63.326
		c-0.174,0-0.347,0.049-0.519,0.146c-0.17,0.094-0.329,0.233-0.481,0.42v-2.642H181v8.203h1.135v-0.466
		c0.147,0.185,0.308,0.318,0.479,0.408c0.174,0.09,0.37,0.135,0.589,0.135c0.334,0,0.588-0.114,0.767-0.344
		c0.176-0.229,0.263-0.559,0.263-0.987v-3.358c0-0.492-0.093-0.869-0.281-1.128C183.764,63.456,183.491,63.326,183.134,63.326
		 M183.075,68.034c0,0.192-0.032,0.333-0.099,0.419c-0.064,0.084-0.166,0.126-0.305,0.126c-0.094,0-0.184-0.021-0.271-0.065
		c-0.086-0.043-0.175-0.115-0.267-0.213v-3.77c0.076-0.084,0.153-0.145,0.231-0.186c0.078-0.039,0.157-0.061,0.239-0.061
		c0.15,0,0.267,0.054,0.348,0.16c0.082,0.104,0.12,0.261,0.12,0.465L183.075,68.034L183.075,68.034z M188.391,66.568v-1.539
		c0-0.574-0.139-1.014-0.414-1.32c-0.277-0.307-0.672-0.458-1.188-0.458c-0.505,0-0.915,0.164-1.232,0.495
		c-0.318,0.329-0.477,0.757-0.477,1.283v2.718c0,0.582,0.145,1.038,0.435,1.371c0.289,0.332,0.686,0.499,1.188,0.499
		c0.56,0,0.981-0.156,1.263-0.471c0.281-0.313,0.424-0.78,0.424-1.399v-0.456h-1.159v0.421c0,0.356-0.037,0.585-0.111,0.688
		c-0.074,0.104-0.206,0.156-0.392,0.156c-0.18,0-0.306-0.062-0.378-0.184c-0.076-0.123-0.112-0.344-0.112-0.662V66.57
		L188.391,66.568L188.391,66.568z M186.24,65.018c0-0.252,0.038-0.435,0.116-0.545c0.078-0.109,0.206-0.164,0.384-0.164
		c0.173,0,0.296,0.055,0.375,0.164c0.078,0.11,0.117,0.293,0.117,0.545v0.613h-0.993L186.24,65.018L186.24,65.018z"/>
	<g>
		<g>
			<path id="SVGID_4_" fill="#FFFFFF" d="M180.167,58.805c-0.109,0-0.218,0-0.328,0c-2.087,0-4.136,0.039-6.143,0.123
				c-1.479,0-2.676,1.184-2.676,2.645c-0.09,1.158-0.128,2.316-0.124,3.473c-0.004,1.159,0.034,2.314,0.124,3.477
				c0,1.459,1.197,2.645,2.676,2.645c2.11,0.09,4.269,0.127,6.471,0.123c2.201,0.004,4.359-0.033,6.471-0.123
				c1.478,0,2.677-1.186,2.677-2.645c0.088-1.16,0.126-2.316,0.124-3.477c0.002-1.154-0.036-2.313-0.124-3.473
				c0-1.461-1.199-2.645-2.677-2.645c-2.007-0.084-4.055-0.123-6.144-0.123C180.386,58.805,180.276,58.805,180.167,58.805"/>
		</g>
		<g>
			<g>
				<g>
					<defs>
						<path id="SVGID_17_" d="M180.167,58.805c-0.109,0-0.218,0-0.328,0c-2.087,0-4.136,0.039-6.143,0.123
							c-1.479,0-2.676,1.184-2.676,2.645c-0.09,1.158-0.128,2.316-0.124,3.473c-0.004,1.159,0.034,2.314,0.124,3.477
							c0,1.459,1.197,2.645,2.676,2.645c2.11,0.09,4.269,0.127,6.471,0.123c2.201,0.004,4.359-0.033,6.471-0.123
							c1.478,0,2.677-1.186,2.677-2.645c0.088-1.16,0.126-2.316,0.124-3.477c0.002-1.154-0.036-2.313-0.124-3.473
							c0-1.461-1.199-2.645-2.677-2.645c-2.007-0.084-4.055-0.123-6.144-0.123C180.386,58.805,180.276,58.805,180.167,58.805"/>
					</defs>
					<clipPath id="SVGID_18_">
						<use xlink:href="#SVGID_17_"  overflow="visible"/>
					</clipPath>
					<rect x="170.893" y="58.805" clip-path="url(#SVGID_18_)" fill="#FFFFFF" width="18.548" height="12.487"/>
				</g>
			</g>
		</g>
	</g>
	<g>
		<g>
			<polygon id="SVGID_3_" fill="#FFFFFF" points="176.691,49.048 175.907,52.326 175.827,52.326 175.006,49.048 173.729,49.048 
				175.238,53.998 175.238,57.251 176.504,57.251 176.504,53.848 177.979,49.048 			"/>
		</g>
		<g>
			<g>
				<g>
					<defs>
						<polygon id="SVGID_19_" points="176.691,49.048 175.907,52.326 175.827,52.326 175.006,49.048 173.729,49.048 175.238,53.998 
							175.238,57.251 176.504,57.251 176.504,53.848 177.979,49.048 						"/>
					</defs>
					<clipPath id="SVGID_20_">
						<use xlink:href="#SVGID_19_"  overflow="visible"/>
					</clipPath>
					<rect x="173.729" y="49.048" clip-path="url(#SVGID_20_)" fill="#FFFFFF" width="4.25" height="8.203"/>
				</g>
			</g>
		</g>
	</g>
	<g>
		<g>
			<path id="SVGID_2_" fill="#FFFFFF" d="M179.199,56.219c-0.08-0.091-0.12-0.22-0.12-0.386v-3.297c0-0.132,0.044-0.238,0.129-0.321
				c0.085-0.078,0.198-0.119,0.334-0.119c0.148,0,0.27,0.041,0.359,0.119c0.092,0.083,0.139,0.189,0.139,0.321v3.297
				c0,0.162-0.045,0.289-0.134,0.382c-0.09,0.094-0.211,0.139-0.364,0.139C179.394,56.354,179.281,56.309,179.199,56.219
				 M178.376,51.462c-0.303,0.278-0.457,0.651-0.457,1.12l0.001,3.137c0,0.516,0.147,0.924,0.442,1.227
				c0.295,0.307,0.688,0.457,1.181,0.457c0.512,0,0.912-0.146,1.205-0.439c0.29-0.295,0.438-0.701,0.438-1.221v-3.125
				c0-0.461-0.148-0.84-0.445-1.131c-0.297-0.293-0.679-0.439-1.145-0.439C179.085,51.047,178.678,51.186,178.376,51.462"/>
		</g>
		<g>
			<g>
				<g>
					<defs>
						<path id="SVGID_21_" d="M179.199,56.219c-0.08-0.091-0.12-0.22-0.12-0.386v-3.297c0-0.132,0.044-0.238,0.129-0.321
							c0.085-0.078,0.198-0.119,0.334-0.119c0.148,0,0.27,0.041,0.359,0.119c0.092,0.083,0.139,0.189,0.139,0.321v3.297
							c0,0.162-0.045,0.289-0.134,0.382c-0.09,0.094-0.211,0.139-0.364,0.139C179.394,56.354,179.281,56.309,179.199,56.219
							 M178.376,51.462c-0.303,0.278-0.457,0.651-0.457,1.12l0.001,3.137c0,0.516,0.147,0.924,0.442,1.227
							c0.295,0.307,0.688,0.457,1.181,0.457c0.512,0,0.912-0.146,1.205-0.439c0.29-0.295,0.438-0.701,0.438-1.221v-3.125
							c0-0.461-0.148-0.84-0.445-1.131c-0.297-0.293-0.679-0.439-1.145-0.439C179.085,51.047,178.678,51.186,178.376,51.462"/>
					</defs>
					<clipPath id="SVGID_22_">
						<use xlink:href="#SVGID_21_"  overflow="visible"/>
					</clipPath>
					<rect x="177.92" y="51.047" clip-path="url(#SVGID_22_)" fill="#FFFFFF" width="3.268" height="6.355"/>
				</g>
			</g>
		</g>
	</g>
	<g>
		<g>
			<path id="SVGID_1_" fill="#FFFFFF" d="M184.228,51.199v4.593c-0.108,0.133-0.222,0.24-0.349,0.326
				c-0.128,0.084-0.23,0.127-0.313,0.127c-0.106,0-0.182-0.031-0.229-0.097c-0.048-0.063-0.07-0.166-0.07-0.312v-4.64h-1.124v5.059
				c0,0.36,0.063,0.631,0.194,0.813c0.134,0.179,0.329,0.268,0.59,0.268c0.21,0,0.428-0.063,0.653-0.191
				c0.224-0.129,0.439-0.315,0.646-0.563v0.669h1.125V51.2L184.228,51.199L184.228,51.199z"/>
		</g>
		<g>
			<g>
				<g>
					<defs>
						<path id="SVGID_23_" d="M184.228,51.199v4.593c-0.108,0.133-0.222,0.24-0.349,0.326c-0.128,0.084-0.23,0.127-0.313,0.127
							c-0.106,0-0.182-0.031-0.229-0.097c-0.048-0.063-0.07-0.166-0.07-0.312v-4.64h-1.124v5.059c0,0.36,0.063,0.631,0.194,0.813
							c0.134,0.179,0.329,0.268,0.59,0.268c0.21,0,0.428-0.063,0.653-0.191c0.224-0.129,0.439-0.315,0.646-0.563v0.669h1.125V51.2
							L184.228,51.199L184.228,51.199z"/>
					</defs>
					<clipPath id="SVGID_24_">
						<use xlink:href="#SVGID_23_"  overflow="visible"/>
					</clipPath>
					<rect x="182.143" y="51.199" clip-path="url(#SVGID_24_)" fill="#FFFFFF" width="3.209" height="6.137"/>
				</g>
			</g>
		</g>
	</g>
	<path fill="#808081" d="M176.22,60.827h-3.889v1.19h1.312v7.012h1.267v-7.012h1.313L176.22,60.827L176.22,60.827z M178.291,67.57
		c-0.104,0.135-0.22,0.242-0.348,0.326c-0.126,0.086-0.231,0.129-0.313,0.129c-0.104,0-0.181-0.032-0.229-0.098
		c-0.048-0.064-0.071-0.168-0.071-0.312V62.98h-1.124v5.058c0,0.36,0.064,0.631,0.198,0.812c0.131,0.18,0.327,0.27,0.587,0.27
		c0.21,0,0.428-0.064,0.654-0.191c0.224-0.129,0.438-0.316,0.646-0.564v0.671h1.125V62.98h-1.125V67.57L178.291,67.57z
		 M182.65,62.902c-0.175,0-0.347,0.049-0.518,0.145c-0.17,0.098-0.33,0.236-0.482,0.422v-2.642h-1.136v8.205h1.136v-0.468
		c0.147,0.185,0.307,0.319,0.479,0.408c0.175,0.09,0.37,0.133,0.589,0.133c0.333,0,0.589-0.112,0.766-0.342
		c0.176-0.229,0.264-0.559,0.264-0.986V64.42c0-0.495-0.094-0.87-0.281-1.13C183.278,63.032,183.007,62.902,182.65,62.902
		 M182.589,67.611c0,0.191-0.031,0.332-0.097,0.418c-0.063,0.082-0.166,0.127-0.304,0.127c-0.096,0-0.186-0.022-0.271-0.066
		c-0.085-0.042-0.175-0.113-0.267-0.211v-3.771c0.077-0.084,0.154-0.145,0.23-0.185c0.079-0.039,0.157-0.06,0.239-0.06
		c0.15,0,0.268,0.054,0.349,0.158c0.081,0.107,0.12,0.263,0.12,0.465V67.611L182.589,67.611z M187.905,66.146v-1.541
		c0-0.574-0.137-1.014-0.414-1.32c-0.276-0.307-0.672-0.458-1.187-0.458c-0.504,0-0.913,0.164-1.232,0.495
		c-0.318,0.33-0.476,0.758-0.476,1.283v2.717c0,0.584,0.146,1.039,0.434,1.373c0.29,0.334,0.686,0.5,1.189,0.5
		c0.56,0,0.98-0.157,1.264-0.471c0.281-0.314,0.423-0.783,0.423-1.402v-0.454h-1.158v0.421c0,0.357-0.037,0.585-0.111,0.689
		c-0.074,0.104-0.204,0.155-0.393,0.155c-0.178,0-0.304-0.062-0.378-0.185c-0.076-0.123-0.111-0.344-0.111-0.661v-1.142H187.905
		L187.905,66.146z M185.754,64.594c0-0.253,0.039-0.434,0.117-0.544c0.077-0.108,0.206-0.163,0.384-0.163
		c0.175,0,0.295,0.055,0.375,0.163c0.078,0.11,0.117,0.291,0.117,0.544v0.613h-0.993V64.594L185.754,64.594z"/>
</g>
<g>
	<path fill="#808081" d="M238.336,76.199c0,1.176-0.962,2.138-2.137,2.138h-32.063c-1.176,0-2.137-0.962-2.137-2.138V44.137
		c0-1.175,0.961-2.137,2.137-2.137h32.063c1.175,0,2.137,0.962,2.137,2.137V76.199z"/>
	<polygon fill="#FFFFFF" points="226.349,54.441 226.349,51.641 225.155,51.641 225.155,54.441 222.354,54.441 222.354,55.621 
		225.155,55.621 225.155,58.441 226.349,58.441 226.349,55.621 229.149,55.621 229.149,54.441 	"/>
	<path fill="#FFFFFF" d="M221.314,62.622c-0.173-0.239-0.374-0.464-0.605-0.673c-0.229-0.209-0.466-0.418-0.705-0.627l-0.806-0.629
		c-0.119-0.104-0.246-0.228-0.38-0.367c-0.134-0.143-0.2-0.342-0.2-0.596s0.066-0.463,0.2-0.627s0.276-0.321,0.426-0.472
		c0.238-0.179,0.47-0.368,0.693-0.569c0.224-0.203,0.426-0.426,0.604-0.674c0.18-0.246,0.321-0.525,0.426-0.842
		c0.104-0.313,0.155-0.679,0.155-1.1c0-0.418-0.059-0.789-0.179-1.118c-0.119-0.329-0.26-0.616-0.425-0.862
		c-0.164-0.246-0.334-0.457-0.516-0.628c-0.179-0.173-0.334-0.31-0.47-0.414h1.388l1.434-0.784h-4.61
		c-0.612,0-1.271,0.074-1.98,0.225c-0.708,0.15-1.386,0.484-2.025,1.009c-0.479,0.417-0.835,0.892-1.074,1.42
		c-0.239,0.53-0.357,1.058-0.357,1.579c0,0.432,0.083,0.859,0.246,1.285s0.402,0.803,0.717,1.131
		c0.313,0.328,0.701,0.593,1.164,0.795c0.461,0.202,0.992,0.303,1.59,0.303c0.118,0,0.236-0.004,0.356-0.012s0.239-0.02,0.357-0.033
		c-0.06,0.135-0.111,0.266-0.156,0.391c-0.044,0.129-0.066,0.289-0.066,0.481c0,0.345,0.069,0.632,0.214,0.861
		c0.14,0.231,0.294,0.452,0.458,0.661c-0.254,0.015-0.553,0.037-0.896,0.066s-0.707,0.082-1.096,0.156s-0.78,0.175-1.176,0.303
		c-0.396,0.127-0.767,0.295-1.107,0.504c-0.657,0.387-1.109,0.838-1.354,1.354c-0.246,0.515-0.369,0.974-0.369,1.376
		c0,0.418,0.096,0.817,0.29,1.196c0.192,0.381,0.493,0.721,0.896,1.02c0.402,0.298,0.906,0.538,1.511,0.717
		c0.605,0.18,1.31,0.268,2.115,0.268c0.954,0,1.801-0.121,2.539-0.367c0.739-0.248,1.355-0.568,1.847-0.965
		c0.494-0.396,0.866-0.85,1.12-1.356c0.253-0.508,0.38-1.024,0.38-1.547c0-0.388-0.052-0.731-0.154-1.03
		C221.624,63.13,221.485,62.861,221.314,62.622z M217.072,58.758c-0.478,0-0.892-0.138-1.241-0.415
		c-0.352-0.276-0.643-0.618-0.874-1.021c-0.23-0.403-0.401-0.84-0.515-1.305c-0.113-0.463-0.168-0.883-0.168-1.258
		c0-0.299,0.034-0.592,0.1-0.876c0.068-0.284,0.2-0.547,0.395-0.786c0.18-0.224,0.411-0.404,0.692-0.539
		c0.283-0.135,0.574-0.201,0.873-0.201c0.462,0,0.868,0.139,1.221,0.416c0.352,0.275,0.646,0.625,0.884,1.043
		c0.239,0.42,0.418,0.869,0.538,1.35c0.119,0.479,0.18,0.919,0.18,1.324c0,0.209-0.031,0.472-0.091,0.785
		c-0.06,0.315-0.215,0.601-0.47,0.854c-0.18,0.181-0.406,0.328-0.683,0.449C217.636,58.697,217.356,58.758,217.072,58.758z
		 M219.546,67.072c-0.561,0.455-1.376,0.684-2.45,0.684c-1.209,0-2.167-0.253-2.876-0.761c-0.71-0.509-1.063-1.163-1.063-1.97
		c0-0.403,0.077-0.739,0.235-1.008c0.155-0.271,0.339-0.494,0.547-0.672c0.209-0.18,0.424-0.316,0.639-0.414
		c0.216-0.098,0.385-0.168,0.503-0.214c0.238-0.073,0.486-0.138,0.738-0.19c0.255-0.053,0.494-0.088,0.717-0.11
		c0.224-0.022,0.418-0.038,0.583-0.044c0.163-0.008,0.269-0.012,0.313-0.012c0.119,0,0.214,0,0.281,0
		c0.065,0,0.145,0.008,0.233,0.021c0.417,0.3,0.784,0.567,1.096,0.808c0.315,0.238,0.568,0.47,0.763,0.692
		c0.193,0.224,0.34,0.45,0.438,0.683c0.096,0.23,0.146,0.49,0.146,0.772C220.384,66.04,220.104,66.617,219.546,67.072z"/>
</g>
<g>
	<path fill="#808081" d="M278.337,76.199c0,1.176-0.962,2.138-2.138,2.138h-32.062c-1.176,0-2.139-0.962-2.139-2.138V44.137
		c0-1.175,0.963-2.137,2.139-2.137h32.062c1.176,0,2.138,0.962,2.138,2.137V76.199z"/>
	<circle fill="none" stroke="#FFFFFF" stroke-width="3" stroke-miterlimit="10" cx="260.168" cy="60.168" r="11.482"/>
	<line fill="none" stroke="#FFFFFF" stroke-width="3" stroke-miterlimit="10" x1="260.168" y1="52.063" x2="260.168" y2="61.682"/>
	<line fill="none" stroke="#FFFFFF" stroke-width="3" stroke-miterlimit="10" x1="261.146" y1="60.596" x2="267.912" y2="60.596"/>
</g>
<g>
	<path fill="#808081" d="M318.337,76.199c0,1.176-0.962,2.138-2.138,2.138h-32.062c-1.176,0-2.139-0.962-2.139-2.138V44.137
		c0-1.175,0.963-2.137,2.139-2.137h32.062c1.176,0,2.138,0.962,2.138,2.137V76.199z"/>
	<text transform="matrix(1 0 0 1 287.3928 64.9863)" fill="#FFFFFF" font-family="'MyriadPro-Bold'" font-size="16.2761">&gt;&gt;f</text>
</g>
<g>
	<g>
		<path fill="#808081" d="M358.336,76.199c0,1.175-0.961,2.137-2.136,2.137h-32.063c-1.176,0-2.138-0.962-2.138-2.137V44.137
			c0-1.176,0.962-2.137,2.138-2.137H356.2c1.175,0,2.136,0.961,2.136,2.137V76.199z"/>
	</g>
	<g>
		<path fill="#3C3B3C" d="M337.676,57.859v1.986l0.534,10.195v0.053c0,0.752-0.589,1.344-1.341,1.344
			c-0.751,0-1.341-0.592-1.341-1.344v-0.053l0.536-10.195v-1.986c-1.073-0.482-1.879-1.932-1.879-3.596v-4.402
			c0-0.319,0.214-0.534,0.538-0.534c0.32,0,0.536,0.215,0.536,0.534v3.598c0,0.323,0.215,0.538,0.535,0.538
			c0.322,0,0.538-0.216,0.538-0.538v-4.023c0-0.271,0.269-0.539,0.535-0.539c0.323,0,0.537,0.217,0.537,0.539v4.023
			c0,0.323,0.215,0.538,0.538,0.538c0.32,0,0.536-0.216,0.536-0.538v-3.648c0-0.269,0.268-0.482,0.537-0.482
			c0.321,0,0.534,0.215,0.534,0.533v4.404C339.552,55.928,338.748,57.377,337.676,57.859L337.676,57.859z"/>
		<path fill="#3C3B3C" d="M344.811,71.438c-0.751,0-1.342-0.592-1.342-1.344v-0.053l0.482-9.338c-0.7,0-1.29-0.59-1.29-1.342v-3.223
			c0-4.023,0.857-7.244,1.88-7.244c0.59,0,1.073,0.483,1.073,1.074v9.82l0.537,10.251v0.054
			C346.152,70.848,345.562,71.438,344.811,71.438L344.811,71.438z"/>
	</g>
	<g>
		<path fill="#FFFFFF" d="M337.677,57.861v1.984l0.533,10.188v0.054c0,0.75-0.589,1.343-1.339,1.343
			c-0.751,0-1.342-0.593-1.342-1.343v-0.054l0.536-10.188v-1.984c-1.071-0.483-1.876-1.932-1.876-3.592v-4.4
			c0-0.319,0.213-0.534,0.537-0.534c0.32,0,0.537,0.215,0.537,0.534v3.594c0,0.324,0.214,0.538,0.534,0.538
			c0.321,0,0.537-0.214,0.537-0.538v-4.021c0-0.27,0.27-0.537,0.535-0.537c0.324,0,0.537,0.217,0.537,0.537v4.021
			c0,0.324,0.214,0.538,0.538,0.538c0.32,0,0.534-0.214,0.534-0.538v-3.646c0-0.268,0.27-0.481,0.537-0.481
			c0.32,0,0.534,0.215,0.534,0.534v4.4C339.552,55.932,338.748,57.379,337.677,57.861L337.677,57.861z"/>
		<path fill="#FFFFFF" d="M344.807,71.432c-0.751,0-1.341-0.594-1.341-1.344v-0.052l0.482-9.332c-0.7,0-1.289-0.591-1.289-1.341
			v-3.219c0-4.021,0.858-7.24,1.879-7.24c0.589,0,1.072,0.482,1.072,1.072v9.813l0.537,10.243v0.054
			C346.146,70.838,345.558,71.432,344.807,71.432L344.807,71.432z"/>
	</g>
</g>
<g>
	<g>
		<path fill="#808081" d="M398.336,76.199c0,1.175-0.961,2.137-2.137,2.137h-32.063c-1.176,0-2.137-0.962-2.137-2.137V44.137
			c0-1.176,0.961-2.137,2.137-2.137h32.063c1.176,0,2.137,0.961,2.137,2.137V76.199z"/>
	</g>
	<g transform="translate(0.000000,300.000000) scale(0.100000,-0.100000)">
		<path fill="#FFFFFF" d="M3809.919,2505.771c-2.715-0.576-14.531-2.959-26.27-5.176c-22.471-4.346-61.27-11.816-80.225-15.498
			l-11.24-2.129l0.166-83.281l0.234-83.271l34.883-6.729c19.199-3.76,47.168-9.102,62.178-12.051l27.246-5.254v107.383
			c0,85.332-0.244,107.314-0.996,107.236C3815.329,2506.914,3812.624,2506.426,3809.919,2505.771z M3763.562,2436.435
			c4.434-1.289,10.586-6.23,13.779-10.908c4.355-6.553,6.309-14.092,6.23-25.088c0-10.098-1.221-15.762-4.912-23.135
			c-8.457-16.66-29.863-20.029-42.178-6.729c-11.23,12.217-13.037,37.314-3.77,53.076c2.783,4.834,9.512,10.82,13.857,12.305
			C3750.759,2437.51,3759.382,2437.676,3763.562,2436.435z"/>
		<path fill="#FFFFFF" d="M3752.819,2422.578c-3.945-1.152-6.406-3.447-8.701-8.047c-1.895-3.936-2.295-5.898-2.549-13.037
			c-0.498-13.379,3.291-22.061,10.586-24.033c7.051-1.885,13.369,2.451,15.908,10.996c2.549,8.525,1.084,23.701-2.949,29.287
			C3762.243,2421.845,3757.155,2423.808,3752.819,2422.578z"/>
		<path fill="#FFFFFF" d="M3826.726,2440.879v-21.172l7.471-4.678l7.383-4.746l32.158,21.406
			c17.715,11.816,32.314,21.572,32.412,21.738c0.732,0.576-0.986,3.857-3.213,6.064l-2.539,2.471h-36.836h-36.836V2440.879
			L3826.726,2440.879z"/>
		<path fill="#FFFFFF" d="M3879.646,2417.168c-34.131-22.969-32.158-21.816-38.145-21.816c-4.102,0-5.576,0.41-9.678,2.939
			c-2.705,1.65-5.02,2.959-5.176,2.959c-0.166,0-0.244-12.393-0.078-27.49l0.234-27.471h36.514h36.602l3.184,3.193l3.203,3.203
			v41.104c0,22.559-0.078,41.094-0.156,41.016C3905.983,2434.804,3894.089,2426.845,3879.646,2417.168z"/>
	</g>
</g>
<g>
	<path fill="#808081" d="M438.336,76.199c0,1.175-0.962,2.137-2.137,2.137h-32.063c-1.176,0-2.137-0.962-2.137-2.137V44.137
		c0-1.176,0.961-2.137,2.137-2.137h32.063c1.175,0,2.137,0.961,2.137,2.137V76.199z"/>
	<text transform="matrix(1 0 0 1 408.781 66.0801)" fill="#FFFFFF" font-family="'MyriadPro-BoldIt'" font-size="18.6133">Dx</text>
</g>
<g>
	<path fill="#808081" d="M478.336,76.199c0,1.175-0.963,2.137-2.138,2.137h-32.063c-1.175,0-2.136-0.962-2.136-2.137V44.137
		c0-1.176,0.961-2.137,2.136-2.137h32.063c1.175,0,2.138,0.961,2.138,2.137V76.199z"/>
	<g>
		<path fill="#FFFFFF" d="M469.12,66.604l-4.17-4.17c0.727-1.175,1.165-2.547,1.165-4.029c0-4.26-3.453-7.711-7.711-7.711
			c-4.259,0-7.711,3.451-7.711,7.711s3.452,7.711,7.711,7.711c1.482,0,2.854-0.438,4.028-1.163l4.171,4.17
			c0.694,0.694,1.821,0.694,2.516,0C469.815,68.428,469.815,67.299,469.12,66.604z M458.404,63.743
			c-2.948,0-5.338-2.392-5.338-5.339c0-2.949,2.39-5.34,5.338-5.34s5.337,2.391,5.337,5.34
			C463.741,61.352,461.353,63.743,458.404,63.743z"/>
	</g>
</g>
</svg>
