<?xml version="1.0" encoding="utf-8"?>
<!-- Generator: Adobe Illustrator 15.0.2, SVG Export Plug-In . SVG Version: 6.00 Build 0)  -->
<!DOCTYPE svg PUBLIC "-//W3C//DTD SVG 1.1//EN" "http://www.w3.org/Graphics/SVG/1.1/DTD/svg11.dtd">
<svg version="1.1" xmlns="http://www.w3.org/2000/svg" xmlns:xlink="http://www.w3.org/1999/xlink" x="0px" y="0px" width="800px"
	 height="80px" viewBox="0 0 800 80" enable-background="new 0 0 800 80" xml:space="preserve">
<g id="Lager_2" display="none">
	<rect display="inline" fill="#FFFFFF" width="800" height="80"/>
</g>
<g id="Lager_1">
	<g>
		<path fill="#4F4F4F" d="M38.336,36.2c0,1.175-0.962,2.136-2.137,2.136H4.136C2.961,38.336,2,37.375,2,36.2V4.137
			C2,2.961,2.961,2,4.136,2H36.2c1.175,0,2.137,0.961,2.137,2.137L38.336,36.2L38.336,36.2z"/>
		<path id="Facebook_1_" fill="#FFFFFF" d="M17.555,14.503c0,0.497,0,2.716,0,2.716h-1.989v3.321h1.989v9.113h4.087V20.54h2.743
			c0,0,0.257-1.591,0.381-3.334c-0.357,0-3.108,0-3.108,0s0-1.931,0-2.27c0-0.34,0.446-0.796,0.886-0.796s1.367,0,2.228,0
			c0-0.452,0-2.014,0-3.458c-1.147,0-2.452,0-3.027,0C17.454,10.684,17.555,14.008,17.555,14.503z"/>
	</g>
	<g>
		<path fill="#4F4F4F" d="M78.335,36.2c0,1.175-0.961,2.136-2.136,2.136H44.137C42.961,38.336,42,37.375,42,36.2V4.137
			C42,2.961,42.961,2,44.137,2H76.2c1.175,0,2.136,0.961,2.136,2.137L78.335,36.2L78.335,36.2z"/>
		<path id="Twitter" fill="#FFFFFF" d="M64.267,25.068h-4.089c-0.568,0-1.052-0.199-1.448-0.6c-0.399-0.399-0.597-0.883-0.597-1.455
			V21.56h5.826c0.525,0,0.979-0.189,1.354-0.565s0.564-0.828,0.564-1.354c0-0.528-0.188-0.979-0.564-1.356
			c-0.377-0.375-0.831-0.564-1.359-0.564h-5.818v-4.522c0-0.568-0.203-1.055-0.606-1.461c-0.401-0.407-0.886-0.611-1.45-0.611
			c-0.579,0-1.072,0.201-1.473,0.599c-0.402,0.399-0.604,0.89-0.604,1.475v9.816c0,1.708,0.604,3.166,1.813,4.377
			c1.208,1.212,2.665,1.818,4.368,1.818h4.087c0.566,0,1.055-0.205,1.46-0.61c0.404-0.405,0.607-0.894,0.607-1.462
			c0-0.568-0.201-1.056-0.607-1.461C65.323,25.272,64.834,25.068,64.267,25.068z"/>
	</g>
	<g>
		<path fill="#4F4F4F" d="M118.336,36.2c0,1.175-0.961,2.136-2.136,2.136H84.137C82.962,38.336,82,37.375,82,36.2V4.137
			C82,2.961,82.962,2,84.137,2H116.2c1.175,0,2.136,0.961,2.136,2.137V36.2z"/>
		<path id="RSS" fill="#FFFFFF" d="M95.295,25.034c0.432,0.433,0.695,1.018,0.696,1.669c-0.001,0.65-0.265,1.235-0.694,1.666
			l-0.001,0.001c-0.431,0.428-1.02,0.691-1.675,0.691c-0.654,0-1.242-0.264-1.672-0.692c-0.43-0.431-0.694-1.015-0.694-1.666
			c0-0.651,0.266-1.237,0.694-1.669l0,0c0.431-0.428,1.019-0.693,1.672-0.693C94.275,24.341,94.863,24.607,95.295,25.034z
			 M95.295,25.034L95.295,25.034C95.296,25.034,95.296,25.034,95.295,25.034L95.295,25.034z M91.948,28.37L91.948,28.37
			C91.947,28.369,91.947,28.369,91.948,28.37L91.948,28.37z M91.256,17.316v3.403c2.224,0.003,4.325,0.875,5.897,2.452
			c1.574,1.569,2.443,3.675,2.446,5.904H99.6v0.007h3.418c-0.002-3.244-1.321-6.181-3.452-8.313S94.499,17.318,91.256,17.316z
			 M91.262,11.254v3.403c7.943,0.007,14.402,6.473,14.407,14.426h3.412c-0.002-4.916-2-9.368-5.228-12.599
			C100.625,13.255,96.174,11.256,91.262,11.254z"/>
	</g>
	<g>
		<path fill="#4F4F4F" d="M158.336,36.2c0,1.175-0.962,2.136-2.137,2.136h-32.063c-1.176,0-2.138-0.961-2.138-2.136V4.137
			C122,2.961,122.962,2,124.137,2H156.2c1.175,0,2.137,0.961,2.137,2.137L158.336,36.2L158.336,36.2z"/>
		<g>
			<path fill="#FFFFFF" d="M125.709,12.173c0,0.3-0.21,0.54-0.56,0.54c-0.32,0-0.53-0.24-0.53-0.54s0.22-0.549,0.55-0.549
				C125.489,11.624,125.709,11.864,125.709,12.173z M124.729,18.37v-4.837h0.879v4.837H124.729z"/>
			<path fill="#FFFFFF" d="M127.069,14.842c0-0.51-0.01-0.91-0.04-1.31h0.78l0.05,0.8h0.02c0.24-0.45,0.8-0.9,1.599-0.9
				c0.67,0,1.709,0.4,1.709,2.059v2.878h-0.879v-2.789c0-0.779-0.29-1.429-1.119-1.429c-0.57,0-1.02,0.41-1.18,0.899
				c-0.04,0.11-0.06,0.26-0.06,0.41v2.908h-0.879V14.842z"/>
			<path fill="#FFFFFF" d="M132.709,18.37v-4.167h-0.669v-0.67h0.669v-0.23c0-0.68,0.16-1.299,0.56-1.689
				c0.33-0.32,0.77-0.45,1.179-0.45c0.32,0,0.58,0.07,0.75,0.14l-0.12,0.679c-0.13-0.06-0.3-0.11-0.56-0.11
				c-0.75,0-0.939,0.65-0.939,1.399v0.26h1.169v0.67h-1.169v4.167H132.709z"/>
			<path fill="#FFFFFF" d="M139.787,15.912c0,1.789-1.25,2.568-2.409,2.568c-1.299,0-2.319-0.959-2.319-2.489
				c0-1.609,1.069-2.559,2.398-2.559C138.847,13.433,139.787,14.442,139.787,15.912z M135.959,15.961c0,1.06,0.6,1.859,1.459,1.859
				c0.84,0,1.469-0.79,1.469-1.879c0-0.819-0.41-1.849-1.449-1.849C136.409,14.092,135.959,15.052,135.959,15.961z"/>
			<path fill="#FFFFFF" d="M124.61,25.042c0-0.61-0.02-1.12-0.04-1.559h1.289l0.06,0.66h0.03c0.21-0.32,0.65-0.78,1.479-0.78
				c0.64,0,1.129,0.33,1.339,0.84h0.02c0.189-0.26,0.399-0.46,0.64-0.6c0.27-0.15,0.569-0.24,0.929-0.24
				c0.939,0,1.649,0.66,1.649,2.129v2.878h-1.479v-2.659c0-0.709-0.23-1.119-0.72-1.119c-0.36,0-0.6,0.24-0.709,0.53
				c-0.03,0.11-0.05,0.26-0.05,0.39v2.858h-1.479v-2.749c0-0.61-0.22-1.029-0.709-1.029c-0.39,0-0.62,0.3-0.709,0.54
				c-0.05,0.12-0.06,0.26-0.06,0.39v2.849h-1.479V25.042z"/>
			<path fill="#FFFFFF" d="M134.378,26.411c0.04,0.63,0.67,0.93,1.379,0.93c0.52,0,0.939-0.07,1.349-0.21l0.2,1.029
				c-0.5,0.21-1.109,0.31-1.769,0.31c-1.659,0-2.609-0.959-2.609-2.489c0-1.239,0.77-2.608,2.469-2.608
				c1.579,0,2.179,1.229,2.179,2.438c0,0.26-0.03,0.49-0.05,0.6H134.378z M136.167,25.372c0-0.37-0.16-0.989-0.859-0.989
				c-0.64,0-0.899,0.59-0.939,0.989H136.167z"/>
			<path fill="#FFFFFF" d="M138.49,25.042c0-0.61-0.02-1.12-0.04-1.559h1.319l0.07,0.68h0.03c0.2-0.32,0.69-0.79,1.509-0.79
				c1,0,1.749,0.669,1.749,2.109v2.888h-1.519v-2.708c0-0.63-0.22-1.06-0.77-1.06c-0.42,0-0.67,0.29-0.78,0.57
				c-0.04,0.1-0.05,0.24-0.05,0.38v2.818h-1.519V25.042z"/>
			<path fill="#FFFFFF" d="M145.988,22.164v1.319h1.089v1.119h-1.089v1.769c0,0.59,0.15,0.86,0.6,0.86c0.21,0,0.31-0.01,0.45-0.04
				l0.01,1.149c-0.19,0.07-0.56,0.13-0.979,0.13c-0.49,0-0.899-0.17-1.149-0.42c-0.28-0.29-0.42-0.76-0.42-1.449v-1.999h-0.649
				v-1.119h0.649v-0.91L145.988,22.164z"/>
			<path fill="#FFFFFF" d="M152.737,25.872c0,1.789-1.27,2.608-2.579,2.608c-1.429,0-2.529-0.939-2.529-2.519
				c0-1.589,1.04-2.599,2.619-2.599C151.737,23.363,152.737,24.392,152.737,25.872z M149.199,25.921c0,0.84,0.35,1.469,1,1.469
				c0.6,0,0.969-0.59,0.969-1.479c0-0.72-0.28-1.459-0.969-1.459C149.479,24.452,149.199,25.202,149.199,25.921z"/>
			<path fill="#FFFFFF" d="M153.68,25.092c0-0.72-0.01-1.189-0.04-1.609h1.299l0.06,0.899h0.04c0.25-0.72,0.84-1.02,1.319-1.02
				c0.14,0,0.21,0.01,0.32,0.03v1.429c-0.12-0.02-0.24-0.04-0.41-0.04c-0.56,0-0.939,0.3-1.04,0.77c-0.02,0.1-0.03,0.22-0.03,0.34
				v2.479h-1.519V25.092z"/>
		</g>
	</g>
	<g>
		<path fill="#4F4F4F" d="M198.336,36.199c0,1.176-0.96,2.137-2.136,2.137h-32.063c-1.176,0-2.138-0.961-2.138-2.137V4.136
			C162,2.961,162.962,2,164.137,2H196.2c1.175,0,2.136,0.961,2.136,2.136V36.199L198.336,36.199z"/>
		<path fill="#3C3B3C" d="M176.707,21.25h-3.89v1.191h1.312v7.012h1.268v-7.012h1.311L176.707,21.25L176.707,21.25z M178.777,27.994
			c-0.104,0.135-0.22,0.242-0.348,0.326c-0.128,0.086-0.232,0.129-0.314,0.129c-0.104,0-0.181-0.033-0.228-0.098
			c-0.049-0.064-0.071-0.168-0.071-0.311v-4.637h-1.125v5.057c0,0.359,0.063,0.631,0.198,0.811c0.133,0.18,0.327,0.27,0.587,0.27
			c0.211,0,0.43-0.064,0.653-0.191c0.224-0.129,0.439-0.318,0.646-0.564v0.67h1.125v-6.051h-1.125L178.777,27.994L178.777,27.994z
			 M183.136,23.326c-0.175,0-0.347,0.047-0.519,0.145c-0.169,0.094-0.331,0.234-0.481,0.42V21.25H181v8.203h1.137v-0.465
			c0.147,0.186,0.308,0.32,0.479,0.408c0.174,0.09,0.369,0.133,0.589,0.133c0.334,0,0.587-0.113,0.766-0.344
			c0.178-0.227,0.265-0.557,0.265-0.986v-3.357c0-0.494-0.095-0.869-0.281-1.129C183.764,23.455,183.492,23.326,183.136,23.326
			 M183.076,28.035c0,0.191-0.032,0.332-0.098,0.418c-0.064,0.084-0.167,0.125-0.305,0.125c-0.095,0-0.185-0.021-0.271-0.064
			s-0.175-0.115-0.267-0.213v-3.77c0.075-0.084,0.153-0.146,0.231-0.186c0.078-0.039,0.157-0.061,0.238-0.061
			c0.15,0,0.267,0.055,0.346,0.16c0.083,0.107,0.122,0.26,0.122,0.467L183.076,28.035L183.076,28.035z M188.392,26.57v-1.541
			c0-0.576-0.139-1.014-0.416-1.322c-0.275-0.305-0.672-0.457-1.188-0.457c-0.503,0-0.913,0.164-1.23,0.496
			c-0.318,0.328-0.479,0.758-0.479,1.283v2.717c0,0.582,0.146,1.037,0.437,1.373c0.289,0.332,0.686,0.498,1.188,0.498
			c0.562,0,0.982-0.156,1.263-0.471c0.282-0.314,0.424-0.781,0.424-1.4v-0.455h-1.157v0.42c0,0.359-0.037,0.586-0.111,0.689
			c-0.074,0.103-0.206,0.156-0.392,0.156c-0.179,0-0.306-0.061-0.379-0.184c-0.076-0.123-0.112-0.344-0.112-0.662v-1.14H188.392
			L188.392,26.57z M186.239,25.018c0-0.254,0.04-0.436,0.118-0.545s0.206-0.164,0.385-0.164c0.173,0,0.296,0.055,0.374,0.164
			c0.078,0.109,0.118,0.291,0.118,0.545v0.613h-0.993L186.239,25.018L186.239,25.018z"/>
		<g>
			<g>
				<path id="SVGID_9_" fill="#FFFFFF" d="M180.168,18.803c-0.109,0-0.218,0-0.329,0c-2.087,0-4.136,0.04-6.142,0.125
					c-1.478,0-2.676,1.184-2.676,2.645c-0.089,1.158-0.127,2.316-0.125,3.473c-0.002,1.158,0.036,2.314,0.125,3.475
					c0,1.461,1.198,2.645,2.676,2.645c2.11,0.09,4.269,0.127,6.471,0.123c2.201,0.004,4.359-0.033,6.47-0.123
					c1.479,0,2.677-1.184,2.677-2.645c0.09-1.16,0.128-2.316,0.125-3.475c0.003-1.156-0.035-2.314-0.125-3.473
					c0-1.46-1.198-2.645-2.677-2.645c-2.007-0.084-4.056-0.125-6.143-0.125C180.387,18.803,180.277,18.803,180.168,18.803"/>
			</g>
			<g>
				<g>
					<g>
						<g>
							<defs>
								<path id="SVGID_5_" d="M180.168,18.803c-0.109,0-0.218,0-0.329,0c-2.087,0-4.136,0.04-6.142,0.125
									c-1.478,0-2.676,1.184-2.676,2.645c-0.089,1.158-0.127,2.316-0.125,3.473c-0.002,1.158,0.036,2.314,0.125,3.475
									c0,1.461,1.198,2.645,2.676,2.645c2.11,0.09,4.269,0.127,6.471,0.123c2.201,0.004,4.359-0.033,6.47-0.123
									c1.479,0,2.677-1.184,2.677-2.645c0.09-1.16,0.128-2.316,0.125-3.475c0.003-1.156-0.035-2.314-0.125-3.473
									c0-1.46-1.198-2.645-2.677-2.645c-2.007-0.084-4.056-0.125-6.143-0.125C180.387,18.803,180.277,18.803,180.168,18.803"/>
							</defs>
							<clipPath id="SVGID_6_">
								<use xlink:href="#SVGID_5_"  overflow="visible"/>
							</clipPath>
							<rect x="170.894" y="18.803" clip-path="url(#SVGID_6_)" fill="#FFFFFF" width="18.548" height="12.488"/>
						</g>
					</g>
				</g>
			</g>
		</g>
		<g>
			<g>
				<polygon id="SVGID_11_" fill="#FFFFFF" points="176.693,9.047 175.909,12.326 175.828,12.326 175.007,9.047 173.729,9.047 
					175.238,13.999 175.238,17.25 176.505,17.25 176.505,13.846 177.979,9.047 				"/>
			</g>
			<g>
				<g>
					<g>
						<g>
							<defs>
								<polygon id="SVGID_7_" points="176.693,9.047 175.909,12.326 175.828,12.326 175.007,9.047 173.729,9.047 175.238,13.999 
									175.238,17.25 176.505,17.25 176.505,13.846 177.979,9.047 								"/>
							</defs>
							<clipPath id="SVGID_8_">
								<use xlink:href="#SVGID_7_"  overflow="visible"/>
							</clipPath>
							<rect x="173.729" y="9.047" clip-path="url(#SVGID_8_)" fill="#FFFFFF" width="4.251" height="8.204"/>
						</g>
					</g>
				</g>
			</g>
		</g>
		<g>
			<g>
				<path id="SVGID_13_" fill="#FFFFFF" d="M179.2,16.218c-0.081-0.091-0.12-0.22-0.12-0.386v-3.297c0-0.132,0.043-0.238,0.129-0.32
					c0.085-0.08,0.197-0.12,0.335-0.12c0.147,0,0.269,0.04,0.359,0.12c0.092,0.082,0.138,0.188,0.138,0.32v3.297
					c0,0.162-0.044,0.29-0.133,0.382c-0.091,0.093-0.212,0.139-0.364,0.139C179.395,16.355,179.281,16.309,179.2,16.218
					 M178.377,11.462c-0.304,0.278-0.456,0.652-0.456,1.12l0.001,3.139c0,0.512,0.147,0.922,0.442,1.225
					c0.294,0.306,0.689,0.458,1.181,0.458c0.512,0,0.912-0.147,1.205-0.441c0.29-0.295,0.438-0.701,0.438-1.221v-3.124
					c0-0.461-0.148-0.838-0.445-1.131c-0.299-0.292-0.681-0.439-1.146-0.439C179.087,11.046,178.679,11.185,178.377,11.462"/>
			</g>
			<g>
				<g>
					<g>
						<g>
							<defs>
								<path id="SVGID_10_" d="M179.2,16.218c-0.081-0.091-0.12-0.22-0.12-0.386v-3.297c0-0.132,0.043-0.238,0.129-0.32
									c0.085-0.08,0.197-0.12,0.335-0.12c0.147,0,0.269,0.04,0.359,0.12c0.092,0.082,0.138,0.188,0.138,0.32v3.297
									c0,0.162-0.044,0.29-0.133,0.382c-0.091,0.093-0.212,0.139-0.364,0.139C179.395,16.355,179.281,16.309,179.2,16.218
									 M178.377,11.462c-0.304,0.278-0.456,0.652-0.456,1.12l0.001,3.139c0,0.512,0.147,0.922,0.442,1.225
									c0.294,0.306,0.689,0.458,1.181,0.458c0.512,0,0.912-0.147,1.205-0.441c0.29-0.295,0.438-0.701,0.438-1.221v-3.124
									c0-0.461-0.148-0.838-0.445-1.131c-0.299-0.292-0.681-0.439-1.146-0.439C179.087,11.046,178.679,11.185,178.377,11.462"/>
							</defs>
							<clipPath id="SVGID_12_">
								<use xlink:href="#SVGID_10_"  overflow="visible"/>
							</clipPath>
							<rect x="177.922" y="11.046" clip-path="url(#SVGID_12_)" fill="#FFFFFF" width="3.267" height="6.358"/>
						</g>
					</g>
				</g>
			</g>
		</g>
		<g>
			<g>
				<path id="SVGID_15_" fill="#FFFFFF" d="M184.229,11.199v4.592c-0.107,0.133-0.223,0.241-0.349,0.326
					c-0.127,0.085-0.23,0.128-0.313,0.128c-0.106,0-0.183-0.032-0.229-0.096s-0.07-0.167-0.07-0.312v-4.638h-1.123v5.057
					c0,0.36,0.063,0.63,0.194,0.811c0.134,0.179,0.328,0.27,0.59,0.27c0.211,0,0.428-0.065,0.652-0.192
					c0.226-0.128,0.44-0.317,0.647-0.563v0.668h1.125v-6.051H184.229L184.229,11.199z"/>
			</g>
			<g>
				<g>
					<g>
						<g>
							<defs>
								<path id="SVGID_14_" d="M184.229,11.199v4.592c-0.107,0.133-0.223,0.241-0.349,0.326c-0.127,0.085-0.23,0.128-0.313,0.128
									c-0.106,0-0.183-0.032-0.229-0.096s-0.07-0.167-0.07-0.312v-4.638h-1.123v5.057c0,0.36,0.063,0.63,0.194,0.811
									c0.134,0.179,0.328,0.27,0.59,0.27c0.211,0,0.428-0.065,0.652-0.192c0.226-0.128,0.44-0.317,0.647-0.563v0.668h1.125v-6.051
									H184.229L184.229,11.199z"/>
							</defs>
							<clipPath id="SVGID_16_">
								<use xlink:href="#SVGID_14_"  overflow="visible"/>
							</clipPath>
							<rect x="182.145" y="11.199" clip-path="url(#SVGID_16_)" fill="#FFFFFF" width="3.208" height="6.138"/>
						</g>
					</g>
				</g>
			</g>
		</g>
		<path fill="#4F4F4F" d="M176.222,20.827h-3.889v1.193h1.311v7.01h1.268v-7.01h1.312L176.222,20.827L176.222,20.827z
			 M178.292,27.572c-0.104,0.131-0.219,0.24-0.348,0.324c-0.127,0.086-0.231,0.129-0.313,0.129c-0.105,0-0.183-0.033-0.229-0.098
			c-0.049-0.064-0.071-0.168-0.071-0.311v-4.639h-1.124v5.057c0,0.361,0.063,0.631,0.196,0.813c0.133,0.18,0.328,0.27,0.587,0.27
			c0.211,0,0.429-0.064,0.654-0.191c0.223-0.131,0.438-0.318,0.646-0.564v0.67h1.125v-6.053h-1.125v4.593H178.292z M182.652,22.902
			c-0.175,0-0.348,0.049-0.52,0.145c-0.168,0.096-0.329,0.236-0.48,0.422v-2.642h-1.136v8.205h1.136v-0.467
			c0.146,0.184,0.306,0.32,0.477,0.408c0.176,0.09,0.371,0.135,0.592,0.135c0.333,0,0.587-0.115,0.765-0.344
			c0.176-0.229,0.263-0.559,0.263-0.986v-3.359c0-0.494-0.093-0.869-0.281-1.127C183.28,23.031,183.007,22.902,182.652,22.902
			 M182.59,27.611c0,0.193-0.031,0.332-0.097,0.416c-0.063,0.086-0.167,0.129-0.304,0.129c-0.097,0-0.187-0.023-0.272-0.066
			c-0.084-0.043-0.174-0.115-0.265-0.213v-3.771c0.076-0.082,0.153-0.143,0.23-0.182c0.078-0.041,0.157-0.061,0.239-0.061
			c0.15,0,0.268,0.053,0.348,0.158c0.081,0.107,0.121,0.262,0.121,0.467V27.611L182.59,27.611z M187.907,26.145v-1.539
			c0-0.574-0.138-1.016-0.414-1.32c-0.277-0.307-0.673-0.459-1.188-0.459c-0.502,0-0.913,0.164-1.231,0.494
			c-0.318,0.332-0.477,0.758-0.477,1.285v2.717c0,0.582,0.145,1.039,0.435,1.373c0.289,0.332,0.686,0.498,1.189,0.498
			c0.56,0,0.98-0.156,1.263-0.471c0.282-0.314,0.423-0.781,0.423-1.4v-0.455h-1.159v0.42c0,0.357-0.036,0.586-0.11,0.689
			c-0.075,0.104-0.206,0.156-0.394,0.156c-0.179,0-0.305-0.059-0.378-0.184c-0.076-0.123-0.111-0.344-0.111-0.662v-1.143
			L187.907,26.145L187.907,26.145z M185.755,24.596c0-0.256,0.039-0.436,0.118-0.547c0.076-0.109,0.206-0.164,0.384-0.164
			c0.174,0,0.296,0.055,0.375,0.164c0.078,0.111,0.118,0.291,0.118,0.547v0.611h-0.994L185.755,24.596L185.755,24.596z"/>
	</g>
	<g>
		<path fill="#4F4F4F" d="M238.351,36.199c0,1.176-0.961,2.137-2.137,2.137h-32.063c-1.175,0-2.137-0.961-2.137-2.137V4.136
			c0-1.175,0.962-2.136,2.137-2.136h32.063c1.176,0,2.137,0.961,2.137,2.136V36.199L238.351,36.199z"/>
		<polygon fill="#FFFFFF" points="226.364,14.441 226.364,11.641 225.171,11.641 225.171,14.441 222.37,14.441 222.37,15.62 
			225.171,15.62 225.171,18.442 226.364,18.442 226.364,15.62 229.165,15.62 229.165,14.441 		"/>
		<path fill="#FFFFFF" d="M221.329,22.623c-0.171-0.24-0.373-0.465-0.604-0.674s-0.468-0.418-0.704-0.627l-0.808-0.628
			c-0.117-0.104-0.244-0.227-0.38-0.369c-0.135-0.142-0.201-0.34-0.201-0.594s0.066-0.464,0.201-0.627
			c0.135-0.166,0.276-0.322,0.425-0.472c0.239-0.179,0.471-0.369,0.695-0.571c0.224-0.202,0.424-0.426,0.604-0.672
			c0.179-0.247,0.32-0.528,0.426-0.842c0.103-0.313,0.155-0.679,0.155-1.098c0-0.417-0.062-0.791-0.18-1.12
			c-0.12-0.328-0.262-0.616-0.425-0.862c-0.165-0.247-0.336-0.456-0.515-0.627c-0.181-0.172-0.337-0.311-0.472-0.416h1.39
			l1.432-0.783h-4.611c-0.611,0-1.271,0.076-1.979,0.225c-0.709,0.148-1.385,0.484-2.026,1.007c-0.477,0.417-0.835,0.892-1.073,1.42
			c-0.238,0.53-0.357,1.057-0.357,1.579c0,0.432,0.082,0.861,0.245,1.286c0.165,0.425,0.404,0.802,0.717,1.13
			s0.701,0.593,1.163,0.794c0.463,0.202,0.993,0.303,1.59,0.303c0.12,0,0.239-0.004,0.359-0.012
			c0.117-0.008,0.235-0.019,0.355-0.034c-0.059,0.135-0.11,0.265-0.154,0.391c-0.045,0.128-0.068,0.289-0.068,0.481
			c0,0.344,0.071,0.631,0.214,0.863c0.141,0.23,0.294,0.451,0.459,0.66c-0.255,0.014-0.554,0.037-0.896,0.066
			c-0.345,0.031-0.71,0.082-1.099,0.156c-0.387,0.074-0.777,0.176-1.175,0.303c-0.396,0.127-0.765,0.295-1.107,0.504
			c-0.656,0.387-1.107,0.84-1.354,1.354c-0.247,0.516-0.37,0.973-0.37,1.375c0,0.418,0.098,0.818,0.292,1.199
			c0.193,0.381,0.492,0.719,0.896,1.018c0.402,0.299,0.904,0.539,1.512,0.717c0.604,0.18,1.309,0.27,2.114,0.27
			c0.955,0,1.802-0.123,2.54-0.371c0.738-0.246,1.354-0.568,1.847-0.963c0.493-0.396,0.866-0.85,1.119-1.357
			c0.254-0.508,0.381-1.023,0.381-1.547c0-0.389-0.053-0.732-0.157-1.029C221.64,23.129,221.5,22.859,221.329,22.623z
			 M217.088,18.759c-0.477,0-0.891-0.14-1.241-0.417c-0.352-0.277-0.643-0.618-0.873-1.022c-0.23-0.404-0.402-0.838-0.516-1.303
			c-0.111-0.463-0.167-0.884-0.167-1.258c0-0.298,0.033-0.591,0.101-0.876c0.066-0.283,0.197-0.546,0.392-0.786
			c0.179-0.225,0.41-0.405,0.693-0.539c0.285-0.135,0.574-0.203,0.874-0.203c0.463,0,0.868,0.139,1.221,0.416
			c0.35,0.276,0.645,0.625,0.884,1.045c0.239,0.418,0.418,0.867,0.537,1.347c0.119,0.479,0.179,0.921,0.179,1.325
			c0,0.209-0.029,0.472-0.089,0.786c-0.06,0.315-0.217,0.6-0.47,0.854c-0.18,0.18-0.406,0.33-0.683,0.45
			C217.652,18.698,217.371,18.759,217.088,18.759z M219.562,27.072c-0.561,0.455-1.376,0.682-2.451,0.682
			c-1.209,0-2.168-0.252-2.877-0.76c-0.709-0.508-1.063-1.162-1.063-1.969c0-0.404,0.078-0.74,0.234-1.008
			c0.158-0.268,0.34-0.492,0.549-0.672c0.209-0.18,0.422-0.316,0.639-0.414c0.217-0.096,0.384-0.168,0.504-0.211
			c0.236-0.076,0.483-0.141,0.737-0.193c0.255-0.051,0.493-0.09,0.717-0.109c0.225-0.023,0.419-0.039,0.581-0.045
			c0.165-0.008,0.271-0.012,0.313-0.012c0.119,0,0.213,0,0.28,0c0.065,0,0.146,0.008,0.234,0.021
			c0.417,0.299,0.783,0.566,1.098,0.805c0.313,0.24,0.566,0.471,0.762,0.693c0.193,0.225,0.338,0.453,0.436,0.684
			c0.099,0.231,0.146,0.488,0.146,0.771C220.4,26.039,220.121,26.617,219.562,27.072z"/>
	</g>
	<g>
		<path fill="#4F4F4F" d="M278.335,36.199c0,1.176-0.961,2.137-2.136,2.137h-32.063c-1.177,0-2.137-0.961-2.137-2.137V4.136
			C242,2.961,242.96,2,244.136,2h32.063c1.175,0,2.136,0.961,2.136,2.136V36.199z"/>
		<circle fill="none" stroke="#FFFFFF" stroke-width="3" stroke-miterlimit="10" cx="260.167" cy="20.168" r="11.483"/>
		<line fill="none" stroke="#FFFFFF" stroke-width="3" stroke-miterlimit="10" x1="260.167" y1="12.062" x2="260.167" y2="22.094"/>
		<line fill="none" stroke="#FFFFFF" stroke-width="3" stroke-miterlimit="10" x1="261.145" y1="20.595" x2="267.911" y2="20.595"/>
	</g>
	<g>
		<path fill="#4F4F4F" d="M318.336,36.199c0,1.176-0.961,2.137-2.137,2.137h-32.063c-1.175,0-2.138-0.961-2.138-2.137V4.136
			C282,2.961,282.963,2,284.137,2H316.2c1.176,0,2.137,0.961,2.137,2.136L318.336,36.199L318.336,36.199z"/>
		<g enable-background="new    ">
			<path fill="#FFFFFF" d="M284.902,23.207v-4.588h-0.737v-0.737h0.737v-0.253c0-0.748,0.176-1.43,0.616-1.859
				c0.363-0.352,0.847-0.495,1.298-0.495c0.352,0,0.638,0.077,0.825,0.154l-0.132,0.748c-0.143-0.065-0.33-0.121-0.616-0.121
				c-0.825,0-1.034,0.716-1.034,1.541v0.285h1.287v0.737h-1.287v4.588H284.902z"/>
			<path fill="#FFFFFF" d="M288.015,19.544c0-0.628-0.011-1.167-0.044-1.662h0.847l0.044,1.057h0.033
				c0.242-0.715,0.836-1.166,1.485-1.166c0.099,0,0.176,0.011,0.264,0.021v0.913c-0.099-0.021-0.198-0.021-0.33-0.021
				c-0.682,0-1.166,0.506-1.298,1.232c-0.022,0.132-0.033,0.297-0.033,0.45v2.839h-0.968V19.544z"/>
			<path fill="#FFFFFF" d="M296.32,20.501c0,1.969-1.375,2.827-2.651,2.827c-1.43,0-2.552-1.057-2.552-2.739
				c0-1.771,1.177-2.816,2.641-2.816C295.287,17.772,296.32,18.884,296.32,20.501z M292.107,20.556c0,1.166,0.66,2.046,1.606,2.046
				c0.924,0,1.617-0.869,1.617-2.068c0-0.901-0.451-2.035-1.595-2.035C292.602,18.498,292.107,19.555,292.107,20.556z"/>
			<path fill="#FFFFFF" d="M297.541,19.323c0-0.561-0.011-1.001-0.044-1.441h0.858l0.055,0.881h0.022
				c0.264-0.495,0.88-0.99,1.76-0.99c0.737,0,1.881,0.439,1.881,2.267v3.168h-0.968v-3.069c0-0.858-0.319-1.573-1.232-1.573
				c-0.627,0-1.122,0.451-1.298,0.99c-0.044,0.121-0.066,0.286-0.066,0.451v3.201h-0.968V19.323z"/>
			<path fill="#FFFFFF" d="M304.768,16.606v1.275h1.386v0.737h-1.386v2.872c0,0.659,0.187,1.034,0.726,1.034
				c0.264,0,0.418-0.022,0.561-0.066l0.044,0.737c-0.187,0.065-0.484,0.132-0.858,0.132c-0.451,0-0.814-0.154-1.045-0.407
				c-0.264-0.297-0.374-0.771-0.374-1.397v-2.904h-0.825v-0.737h0.825v-0.989L304.768,16.606z"/>
			<path fill="#FFFFFF" d="M307.716,20.721c0.022,1.31,0.847,1.849,1.826,1.849c0.693,0,1.122-0.121,1.474-0.275l0.176,0.693
				c-0.341,0.153-0.935,0.341-1.782,0.341c-1.64,0-2.619-1.089-2.619-2.695s0.946-2.86,2.498-2.86c1.749,0,2.2,1.518,2.2,2.497
				c0,0.198-0.011,0.341-0.033,0.451H307.716z M310.555,20.027c0.011-0.604-0.253-1.562-1.342-1.562
				c-0.99,0-1.408,0.891-1.485,1.562H310.555z"/>
			<path fill="#FFFFFF" d="M312.688,19.544c0-0.628-0.011-1.167-0.044-1.662h0.847l0.044,1.057h0.033
				c0.242-0.715,0.836-1.166,1.485-1.166c0.099,0,0.176,0.011,0.264,0.021v0.913c-0.099-0.021-0.198-0.021-0.33-0.021
				c-0.682,0-1.166,0.506-1.298,1.232c-0.022,0.132-0.033,0.297-0.033,0.45v2.839h-0.968V19.544z"/>
		</g>
	</g>
	<g>
		<g>
			<path fill="#4F4F4F" d="M358.336,36.199c0,1.176-0.962,2.137-2.136,2.137h-32.063c-1.176,0-2.138-0.961-2.138-2.137V4.136
				C322,2.961,322.962,2,324.137,2H356.2c1.174,0,2.136,0.961,2.136,2.136V36.199z"/>
		</g>
		<g>
			<path fill="#3C3B3C" d="M337.676,17.86v1.986l0.533,10.197v0.053c0,0.752-0.59,1.344-1.34,1.344
				c-0.752,0-1.341-0.592-1.341-1.344v-0.053l0.536-10.197V17.86c-1.073-0.483-1.879-1.932-1.879-3.595V9.862
				c0-0.321,0.214-0.535,0.538-0.535c0.32,0,0.534,0.213,0.534,0.535v3.597c0,0.323,0.217,0.538,0.537,0.538
				c0.322,0,0.537-0.215,0.537-0.538V9.434c0-0.269,0.27-0.538,0.536-0.538c0.323,0,0.537,0.217,0.537,0.538v4.025
				c0,0.323,0.215,0.538,0.538,0.538c0.32,0,0.536-0.215,0.536-0.538V9.81c0-0.269,0.268-0.482,0.537-0.482
				c0.32,0,0.534,0.213,0.534,0.535v4.403C339.552,15.928,338.747,17.376,337.676,17.86L337.676,17.86z"/>
			<path fill="#3C3B3C" d="M344.811,31.439c-0.751,0-1.342-0.592-1.342-1.344v-0.053l0.482-9.338c-0.7,0-1.29-0.591-1.29-1.343
				V16.14c0-4.024,0.857-7.245,1.88-7.245c0.59,0,1.073,0.482,1.073,1.075v9.819l0.536,10.252v0.053
				C346.151,30.848,345.562,31.439,344.811,31.439L344.811,31.439z"/>
		</g>
		<g>
			<path fill="#FFFFFF" d="M337.677,17.861v1.985l0.532,10.191v0.051c0,0.75-0.589,1.342-1.339,1.342
				c-0.751,0-1.341-0.592-1.341-1.342v-0.051l0.536-10.191v-1.985c-1.071-0.482-1.877-1.929-1.877-3.591v-4.4
				c0-0.321,0.214-0.535,0.538-0.535c0.32,0,0.535,0.214,0.535,0.535v3.594c0,0.323,0.216,0.537,0.535,0.537
				c0.322,0,0.538-0.213,0.538-0.537V9.442c0-0.269,0.269-0.538,0.534-0.538c0.324,0,0.537,0.217,0.537,0.538v4.022
				c0,0.323,0.214,0.537,0.538,0.537c0.32,0,0.535-0.213,0.535-0.537V9.818c0-0.269,0.268-0.483,0.537-0.483
				c0.32,0,0.533,0.214,0.533,0.535v4.4C339.552,15.932,338.748,17.379,337.677,17.861L337.677,17.861z"/>
			<path fill="#FFFFFF" d="M344.807,31.43c-0.751,0-1.341-0.592-1.341-1.342v-0.051l0.482-9.333c-0.7,0-1.289-0.591-1.289-1.341
				v-3.218c0-4.021,0.857-7.241,1.879-7.241c0.589,0,1.072,0.483,1.072,1.074v9.813l0.535,10.244v0.053
				C346.146,30.838,345.557,31.43,344.807,31.43L344.807,31.43z"/>
		</g>
	</g>
	<g>
		<g>
			<path fill="#4F4F4F" d="M398.336,36.199c0,1.176-0.96,2.137-2.136,2.137h-32.063c-1.176,0-2.138-0.961-2.138-2.137V4.136
				C362,2.961,362.962,2,364.137,2H396.2c1.176,0,2.136,0.961,2.136,2.136V36.199L398.336,36.199z"/>
		</g>
		<g transform="translate(0.000000,300.000000) scale(0.100000,-0.100000)">
			<path fill="#FFFFFF" d="M3809.927,2905.771c-2.729-0.581-14.526-2.959-26.27-5.176c-22.48-4.341-61.279-11.812-80.234-15.508
				l-11.226-2.129l0.166-83.267l0.229-83.267l34.888-6.738c19.185-3.77,47.168-9.102,62.178-12.051l27.236-5.254v107.383
				c0,85.322-0.254,107.314-0.996,107.227C3815.322,2906.914,3812.632,2906.421,3809.927,2905.771z M3763.574,2836.44
				c4.424-1.304,10.576-6.235,13.779-10.908c4.346-6.567,6.309-14.116,6.226-25.103c0-10.093-1.226-15.742-4.932-23.125
				c-8.438-16.66-29.844-20.039-42.158-6.738c-11.24,12.227-13.037,37.324-3.77,53.076c2.783,4.839,9.512,10.83,13.857,12.314
				C3750.771,2837.51,3759.37,2837.68,3763.574,2836.44z"/>
			<path fill="#FFFFFF" d="M3752.822,2822.578c-3.94-1.147-6.406-3.447-8.691-8.047c-1.895-3.931-2.295-5.898-2.549-13.037
				c-0.498-13.369,3.291-22.061,10.586-24.053c7.051-1.855,13.369,2.48,15.908,10.996c2.549,8.55,1.06,23.716-2.949,29.302
				C3762.241,2821.841,3757.163,2823.808,3752.822,2822.578z"/>
			<path fill="#FFFFFF" d="M3826.738,2840.874v-21.167l7.471-4.678l7.383-4.761l32.148,21.421
				c17.725,11.816,32.324,21.572,32.402,21.738c0.752,0.571-0.981,3.857-3.193,6.064l-2.539,2.471h-36.836h-36.836V2840.874
				L3826.738,2840.874z"/>
			<path fill="#FFFFFF" d="M3879.658,2817.163c-34.131-22.969-32.168-21.816-38.149-21.816c-4.106,0-5.571,0.41-9.692,2.949
				c-2.705,1.636-5,2.949-5.156,2.949c-0.166,0-0.244-12.378-0.088-27.476l0.244-27.48h36.514h36.582l3.203,3.184l3.198,3.203
				v41.099c0,22.573-0.073,41.108-0.151,41.03C3905.986,2834.804,3894.087,2826.845,3879.658,2817.163z"/>
		</g>
	</g>
	<g>
		<path fill="#4F4F4F" d="M438.339,36.199c0,1.176-0.961,2.137-2.137,2.137H404.14c-1.177,0-2.14-0.961-2.14-2.137V4.136
			C402.001,2.961,402.964,2,404.14,2h32.063c1.176,0,2.137,0.961,2.137,2.136V36.199L438.339,36.199z"/>
		<g enable-background="new    ">
			<path fill="#FFFFFF" d="M406.898,16.466c0.58-0.1,1.21-0.149,1.869-0.149c1.05,0,1.879,0.239,2.449,0.729
				c0.549,0.45,0.889,1.109,0.889,2.108c0,1.31-0.549,2.429-1.379,3.099c-0.779,0.63-1.769,0.899-3.229,0.899
				c-0.809,0-1.509-0.069-1.849-0.13L406.898,16.466z M407.309,21.953c0.17,0.021,0.38,0.03,0.63,0.03
				c0.779,0,1.47-0.271,1.909-0.78c0.459-0.52,0.699-1.229,0.699-2.038c0-1.069-0.59-1.699-1.779-1.699
				c-0.25,0-0.459,0.02-0.609,0.05L407.309,21.953z"/>
			<path fill="#FFFFFF" d="M416.558,22.822c-0.569,0.29-1.279,0.391-1.829,0.391c-1.389,0-2.109-0.79-2.109-2.069
				c0-1.489,1.08-3.038,2.85-3.038c0.988,0,1.698,0.56,1.698,1.469c0,1.239-1.209,1.689-3.179,1.64
				c0.011,0.14,0.061,0.359,0.16,0.499c0.19,0.25,0.52,0.38,0.939,0.38c0.53,0,0.98-0.119,1.369-0.31L416.558,22.822z
				 M415.288,19.154c-0.669,0-1.06,0.561-1.159,1.01c1.129,0.01,1.689-0.14,1.689-0.6C415.818,19.324,415.618,19.154,415.288,19.154
				z"/>
			<path fill="#FFFFFF" d="M419.389,18.215l0.29,0.729c0.149,0.391,0.239,0.641,0.31,0.82h0.03c0.18-0.26,0.31-0.48,0.52-0.78
				l0.54-0.77h1.648l-2.059,2.379l1.139,2.509h-1.578l-0.311-0.779c-0.14-0.35-0.219-0.6-0.31-0.89h-0.03
				c-0.14,0.229-0.27,0.479-0.489,0.819l-0.59,0.85h-1.659l2.119-2.528l-1.149-2.359H419.389z"/>
			<path fill="#FFFFFF" d="M425.388,16.886l-0.249,1.319h1.049l-0.22,1.1h-1.04l-0.33,1.659c-0.039,0.189-0.079,0.449-0.079,0.619
				c0,0.24,0.1,0.41,0.419,0.41c0.121,0,0.271,0,0.391-0.02l-0.16,1.129c-0.189,0.07-0.55,0.11-0.85,0.11
				c-0.869,0-1.279-0.44-1.279-1.06c0-0.26,0.03-0.53,0.109-0.91l0.371-1.938h-0.62l0.2-1.1h0.629l0.18-0.919L425.388,16.886z"/>
			<path fill="#FFFFFF" d="M430.146,22.822c-0.569,0.29-1.279,0.391-1.828,0.391c-1.39,0-2.109-0.79-2.109-2.069
				c0-1.489,1.08-3.038,2.849-3.038c0.989,0,1.698,0.56,1.698,1.469c0,1.239-1.209,1.689-3.178,1.64
				c0.01,0.14,0.061,0.359,0.16,0.499c0.189,0.25,0.52,0.38,0.939,0.38c0.529,0,0.979-0.119,1.369-0.31L430.146,22.822z
				 M428.877,19.154c-0.669,0-1.059,0.561-1.158,1.01c1.129,0.01,1.688-0.14,1.688-0.6
				C429.407,19.324,429.207,19.154,428.877,19.154z"/>
			<path fill="#FFFFFF" d="M431.069,23.103l0.55-2.908c0.14-0.74,0.199-1.56,0.25-1.979h1.249c-0.03,0.33-0.05,0.66-0.09,1h0.03
				c0.35-0.649,0.889-1.109,1.559-1.109c0.09,0,0.18,0,0.27,0.01l-0.279,1.399c-0.07-0.01-0.15-0.01-0.23-0.01
				c-0.919,0-1.349,0.819-1.528,1.778l-0.34,1.819H431.069z"/>
		</g>
	</g>
	<g>
		<path fill="#4F4F4F" d="M478.335,36.199c0,1.176-0.962,2.137-2.137,2.137h-32.063c-1.175,0-2.135-0.961-2.135-2.137V4.136
			C442,2.961,442.961,2,444.135,2h32.063c1.175,0,2.136,0.961,2.136,2.136L478.335,36.199L478.335,36.199z"/>
		<g>
			<path fill="#FFFFFF" d="M469.119,26.604l-4.169-4.17c0.727-1.176,1.163-2.547,1.163-4.03c0-4.259-3.451-7.711-7.709-7.711
				c-4.261,0-7.713,3.453-7.713,7.711c0,4.26,3.452,7.711,7.713,7.711c1.48,0,2.854-0.439,4.026-1.164l4.172,4.17
				c0.694,0.695,1.819,0.695,2.517,0C469.814,28.428,469.814,27.299,469.119,26.604z M458.404,23.742
				c-2.948,0-5.339-2.389-5.339-5.337c0-2.949,2.391-5.339,5.339-5.339c2.947,0,5.337,2.39,5.337,5.339
				C463.741,21.354,461.353,23.742,458.404,23.742z"/>
		</g>
	</g>
	<g>
		<path fill="#808081" d="M38.336,76.2c0,1.174-0.961,2.136-2.137,2.136H4.136C2.961,78.336,2,77.374,2,76.2V44.139
			C2,42.962,2.961,42,4.136,42h32.063c1.176,0,2.137,0.962,2.137,2.139V76.2L38.336,76.2z"/>
		<path id="Facebook_2_" fill="#FFFFFF" d="M17.554,54.504c0,0.497,0,2.717,0,2.717h-1.989v3.319h1.989v9.114h4.087V60.54h2.742
			c0,0,0.258-1.591,0.382-3.333c-0.357,0-3.108,0-3.108,0s0-1.932,0-2.271c0-0.338,0.446-0.795,0.886-0.795s1.367,0,2.228,0
			c0-0.453,0-2.017,0-3.457c-1.147,0-2.452,0-3.027,0C17.454,50.684,17.554,54.008,17.554,54.504z"/>
	</g>
	<g>
		<path fill="#808081" d="M78.336,76.2c0,1.174-0.961,2.136-2.137,2.136H44.136C42.961,78.336,42,77.374,42,76.2V44.139
			C42,42.962,42.961,42,44.136,42h32.063c1.175,0,2.137,0.962,2.137,2.139V76.2z"/>
		<path id="Twitter_1_" fill="#FFFFFF" d="M64.267,65.066h-4.088c-0.569,0-1.054-0.197-1.449-0.599
			c-0.399-0.397-0.598-0.883-0.598-1.454v-1.453h5.826c0.526,0,0.979-0.188,1.354-0.564c0.376-0.378,0.564-0.828,0.564-1.354
			c0-0.529-0.188-0.98-0.565-1.357c-0.377-0.376-0.831-0.564-1.359-0.564h-5.819V53.2c0-0.569-0.202-1.056-0.606-1.462
			c-0.401-0.405-0.885-0.61-1.449-0.61c-0.579,0-1.072,0.201-1.473,0.601c-0.402,0.397-0.604,0.892-0.604,1.476v9.815
			c0,1.709,0.604,3.166,1.813,4.377c1.208,1.213,2.665,1.817,4.369,1.817h4.087c0.566,0,1.055-0.205,1.46-0.61
			c0.404-0.403,0.607-0.893,0.607-1.461c0-0.566-0.203-1.056-0.607-1.463C65.322,65.272,64.834,65.066,64.267,65.066z"/>
	</g>
	<g>
		<path fill="#808081" d="M118.336,76.2c0,1.174-0.962,2.136-2.137,2.136H84.136C82.961,78.336,82,77.374,82,76.2V44.139
			C82,42.962,82.961,42,84.136,42h32.063c1.175,0,2.137,0.962,2.137,2.139V76.2z"/>
		<path id="RSS_1_" fill="#FFFFFF" d="M95.294,65.035c0.433,0.434,0.695,1.018,0.696,1.668c-0.001,0.65-0.265,1.234-0.693,1.666
			h-0.003c-0.43,0.43-1.019,0.691-1.674,0.691c-0.654,0-1.241-0.264-1.672-0.691c-0.43-0.432-0.694-1.014-0.694-1.666
			c0-0.65,0.266-1.237,0.694-1.668l0,0c0.432-0.43,1.019-0.693,1.672-0.693C94.275,64.342,94.862,64.605,95.294,65.035z
			 M95.294,65.035L95.294,65.035C95.295,65.035,95.295,65.035,95.294,65.035L95.294,65.035z M91.947,68.369L91.947,68.369
			C91.946,68.369,91.946,68.369,91.947,68.369L91.947,68.369z M91.255,57.316v3.404c2.224,0.002,4.325,0.875,5.898,2.449
			c1.573,1.569,2.442,3.676,2.446,5.905H99.6v0.006h3.417c-0.003-3.243-1.32-6.183-3.452-8.313
			C97.435,58.637,94.499,57.318,91.255,57.316z M91.261,51.254v3.403c7.944,0.005,14.402,6.474,14.407,14.426h3.413
			c-0.002-4.915-2-9.368-5.228-12.599C100.624,53.255,96.174,51.257,91.261,51.254z"/>
	</g>
	<g>
		<path fill="#808081" d="M158.336,76.2c0,1.174-0.962,2.136-2.137,2.136h-32.063c-1.175,0-2.138-0.962-2.138-2.136V44.139
			c0-1.177,0.962-2.139,2.138-2.139H156.2c1.175,0,2.137,0.962,2.137,2.139L158.336,76.2L158.336,76.2z"/>
		<g>
			<path fill="#FFFFFF" d="M125.707,51.174c0,0.299-0.21,0.539-0.56,0.539c-0.32,0-0.53-0.24-0.53-0.539
				c0-0.301,0.22-0.55,0.55-0.55C125.487,50.624,125.707,50.863,125.707,51.174z M124.728,57.37v-4.837h0.879v4.837H124.728z"/>
			<path fill="#FFFFFF" d="M127.067,53.842c0-0.51-0.01-0.909-0.04-1.309h0.78l0.05,0.799h0.02c0.24-0.449,0.8-0.899,1.599-0.899
				c0.67,0,1.709,0.399,1.709,2.06v2.878h-0.879v-2.788c0-0.779-0.29-1.43-1.119-1.43c-0.57,0-1.02,0.41-1.18,0.899
				c-0.04,0.11-0.06,0.261-0.06,0.41v2.908h-0.879V53.842z"/>
			<path fill="#FFFFFF" d="M132.707,57.37v-4.167h-0.669v-0.67h0.669v-0.23c0-0.68,0.16-1.299,0.56-1.689
				c0.33-0.319,0.77-0.449,1.179-0.449c0.32,0,0.58,0.07,0.75,0.141l-0.12,0.679c-0.13-0.06-0.3-0.11-0.56-0.11
				c-0.75,0-0.939,0.65-0.939,1.4v0.26h1.169v0.67h-1.169v4.167H132.707z"/>
			<path fill="#FFFFFF" d="M139.785,54.912c0,1.789-1.25,2.568-2.409,2.568c-1.299,0-2.319-0.96-2.319-2.489
				c0-1.608,1.069-2.559,2.398-2.559C138.845,52.433,139.785,53.442,139.785,54.912z M135.957,54.961c0,1.061,0.6,1.859,1.459,1.859
				c0.84,0,1.469-0.789,1.469-1.879c0-0.819-0.41-1.85-1.449-1.85C136.407,53.092,135.957,54.052,135.957,54.961z"/>
			<path fill="#FFFFFF" d="M124.608,64.042c0-0.61-0.02-1.12-0.04-1.56h1.289l0.06,0.66h0.03c0.21-0.32,0.65-0.779,1.479-0.779
				c0.64,0,1.129,0.33,1.339,0.84h0.02c0.189-0.261,0.399-0.461,0.64-0.601c0.27-0.149,0.569-0.239,0.929-0.239
				c0.939,0,1.649,0.659,1.649,2.129v2.878h-1.479v-2.659c0-0.709-0.23-1.119-0.72-1.119c-0.36,0-0.6,0.24-0.709,0.53
				c-0.03,0.11-0.05,0.26-0.05,0.39v2.858h-1.479v-2.749c0-0.609-0.22-1.029-0.709-1.029c-0.39,0-0.62,0.301-0.709,0.54
				c-0.05,0.12-0.06,0.26-0.06,0.39v2.849h-1.479V64.042z"/>
			<path fill="#FFFFFF" d="M134.376,65.411c0.04,0.63,0.67,0.93,1.379,0.93c0.52,0,0.939-0.07,1.349-0.21l0.2,1.029
				c-0.5,0.21-1.109,0.311-1.769,0.311c-1.659,0-2.609-0.96-2.609-2.489c0-1.239,0.77-2.608,2.469-2.608
				c1.579,0,2.179,1.229,2.179,2.438c0,0.26-0.03,0.489-0.05,0.6H134.376z M136.165,64.371c0-0.369-0.16-0.988-0.859-0.988
				c-0.64,0-0.899,0.59-0.939,0.988H136.165z"/>
			<path fill="#FFFFFF" d="M138.488,64.042c0-0.61-0.02-1.12-0.04-1.56h1.319l0.07,0.68h0.03c0.2-0.319,0.69-0.789,1.509-0.789
				c1,0,1.749,0.67,1.749,2.109v2.888h-1.519v-2.708c0-0.631-0.22-1.061-0.77-1.061c-0.42,0-0.67,0.291-0.78,0.57
				c-0.04,0.1-0.05,0.24-0.05,0.38v2.818h-1.519V64.042z"/>
			<path fill="#FFFFFF" d="M145.986,61.164v1.318h1.089v1.119h-1.089v1.77c0,0.59,0.15,0.859,0.6,0.859c0.21,0,0.31-0.01,0.45-0.039
				l0.01,1.148c-0.19,0.07-0.56,0.131-0.979,0.131c-0.49,0-0.899-0.17-1.149-0.42c-0.28-0.291-0.42-0.76-0.42-1.449v-2h-0.649
				v-1.119h0.649v-0.909L145.986,61.164z"/>
			<path fill="#FFFFFF" d="M152.735,64.871c0,1.789-1.27,2.609-2.579,2.609c-1.429,0-2.529-0.939-2.529-2.52
				c0-1.589,1.04-2.598,2.619-2.598C151.735,62.363,152.735,63.393,152.735,64.871z M149.197,64.922c0,0.84,0.35,1.469,1,1.469
				c0.6,0,0.969-0.59,0.969-1.479c0-0.721-0.28-1.46-0.969-1.46C149.477,63.452,149.197,64.201,149.197,64.922z"/>
			<path fill="#FFFFFF" d="M153.678,64.092c0-0.72-0.01-1.189-0.04-1.609h1.299l0.06,0.9h0.04c0.25-0.721,0.84-1.02,1.319-1.02
				c0.14,0,0.21,0.01,0.32,0.029v1.43c-0.12-0.02-0.24-0.04-0.41-0.04c-0.56,0-0.939,0.3-1.04,0.77c-0.02,0.1-0.03,0.22-0.03,0.34
				v2.479h-1.519V64.092z"/>
		</g>
	</g>
	<g>
		<path fill="#808081" d="M198.336,76.199c0,1.176-0.962,2.138-2.137,2.138h-32.063c-1.177,0-2.137-0.962-2.137-2.138V44.137
			c0-1.175,0.96-2.137,2.137-2.137h32.063c1.175,0,2.137,0.962,2.137,2.137V76.199L198.336,76.199z"/>
		<path fill="#3C3B3C" d="M176.706,61.251h-3.888v1.19h1.311v7.012h1.268v-7.012h1.311L176.706,61.251L176.706,61.251z
			 M178.776,67.995c-0.105,0.133-0.22,0.241-0.348,0.325c-0.129,0.086-0.232,0.129-0.313,0.129c-0.106,0-0.183-0.032-0.229-0.098
			c-0.05-0.063-0.072-0.168-0.072-0.312V63.4h-1.125v5.058c0,0.358,0.064,0.631,0.199,0.813c0.132,0.18,0.326,0.27,0.586,0.27
			c0.21,0,0.429-0.063,0.653-0.191s0.439-0.315,0.646-0.563v0.668h1.125v-6.053h-1.125v4.594L178.776,67.995L178.776,67.995z
			 M183.134,63.326c-0.174,0-0.347,0.049-0.519,0.146c-0.17,0.094-0.329,0.232-0.481,0.42V61.25H181v8.203h1.135v-0.467
			c0.147,0.186,0.308,0.318,0.479,0.408c0.174,0.09,0.37,0.135,0.589,0.135c0.334,0,0.588-0.113,0.767-0.344
			c0.176-0.229,0.263-0.559,0.263-0.986v-3.358c0-0.491-0.093-0.868-0.281-1.128C183.764,63.456,183.491,63.326,183.134,63.326
			 M183.075,68.034c0,0.192-0.032,0.333-0.099,0.419c-0.064,0.084-0.166,0.126-0.305,0.126c-0.094,0-0.184-0.021-0.271-0.065
			c-0.086-0.043-0.175-0.115-0.267-0.213v-3.77c0.076-0.084,0.153-0.146,0.231-0.186c0.078-0.039,0.157-0.062,0.239-0.062
			c0.15,0,0.267,0.054,0.348,0.159c0.082,0.104,0.12,0.262,0.12,0.466L183.075,68.034L183.075,68.034z M188.391,66.568v-1.539
			c0-0.574-0.139-1.014-0.414-1.32c-0.277-0.307-0.672-0.458-1.188-0.458c-0.505,0-0.915,0.164-1.232,0.495
			c-0.318,0.329-0.477,0.757-0.477,1.283v2.718c0,0.582,0.145,1.038,0.435,1.371c0.289,0.332,0.686,0.499,1.188,0.499
			c0.56,0,0.981-0.156,1.263-0.471c0.281-0.313,0.424-0.78,0.424-1.399v-0.456h-1.159v0.421c0,0.356-0.037,0.585-0.111,0.688
			c-0.074,0.104-0.206,0.156-0.392,0.156c-0.18,0-0.306-0.063-0.378-0.185c-0.076-0.123-0.112-0.345-0.112-0.662v-1.14
			L188.391,66.568L188.391,66.568z M186.24,65.018c0-0.252,0.038-0.435,0.116-0.545c0.078-0.108,0.206-0.164,0.384-0.164
			c0.173,0,0.296,0.056,0.375,0.164c0.078,0.11,0.117,0.293,0.117,0.545v0.613h-0.993L186.24,65.018L186.24,65.018z"/>
		<g>
			<g>
				<path id="SVGID_4_" fill="#FFFFFF" d="M180.167,58.805c-0.109,0-0.218,0-0.328,0c-2.087,0-4.136,0.039-6.143,0.123
					c-1.479,0-2.676,1.184-2.676,2.646c-0.09,1.157-0.128,2.315-0.124,3.473c-0.004,1.159,0.034,2.313,0.124,3.478
					c0,1.459,1.197,2.645,2.676,2.645c2.11,0.09,4.269,0.127,6.471,0.123c2.201,0.004,4.359-0.033,6.471-0.123
					c1.478,0,2.677-1.186,2.677-2.645c0.088-1.16,0.126-2.316,0.124-3.478c0.002-1.153-0.036-2.313-0.124-3.473
					c0-1.462-1.199-2.646-2.677-2.646c-2.007-0.084-4.055-0.123-6.144-0.123C180.386,58.805,180.276,58.805,180.167,58.805"/>
			</g>
			<g>
				<g>
					<g>
						<g>
							<defs>
								<path id="SVGID_17_" d="M180.167,58.805c-0.109,0-0.218,0-0.328,0c-2.087,0-4.136,0.039-6.143,0.123
									c-1.479,0-2.676,1.184-2.676,2.646c-0.09,1.157-0.128,2.315-0.124,3.473c-0.004,1.159,0.034,2.313,0.124,3.478
									c0,1.459,1.197,2.645,2.676,2.645c2.11,0.09,4.269,0.127,6.471,0.123c2.201,0.004,4.359-0.033,6.471-0.123
									c1.478,0,2.677-1.186,2.677-2.645c0.088-1.16,0.126-2.316,0.124-3.478c0.002-1.153-0.036-2.313-0.124-3.473
									c0-1.462-1.199-2.646-2.677-2.646c-2.007-0.084-4.055-0.123-6.144-0.123C180.386,58.805,180.276,58.805,180.167,58.805"/>
							</defs>
							<clipPath id="SVGID_18_">
								<use xlink:href="#SVGID_17_"  overflow="visible"/>
							</clipPath>
							<rect x="170.893" y="58.805" clip-path="url(#SVGID_18_)" fill="#FFFFFF" width="18.548" height="12.487"/>
						</g>
					</g>
				</g>
			</g>
		</g>
		<g>
			<g>
				<polygon id="SVGID_3_" fill="#FFFFFF" points="176.691,49.048 175.907,52.326 175.827,52.326 175.006,49.048 173.729,49.048 
					175.238,53.998 175.238,57.251 176.504,57.251 176.504,53.848 177.979,49.048 				"/>
			</g>
			<g>
				<g>
					<g>
						<g>
							<defs>
								<polygon id="SVGID_19_" points="176.691,49.048 175.907,52.326 175.827,52.326 175.006,49.048 173.729,49.048 
									175.238,53.998 175.238,57.251 176.504,57.251 176.504,53.848 177.979,49.048 								"/>
							</defs>
							<clipPath id="SVGID_20_">
								<use xlink:href="#SVGID_19_"  overflow="visible"/>
							</clipPath>
							<rect x="173.729" y="49.048" clip-path="url(#SVGID_20_)" fill="#FFFFFF" width="4.25" height="8.203"/>
						</g>
					</g>
				</g>
			</g>
		</g>
		<g>
			<g>
				<path id="SVGID_2_" fill="#FFFFFF" d="M179.199,56.219c-0.08-0.091-0.12-0.22-0.12-0.386v-3.297
					c0-0.132,0.044-0.238,0.129-0.321c0.085-0.078,0.198-0.119,0.334-0.119c0.148,0,0.27,0.041,0.359,0.119
					c0.092,0.083,0.139,0.189,0.139,0.321v3.297c0,0.162-0.045,0.289-0.134,0.382c-0.09,0.094-0.211,0.139-0.364,0.139
					C179.394,56.354,179.281,56.309,179.199,56.219 M178.376,51.462c-0.303,0.278-0.457,0.651-0.457,1.12l0.001,3.137
					c0,0.516,0.147,0.924,0.442,1.227c0.295,0.308,0.688,0.457,1.181,0.457c0.512,0,0.912-0.146,1.205-0.438
					c0.29-0.295,0.438-0.7,0.438-1.221v-3.125c0-0.461-0.148-0.841-0.445-1.132c-0.297-0.293-0.679-0.438-1.145-0.438
					C179.085,51.047,178.678,51.186,178.376,51.462"/>
			</g>
			<g>
				<g>
					<g>
						<g>
							<defs>
								<path id="SVGID_21_" d="M179.199,56.219c-0.08-0.091-0.12-0.22-0.12-0.386v-3.297c0-0.132,0.044-0.238,0.129-0.321
									c0.085-0.078,0.198-0.119,0.334-0.119c0.148,0,0.27,0.041,0.359,0.119c0.092,0.083,0.139,0.189,0.139,0.321v3.297
									c0,0.162-0.045,0.289-0.134,0.382c-0.09,0.094-0.211,0.139-0.364,0.139C179.394,56.354,179.281,56.309,179.199,56.219
									 M178.376,51.462c-0.303,0.278-0.457,0.651-0.457,1.12l0.001,3.137c0,0.516,0.147,0.924,0.442,1.227
									c0.295,0.308,0.688,0.457,1.181,0.457c0.512,0,0.912-0.146,1.205-0.438c0.29-0.295,0.438-0.7,0.438-1.221v-3.125
									c0-0.461-0.148-0.841-0.445-1.132c-0.297-0.293-0.679-0.438-1.145-0.438C179.085,51.047,178.678,51.186,178.376,51.462"/>
							</defs>
							<clipPath id="SVGID_22_">
								<use xlink:href="#SVGID_21_"  overflow="visible"/>
							</clipPath>
							<rect x="177.92" y="51.047" clip-path="url(#SVGID_22_)" fill="#FFFFFF" width="3.268" height="6.355"/>
						</g>
					</g>
				</g>
			</g>
		</g>
		<g>
			<g>
				<path id="SVGID_1_" fill="#FFFFFF" d="M184.228,51.199v4.593c-0.108,0.133-0.222,0.24-0.349,0.326
					c-0.128,0.084-0.23,0.127-0.313,0.127c-0.106,0-0.182-0.031-0.229-0.097c-0.048-0.063-0.07-0.166-0.07-0.313v-4.641h-1.124v5.06
					c0,0.36,0.063,0.631,0.194,0.813c0.134,0.179,0.329,0.268,0.59,0.268c0.21,0,0.428-0.063,0.653-0.191
					c0.224-0.129,0.439-0.314,0.646-0.563v0.669h1.125V51.2L184.228,51.199L184.228,51.199z"/>
			</g>
			<g>
				<g>
					<g>
						<g>
							<defs>
								<path id="SVGID_23_" d="M184.228,51.199v4.593c-0.108,0.133-0.222,0.24-0.349,0.326c-0.128,0.084-0.23,0.127-0.313,0.127
									c-0.106,0-0.182-0.031-0.229-0.097c-0.048-0.063-0.07-0.166-0.07-0.313v-4.641h-1.124v5.06c0,0.36,0.063,0.631,0.194,0.813
									c0.134,0.179,0.329,0.268,0.59,0.268c0.21,0,0.428-0.063,0.653-0.191c0.224-0.129,0.439-0.314,0.646-0.563v0.669h1.125V51.2
									L184.228,51.199L184.228,51.199z"/>
							</defs>
							<clipPath id="SVGID_24_">
								<use xlink:href="#SVGID_23_"  overflow="visible"/>
							</clipPath>
							<rect x="182.143" y="51.199" clip-path="url(#SVGID_24_)" fill="#FFFFFF" width="3.209" height="6.137"/>
						</g>
					</g>
				</g>
			</g>
		</g>
		<path fill="#808081" d="M176.22,60.827h-3.889v1.19h1.312v7.012h1.267v-7.012h1.313L176.22,60.827L176.22,60.827z M178.291,67.57
			c-0.104,0.135-0.22,0.242-0.348,0.326c-0.126,0.086-0.231,0.129-0.313,0.129c-0.104,0-0.181-0.032-0.229-0.099
			c-0.048-0.063-0.071-0.168-0.071-0.312V62.98h-1.124v5.058c0,0.36,0.064,0.631,0.198,0.812c0.131,0.18,0.327,0.271,0.587,0.271
			c0.21,0,0.428-0.063,0.654-0.19c0.224-0.13,0.438-0.316,0.646-0.564v0.671h1.125V62.98h-1.125V67.57L178.291,67.57z
			 M182.65,62.902c-0.175,0-0.347,0.049-0.518,0.145c-0.17,0.098-0.33,0.236-0.482,0.422v-2.642h-1.136v8.205h1.136v-0.468
			c0.147,0.185,0.307,0.318,0.479,0.408c0.175,0.09,0.37,0.133,0.589,0.133c0.333,0,0.589-0.112,0.766-0.342
			c0.176-0.229,0.264-0.56,0.264-0.986V64.42c0-0.495-0.094-0.87-0.281-1.13C183.278,63.032,183.007,62.902,182.65,62.902
			 M182.589,67.611c0,0.19-0.031,0.332-0.097,0.418c-0.063,0.082-0.166,0.127-0.304,0.127c-0.096,0-0.186-0.022-0.271-0.066
			c-0.085-0.042-0.175-0.113-0.267-0.211v-3.771c0.077-0.084,0.154-0.145,0.23-0.185c0.079-0.039,0.157-0.06,0.239-0.06
			c0.15,0,0.268,0.054,0.349,0.158c0.081,0.106,0.12,0.263,0.12,0.465L182.589,67.611L182.589,67.611z M187.905,66.147v-1.541
			c0-0.574-0.137-1.015-0.414-1.32c-0.276-0.307-0.672-0.458-1.187-0.458c-0.504,0-0.913,0.164-1.232,0.495
			c-0.318,0.33-0.476,0.758-0.476,1.283v2.717c0,0.584,0.146,1.039,0.434,1.373c0.29,0.334,0.686,0.5,1.189,0.5
			c0.56,0,0.98-0.157,1.264-0.471c0.281-0.314,0.423-0.783,0.423-1.402v-0.454h-1.158v0.421c0,0.357-0.037,0.585-0.111,0.689
			c-0.074,0.104-0.204,0.154-0.393,0.154c-0.178,0-0.304-0.063-0.378-0.185c-0.076-0.123-0.111-0.345-0.111-0.661v-1.143h2.15
			V66.147z M185.754,64.594c0-0.253,0.039-0.434,0.117-0.544c0.077-0.108,0.206-0.163,0.384-0.163c0.175,0,0.295,0.055,0.375,0.163
			c0.078,0.11,0.117,0.291,0.117,0.544v0.613h-0.993V64.594L185.754,64.594z"/>
	</g>
	<g>
		<path fill="#808081" d="M238.336,76.199c0,1.176-0.962,2.138-2.137,2.138h-32.063c-1.176,0-2.137-0.962-2.137-2.138V44.137
			c0-1.175,0.961-2.137,2.137-2.137h32.063c1.175,0,2.137,0.962,2.137,2.137V76.199z"/>
		<polygon fill="#FFFFFF" points="226.349,54.441 226.349,51.641 225.155,51.641 225.155,54.441 222.354,54.441 222.354,55.621 
			225.155,55.621 225.155,58.441 226.349,58.441 226.349,55.621 229.149,55.621 229.149,54.441 		"/>
		<path fill="#FFFFFF" d="M221.314,62.622c-0.173-0.239-0.374-0.464-0.605-0.673c-0.229-0.209-0.466-0.418-0.705-0.627l-0.806-0.629
			c-0.119-0.104-0.246-0.229-0.38-0.367c-0.134-0.143-0.2-0.342-0.2-0.596s0.066-0.463,0.2-0.627
			c0.134-0.164,0.276-0.321,0.426-0.473c0.238-0.179,0.47-0.367,0.693-0.568c0.224-0.203,0.426-0.427,0.604-0.674
			c0.18-0.246,0.321-0.525,0.426-0.843c0.104-0.313,0.155-0.679,0.155-1.101c0-0.418-0.059-0.788-0.179-1.117
			c-0.119-0.329-0.26-0.616-0.425-0.862c-0.164-0.245-0.334-0.457-0.516-0.628c-0.179-0.173-0.334-0.311-0.47-0.414h1.388
			l1.434-0.783h-4.61c-0.612,0-1.271,0.073-1.98,0.225c-0.708,0.15-1.386,0.484-2.025,1.009c-0.479,0.417-0.835,0.892-1.074,1.42
			c-0.239,0.53-0.357,1.058-0.357,1.579c0,0.432,0.083,0.859,0.246,1.285c0.163,0.426,0.402,0.803,0.717,1.131
			c0.313,0.328,0.701,0.593,1.164,0.795c0.461,0.202,0.992,0.303,1.59,0.303c0.118,0,0.236-0.004,0.356-0.012
			s0.239-0.02,0.357-0.033c-0.06,0.135-0.111,0.266-0.156,0.391c-0.044,0.129-0.066,0.289-0.066,0.481
			c0,0.345,0.069,0.632,0.214,0.861c0.14,0.231,0.294,0.452,0.458,0.661c-0.254,0.015-0.553,0.037-0.896,0.065
			c-0.343,0.029-0.707,0.082-1.096,0.156c-0.389,0.074-0.78,0.175-1.176,0.303s-0.767,0.296-1.107,0.505
			c-0.657,0.387-1.109,0.838-1.354,1.354c-0.246,0.515-0.369,0.974-0.369,1.376c0,0.418,0.096,0.817,0.29,1.196
			c0.192,0.381,0.493,0.721,0.896,1.02c0.402,0.298,0.906,0.538,1.511,0.717c0.605,0.18,1.31,0.268,2.115,0.268
			c0.954,0,1.801-0.12,2.539-0.366c0.739-0.248,1.355-0.568,1.847-0.965c0.494-0.396,0.866-0.851,1.12-1.356
			c0.253-0.508,0.38-1.023,0.38-1.547c0-0.388-0.052-0.73-0.154-1.029C221.624,63.13,221.485,62.861,221.314,62.622z
			 M217.072,58.758c-0.478,0-0.892-0.138-1.241-0.415c-0.352-0.276-0.643-0.618-0.874-1.021c-0.23-0.403-0.401-0.84-0.515-1.305
			c-0.113-0.463-0.168-0.884-0.168-1.259c0-0.299,0.034-0.592,0.1-0.876c0.068-0.283,0.2-0.547,0.395-0.785
			c0.18-0.225,0.411-0.404,0.692-0.539c0.283-0.136,0.574-0.201,0.873-0.201c0.462,0,0.868,0.139,1.221,0.416
			c0.352,0.274,0.646,0.625,0.884,1.043c0.239,0.42,0.418,0.869,0.538,1.35c0.119,0.479,0.18,0.919,0.18,1.324
			c0,0.209-0.031,0.472-0.091,0.785c-0.06,0.314-0.215,0.601-0.47,0.854c-0.18,0.182-0.406,0.328-0.683,0.449
			C217.636,58.697,217.356,58.758,217.072,58.758z M219.546,67.072c-0.561,0.455-1.376,0.684-2.45,0.684
			c-1.209,0-2.167-0.253-2.876-0.761c-0.71-0.509-1.063-1.163-1.063-1.97c0-0.403,0.077-0.739,0.235-1.008
			c0.155-0.271,0.339-0.494,0.547-0.672c0.209-0.181,0.424-0.316,0.639-0.414c0.216-0.099,0.385-0.168,0.503-0.215
			c0.238-0.072,0.486-0.138,0.738-0.189c0.255-0.053,0.494-0.088,0.717-0.11c0.224-0.022,0.418-0.038,0.583-0.044
			c0.163-0.008,0.269-0.012,0.313-0.012c0.119,0,0.214,0,0.281,0c0.065,0,0.145,0.008,0.233,0.021
			c0.417,0.3,0.784,0.567,1.096,0.808c0.315,0.238,0.568,0.471,0.763,0.692c0.193,0.224,0.34,0.45,0.438,0.683
			c0.096,0.23,0.146,0.49,0.146,0.772C220.384,66.04,220.104,66.617,219.546,67.072z"/>
	</g>
	<g>
		<path fill="#808081" d="M278.337,76.199c0,1.176-0.962,2.138-2.138,2.138h-32.062c-1.176,0-2.139-0.962-2.139-2.138V44.137
			c0-1.175,0.963-2.137,2.139-2.137h32.062c1.176,0,2.138,0.962,2.138,2.137V76.199L278.337,76.199z"/>
		<circle fill="none" stroke="#FFFFFF" stroke-width="3" stroke-miterlimit="10" cx="260.168" cy="60.168" r="11.482"/>
		<line fill="none" stroke="#FFFFFF" stroke-width="3" stroke-miterlimit="10" x1="260.168" y1="52.063" x2="260.168" y2="62.094"/>
		<line fill="none" stroke="#FFFFFF" stroke-width="3" stroke-miterlimit="10" x1="261.146" y1="60.596" x2="267.912" y2="60.596"/>
	</g>
	<g>
		<path fill="#808081" d="M318.337,76.199c0,1.176-0.962,2.138-2.138,2.138h-32.062c-1.176,0-2.139-0.962-2.139-2.138V44.137
			c0-1.175,0.963-2.137,2.139-2.137h32.062c1.176,0,2.138,0.962,2.138,2.137V76.199z"/>
		<g enable-background="new    ">
			<path fill="#FFFFFF" d="M284.902,63.207v-4.588h-0.737v-0.737h0.737v-0.253c0-0.748,0.176-1.43,0.616-1.859
				c0.363-0.352,0.847-0.495,1.298-0.495c0.352,0,0.638,0.077,0.825,0.154l-0.132,0.748c-0.143-0.065-0.33-0.121-0.616-0.121
				c-0.825,0-1.034,0.716-1.034,1.541v0.285h1.287v0.737h-1.287v4.588H284.902z"/>
			<path fill="#FFFFFF" d="M288.015,59.544c0-0.628-0.011-1.167-0.044-1.662h0.847l0.044,1.057h0.033
				c0.242-0.715,0.836-1.166,1.485-1.166c0.099,0,0.176,0.011,0.264,0.021v0.913c-0.099-0.021-0.198-0.021-0.33-0.021
				c-0.682,0-1.166,0.506-1.298,1.232c-0.022,0.132-0.033,0.297-0.033,0.45v2.839h-0.968V59.544z"/>
			<path fill="#FFFFFF" d="M296.32,60.501c0,1.969-1.375,2.827-2.651,2.827c-1.43,0-2.552-1.057-2.552-2.739
				c0-1.771,1.177-2.816,2.641-2.816C295.287,57.772,296.32,58.884,296.32,60.501z M292.107,60.556c0,1.166,0.66,2.046,1.606,2.046
				c0.924,0,1.617-0.869,1.617-2.068c0-0.901-0.451-2.035-1.595-2.035C292.602,58.498,292.107,59.555,292.107,60.556z"/>
			<path fill="#FFFFFF" d="M297.541,59.323c0-0.561-0.011-1.001-0.044-1.441h0.858l0.055,0.881h0.022
				c0.264-0.495,0.88-0.99,1.76-0.99c0.737,0,1.881,0.439,1.881,2.267v3.168h-0.968v-3.069c0-0.858-0.319-1.573-1.232-1.573
				c-0.627,0-1.122,0.451-1.298,0.99c-0.044,0.121-0.066,0.286-0.066,0.451v3.201h-0.968V59.323z"/>
			<path fill="#FFFFFF" d="M304.768,56.606v1.275h1.386v0.737h-1.386v2.872c0,0.659,0.187,1.034,0.726,1.034
				c0.264,0,0.418-0.022,0.561-0.066l0.044,0.737c-0.187,0.065-0.484,0.132-0.858,0.132c-0.451,0-0.814-0.154-1.045-0.407
				c-0.264-0.297-0.374-0.771-0.374-1.397v-2.904h-0.825v-0.737h0.825v-0.989L304.768,56.606z"/>
			<path fill="#FFFFFF" d="M307.716,60.721c0.022,1.31,0.847,1.849,1.826,1.849c0.693,0,1.122-0.121,1.474-0.275l0.176,0.693
				c-0.341,0.153-0.935,0.341-1.782,0.341c-1.64,0-2.619-1.089-2.619-2.695s0.946-2.86,2.498-2.86c1.749,0,2.2,1.518,2.2,2.497
				c0,0.198-0.011,0.341-0.033,0.451H307.716z M310.555,60.027c0.011-0.604-0.253-1.562-1.342-1.562
				c-0.99,0-1.408,0.891-1.485,1.562H310.555z"/>
			<path fill="#FFFFFF" d="M312.688,59.544c0-0.628-0.011-1.167-0.044-1.662h0.847l0.044,1.057h0.033
				c0.242-0.715,0.836-1.166,1.485-1.166c0.099,0,0.176,0.011,0.264,0.021v0.913c-0.099-0.021-0.198-0.021-0.33-0.021
				c-0.682,0-1.166,0.506-1.298,1.232c-0.022,0.132-0.033,0.297-0.033,0.45v2.839h-0.968V59.544z"/>
		</g>
	</g>
	<g>
		<g>
			<path fill="#808081" d="M358.336,76.199c0,1.175-0.961,2.137-2.136,2.137h-32.063c-1.176,0-2.138-0.962-2.138-2.137V44.137
				c0-1.176,0.962-2.137,2.138-2.137H356.2c1.175,0,2.136,0.961,2.136,2.137V76.199z"/>
		</g>
		<g>
			<path fill="#3C3B3C" d="M337.676,57.859v1.986l0.534,10.194v0.053c0,0.753-0.589,1.345-1.341,1.345
				c-0.751,0-1.341-0.592-1.341-1.345V70.04l0.536-10.194v-1.986c-1.073-0.482-1.879-1.933-1.879-3.596v-4.402
				c0-0.319,0.214-0.534,0.538-0.534c0.32,0,0.536,0.215,0.536,0.534v3.598c0,0.323,0.215,0.538,0.535,0.538
				c0.322,0,0.538-0.216,0.538-0.538v-4.023c0-0.271,0.269-0.539,0.535-0.539c0.323,0,0.537,0.218,0.537,0.539v4.023
				c0,0.323,0.215,0.538,0.538,0.538c0.32,0,0.536-0.216,0.536-0.538v-3.648c0-0.269,0.268-0.481,0.537-0.481
				c0.321,0,0.534,0.215,0.534,0.532v4.404C339.552,55.928,338.748,57.377,337.676,57.859L337.676,57.859z"/>
			<path fill="#3C3B3C" d="M344.811,71.438c-0.751,0-1.342-0.592-1.342-1.344v-0.053l0.482-9.338c-0.7,0-1.29-0.59-1.29-1.342
				v-3.223c0-4.023,0.857-7.244,1.88-7.244c0.59,0,1.073,0.482,1.073,1.073v9.82l0.537,10.251v0.054
				C346.152,70.848,345.562,71.438,344.811,71.438L344.811,71.438z"/>
		</g>
		<g>
			<path fill="#FFFFFF" d="M337.677,57.861v1.984l0.533,10.188v0.054c0,0.75-0.589,1.343-1.339,1.343
				c-0.751,0-1.342-0.593-1.342-1.343v-0.054l0.536-10.188v-1.984c-1.071-0.483-1.876-1.932-1.876-3.592v-4.4
				c0-0.319,0.213-0.534,0.537-0.534c0.32,0,0.537,0.215,0.537,0.534v3.594c0,0.324,0.214,0.538,0.534,0.538
				c0.321,0,0.537-0.214,0.537-0.538v-4.021c0-0.27,0.27-0.537,0.535-0.537c0.324,0,0.537,0.218,0.537,0.537v4.021
				c0,0.324,0.214,0.538,0.538,0.538c0.32,0,0.534-0.214,0.534-0.538v-3.646c0-0.268,0.27-0.48,0.537-0.48
				c0.32,0,0.534,0.215,0.534,0.534v4.399C339.552,55.932,338.748,57.379,337.677,57.861L337.677,57.861z"/>
			<path fill="#FFFFFF" d="M344.807,71.432c-0.751,0-1.341-0.594-1.341-1.344v-0.052l0.482-9.332c-0.7,0-1.289-0.591-1.289-1.341
				v-3.219c0-4.021,0.858-7.24,1.879-7.24c0.589,0,1.072,0.481,1.072,1.072v9.813l0.537,10.243v0.054
				C346.146,70.838,345.558,71.432,344.807,71.432L344.807,71.432z"/>
		</g>
	</g>
	<g>
		<g>
			<path fill="#808081" d="M398.336,76.199c0,1.175-0.961,2.137-2.137,2.137h-32.063c-1.176,0-2.137-0.962-2.137-2.137V44.137
				c0-1.176,0.961-2.137,2.137-2.137h32.063c1.176,0,2.137,0.961,2.137,2.137V76.199z"/>
		</g>
		<g transform="translate(0.000000,300.000000) scale(0.100000,-0.100000)">
			<path fill="#FFFFFF" d="M3809.916,2505.771c-2.715-0.576-14.531-2.959-26.27-5.176c-22.471-4.346-61.27-11.816-80.225-15.498
				l-11.24-2.129l0.166-83.281l0.234-83.271l34.883-6.729c19.199-3.76,47.168-9.102,62.178-12.051l27.246-5.254v107.383
				c0,85.332-0.244,107.314-0.996,107.236C3815.326,2506.914,3812.621,2506.425,3809.916,2505.771z M3763.564,2436.435
				c4.434-1.289,10.586-6.23,13.774-10.908c4.355-6.553,6.313-14.092,6.23-25.088c0-10.098-1.221-15.762-4.912-23.135
				c-8.457-16.66-29.863-20.029-42.178-6.729c-11.23,12.217-13.037,37.314-3.77,53.076c2.783,4.834,9.512,10.82,13.857,12.305
				C3750.756,2437.509,3759.379,2437.675,3763.564,2436.435z"/>
			<path fill="#FFFFFF" d="M3752.817,2422.578c-3.945-1.152-6.406-3.447-8.701-8.047c-1.895-3.936-2.295-5.898-2.549-13.037
				c-0.498-13.379,3.291-22.061,10.586-24.033c7.051-1.885,13.369,2.451,15.908,10.996c2.549,8.525,1.084,23.701-2.949,29.287
				C3762.24,2421.845,3757.153,2423.808,3752.817,2422.578z"/>
			<path fill="#FFFFFF" d="M3826.728,2440.878v-21.172l7.471-4.678l7.383-4.746l32.158,21.406
				c17.715,11.816,32.31,21.572,32.412,21.738c0.728,0.576-0.986,3.857-3.213,6.064l-2.539,2.471h-36.836h-36.836V2440.878
				L3826.728,2440.878z"/>
			<path fill="#FFFFFF" d="M3879.648,2417.167c-34.136-22.969-32.158-21.816-38.149-21.816c-4.102,0-5.576,0.41-9.678,2.939
				c-2.705,1.65-5.02,2.959-5.176,2.959c-0.166,0-0.244-12.393-0.078-27.49l0.234-27.471h36.514h36.602l3.188,3.193l3.198,3.203
				v41.104c0,22.559-0.073,41.094-0.151,41.016C3905.981,2434.804,3894.086,2426.845,3879.648,2417.167z"/>
		</g>
	</g>
	<g>
		<path fill="#808081" d="M438.337,76.199c0,1.175-0.962,2.137-2.137,2.137h-32.063c-1.177,0-2.138-0.962-2.138-2.137V44.137
			c0-1.176,0.961-2.137,2.138-2.137H436.2c1.175,0,2.137,0.961,2.137,2.137V76.199z"/>
		<g enable-background="new    ">
			<path fill="#FFFFFF" d="M406.897,56.466c0.579-0.1,1.21-0.149,1.869-0.149c1.05,0,1.879,0.239,2.448,0.729
				c0.55,0.45,0.89,1.109,0.89,2.108c0,1.31-0.55,2.429-1.379,3.099c-0.78,0.63-1.769,0.899-3.229,0.899
				c-0.81,0-1.509-0.069-1.849-0.13L406.897,56.466z M407.307,61.953c0.17,0.021,0.381,0.03,0.631,0.03
				c0.779,0,1.469-0.271,1.908-0.78c0.46-0.52,0.699-1.229,0.699-2.038c0-1.069-0.59-1.699-1.778-1.699c-0.25,0-0.46,0.02-0.61,0.05
				L407.307,61.953z"/>
			<path fill="#FFFFFF" d="M416.557,62.822c-0.57,0.29-1.279,0.391-1.83,0.391c-1.389,0-2.108-0.79-2.108-2.069
				c0-1.489,1.079-3.038,2.849-3.038c0.989,0,1.699,0.56,1.699,1.469c0,1.239-1.209,1.689-3.179,1.64
				c0.011,0.14,0.06,0.359,0.16,0.499c0.19,0.25,0.52,0.38,0.939,0.38c0.53,0,0.979-0.119,1.369-0.31L416.557,62.822z
				 M415.287,59.154c-0.67,0-1.06,0.561-1.16,1.01c1.13,0.01,1.689-0.14,1.689-0.6C415.816,59.324,415.617,59.154,415.287,59.154z"
				/>
			<path fill="#FFFFFF" d="M419.387,58.215l0.291,0.729c0.149,0.391,0.239,0.641,0.309,0.82h0.031c0.18-0.26,0.309-0.48,0.52-0.78
				l0.539-0.77h1.649l-2.06,2.379l1.14,2.509h-1.579l-0.31-0.779c-0.14-0.35-0.22-0.6-0.31-0.89h-0.03
				c-0.14,0.229-0.271,0.479-0.489,0.819l-0.59,0.85h-1.659l2.118-2.528l-1.148-2.359H419.387z"/>
			<path fill="#FFFFFF" d="M425.387,56.886l-0.25,1.319h1.049l-0.219,1.1h-1.04l-0.33,1.659c-0.04,0.189-0.079,0.449-0.079,0.619
				c0,0.24,0.1,0.41,0.419,0.41c0.12,0,0.271,0,0.39-0.02l-0.16,1.129c-0.189,0.07-0.549,0.11-0.85,0.11
				c-0.869,0-1.279-0.44-1.279-1.06c0-0.26,0.031-0.53,0.11-0.91l0.37-1.938h-0.619l0.199-1.1h0.63l0.18-0.919L425.387,56.886z"/>
			<path fill="#FFFFFF" d="M430.145,62.822c-0.569,0.29-1.279,0.391-1.829,0.391c-1.389,0-2.109-0.79-2.109-2.069
				c0-1.489,1.08-3.038,2.85-3.038c0.988,0,1.698,0.56,1.698,1.469c0,1.239-1.209,1.689-3.179,1.64
				c0.011,0.14,0.061,0.359,0.16,0.499c0.19,0.25,0.52,0.38,0.939,0.38c0.53,0,0.98-0.119,1.369-0.31L430.145,62.822z
				 M428.876,59.154c-0.669,0-1.06,0.561-1.159,1.01c1.129,0.01,1.689-0.14,1.689-0.6C429.406,59.324,429.206,59.154,428.876,59.154
				z"/>
			<path fill="#FFFFFF" d="M431.068,63.103l0.549-2.908c0.141-0.74,0.2-1.56,0.25-1.979h1.25c-0.03,0.33-0.051,0.66-0.09,1h0.029
				c0.35-0.649,0.89-1.109,1.56-1.109c0.09,0,0.18,0,0.27,0.01l-0.28,1.399c-0.069-0.01-0.149-0.01-0.229-0.01
				c-0.919,0-1.349,0.819-1.528,1.778l-0.34,1.819H431.068z"/>
		</g>
	</g>
	<g>
		<path fill="#808081" d="M478.336,76.199c0,1.175-0.963,2.137-2.138,2.137h-32.063c-1.175,0-2.136-0.962-2.136-2.137V44.137
			c0-1.176,0.961-2.137,2.136-2.137h32.063c1.175,0,2.138,0.961,2.138,2.137V76.199z"/>
		<g>
			<path fill="#FFFFFF" d="M469.12,66.604l-4.17-4.17c0.727-1.175,1.165-2.547,1.165-4.029c0-4.26-3.453-7.711-7.711-7.711
				c-4.26,0-7.711,3.451-7.711,7.711c0,4.261,3.451,7.712,7.711,7.712c1.481,0,2.854-0.438,4.027-1.163l4.171,4.17
				c0.694,0.693,1.821,0.693,2.517,0C469.815,68.428,469.815,67.299,469.12,66.604z M458.404,63.743
				c-2.948,0-5.338-2.392-5.338-5.339c0-2.949,2.39-5.34,5.338-5.34c2.947,0,5.337,2.391,5.337,5.34
				C463.741,61.352,461.352,63.743,458.404,63.743z"/>
		</g>
	</g>
	<g>
		<g>
			<path fill="#4F4F4F" d="M758.336,36.2c0,1.175-0.962,2.136-2.137,2.136h-32.063c-1.175,0-2.136-0.961-2.136-2.136V4.137
				C722,2.96,722.961,2,724.136,2H756.2c1.175,0,2.137,0.961,2.137,2.137L758.336,36.2L758.336,36.2z"/>
		</g>
		<path fill="#FFFFFF" d="M736.707,12.254c0.269,0,0.5,0.1,0.689,0.296l6.926,6.922c0.199,0.197,0.297,0.429,0.297,0.697
			c0,0.271-0.098,0.497-0.297,0.692l-6.926,6.926c-0.189,0.193-0.422,0.293-0.689,0.293c-0.27,0-0.506-0.1-0.697-0.293
			c-0.197-0.195-0.293-0.43-0.293-0.695V13.244c0-0.269,0.096-0.499,0.293-0.693C736.201,12.352,736.437,12.254,736.707,12.254z"/>
	</g>
	<g>
		<g>
			<path fill="#808081" d="M758.336,76.201c0,1.174-0.961,2.135-2.137,2.135h-32.063c-1.175,0-2.136-0.961-2.136-2.135V44.139
				c0-1.176,0.961-2.139,2.136-2.139h32.063c1.176,0,2.137,0.963,2.137,2.139V76.201L758.336,76.201z"/>
		</g>
		<path fill="#FFFFFF" d="M736.707,52.255c0.269,0,0.5,0.1,0.689,0.296l6.926,6.922c0.199,0.197,0.297,0.429,0.297,0.697
			c0,0.271-0.098,0.497-0.297,0.692l-6.926,6.926c-0.189,0.193-0.422,0.293-0.689,0.293c-0.27,0-0.506-0.1-0.697-0.293
			c-0.197-0.195-0.293-0.43-0.293-0.695V53.244c0-0.269,0.096-0.499,0.293-0.693C736.201,52.353,736.437,52.255,736.707,52.255z"/>
	</g>
	<g>
		<g>
			<path fill="#4F4F4F" d="M798.336,36.2c0,1.176-0.961,2.137-2.137,2.137h-32.063c-1.176,0-2.137-0.961-2.137-2.137V4.137
				C762,2.961,762.961,2,764.137,2h32.064c1.174,0,2.137,0.961,2.137,2.137L798.336,36.2L798.336,36.2z"/>
		</g>
		<path fill="#FFFFFF" d="M784.326,12.551c0.197,0.194,0.293,0.425,0.293,0.693v13.849c0,0.266-0.096,0.5-0.293,0.695
			c-0.191,0.193-0.428,0.293-0.697,0.293c-0.268,0-0.5-0.1-0.689-0.293l-6.926-6.926c-0.199-0.195-0.297-0.422-0.297-0.692
			c0-0.269,0.098-0.5,0.297-0.697l6.926-6.922c0.189-0.196,0.42-0.296,0.689-0.296S784.135,12.353,784.326,12.551z"/>
	</g>
	<g>
		<g>
			<path fill="#808081" d="M798.336,76.201c0,1.174-0.961,2.135-2.137,2.135h-32.063c-1.176,0-2.137-0.961-2.137-2.135V44.139
				c0-1.176,0.961-2.139,2.137-2.139h32.063c1.176,0,2.137,0.963,2.137,2.139V76.201L798.336,76.201z"/>
		</g>
		<path fill="#FFFFFF" d="M784.326,52.551c0.197,0.195,0.293,0.426,0.293,0.693v13.85c0,0.266-0.096,0.5-0.293,0.695
			c-0.191,0.193-0.428,0.293-0.697,0.293c-0.268,0-0.5-0.1-0.689-0.293l-6.926-6.926c-0.199-0.195-0.297-0.422-0.297-0.693
			c0-0.268,0.098-0.5,0.297-0.697l6.926-6.922c0.189-0.195,0.42-0.295,0.689-0.295S784.135,52.354,784.326,52.551z"/>
	</g>
</g>
</svg>
